<?xml version="1.0" encoding="UTF-8"?>
<svg width="212px" height="143px" viewBox="0 0 212 143" version="1.1" xmlns="http://www.w3.org/2000/svg" xmlns:xlink="http://www.w3.org/1999/xlink">
    <title>logo_eit</title>
    <g id="Symbols" stroke="none" stroke-width="1" fill="none" fill-rule="evenodd">
        <g id="Section_Clients-Partners" transform="translate(-172.000000, -560.000000)" fill-rule="nonzero">
            <g id="eit-digital-logo-white" transform="translate(173.000000, 560.000000)">
                <g id="Group">
                    <polygon id="Path" fill="#0D1E46" points="51.4178273 32.4662784 54.1671309 32.4662784 54.1671309 35.215582 51.4178273 35.215582"></polygon>
                    <polygon id="Path" fill="#0D1E46" points="51.4178273 37.9063898 54.1671309 37.9063898 54.1671309 59.5498439 51.4178273 59.5498439"></polygon>
                    <path d="M59.5487465,32.4662784 L62.2980501,32.4662784 L62.2980501,37.9063898 L73.1197772,37.9063898 L73.1197772,40.5971976 L62.2980501,40.5971976 L62.2980501,54.1682283 C62.2980501,54.8701781 62.5905292,55.572128 63.0584958,56.0985904 C63.5849582,56.6250528 64.2284123,56.9175319 64.9888579,56.9175319 L73.1197772,56.9175319 L73.1197772,59.6083397 L64.9888579,59.6083397 C62.005571,59.6083397 59.5487465,57.1515152 59.5487465,54.1682283 L59.5487465,40.5971976 L55.5125348,40.5971976 L55.5125348,37.9063898 L59.5487465,37.9063898 L59.5487465,32.4662784 Z" id="Path" fill="#0D1E46"></path>
                    <path d="M45.6852368,45.9788132 L27.551532,45.9788132 C27.6100279,43.9899553 28.0779944,42.5860556 29.0724234,41.8256099 C29.8328691,41.2406517 30.7103064,40.8311809 31.7047354,40.7141893 C33.3426184,40.4217102 34.9805014,40.3047185 36.6768802,40.3632144 C38.3147632,40.3047185 40.0111421,40.4217102 41.6490251,40.7141893 C42.5849582,40.8311809 43.5208914,41.2406517 44.281337,41.8256099 C45.1587744,42.6445514 45.6852368,43.9899553 45.6852368,45.9788132 Z M27.551532,48.7281169 L48.7270195,48.7281169 C48.7855153,46.9147464 48.6685237,45.1598717 48.3175487,43.3465013 C48.0835655,42.2350807 47.5571031,41.1821559 46.8551532,40.2462227 C45.9777159,39.1932979 44.7493036,38.4328522 43.4038997,38.1403731 C41.1225627,37.7309024 38.8412256,37.4969191 36.5013928,37.6139107 C34.1615599,37.5554149 31.821727,37.7309024 29.54039,38.1403731 C28.1949861,38.4328522 27.0250696,39.1932979 26.1476323,40.2462227 C25.3871866,41.12366 24.9192201,42.1765848 24.6852368,43.3465013 C24.0417827,46.8562506 24.0417827,50.4829915 24.6852368,53.9927408 C24.8607242,55.1626573 25.3871866,56.215582 26.1476323,57.0930194 C26.9665738,58.1459442 28.1949861,58.9063898 29.54039,59.198869 C31.0027855,59.6083397 33.2256267,59.7253314 36.5013928,59.7253314 C39.7771588,59.7253314 42,59.6083397 43.4038997,59.198869 C44.7493036,58.9063898 45.9777159,58.1459442 46.8551532,57.0930194 C47.3816156,56.3910695 47.7910864,55.572128 48.0835655,54.7531865 L44.8662953,54.7531865 C44.632312,55.0456656 44.3983287,55.3381447 44.1643454,55.572128 C43.4038997,56.1570862 42.4679666,56.5080612 41.5320334,56.6835486 C39.8941504,56.9175319 38.2562674,56.9760277 36.5598886,56.9760277 C34.9220056,57.0345236 33.2256267,56.9175319 31.5877437,56.6835486 C30.6518106,56.566557 29.7158774,56.1570862 28.9554318,55.572128 C28.1364903,54.8701781 27.6685237,53.7002617 27.4930362,52.1208745 C27.551532,51.0679497 27.551532,49.8395375 27.551532,48.7281169 L27.551532,48.7281169 Z" id="Shape" fill="#0D1E46"></path>
                    <path d="M48.7270195,97.4551364 C75.6350975,97.4551364 97.454039,75.6361949 97.454039,48.7281169 C97.454039,21.8200389 75.6350975,0.00109736858 48.7270195,0.00109736858 C40.1866295,-0.0573984532 31.7632312,2.22393859 24.3927577,6.5526294 L27.0835655,11.2322951 C33.6350975,7.43006673 41.1225627,5.44120879 48.7270195,5.44120879 C66.275766,5.44120879 82.0696379,15.9704567 88.7381616,32.1737993 C95.4066852,48.3771419 91.7214485,66.9788132 79.3788301,79.3799275 C67.0362117,91.7810417 48.3760446,95.4662784 32.1727019,88.7977548 C15.9693593,82.1292311 5.44011142,66.2768634 5.44011142,48.7281169 L0,48.7281169 C0.0584958217,75.6361949 21.8774373,97.4551364 48.7270195,97.4551364 L48.7270195,97.4551364 Z" id="Path" fill="#0D1E46"></path>
                    <path d="M48.7270195,86.6334093 C62.2980501,86.6334093 74.7576602,79.3799275 81.5431755,67.6807631 L76.8635097,64.9899553 C69.4930362,77.7420444 54.5181058,83.9426015 40.3036212,80.0818773 C26.0891365,76.2211531 16.2618384,63.4105681 16.2618384,48.7281169 C16.2618384,34.0456656 26.1476323,21.1765848 40.3036212,17.3743564 C54.45961,13.572128 69.4930362,19.7726851 76.8635097,32.4662784 L81.5431755,29.7754706 C72.3593315,13.8646071 53.0557103,6.84510851 35.7409471,13.1626573 C18.4261838,19.480206 8.24791086,37.20444 11.4651811,55.3381447 C14.6824513,73.4718495 30.3593315,86.6334093 48.7270195,86.6334093 L48.7270195,86.6334093 Z" id="Path" fill="#0D1E46"></path>
                    <g transform="translate(111.025070, 37.906390)" fill="#000000">
                        <path d="M0.0584958217,0 L14.6239554,0 C21.1754875,0 22.7548747,0.35097493 24.3342618,2.10584958 C25.7381616,3.62674095 26.1476323,5.73259053 26.1476323,10.821727 C26.1476323,15.6183844 25.5041783,18.3091922 23.9247911,19.8300836 C22.3454039,21.3509749 20.7660167,21.5849582 14.7994429,21.5849582 L3.3251025e-14,21.5849582 L3.3251025e-14,0 L0.0584958217,0 Z M14.6824513,19.1281337 C18.7771588,19.1281337 18.8941504,19.1281337 20.0640669,18.8356546 C22.3454039,18.3091922 23.281337,15.9693593 23.281337,10.7047354 C23.281337,7.37047354 22.8133705,5.08913649 21.994429,3.97771588 C21.2924791,3.15877437 20.2980501,2.74930362 18.367688,2.63231198 C17.7827298,2.57381616 16.8467967,2.57381616 14.5069638,2.57381616 L2.80779944,2.57381616 L2.80779944,19.1281337 L14.6824513,19.1281337 Z" id="Shape"></path>
                        <path d="M31.0027855,0 L31.0027855,2.80779944 L28.6629526,2.80779944 L28.6629526,0 L31.0027855,0 Z M31.0027855,6.61002786 L31.0027855,21.5849582 L28.6629526,21.5849582 L28.6629526,6.61002786 L31.0027855,6.61002786 Z" id="Shape"></path>
                        <path d="M52.4122563,6.61002786 L52.4122563,17.8412256 C52.4122563,22.4623955 52.1197772,24.1002786 51.0083565,25.3286908 C49.6629526,26.7910864 48.0250696,27.2005571 42.5264624,27.2005571 C37.6128134,27.2005571 35.5654596,26.6740947 34.3955432,25.0362117 C33.8690808,24.275766 33.6935933,23.7493036 33.6935933,22.3454039 L36.091922,22.3454039 C36.2674095,24.5682451 37.4958217,25.1532033 42.2339833,25.1532033 C46.6796657,25.1532033 48.3760446,24.8022284 49.1364903,23.8077994 C49.7799443,22.9888579 49.9554318,22.2284123 50.0724234,19.1281337 L49.8969359,19.1281337 C48.6100279,20.7660167 47.4401114,21.0584958 42.7604457,21.0584958 C38.6657382,21.0584958 36.6768802,20.7075209 35.5069638,19.7715877 C33.9860724,18.5431755 33.2841226,16.6713092 33.2841226,13.6880223 C33.2841226,10.178273 34.2785515,8.13091922 36.4428969,7.13649025 C37.729805,6.61002786 39.4261838,6.37604457 43.1699164,6.37604457 C46.4456825,6.37604457 47.4986072,6.55153203 48.551532,7.13649025 C49.1364903,7.48746518 49.6044568,7.95543175 49.9554318,8.48189415 L50.0724234,8.48189415 L50.0139276,6.55153203 L52.4122563,6.61002786 Z M37.4373259,9.30083565 C36.3844011,9.94428969 35.7994429,11.4066852 35.7994429,13.7465181 C35.7994429,16.3788301 36.4428969,17.7827298 37.8467967,18.4261838 C38.6657382,18.7771588 40.3036212,18.9526462 42.9359331,18.9526462 C46.2116992,18.9526462 47.7325905,18.718663 48.6100279,18.1337047 C49.6629526,17.3732591 50.0724234,16.0278552 50.0724234,13.5125348 C50.0724234,9.35933148 48.902507,8.48189415 43.2284123,8.48189415 C40.0696379,8.48189415 38.3732591,8.71587744 37.4373259,9.30083565 Z" id="Shape"></path>
                        <path d="M57.3844011,0 L57.3844011,2.80779944 L55.0445682,2.80779944 L55.0445682,0 L57.3844011,0 Z M57.3844011,6.61002786 L57.3844011,21.5849582 L55.0445682,21.5849582 L55.0445682,6.61002786 L57.3844011,6.61002786 Z" id="Shape"></path>
                        <path d="M64.5793872,2.92479109 L64.5793872,6.66852368 L74.816156,6.66852368 L74.816156,8.71587744 L64.5793872,8.71587744 L64.5793872,15.2089136 C64.637883,18.0752089 64.637883,18.1337047 65.1058496,18.7771588 C65.6908078,19.5376045 66.7437326,19.8300836 68.9665738,19.8300836 C71.0139276,19.8300836 71.8328691,19.5961003 72.3008357,18.7771588 C72.6518106,18.2506964 72.7688022,17.6657382 72.7688022,15.8523677 L72.7688022,14.8579387 L75.1086351,14.8579387 L75.1086351,15.7938719 C75.1086351,18.1337047 74.9331476,19.1281337 74.2896936,20.005571 C73.4122563,21.3509749 71.8328691,21.8774373 68.7325905,21.8774373 C65.632312,21.8774373 63.9359331,21.4094708 63.0584958,20.1810585 C62.4150418,19.2451253 62.2395543,18.3091922 62.2395543,15.9693593 L62.2395543,8.65738162 L58.6128134,8.65738162 L58.6128134,6.61002786 L62.2395543,6.61002786 L62.2395543,2.86629526 L64.5793872,2.92479109 Z" id="Path"></path>
                        <path d="M76.9220056,11.1142061 L76.9220056,10.4707521 C76.9220056,7.31197772 78.7938719,6.43454039 85.1699164,6.43454039 C90.1420613,6.43454039 91.8384401,6.78551532 93.0668524,8.13091922 C94.0612813,9.18384401 94.2952646,10.178273 94.2952646,13.7465181 L94.2952646,21.643454 L91.9554318,21.643454 L91.9554318,19.8885794 L91.9554318,19.8885794 C90.8440111,21.5264624 89.7910864,21.8189415 85.2869081,21.8189415 C80.0222841,21.8189415 78.6183844,21.643454 77.5654596,20.7660167 C76.6295265,20.005571 76.2785515,19.0696379 76.2785515,17.2562674 C76.2785515,14.9164345 76.8635097,13.7465181 78.3844011,13.1615599 C79.2618384,12.810585 80.6657382,12.6935933 83.7660167,12.6935933 C89.7910864,12.6935933 90.7855153,12.8690808 91.8384401,14.3314763 L92.0139276,14.3314763 L92.0139276,12.6935933 C92.0139276,11.1142061 91.8384401,10.4707521 91.3119777,9.82729805 C90.4930362,8.77437326 89.1476323,8.48189415 85.3454039,8.48189415 C80.3147632,8.48189415 79.4373259,8.83286908 79.3788301,10.9387187 L79.3788301,11.1142061 L76.9220056,11.1142061 Z M79.6128134,15.3259053 C79.0278552,15.7938719 78.6768802,16.5543175 78.735376,17.3147632 C78.735376,18.4261838 79.0278552,19.0111421 79.9052925,19.362117 C80.5487465,19.6545961 82.1866295,19.7715877 85.7548747,19.7715877 C90.6685237,19.7715877 91.8384401,19.3036212 91.8384401,17.2562674 C91.8384401,15.2089136 90.4345404,14.7994429 85.2869081,14.7994429 C81.4261838,14.7994429 80.3147632,14.9164345 79.6128134,15.3259053 L79.6128134,15.3259053 Z" id="Shape"></path>
                        <polygon id="Path" points="99.1504178 0 99.1504178 21.5849582 96.810585 21.5849582 96.810585 0"></polygon>
                    </g>
                </g>
                <g id="Group" transform="translate(52.119777, 113.249008)" fill="#575756">
                    <polygon id="Path" points="0 9.12534819 0 0.35097493 5.32311978 0.35097493 5.32311978 1.22841226 0.994428969 1.22841226 0.994428969 4.27019499 4.56267409 4.27019499 4.56267409 5.08913649 0.994428969 5.08913649 0.994428969 8.24791086 5.32311978 8.24791086 5.32311978 9.12534819"></polygon>
                    <polygon id="Path" points="6.96100279 9.12534819 6.96100279 0.35097493 7.95543175 0.35097493 7.95543175 9.12534819"></polygon>
                    <polygon id="Path" points="9.18384401 1.22841226 9.18384401 0.35097493 15.5013928 0.35097493 15.5013928 1.22841226 12.810585 1.22841226 12.810585 9.12534819 11.8746518 9.12534819 11.8746518 1.22841226"></polygon>
                    <path d="M22.637883,9.12534819 L19.5376045,9.12534819 L19.5376045,0.35097493 L22.637883,0.35097493 C24.0417827,0.35097493 25.0362117,0.935933148 25.4456825,2.04735376 C25.7381616,2.6908078 25.8551532,3.56824513 25.8551532,4.62116992 C25.8551532,6.84401114 25.3286908,8.18941504 24.2172702,8.77437326 C23.8077994,9.00835655 23.281337,9.12534819 22.637883,9.12534819 Z M24.8607242,4.62116992 C24.8607242,2.92479109 24.5097493,1.8718663 23.7493036,1.46239554 C23.4568245,1.28690808 23.0473538,1.22841226 22.637883,1.22841226 L20.4735376,1.22841226 L20.4735376,8.24791086 L22.637883,8.24791086 C24.1587744,8.24791086 24.8607242,7.01949861 24.8607242,4.62116992 Z" id="Shape"></path>
                    <path d="M27.4930362,1.3454039 L27.4930362,0.233983287 L28.4930362,0.233983287 L28.4930362,1.3454039 L27.4930362,1.3454039 Z M27.4930362,9.12534819 L27.4930362,2.80779944 L28.4930362,2.80779944 L28.4930362,9.12534819 L27.4930362,9.12534819 Z" id="Shape"></path>
                    <path d="M32.7576602,12.1086351 C31.7632312,12.1086351 31.0612813,11.9916435 30.6518106,11.6991643 C30.2423398,11.4066852 30.0668524,10.9387187 30.0668524,10.178273 C30.0668524,9.82729805 30.1253482,9.53481894 30.3008357,9.35933148 C30.4763231,9.12534819 30.7103064,8.8913649 31.0612813,8.65738162 C30.8272981,8.48189415 30.7103064,8.18941504 30.7103064,7.77994429 C30.7103064,7.66295265 30.8272981,7.37047354 31.0027855,6.96100279 L31.1197772,6.78551532 C30.4763231,6.49303621 30.1253482,5.84958217 30.1253482,4.8551532 C30.1253482,3.39275766 30.8857939,2.6908078 32.4651811,2.6908078 C32.8746518,2.6908078 33.2256267,2.74930362 33.5766017,2.80779944 L33.7520891,2.86629526 L35.6239554,2.80779944 L35.6239554,3.62674095 L34.3955432,3.62674095 C34.6880223,3.91922006 34.8050139,4.32869081 34.8050139,4.91364903 C34.8050139,5.73259053 34.6295265,6.25905292 34.2200557,6.55153203 C33.810585,6.84401114 33.2256267,7.01949861 32.3481894,7.01949861 C32.1142061,7.01949861 31.9387187,7.01949861 31.7047354,6.96100279 C31.5292479,7.31197772 31.4707521,7.545961 31.4707521,7.66295265 C31.4707521,7.89693593 31.5292479,8.0724234 31.7047354,8.13091922 C31.8802228,8.18941504 32.3481894,8.24791086 33.1671309,8.24791086 C33.9860724,8.24791086 34.5710306,8.36490251 34.9220056,8.59888579 C35.2729805,8.83286908 35.448468,9.35933148 35.448468,10.0612813 C35.5654596,11.4066852 34.6295265,12.1086351 32.7576602,12.1086351 Z M30.9442897,10.1197772 C30.9442897,10.5877437 31.0612813,10.8802228 31.2952646,11.0557103 C31.5292479,11.2311978 31.9972145,11.2896936 32.6991643,11.2896936 C33.4011142,11.2896936 33.8690808,11.1727019 34.1615599,10.9972145 C34.454039,10.821727 34.5710306,10.5292479 34.5710306,10.0612813 C34.5710306,9.65181058 34.454039,9.35933148 34.2785515,9.24233983 C34.0445682,9.12534819 33.6350975,9.06685237 33.0501393,9.06685237 L31.7047354,9.00835655 C31.4122563,9.18384401 31.2367688,9.35933148 31.1197772,9.53481894 C31.0027855,9.65181058 30.9442897,9.88579387 30.9442897,10.1197772 Z M31.0612813,4.79665738 C31.0612813,5.32311978 31.178273,5.67409471 31.4122563,5.84958217 C31.6462396,6.08356546 31.9972145,6.14206128 32.5236769,6.14206128 C33.0501393,6.14206128 33.4011142,6.02506964 33.6350975,5.84958217 C33.8690808,5.61559889 33.9860724,5.26462396 33.9860724,4.79665738 C33.9860724,4.27019499 33.8690808,3.91922006 33.6350975,3.74373259 C33.4011142,3.56824513 33.0501393,3.45125348 32.5236769,3.45125348 C31.9972145,3.45125348 31.6462396,3.56824513 31.4122563,3.80222841 C31.178273,3.97771588 31.0612813,4.32869081 31.0612813,4.79665738 Z" id="Shape"></path>
                    <path d="M36.7938719,1.3454039 L36.7938719,0.233983287 L37.7938719,0.233983287 L37.7938719,1.3454039 L36.7938719,1.3454039 Z M36.7938719,9.12534819 L36.7938719,2.80779944 L37.7938719,2.80779944 L37.7938719,9.12534819 L36.7938719,9.12534819 Z" id="Shape"></path>
                    <path d="M42.8189415,3.62674095 L40.8300836,3.62674095 L40.8300836,6.66852368 C40.8300836,7.37047354 40.8885794,7.89693593 41.005571,8.0724234 C41.1225627,8.30640669 41.356546,8.42339833 41.7660167,8.42339833 L42.8774373,8.36490251 L42.9359331,9.12534819 C42.3509749,9.24233983 41.9415042,9.24233983 41.6490251,9.24233983 C41.005571,9.24233983 40.5376045,9.06685237 40.3036212,8.77437326 C40.0696379,8.48189415 39.9526462,7.83844011 39.9526462,6.96100279 L39.9526462,3.62674095 L39.0752089,3.62674095 L39.0752089,2.80779944 L39.9526462,2.80779944 L39.9526462,0.818941504 L40.8885794,0.818941504 L40.8885794,2.74930362 L42.8774373,2.74930362 L42.8774373,3.62674095 L42.8189415,3.62674095 Z" id="Path"></path>
                    <path d="M48.4930362,4.67966574 L48.4930362,7.89693593 C48.4930362,8.18941504 48.7855153,8.42339833 49.2534819,8.48189415 L49.1949861,9.24233983 C48.551532,9.24233983 48.0250696,9.06685237 47.6740947,8.71587744 C46.913649,9.06685237 46.1532033,9.24233983 45.3927577,9.24233983 C44.8077994,9.24233983 44.3398329,9.06685237 44.0473538,8.77437326 C43.7548747,8.48189415 43.5793872,7.95543175 43.5793872,7.37047354 C43.5793872,6.7270195 43.7548747,6.31754875 44.0473538,6.02506964 C44.3398329,5.73259053 44.8662953,5.55710306 45.5097493,5.49860724 L47.4986072,5.32311978 L47.4986072,4.79665738 C47.4986072,4.38718663 47.3816156,4.0362117 47.2061281,3.86072423 C47.0306407,3.68523677 46.7381616,3.56824513 46.4456825,3.56824513 C45.7437326,3.56824513 45.0417827,3.62674095 44.3398329,3.68523677 L43.9303621,3.74373259 L43.8718663,3.04178273 C44.8077994,2.86629526 45.6267409,2.74930362 46.3286908,2.74930362 C47.0306407,2.74930362 47.5571031,2.92479109 47.908078,3.21727019 C48.3175487,3.45125348 48.4930362,3.97771588 48.4930362,4.67966574 Z M44.5738162,7.25348189 C44.5738162,8.01392758 44.8662953,8.42339833 45.5097493,8.42339833 C46.0947075,8.42339833 46.6211699,8.30640669 47.2061281,8.13091922 L47.4986072,8.01392758 L47.4986072,5.90807799 L45.6267409,6.08356546 C45.275766,6.14206128 44.9832869,6.2005571 44.8077994,6.43454039 C44.632312,6.66852368 44.5738162,6.90250696 44.5738162,7.25348189 Z" id="Shape"></path>
                    <polygon id="Path" points="50.4233983 9.12534819 50.4233983 0.0584958217 51.3593315 0.0584958217 51.3593315 9.12534819"></polygon>
                    <path d="M56.0389972,1.3454039 L56.0389972,0.233983287 L57.0389972,0.233983287 L57.0389972,1.3454039 L56.0389972,1.3454039 Z M56.0389972,9.12534819 L56.0389972,2.80779944 L57.0389972,2.80779944 L57.0389972,9.12534819 L56.0389972,9.12534819 Z" id="Shape"></path>
                    <path d="M60.8356546,3.5097493 C59.8997214,3.5097493 59.4317549,3.80222841 59.4317549,4.44568245 C59.4317549,4.73816156 59.5487465,4.97214485 59.724234,5.08913649 C59.8997214,5.20612813 60.4261838,5.32311978 61.1866295,5.44011142 C61.9470752,5.55710306 62.4735376,5.73259053 62.7660167,5.96657382 C63.0584958,6.2005571 63.2339833,6.66852368 63.2339833,7.31197772 C63.2339833,7.95543175 63,8.42339833 62.5905292,8.71587744 C62.1810585,9.00835655 61.5376045,9.18384401 60.7771588,9.18384401 C60.2506964,9.18384401 59.6657382,9.12534819 58.9052925,9.00835655 L58.5543175,8.94986072 L58.6128134,8.13091922 C59.5487465,8.24791086 60.3091922,8.36490251 60.7771588,8.36490251 C61.2451253,8.36490251 61.6545961,8.30640669 61.8885794,8.13091922 C62.1225627,7.95543175 62.2980501,7.72144847 62.2980501,7.37047354 C62.2980501,7.01949861 62.1810585,6.7270195 61.9470752,6.61002786 C61.7130919,6.49303621 61.2451253,6.37604457 60.4846797,6.25905292 C59.724234,6.14206128 59.1977716,5.96657382 58.9052925,5.73259053 C58.6128134,5.49860724 58.4373259,5.08913649 58.4373259,4.44568245 C58.4373259,3.80222841 58.6713092,3.39275766 59.0807799,3.10027855 C59.4902507,2.80779944 60.0752089,2.63231198 60.718663,2.63231198 C61.2451253,2.63231198 61.8885794,2.6908078 62.6490251,2.80779944 L63,2.86629526 L63,3.68523677 C62.0640669,3.56824513 61.362117,3.5097493 60.8356546,3.5097493 Z" id="Path"></path>
                    <path d="M69.4930362,3.5097493 C68.5571031,3.5097493 68.0891365,3.80222841 68.0891365,4.44568245 C68.0891365,4.73816156 68.2061281,4.97214485 68.3816156,5.08913649 C68.5571031,5.20612813 69.0835655,5.32311978 69.8440111,5.44011142 C70.6044568,5.55710306 71.1309192,5.73259053 71.4233983,5.96657382 C71.7158774,6.2005571 71.8913649,6.66852368 71.8913649,7.31197772 C71.8913649,7.95543175 71.6573816,8.42339833 71.2479109,8.71587744 C70.8384401,9.00835655 70.1949861,9.18384401 69.4345404,9.18384401 C68.908078,9.18384401 68.3231198,9.12534819 67.5626741,9.00835655 L67.2116992,9.00835655 L67.270195,8.18941504 C68.2061281,8.30640669 68.9665738,8.42339833 69.4345404,8.42339833 C69.902507,8.42339833 70.3119777,8.36490251 70.545961,8.18941504 C70.7799443,8.01392758 70.9554318,7.77994429 70.9554318,7.42896936 C70.9554318,7.07799443 70.8384401,6.78551532 70.6044568,6.66852368 C70.3704735,6.55153203 69.902507,6.43454039 69.1420613,6.31754875 C68.3816156,6.2005571 67.8551532,6.02506964 67.5626741,5.79108635 C67.270195,5.55710306 67.0947075,5.14763231 67.0947075,4.50417827 C67.0947075,3.86072423 67.3286908,3.45125348 67.7381616,3.15877437 C68.1476323,2.86629526 68.7325905,2.6908078 69.3760446,2.6908078 C69.902507,2.6908078 70.545961,2.74930362 71.3064067,2.86629526 L71.6573816,2.92479109 L71.6573816,3.74373259 C70.7799443,3.56824513 70.0194986,3.5097493 69.4930362,3.5097493 Z" id="Path"></path>
                    <path d="M77.3314763,2.80779944 L78.2674095,2.80779944 L78.2674095,9.12534819 L77.3314763,9.12534819 L77.3314763,8.65738162 C76.6880223,9.00835655 76.1030641,9.24233983 75.45961,9.24233983 C74.5821727,9.24233983 74.0557103,9.00835655 73.7632312,8.59888579 C73.4707521,8.13091922 73.3537604,7.31197772 73.3537604,6.14206128 L73.3537604,2.86629526 L74.2896936,2.86629526 L74.2896936,6.14206128 C74.2896936,7.07799443 74.3481894,7.66295265 74.5236769,8.01392758 C74.6991643,8.30640669 75.0501393,8.48189415 75.6350975,8.48189415 C75.9275766,8.48189415 76.2200557,8.42339833 76.454039,8.36490251 C76.6880223,8.30640669 76.9805014,8.18941504 77.097493,8.13091922 L77.3314763,8.01392758 L77.3314763,2.80779944 L77.3314763,2.80779944 Z" id="Path"></path>
                    <path d="M80.0807799,11.9331476 L80.0807799,2.80779944 L81.0167131,2.80779944 L81.0167131,3.27576602 C81.6601671,2.86629526 82.3036212,2.6908078 82.8885794,2.6908078 C83.7075209,2.6908078 84.2924791,2.92479109 84.643454,3.45125348 C84.994429,3.97771588 85.1699164,4.79665738 85.1699164,5.96657382 C85.1699164,7.13649025 84.9359331,7.95543175 84.5264624,8.48189415 C84.1169916,9.00835655 83.4150418,9.24233983 82.4206128,9.24233983 C81.8941504,9.24233983 81.4261838,9.18384401 81.0167131,9.12534819 L81.0167131,11.9331476 L80.0807799,11.9331476 L80.0807799,11.9331476 Z M82.7715877,3.5097493 C82.5376045,3.5097493 82.2451253,3.56824513 81.9526462,3.62674095 C81.6601671,3.68523677 81.4261838,3.80222841 81.2506964,3.86072423 L81.0167131,3.97771588 L81.0167131,8.24791086 C81.6016713,8.36490251 82.0696379,8.36490251 82.362117,8.36490251 C83.0640669,8.36490251 83.5320334,8.18941504 83.8245125,7.77994429 C84.1169916,7.37047354 84.2339833,6.78551532 84.2339833,5.90807799 C84.2339833,5.03064067 84.1169916,4.38718663 83.8830084,4.0362117 C83.6490251,3.68523677 83.2980501,3.5097493 82.7715877,3.5097493 Z" id="Shape"></path>
                    <path d="M86.7493036,11.9331476 L86.7493036,2.80779944 L87.6852368,2.80779944 L87.6852368,3.27576602 C88.3286908,2.86629526 88.9721448,2.6908078 89.5571031,2.6908078 C90.3760446,2.6908078 90.9610028,2.92479109 91.3119777,3.45125348 C91.6629526,3.97771588 91.8384401,4.79665738 91.8384401,5.96657382 C91.8384401,7.13649025 91.6044568,7.95543175 91.1949861,8.48189415 C90.7855153,9.00835655 90.0835655,9.24233983 89.0891365,9.24233983 C88.5626741,9.24233983 88.0947075,9.18384401 87.6852368,9.12534819 L87.6852368,11.9331476 L86.7493036,11.9331476 L86.7493036,11.9331476 Z M89.4401114,3.5097493 C89.2061281,3.5097493 88.913649,3.56824513 88.6211699,3.62674095 C88.3286908,3.68523677 88.0947075,3.80222841 87.9192201,3.86072423 L87.6852368,3.97771588 L87.6852368,8.24791086 C88.270195,8.36490251 88.7381616,8.36490251 89.0306407,8.36490251 C89.7325905,8.36490251 90.2005571,8.18941504 90.4930362,7.77994429 C90.7855153,7.37047354 90.902507,6.78551532 90.902507,5.90807799 C90.902507,5.03064067 90.7855153,4.38718663 90.551532,4.0362117 C90.3175487,3.68523677 89.9665738,3.5097493 89.4401114,3.5097493 Z" id="Shape"></path>
                    <path d="M93.1253482,5.90807799 C93.1253482,4.73816156 93.3593315,3.91922006 93.7688022,3.39275766 C94.178273,2.86629526 94.8802228,2.63231198 95.8746518,2.63231198 C96.8690808,2.63231198 97.5710306,2.86629526 97.9805014,3.39275766 C98.3899721,3.91922006 98.5654596,4.73816156 98.5654596,5.90807799 C98.5654596,7.07799443 98.3899721,7.89693593 97.9805014,8.42339833 C97.5710306,8.94986072 96.8690808,9.18384401 95.8746518,9.18384401 C94.821727,9.18384401 94.1197772,8.94986072 93.7688022,8.42339833 C93.3593315,7.95543175 93.1253482,7.07799443 93.1253482,5.90807799 Z M94.1197772,5.90807799 C94.1197772,6.84401114 94.2367688,7.48746518 94.4707521,7.83844011 C94.7047354,8.18941504 95.1727019,8.42339833 95.8746518,8.42339833 C96.5766017,8.42339833 97.0445682,8.24791086 97.2785515,7.89693593 C97.5125348,7.545961 97.6295265,6.90250696 97.6295265,5.96657382 C97.6295265,5.03064067 97.5125348,4.38718663 97.2785515,4.0362117 C97.0445682,3.68523677 96.5766017,3.5097493 95.9331476,3.5097493 C95.2896936,3.5097493 94.821727,3.68523677 94.5877437,4.0362117 C94.2367688,4.32869081 94.1197772,4.97214485 94.1197772,5.90807799 Z" id="Shape"></path>
                    <path d="M100.086351,9.12534819 L100.086351,2.80779944 L101.022284,2.80779944 L101.022284,3.68523677 C101.78273,3.15877437 102.543175,2.86629526 103.362117,2.6908078 L103.362117,3.62674095 C103.011142,3.68523677 102.660167,3.80222841 102.250696,3.91922006 C101.841226,4.0362117 101.548747,4.21169916 101.373259,4.27019499 L101.08078,4.44568245 L101.08078,9.06685237 L100.086351,9.06685237 L100.086351,9.12534819 Z" id="Path"></path>
                    <path d="M107.749304,3.62674095 L105.760446,3.62674095 L105.760446,6.66852368 C105.760446,7.37047354 105.818942,7.89693593 105.935933,8.0724234 C106.052925,8.30640669 106.286908,8.42339833 106.696379,8.42339833 L107.807799,8.36490251 L107.866295,9.12534819 C107.281337,9.24233983 106.871866,9.24233983 106.579387,9.24233983 C105.935933,9.24233983 105.467967,9.06685237 105.233983,8.77437326 C105,8.48189415 104.883008,7.83844011 104.883008,6.96100279 L104.883008,3.62674095 L104.005571,3.62674095 L104.005571,2.80779944 L104.883008,2.80779944 L104.883008,0.818941504 L105.818942,0.818941504 L105.818942,2.74930362 L107.807799,2.74930362 L107.807799,3.62674095 L107.749304,3.62674095 Z" id="Path"></path>
                    <path d="M113.247911,8.30640669 L113.598886,8.24791086 L113.598886,9.00835655 C112.662953,9.12534819 111.844011,9.18384401 111.142061,9.18384401 C110.206128,9.18384401 109.562674,8.8913649 109.211699,8.36490251 C108.860724,7.83844011 108.626741,7.01949861 108.626741,5.90807799 C108.626741,3.68523677 109.504178,2.57381616 111.259053,2.57381616 C112.13649,2.57381616 112.721448,2.80779944 113.189415,3.27576602 C113.598886,3.74373259 113.832869,4.50417827 113.832869,5.49860724 L113.774373,6.2005571 L109.62117,6.2005571 C109.62117,6.90250696 109.738162,7.42896936 109.972145,7.77994429 C110.206128,8.13091922 110.674095,8.30640669 111.317549,8.30640669 C111.961003,8.30640669 112.604457,8.36490251 113.247911,8.30640669 Z M112.896936,5.55710306 C112.896936,4.79665738 112.779944,4.21169916 112.545961,3.91922006 C112.311978,3.62674095 111.902507,3.45125348 111.317549,3.45125348 C110.732591,3.45125348 110.32312,3.62674095 110.030641,3.97771588 C109.738162,4.32869081 109.62117,4.8551532 109.62117,5.61559889 L112.896936,5.61559889 L112.896936,5.55710306 Z" id="Shape"></path>
                    <path d="M120.208914,0 L120.208914,9.06685237 L119.272981,9.06685237 L119.272981,8.65738162 C118.629526,9.00835655 117.986072,9.24233983 117.342618,9.24233983 C116.991643,9.24233983 116.699164,9.18384401 116.465181,9.12534819 C116.231198,9.06685237 115.997214,8.8913649 115.763231,8.65738162 C115.295265,8.18941504 115.061281,7.37047354 115.061281,6.14206128 C115.061281,4.91364903 115.236769,4.0362117 115.64624,3.5097493 C116.05571,2.98328691 116.75766,2.6908078 117.693593,2.6908078 C118.16156,2.6908078 118.688022,2.74930362 119.272981,2.86629526 L119.272981,0.0584958217 L120.208914,0.0584958217 L120.208914,0 Z M116.874652,8.30640669 C117.050139,8.36490251 117.225627,8.42339833 117.45961,8.42339833 C117.693593,8.42339833 117.986072,8.36490251 118.278552,8.30640669 C118.571031,8.24791086 118.805014,8.13091922 118.980501,8.0724234 L119.214485,7.95543175 L119.214485,3.68523677 C118.688022,3.56824513 118.16156,3.5097493 117.693593,3.5097493 C117.050139,3.5097493 116.582173,3.68523677 116.348189,4.09470752 C116.114206,4.50417827 115.997214,5.14763231 115.997214,6.02506964 C115.997214,7.01949861 116.172702,7.66295265 116.465181,8.01392758 C116.582173,8.13091922 116.75766,8.24791086 116.874652,8.30640669 Z" id="Shape"></path>
                    <path d="M127.579387,2.63231198 C128.456825,2.63231198 129.041783,2.86629526 129.392758,3.33426184 C129.743733,3.80222841 129.91922,4.67966574 129.91922,5.90807799 C129.91922,7.13649025 129.685237,7.95543175 129.275766,8.48189415 C128.866295,8.94986072 128.047354,9.24233983 126.935933,9.24233983 C126.584958,9.24233983 126,9.18384401 125.181058,9.12534819 L124.830084,9.06685237 L124.830084,1.66255125e-14 L125.766017,1.66255125e-14 L125.766017,3.10027855 C126.350975,2.80779944 126.994429,2.63231198 127.579387,2.63231198 Z M126.877437,8.36490251 C127.696379,8.36490251 128.222841,8.18941504 128.51532,7.77994429 C128.807799,7.42896936 128.924791,6.78551532 128.924791,5.84958217 C128.924791,4.91364903 128.807799,4.32869081 128.632312,3.97771588 C128.398329,3.62674095 128.047354,3.45125348 127.520891,3.45125348 C127.052925,3.45125348 126.526462,3.56824513 126,3.74373259 L125.766017,3.86072423 L125.766017,8.30640669 C126.292479,8.36490251 126.643454,8.36490251 126.877437,8.36490251 Z" id="Shape"></path>
                    <polygon id="Path" points="130.738162 2.80779944 131.674095 2.80779944 133.253482 8.30640669 133.662953 8.30640669 135.24234 2.80779944 136.178273 2.80779944 133.545961 11.9331476 132.610028 11.9331476 133.428969 9.12534819 132.493036 9.12534819"></polygon>
                    <polygon id="Path" points="140.389972 9.12534819 140.389972 0.35097493 145.713092 0.35097493 145.713092 1.22841226 141.384401 1.22841226 141.384401 4.27019499 144.952646 4.27019499 144.952646 5.08913649 141.384401 5.08913649 141.384401 8.24791086 145.713092 8.24791086 145.713092 9.12534819"></polygon>
                    <polygon id="Path" points="147.409471 9.12534819 147.409471 0.35097493 148.4039 0.35097493 148.4039 9.12534819"></polygon>
                    <polygon id="Path" points="149.573816 1.22841226 149.573816 0.35097493 155.891365 0.35097493 155.891365 1.22841226 153.200557 1.22841226 153.200557 9.12534819 152.264624 9.12534819 152.264624 1.22841226"></polygon>
                    <polygon id="Path" points="155.715877 10.6462396 156.300836 7.72144847 157.35376 7.72144847 156.476323 10.6462396"></polygon>
                </g>
                <g id="Group" transform="translate(51.476323, 130.856251)" fill="#575756">
                    <path d="M4.91364903,4.79665738 L4.91364903,8.01392758 C4.91364903,8.30640669 5.20612813,8.54038997 5.67409471,8.59888579 L5.61559889,9.35933148 C4.97214485,9.35933148 4.44568245,9.18384401 4.09470752,8.83286908 C3.33426184,9.18384401 2.57381616,9.35933148 1.81337047,9.35933148 C1.22841226,9.35933148 0.760445682,9.18384401 0.467966574,8.8913649 C0.175487465,8.59888579 -8.31275624e-15,8.0724234 -8.31275624e-15,7.48746518 C-8.31275624e-15,6.90250696 0.175487465,6.43454039 0.467966574,6.14206128 C0.760445682,5.84958217 1.28690808,5.67409471 1.93036212,5.61559889 L3.91922006,5.44011142 L3.91922006,4.91364903 C3.91922006,4.50417827 3.80222841,4.15320334 3.62674095,3.97771588 C3.45125348,3.80222841 3.15877437,3.68523677 2.86629526,3.68523677 C2.1643454,3.68523677 1.46239554,3.74373259 0.760445682,3.80222841 L0.35097493,3.86072423 L0.292479109,3.15877437 C1.22841226,2.98328691 2.04735376,2.86629526 2.74930362,2.86629526 C3.45125348,2.86629526 3.97771588,3.04178273 4.32869081,3.33426184 C4.73816156,3.56824513 4.91364903,4.09470752 4.91364903,4.79665738 Z M0.994428969,7.37047354 C0.994428969,8.13091922 1.28690808,8.54038997 1.93036212,8.54038997 C2.51532033,8.54038997 3.04178273,8.42339833 3.62674095,8.24791086 L3.91922006,8.13091922 L3.91922006,6.02506964 L2.04735376,6.2005571 C1.69637883,6.25905292 1.40389972,6.31754875 1.22841226,6.55153203 C1.11142061,6.78551532 0.994428969,7.01949861 0.994428969,7.37047354 Z" id="Shape"></path>
                    <path d="M12.3426184,2.74930362 C13.2200557,2.74930362 13.8050139,2.98328691 14.1559889,3.45125348 C14.5069638,3.91922006 14.6824513,4.79665738 14.6824513,6.02506964 C14.6824513,7.25348189 14.448468,8.0724234 14.0389972,8.59888579 C13.6295265,9.06685237 12.810585,9.35933148 11.6991643,9.35933148 C11.3481894,9.35933148 10.7632312,9.30083565 9.94428969,9.24233983 L9.59331476,9.18384401 L9.59331476,0.116991643 L10.5292479,0.116991643 L10.5292479,3.21727019 C11.1727019,2.92479109 11.7576602,2.74930362 12.3426184,2.74930362 Z M11.6991643,8.48189415 C12.5181058,8.48189415 13.0445682,8.30640669 13.3370474,7.89693593 C13.6295265,7.48746518 13.7465181,6.90250696 13.7465181,5.96657382 C13.7465181,5.03064067 13.6295265,4.44568245 13.454039,4.09470752 C13.2200557,3.74373259 12.8690808,3.56824513 12.3426184,3.56824513 C11.8746518,3.56824513 11.3481894,3.68523677 10.821727,3.86072423 L10.5877437,3.97771588 L10.5877437,8.42339833 C11.0557103,8.48189415 11.4651811,8.48189415 11.6991643,8.48189415 Z" id="Shape"></path>
                    <path d="M15.9693593,6.02506964 C15.9693593,4.8551532 16.2033426,4.0362117 16.6128134,3.5097493 C17.0222841,2.98328691 17.724234,2.74930362 18.718663,2.74930362 C19.7130919,2.74930362 20.4150418,2.98328691 20.8245125,3.5097493 C21.2339833,4.0362117 21.4094708,4.8551532 21.4094708,6.02506964 C21.4094708,7.19498607 21.2339833,8.01392758 20.8245125,8.54038997 C20.4150418,9.06685237 19.7130919,9.30083565 18.718663,9.30083565 C17.6657382,9.30083565 16.9637883,9.06685237 16.6128134,8.54038997 C16.1448468,8.01392758 15.9693593,7.19498607 15.9693593,6.02506964 Z M16.9052925,6.02506964 C16.9052925,6.96100279 17.0222841,7.60445682 17.2562674,7.95543175 C17.4902507,8.30640669 17.9582173,8.54038997 18.6601671,8.54038997 C19.362117,8.54038997 19.8300836,8.36490251 20.0640669,8.01392758 C20.2980501,7.66295265 20.4150418,7.01949861 20.4150418,6.08356546 C20.4150418,5.14763231 20.2980501,4.50417827 20.0640669,4.15320334 C19.8300836,3.80222841 19.362117,3.62674095 18.718663,3.62674095 C18.0752089,3.62674095 17.6072423,3.80222841 17.3732591,4.15320334 C17.1392758,4.50417827 16.9052925,5.08913649 16.9052925,6.02506964 Z" id="Shape"></path>
                    <path d="M27.7855153,0.116991643 L27.7855153,9.18384401 L26.8495822,9.18384401 L26.8495822,8.77437326 C26.2061281,9.12534819 25.5626741,9.35933148 24.9192201,9.35933148 C24.5682451,9.35933148 24.275766,9.30083565 24.0417827,9.24233983 C23.8077994,9.18384401 23.5738162,9.00835655 23.3398329,8.77437326 C22.8718663,8.30640669 22.637883,7.48746518 22.637883,6.25905292 C22.637883,5.03064067 22.8133705,4.15320334 23.2228412,3.62674095 C23.632312,3.10027855 24.3342618,2.80779944 25.270195,2.80779944 C25.7381616,2.80779944 26.264624,2.86629526 26.8495822,2.98328691 L26.8495822,0.175487465 L27.7855153,0.175487465 L27.7855153,0.116991643 Z M24.5097493,8.42339833 C24.6852368,8.48189415 24.8607242,8.54038997 25.0947075,8.54038997 C25.3286908,8.54038997 25.6211699,8.48189415 25.913649,8.42339833 C26.2061281,8.36490251 26.4401114,8.24791086 26.6155989,8.18941504 L26.8495822,8.0724234 L26.8495822,3.80222841 C26.3231198,3.68523677 25.7966574,3.62674095 25.3286908,3.62674095 C24.6852368,3.62674095 24.2172702,3.80222841 23.9832869,4.21169916 C23.7493036,4.62116992 23.632312,5.26462396 23.632312,6.14206128 C23.632312,7.13649025 23.8077994,7.77994429 24.1002786,8.13091922 C24.1587744,8.24791086 24.3342618,8.36490251 24.5097493,8.42339833 Z" id="Shape"></path>
                    <polygon id="Path" points="29.0139276 2.86629526 29.9498607 2.86629526 31.5292479 8.36490251 31.9387187 8.36490251 33.5181058 2.86629526 34.454039 2.86629526 31.821727 11.9916435 30.8857939 11.9916435 31.7047354 9.18384401 30.7688022 9.18384401"></polygon>
                    <path d="M38.1977716,6.02506964 C38.1977716,4.8551532 38.4317549,4.0362117 38.8412256,3.5097493 C39.2506964,2.98328691 39.9526462,2.74930362 40.9470752,2.74930362 C41.9415042,2.74930362 42.643454,2.98328691 43.0529248,3.5097493 C43.4623955,4.0362117 43.637883,4.8551532 43.637883,6.02506964 C43.637883,7.19498607 43.4623955,8.01392758 43.0529248,8.54038997 C42.643454,9.06685237 41.9415042,9.30083565 40.9470752,9.30083565 C39.8941504,9.30083565 39.1922006,9.06685237 38.8412256,8.54038997 C38.4317549,8.01392758 38.1977716,7.19498607 38.1977716,6.02506964 Z M39.1922006,6.02506964 C39.1922006,6.96100279 39.3091922,7.60445682 39.5431755,7.95543175 C39.7771588,8.30640669 40.2451253,8.54038997 40.9470752,8.54038997 C41.6490251,8.54038997 42.1169916,8.36490251 42.3509749,8.01392758 C42.5849582,7.66295265 42.7019499,7.01949861 42.7019499,6.08356546 C42.7019499,5.14763231 42.5849582,4.50417827 42.3509749,4.15320334 C42.1169916,3.80222841 41.6490251,3.62674095 41.005571,3.62674095 C40.362117,3.62674095 39.8941504,3.80222841 39.6601671,4.15320334 C39.4261838,4.50417827 39.1922006,5.08913649 39.1922006,6.02506964 Z" id="Shape"></path>
                    <path d="M46.3871866,3.68523677 L46.3871866,9.18384401 L45.4512535,9.18384401 L45.4512535,3.68523677 L44.632312,3.68523677 L44.632312,2.86629526 L45.4512535,2.86629526 L45.4512535,2.28133705 C45.4512535,1.40389972 45.5682451,0.760445682 45.8022284,0.467966574 C46.0362117,0.116991643 46.5041783,0 47.1476323,0 L48.4345404,0.116991643 L48.4345404,0.877437326 C47.9665738,0.877437326 47.5571031,0.877437326 47.264624,0.877437326 C46.9721448,0.877437326 46.7381616,0.994428969 46.6211699,1.16991643 C46.5041783,1.3454039 46.4456825,1.75487465 46.4456825,2.33983287 L46.4456825,2.92479109 L48.2590529,2.92479109 L48.2590529,3.74373259 L46.3871866,3.74373259 L46.3871866,3.68523677 Z" id="Path"></path>
                    <path d="M55.454039,3.68523677 L53.4651811,3.68523677 L53.4651811,6.7270195 C53.4651811,7.42896936 53.5236769,7.95543175 53.6406685,8.13091922 C53.7576602,8.36490251 53.9916435,8.48189415 54.4011142,8.48189415 L55.5125348,8.42339833 L55.5710306,9.18384401 C54.9860724,9.30083565 54.5766017,9.30083565 54.2841226,9.30083565 C53.6406685,9.30083565 53.1727019,9.12534819 52.9387187,8.83286908 C52.7047354,8.54038997 52.5877437,7.89693593 52.5877437,7.01949861 L52.5877437,3.68523677 L51.7103064,3.68523677 L51.7103064,2.86629526 L52.5877437,2.86629526 L52.5877437,0.935933148 L53.5236769,0.935933148 L53.5236769,2.86629526 L55.5125348,2.86629526 L55.5125348,3.68523677 L55.454039,3.68523677 Z" id="Path"></path>
                    <path d="M57.5598886,9.24233983 L56.6239554,9.24233983 L56.6239554,0.175487465 L57.5598886,0.175487465 L57.5598886,3.27576602 C58.2618384,2.98328691 58.9052925,2.80779944 59.4902507,2.80779944 C60.3091922,2.80779944 60.8941504,3.04178273 61.1866295,3.5097493 C61.4791086,3.97771588 61.5961003,4.79665738 61.5961003,5.96657382 L61.5961003,9.30083565 L60.6601671,9.30083565 L60.6601671,5.96657382 C60.6601671,5.08913649 60.6016713,4.50417827 60.4261838,4.15320334 C60.2506964,3.80222841 59.8997214,3.68523677 59.3147632,3.68523677 C58.7883008,3.68523677 58.2618384,3.80222841 57.7938719,3.97771588 L57.5598886,4.09470752 L57.5598886,9.24233983 Z" id="Path"></path>
                    <path d="M67.6796657,8.42339833 L68.0306407,8.36490251 L68.0306407,9.12534819 C67.0947075,9.24233983 66.275766,9.30083565 65.5738162,9.30083565 C64.637883,9.30083565 63.994429,9.00835655 63.643454,8.48189415 C63.2924791,7.95543175 63.0584958,7.13649025 63.0584958,6.02506964 C63.0584958,3.80222841 63.9359331,2.6908078 65.6908078,2.6908078 C66.5682451,2.6908078 67.1532033,2.92479109 67.6211699,3.39275766 C68.0306407,3.86072423 68.264624,4.62116992 68.264624,5.61559889 L68.2061281,6.31754875 L64.0529248,6.31754875 C64.0529248,7.01949861 64.1699164,7.545961 64.4038997,7.89693593 C64.637883,8.24791086 65.1058496,8.42339833 65.7493036,8.42339833 C66.3927577,8.42339833 67.0362117,8.48189415 67.6796657,8.42339833 Z M67.3286908,5.67409471 C67.3286908,4.91364903 67.2116992,4.32869081 66.9777159,4.0362117 C66.7437326,3.74373259 66.3342618,3.56824513 65.7493036,3.56824513 C65.1643454,3.56824513 64.7548747,3.74373259 64.4623955,4.09470752 C64.1699164,4.44568245 64.0529248,4.97214485 64.0529248,5.73259053 L67.3286908,5.73259053 L67.3286908,5.67409471 Z" id="Shape"></path>
                    <polygon id="Path" points="72.7103064 9.24233983 72.7103064 0.467966574 78.0334262 0.467966574 78.0334262 1.3454039 73.7047354 1.3454039 73.7047354 4.38718663 77.2729805 4.38718663 77.2729805 5.20612813 73.7047354 5.20612813 73.7047354 8.36490251 78.0334262 8.36490251 78.0334262 9.24233983"></polygon>
                    <path d="M83.4150418,2.86629526 L84.3509749,2.86629526 L84.3509749,9.18384401 L83.4150418,9.18384401 L83.4150418,8.71587744 C82.7715877,9.06685237 82.1866295,9.30083565 81.5431755,9.30083565 C80.6657382,9.30083565 80.1392758,9.06685237 79.8467967,8.65738162 C79.5543175,8.18941504 79.4373259,7.37047354 79.4373259,6.2005571 L79.4373259,2.92479109 L80.3732591,2.92479109 L80.3732591,6.2005571 C80.3732591,7.13649025 80.4317549,7.72144847 80.6072423,8.0724234 C80.7827298,8.36490251 81.1337047,8.54038997 81.718663,8.54038997 C82.0111421,8.54038997 82.3036212,8.48189415 82.5376045,8.42339833 C82.7715877,8.36490251 83.0640669,8.24791086 83.1810585,8.18941504 L83.4150418,8.0724234 L83.4150418,2.86629526 L83.4150418,2.86629526 Z" id="Path"></path>
                    <path d="M86.1643454,9.24233983 L86.1643454,2.92479109 L87.1002786,2.92479109 L87.1002786,3.80222841 C87.8607242,3.27576602 88.6211699,2.98328691 89.4401114,2.80779944 L89.4401114,3.74373259 C89.0891365,3.80222841 88.7381616,3.91922006 88.3286908,4.0362117 C87.9192201,4.15320334 87.6267409,4.32869081 87.4512535,4.38718663 L87.1587744,4.56267409 L87.1587744,9.18384401 L86.1643454,9.18384401 L86.1643454,9.24233983 Z" id="Path"></path>
                    <path d="M90.1420613,6.02506964 C90.1420613,4.8551532 90.3760446,4.0362117 90.7855153,3.5097493 C91.1949861,2.98328691 91.8969359,2.74930362 92.8913649,2.74930362 C93.8857939,2.74930362 94.5877437,2.98328691 94.9972145,3.5097493 C95.4066852,4.0362117 95.5821727,4.8551532 95.5821727,6.02506964 C95.5821727,7.19498607 95.4066852,8.01392758 94.9972145,8.54038997 C94.5877437,9.06685237 93.8857939,9.30083565 92.8913649,9.30083565 C91.8384401,9.30083565 91.1364903,9.06685237 90.7855153,8.54038997 C90.3175487,8.01392758 90.1420613,7.19498607 90.1420613,6.02506964 Z M91.1364903,6.02506964 C91.1364903,6.96100279 91.2534819,7.60445682 91.4874652,7.95543175 C91.7214485,8.30640669 92.189415,8.54038997 92.8913649,8.54038997 C93.5933148,8.54038997 94.0612813,8.36490251 94.2952646,8.01392758 C94.5292479,7.66295265 94.6462396,7.01949861 94.6462396,6.08356546 C94.6462396,5.14763231 94.5292479,4.50417827 94.2952646,4.15320334 C94.0612813,3.80222841 93.5933148,3.62674095 92.9498607,3.62674095 C92.3064067,3.62674095 91.8384401,3.80222841 91.6044568,4.15320334 C91.2534819,4.44568245 91.1364903,5.08913649 91.1364903,6.02506964 Z" id="Shape"></path>
                    <path d="M97.1030641,12.0501393 L97.1030641,2.92479109 L98.0389972,2.92479109 L98.0389972,3.39275766 C98.6824513,2.98328691 99.3259053,2.80779944 99.9108635,2.80779944 C100.729805,2.80779944 101.314763,3.04178273 101.665738,3.56824513 C102.016713,4.09470752 102.192201,4.91364903 102.192201,6.08356546 C102.192201,7.25348189 101.958217,8.0724234 101.548747,8.59888579 C101.139276,9.12534819 100.437326,9.35933148 99.4428969,9.35933148 C98.9164345,9.35933148 98.448468,9.30083565 98.0389972,9.24233983 L98.0389972,12.0501393 L97.1030641,12.0501393 L97.1030641,12.0501393 Z M99.7938719,3.62674095 C99.5598886,3.62674095 99.2674095,3.68523677 98.9749304,3.74373259 C98.6824513,3.80222841 98.448468,3.91922006 98.2729805,3.97771588 L98.0389972,4.09470752 L98.0389972,8.36490251 C98.6239554,8.48189415 99.091922,8.48189415 99.3844011,8.48189415 C100.086351,8.48189415 100.554318,8.30640669 100.846797,7.89693593 C101.139276,7.48746518 101.256267,6.90250696 101.256267,6.02506964 C101.256267,5.14763231 101.139276,4.50417827 100.905292,4.15320334 C100.671309,3.80222841 100.261838,3.62674095 99.7938719,3.62674095 Z" id="Shape"></path>
                    <path d="M108.100279,8.42339833 L108.451253,8.36490251 L108.451253,9.12534819 C107.51532,9.24233983 106.696379,9.30083565 105.994429,9.30083565 C105.058496,9.30083565 104.415042,9.00835655 104.064067,8.48189415 C103.713092,7.95543175 103.479109,7.13649025 103.479109,6.02506964 C103.479109,3.80222841 104.356546,2.6908078 106.111421,2.6908078 C106.988858,2.6908078 107.573816,2.92479109 108.041783,3.39275766 C108.451253,3.86072423 108.685237,4.62116992 108.685237,5.61559889 L108.626741,6.31754875 L104.473538,6.31754875 C104.473538,7.01949861 104.590529,7.545961 104.824513,7.89693593 C105.058496,8.24791086 105.526462,8.42339833 106.169916,8.42339833 C106.81337,8.42339833 107.456825,8.48189415 108.100279,8.42339833 Z M107.749304,5.67409471 C107.749304,4.91364903 107.632312,4.32869081 107.398329,4.0362117 C107.164345,3.74373259 106.754875,3.56824513 106.169916,3.56824513 C105.584958,3.56824513 105.175487,3.74373259 104.883008,4.09470752 C104.590529,4.44568245 104.473538,4.97214485 104.473538,5.73259053 L107.749304,5.73259053 L107.749304,5.67409471 Z" id="Shape"></path>
                    <path d="M114.651811,4.79665738 L114.651811,8.01392758 C114.651811,8.30640669 114.94429,8.54038997 115.412256,8.59888579 L115.35376,9.35933148 C114.710306,9.35933148 114.183844,9.18384401 113.832869,8.83286908 C113.072423,9.18384401 112.311978,9.35933148 111.551532,9.35933148 C110.966574,9.35933148 110.498607,9.18384401 110.206128,8.8913649 C109.913649,8.54038997 109.738162,8.0724234 109.738162,7.48746518 C109.738162,6.90250696 109.913649,6.43454039 110.206128,6.14206128 C110.498607,5.84958217 111.02507,5.67409471 111.668524,5.61559889 L113.657382,5.44011142 L113.657382,4.91364903 C113.657382,4.50417827 113.54039,4.15320334 113.364903,3.97771588 C113.189415,3.80222841 112.896936,3.68523677 112.604457,3.68523677 C111.902507,3.68523677 111.200557,3.74373259 110.498607,3.80222841 L110.089136,3.86072423 L110.030641,3.15877437 C110.966574,2.98328691 111.785515,2.86629526 112.487465,2.86629526 C113.189415,2.86629526 113.715877,3.04178273 114.066852,3.33426184 C114.476323,3.56824513 114.651811,4.09470752 114.651811,4.79665738 Z M110.732591,7.37047354 C110.732591,8.13091922 111.02507,8.54038997 111.668524,8.54038997 C112.253482,8.54038997 112.779944,8.42339833 113.364903,8.24791086 L113.657382,8.13091922 L113.657382,6.02506964 L111.785515,6.2005571 C111.43454,6.25905292 111.142061,6.31754875 110.966574,6.55153203 C110.849582,6.78551532 110.732591,7.01949861 110.732591,7.37047354 Z" id="Shape"></path>
                    <path d="M117.45961,9.24233983 L116.523677,9.24233983 L116.523677,2.92479109 L117.45961,2.92479109 L117.45961,3.39275766 C118.16156,3.04178273 118.805014,2.80779944 119.448468,2.80779944 C120.267409,2.80779944 120.852368,3.04178273 121.144847,3.5097493 C121.437326,3.97771588 121.554318,4.79665738 121.554318,5.96657382 L121.554318,9.30083565 L120.618384,9.30083565 L120.618384,5.96657382 C120.618384,5.08913649 120.559889,4.50417827 120.384401,4.15320334 C120.208914,3.80222841 119.857939,3.68523677 119.272981,3.68523677 C118.980501,3.68523677 118.746518,3.74373259 118.395543,3.80222841 C118.103064,3.86072423 117.869081,3.97771588 117.693593,4.0362117 L117.45961,4.15320334 L117.45961,9.24233983 Z" id="Path"></path>
                    <path d="M127.169916,6.61002786 C127.169916,7.89693593 127.871866,8.48189415 129.21727,8.48189415 C129.91922,8.48189415 130.445682,8.30640669 130.796657,8.01392758 C131.147632,7.72144847 131.32312,7.25348189 131.32312,6.55153203 L131.32312,0.409470752 L132.259053,0.409470752 L132.259053,6.49303621 C132.259053,7.48746518 132.02507,8.18941504 131.498607,8.59888579 C130.972145,9.00835655 130.211699,9.24233983 129.21727,9.24233983 C128.222841,9.24233983 127.462396,9.00835655 126.935933,8.59888579 C126.409471,8.13091922 126.175487,7.42896936 126.175487,6.49303621 L126.175487,0.409470752 L127.169916,0.409470752 L127.169916,6.61002786 Z" id="Path"></path>
                    <path d="M135.183844,9.24233983 L134.247911,9.24233983 L134.247911,2.92479109 L135.183844,2.92479109 L135.183844,3.39275766 C135.885794,3.04178273 136.529248,2.80779944 137.172702,2.80779944 C137.991643,2.80779944 138.576602,3.04178273 138.869081,3.5097493 C139.16156,3.97771588 139.278552,4.79665738 139.278552,5.96657382 L139.278552,9.30083565 L138.342618,9.30083565 L138.342618,5.96657382 C138.342618,5.08913649 138.284123,4.50417827 138.108635,4.15320334 C137.933148,3.80222841 137.582173,3.68523677 136.997214,3.68523677 C136.704735,3.68523677 136.470752,3.74373259 136.119777,3.80222841 C135.827298,3.86072423 135.593315,3.97771588 135.417827,4.0362117 L135.183844,4.15320334 L135.183844,9.24233983 Z" id="Path"></path>
                    <path d="M141.033426,1.46239554 L141.033426,0.35097493 L142.033426,0.35097493 L142.033426,1.46239554 L141.033426,1.46239554 Z M141.033426,9.24233983 L141.033426,2.92479109 L142.033426,2.92479109 L142.033426,9.24233983 L141.033426,9.24233983 Z" id="Shape"></path>
                    <path d="M143.548747,6.02506964 C143.548747,4.8551532 143.78273,4.0362117 144.192201,3.5097493 C144.601671,2.98328691 145.303621,2.74930362 146.29805,2.74930362 C147.292479,2.74930362 147.994429,2.98328691 148.4039,3.5097493 C148.81337,4.0362117 148.988858,4.8551532 148.988858,6.02506964 C148.988858,7.19498607 148.81337,8.01392758 148.4039,8.54038997 C147.994429,9.06685237 147.292479,9.30083565 146.29805,9.30083565 C145.245125,9.30083565 144.543175,9.06685237 144.192201,8.54038997 C143.724234,8.01392758 143.548747,7.19498607 143.548747,6.02506964 Z M144.48468,6.02506964 C144.48468,6.96100279 144.601671,7.60445682 144.835655,7.95543175 C145.069638,8.30640669 145.537604,8.54038997 146.239554,8.54038997 C146.941504,8.54038997 147.409471,8.36490251 147.643454,8.01392758 C147.877437,7.66295265 147.994429,7.01949861 147.994429,6.08356546 C147.994429,5.14763231 147.877437,4.50417827 147.643454,4.15320334 C147.409471,3.80222841 146.941504,3.62674095 146.29805,3.62674095 C145.654596,3.62674095 145.18663,3.80222841 144.952646,4.15320334 C144.601671,4.44568245 144.48468,5.08913649 144.48468,6.02506964 Z" id="Shape"></path>
                    <path d="M151.445682,9.24233983 L150.509749,9.24233983 L150.509749,2.92479109 L151.445682,2.92479109 L151.445682,3.39275766 C152.147632,3.04178273 152.791086,2.80779944 153.43454,2.80779944 C154.253482,2.80779944 154.83844,3.04178273 155.130919,3.5097493 C155.423398,3.97771588 155.54039,4.79665738 155.54039,5.96657382 L155.54039,9.30083565 L154.604457,9.30083565 L154.604457,5.96657382 C154.604457,5.08913649 154.545961,4.50417827 154.370474,4.15320334 C154.194986,3.80222841 153.844011,3.68523677 153.259053,3.68523677 C152.966574,3.68523677 152.732591,3.74373259 152.381616,3.80222841 C152.089136,3.86072423 151.855153,3.97771588 151.679666,4.0362117 L151.445682,4.15320334 L151.445682,9.24233983 Z" id="Path"></path>
                </g>
                <g id="Group" transform="translate(0.000000, 113.482992)" stroke="#12110B" stroke-width="0.09392069">
                    <rect id="Rectangle" fill="#283484" x="0" y="0" width="42.0584958" height="28.0194986"></rect>
                    <g transform="translate(10.412256, 3.334262)" fill="#FFCD00" id="Path">
                        <polygon points="20.005571 11.2311978 19.1866295 11.816156 19.4791086 10.8802228 18.6601671 10.2952646 19.6545961 10.2367688 20.005571 9.30083565 20.2980501 10.2367688 21.2924791 10.2952646 20.5320334 10.8802228 20.8245125 11.816156"></polygon>
                        <polygon points="5.96657382 3.15877437 5.14763231 3.74373259 5.49860724 2.80779944 4.67966574 2.22284123 5.67409471 2.1643454 5.96657382 1.22841226 6.31754875 2.1643454 7.31197772 2.22284123 6.49303621 2.80779944 6.78551532 3.74373259"></polygon>
                        <polygon points="2.57381616 6.55153203 1.75487465 7.19498607 2.04735376 6.2005571 1.22841226 5.61559889 2.28133705 5.61559889 2.57381616 4.62116992 2.92479109 5.61559889 3.91922006 5.61559889 3.10027855 6.2005571 3.39275766 7.19498607"></polygon>
                        <polygon points="1.3454039 11.2311978 0.526462396 11.816156 0.818941504 10.8802228 0 10.2952646 0.994428969 10.2367688 1.3454039 9.30083565 1.63788301 10.2367688 2.6908078 10.2952646 1.8718663 10.8802228 2.1643454 11.816156"></polygon>
                        <polygon points="2.57381616 15.9108635 1.75487465 16.4958217 2.04735376 15.5013928 1.22841226 14.9164345 2.28133705 14.9164345 2.57381616 13.9805014 2.92479109 14.9164345 3.91922006 14.9164345 3.10027855 15.5013928 3.39275766 16.4958217"></polygon>
                        <polygon points="6.02506964 19.3036212 5.20612813 19.8885794 5.49860724 18.9526462 4.67966574 18.367688 5.67409471 18.3091922 6.02506964 17.3732591 6.31754875 18.3091922 7.31197772 18.367688 6.49303621 18.9526462 6.84401114 19.8885794"></polygon>
                        <polygon points="10.6462396 20.5905292 9.82729805 21.1754875 10.1197772 20.1810585 9.35933148 19.5961003 10.3537604 19.5961003 10.6462396 18.6016713 10.9972145 19.5961003 11.9916435 19.5961003 11.1727019 20.1810585 11.4651811 21.1754875"></polygon>
                        <polygon points="15.3259053 19.3036212 14.5069638 19.8885794 14.7994429 18.9526462 13.9805014 18.367688 15.0334262 18.3091922 15.3259053 17.3732591 15.6768802 18.3091922 16.6713092 18.367688 15.8523677 18.9526462 16.1448468 19.8885794"></polygon>
                        <polygon points="18.7771588 15.9108635 17.9582173 16.4958217 18.2506964 15.5013928 17.4317549 14.9164345 18.4261838 14.9164345 18.7771588 13.9805014 19.0696379 14.9164345 20.0640669 14.9164345 19.2451253 15.5013928 19.5961003 16.4958217"></polygon>
                        <polygon points="18.718663 6.55153203 17.8997214 7.19498607 18.2506964 6.2005571 17.4317549 5.61559889 18.4261838 5.61559889 18.718663 4.62116992 19.0696379 5.61559889 20.0640669 5.61559889 19.2451253 6.2005571 19.5376045 7.19498607"></polygon>
                        <polygon points="10.6462396 1.93036212 9.82729805 2.51532033 10.1197772 1.52089136 9.35933148 0.935933148 10.3537604 0.935933148 10.6462396 0 10.9972145 0.935933148 11.9916435 0.935933148 11.1727019 1.52089136 11.4651811 2.51532033"></polygon>
                        <polygon points="15.3259053 3.15877437 14.5069638 3.74373259 14.7994429 2.80779944 14.0389972 2.22284123 15.0334262 2.1643454 15.3259053 1.22841226 15.6768802 2.1643454 16.6713092 2.22284123 15.8523677 2.80779944 16.1448468 3.74373259"></polygon>
                    </g>
                </g>
            </g>
        </g>
    </g>
</svg>