<?xml version="1.0" encoding="UTF-8"?>
<svg width="144px" height="63px" viewBox="0 0 144 63" version="1.1" xmlns="http://www.w3.org/2000/svg" xmlns:xlink="http://www.w3.org/1999/xlink">
    <title>logo_Homacapital</title>
    <defs>
        <polygon id="path-1" points="0 62 142.124692 62 142.124692 0 0 0"></polygon>
    </defs>
    <g id="Symbols" stroke="none" stroke-width="1" fill="none" fill-rule="evenodd">
        <g id="Section_Clients-Partners" transform="translate(-804.000000, -307.000000)">
            <g id="logo_Homacapital" transform="translate(804.937654, 307.623665)">
                <path d="M11.1679923,62 C9.22219174,62 7.41894069,61.5082043 5.75823913,60.5246128 C4.09706241,59.5410213 2.7856071,58.2134104 1.82387321,56.5413049 C0.862139315,54.8691993 0.381272369,53.0493175 0.381272369,51.0821346 C0.381272369,49.1149516 0.862139315,47.3007718 1.82387321,45.639595 C2.7856071,43.9788935 4.09706241,42.6560342 5.75823913,41.6724427 C7.41894069,40.6888513 9.22219174,40.1970555 11.1679923,40.1970555 C12.6761659,40.1970555 14.1239935,40.5087637 15.5124256,41.131705 C16.8999073,41.7546463 18.1187054,42.6346518 19.1678697,43.7707712 L18.0203463,44.7871491 C17.1460427,43.8035576 16.1130341,43.038542 14.9217955,42.4921023 C13.7305569,41.9461378 12.4794476,41.6724427 11.1679923,41.6724427 C9.48495796,41.6724427 7.93306918,42.0934389 6.51232593,42.9344809 C5.09110752,43.7764732 3.9602149,44.9182946 3.11917291,46.3608955 C2.27718059,47.8034963 1.85665959,49.3772427 1.85665959,51.0821346 C1.85665959,52.7870265 2.27718059,54.3607728 3.11917291,55.8033737 C3.9602149,57.2459745 5.09110752,58.3882711 6.51232593,59.2293131 C7.93306918,60.0713054 9.48495796,60.4918264 11.1679923,60.4918264 C12.5664028,60.4918264 13.8944889,60.1862953 15.1517754,59.5738077 C16.4081115,58.9622704 17.4843602,58.1098244 18.3809965,57.0164698 L19.5613062,57.9344885 C18.5335244,59.2245614 17.2876419,60.2243085 15.8236586,60.9346801 C14.3592002,61.6450518 12.8073114,62 11.1679923,62" id="Fill-1" fill="#383838"></path>
                <path d="M34.2826297,43.8362965 L29.167954,54.8853074 L39.1678007,54.8853074 L34.2826297,43.8362965 Z M28.4794399,56.3606947 L25.9548885,61.7704478 L24.3155693,61.7704478 L34.3482024,40.197008 L43.823467,61.7704478 L42.2169343,61.7704478 L39.8235283,56.3606947 L28.4794399,56.3606947 Z" id="Fill-3" fill="#383838"></path>
                <path d="M51.5936972,50.9837279 L57.6919643,50.9837279 C58.6755558,50.9837279 59.5821706,50.7817828 60.4132341,50.3774174 C61.2438225,49.973052 61.9047769,49.4266123 62.3965727,48.7376231 C62.8888436,48.0495842 63.1345039,47.3011994 63.1345039,46.4919935 C63.1345039,45.6614051 62.8888436,44.9020915 62.3965727,44.2131023 C61.9047769,43.5250634 61.2438225,42.9786237 60.4132341,42.5742583 C59.5821706,42.1698929 58.6755558,41.9674727 57.6919643,41.9674727 L51.5609108,41.9674727 L51.5936972,50.9837279 Z M50.1183099,61.7704478 L50.0855236,40.4592991 L57.6919643,40.4592991 C58.9378469,40.4592991 60.0905971,40.7329941 61.1506901,41.2789586 C62.2107832,41.8258735 63.0523003,42.5576275 63.6752416,43.4756463 C64.2981829,44.393665 64.6098911,45.3995892 64.6098911,46.4919935 C64.6098911,47.5634905 64.2981829,48.5632376 63.6752416,49.4921851 C63.0523003,50.4211326 62.2107832,51.1590638 61.1506901,51.7050283 C60.0905971,52.251468 58.9378469,52.5246879 57.6919643,52.5246879 L51.5936972,52.5246879 L51.5936972,61.7704478 L50.1183099,61.7704478 Z" id="Fill-5" fill="#383838"></path>
                <mask id="mask-2" fill="white">
                    <use xlink:href="#path-1"></use>
                </mask>
                <g id="Clip-8"></g>
                <polygon id="Fill-7" fill="#383838" mask="url(#mask-2)" points="71.6254167 61.7704953 73.1008039 61.7704953 73.1008039 40.4593466 71.6254167 40.4593466"></polygon>
                <polygon id="Fill-9" fill="#383838" mask="url(#mask-2)" points="98.116909 40.4593466 98.116909 41.9675202 89.6912838 41.9675202 89.6912838 61.7704953 88.1831102 61.7704953 88.1831102 41.9675202 79.7237483 41.9675202 79.7237483 40.4593466"></polygon>
                <path d="M110.182108,43.8362965 L105.067432,54.8853074 L115.067279,54.8853074 L110.182108,43.8362965 Z M104.378918,56.3606947 L101.854842,61.7704478 L100.215047,61.7704478 L110.248156,40.197008 L119.722945,61.7704478 L118.116412,61.7704478 L115.723006,56.3606947 L104.378918,56.3606947 Z" id="Fill-10" fill="#383838" mask="url(#mask-2)"></path>
                <polygon id="Fill-11" fill="#383838" mask="url(#mask-2)" points="125.985049 61.7705428 125.985049 40.4593941 127.459961 40.4593941 127.459961 60.2951556 139.427466 60.2951556 139.427466 61.7705428"></polygon>
                <polygon id="Fill-12" fill="#383838" mask="url(#mask-2)" points="19.4102988 16.5451966 2.07628084 16.5451966 2.07628084 30.1776795 -0.000190065987 30.1776795 -0.000190065987 14.4687257 -0.000190065987 0.836242825 2.07628084 0.836242825 2.07628084 14.4687257 19.4102988 14.4687257 19.4102988 0.836242825 21.441629 0.836242825 21.441629 15.4618205 21.441629 30.1776795 19.4102988 30.1776795"></polygon>
                <path d="M47.6679792,2.59672903 C45.3505997,2.59672903 43.2137828,3.17643028 41.2580038,4.33440731 C39.3017497,5.49333466 37.7441589,7.05852806 36.5861819,9.02951234 C35.4272545,11.0004966 34.8480284,13.1596462 34.8480284,15.5069612 C34.8480284,17.8542761 35.4272545,20.0139009 36.5861819,21.98441 C37.7441589,23.9558694 39.3017497,25.5210628 41.2580038,26.679515 C43.2137828,27.8379672 45.3505997,28.4171933 47.6679792,28.4171933 C49.9848836,28.4171933 52.1217005,27.8379672 54.0779546,26.679515 C56.0337336,25.5210628 57.5837218,23.9558694 58.7274438,21.98441 C59.8706908,20.0139009 60.4427894,17.8542761 60.4427894,15.5069612 C60.4427894,13.1596462 59.8706908,11.0004966 58.7274438,9.02951234 C57.5837218,7.05852806 56.0337336,5.49333466 54.0779546,4.33440731 C52.1217005,3.17643028 49.9848836,2.59672903 47.6679792,2.59672903 M47.6679792,30.4936642 C44.9889992,30.4936642 42.5067374,29.8241568 40.2197684,28.4846667 C37.9323242,27.146127 36.1266974,25.3252949 34.8028878,23.0226454 C33.478603,20.7209463 32.8166982,18.2154015 32.8166982,15.5069612 C32.8166982,12.7985209 33.478603,10.292976 34.8028878,7.99127689 C36.1266974,5.68862746 37.9323242,3.86827048 40.2197684,2.52878044 C42.5067374,1.19024072 44.9889992,0.520258122 47.6679792,0.520258122 C50.346009,0.520258122 52.8287459,1.19024072 55.1161901,2.52878044 C57.4026839,3.86827048 59.208786,5.68862746 60.5330707,7.99127689 C61.8568803,10.292976 62.5192603,12.7985209 62.5192603,15.5069612 C62.5192603,18.2154015 61.8568803,20.7209463 60.5330707,23.0226454 C59.208786,25.3252949 57.4026839,27.146127 55.1161901,28.4846667 C52.8287459,29.8241568 50.346009,30.4936642 47.6679792,30.4936642" id="Fill-13" fill="#383838" mask="url(#mask-2)"></path>
                <polygon id="Fill-14" fill="#383838" mask="url(#mask-2)" points="74.0983653 0 89.3107717 21.0117948 104.34214 0.475164967 104.34214 30.177727 102.311285 30.177727 102.311285 6.97542171 89.3107717 25.0530729 74.0983653 4.14771499"></polygon>
                <path d="M128.988709,5.48577954 L121.946765,20.6981859 L135.71467,20.6981859 L128.988709,5.48577954 Z M120.999286,22.7295162 L117.522979,30.177727 L115.265945,30.177727 L129.078991,0.475164967 L142.12512,30.177727 L139.912752,30.177727 L136.617483,22.7295162 L120.999286,22.7295162 Z" id="Fill-15" fill="#383838" mask="url(#mask-2)"></path>
                <polyline id="Fill-16" fill="#383838" mask="url(#mask-2)" points="89.3105816 30.1507377 76.1295054 12.9782758 76.1295054 30.2172608 74.0981752 30.2172608 74.0981752 6.99832466 89.3105816 27.5349545"></polyline>
            </g>
        </g>
    </g>
</svg>