<?xml version="1.0" encoding="UTF-8"?>
<svg width="146px" height="88px" viewBox="0 0 146 88" version="1.1" xmlns="http://www.w3.org/2000/svg" xmlns:xlink="http://www.w3.org/1999/xlink">
    <title>Lombard_Odier_logo</title>
    <g id="Symbols" stroke="none" stroke-width="1" fill="none" fill-rule="evenodd">
        <g id="Section_Clients-Partners" transform="translate(-1082.000000, -280.000000)">
            <g id="Lombard_Odier_logo" transform="translate(1075.012829, 274.012029)">
                <rect id="Rectangle" x="-3.64614617e-14" y="0" width="159.974343" height="100"></rect>
                <g id="Group" transform="translate(7.248236, 6.350225)" fill="#392F2C" fill-rule="nonzero">
                    <g transform="translate(0.000000, 81.975625)">
                        <polygon id="Path" points="2.43745991 4.68248877 2.95060936 3.39961514 3.14304041 3.39961514 2.88646568 5.06735087 0 5.06735087 0 4.74663246 0.513149455 4.55420141 0.513149455 0.7055805 0 0.513149455 0 0.192431046 1.66773573 0.192431046 1.66773573 0.513149455 1.09044259 0.7055805 1.09044259 4.61834509"></polygon>
                        <path d="M8.85182809,2.62989096 C8.85182809,4.10519564 8.08210391,5.25978191 6.99166132,5.25978191 C5.90121873,5.25978191 5.13149455,4.233483 5.13149455,2.75817832 C5.13149455,1.21872996 5.90121873,0.128287364 6.99166132,0.128287364 C8.08210391,0.128287364 8.85182809,1.15458627 8.85182809,2.62989096 Z M8.14624759,2.88646568 C8.14624759,1.53944836 7.63309814,0.449005773 6.79923028,0.449005773 C6.09364978,0.449005773 5.70878768,1.21872996 5.70878768,2.37331623 C5.70878768,3.46375882 6.09364978,4.87491982 7.055805,4.87491982 C7.69724182,4.87491982 8.14624759,4.233483 8.14624759,2.88646568 Z" id="Shape"></path>
                        <polygon id="Path" points="10.9044259 4.74663246 11.4175754 4.55420141 11.5458627 0.7055805 11.0327133 0.513149455 11.0327133 0.192431046 12.2514432 0.192431046 13.5343169 3.59204618 14.6247595 0.513149455 14.6889031 0.192431046 15.9717768 0.192431046 15.9717768 0.513149455 15.4586273 0.7055805 15.522771 4.55420141 16.0359205 4.74663246 16.0359205 5.06735087 14.4323284 5.06735087 14.4323284 4.74663246 14.9454779 4.55420141 14.9454779 0.769724182 13.6626042 4.36177037 13.5343169 4.74663246 13.3418858 4.74663246 13.2135985 4.36177037 11.9948685 1.09044259 11.9307248 4.49005773 12.5721616 4.74663246 12.5721616 5.00320718 11.096857 5.00320718 11.096857 4.74663246"></polygon>
                        <path d="M17.8960872,4.74663246 L18.4092367,4.55420141 L18.4092367,0.7055805 L17.8960872,0.513149455 L17.8960872,0.192431046 L19.3713919,0.192431046 C20.2694035,0.192431046 20.9108403,0.513149455 20.9108403,1.28287364 C20.9108403,1.98845414 20.3335471,2.30917255 19.8203977,2.43745991 L19.8203977,2.43745991 C20.5259782,2.43745991 21.167415,2.88646568 21.167415,3.65618987 C21.167415,4.61834509 20.4618345,5.06735087 19.4996793,5.06735087 L17.8960872,5.06735087 L17.8960872,4.74663246 Z M19.0506735,2.75817832 L19.0506735,4.55420141 C19.1789609,4.68248877 19.3713919,4.81077614 19.6921103,4.81077614 C20.1411161,4.81077614 20.5259782,4.49005773 20.5259782,3.84862091 C20.5259782,3.20718409 20.1411161,2.88646568 19.6279666,2.75817832 L19.0506735,2.75817832 L19.0506735,2.75817832 Z M19.0506735,2.43745991 C19.9486851,2.37331623 20.2694035,2.05259782 20.2694035,1.411161 C20.2694035,0.898011546 19.9486851,0.513149455 19.0506735,0.577293137 L19.0506735,2.43745991 Z" id="Shape"></path>
                        <path d="M22.8992944,4.81077614 L23.2841565,4.68248877 L24.6953175,0.320718409 L24.9518922,0.256574727 L25.208467,0.192431046 L26.619628,4.74663246 L27.0686337,4.87491982 L27.0686337,5.19563823 L25.4650417,5.19563823 L25.4650417,4.87491982 L25.9781911,4.74663246 L25.6574727,3.59204618 L24.1180244,3.59204618 L23.797306,4.74663246 L24.3745991,4.9390635 L24.3745991,5.25978191 L22.9634381,5.25978191 L22.9634381,4.81077614 L22.8992944,4.81077614 Z M24.1821681,3.01475305 L25.400898,3.01475305 L24.7594612,0.962155228 L24.7594612,0.962155228 L24.1821681,3.01475305 Z" id="Shape"></path>
                        <path d="M28.8646568,4.74663246 L29.3778063,4.55420141 L29.3778063,0.7055805 L28.8646568,0.513149455 L28.8646568,0.192431046 L30.2758178,0.192431046 C31.3021167,0.192431046 32.0076972,0.577293137 32.0076972,1.47530468 C32.0076972,2.24502886 31.4304041,2.62989096 31.045542,2.822322 L31.045542,2.822322 L32.0718409,4.61834509 L32.5208467,4.74663246 L32.5208467,5.06735087 L31.4945478,5.06735087 L30.5965362,3.5279025 C30.4041052,3.20718409 30.3399615,3.01475305 30.3399615,3.01475305 L30.0192431,3.01475305 L30.0192431,4.61834509 L30.5323926,4.81077614 L30.5323926,5.13149455 L28.9288005,5.13149455 L28.8646568,4.74663246 L28.8646568,4.74663246 Z M30.0192431,2.62989096 L30.5323926,2.62989096 C30.9813983,2.56574727 31.3662604,2.18088518 31.3662604,1.60359205 C31.3662604,0.898011546 30.853111,0.513149455 30.0192431,0.577293137 L30.0192431,2.62989096 Z" id="Shape"></path>
                        <path d="M34.4451572,4.74663246 L34.9583066,4.55420141 L34.9583066,0.7055805 L34.4451572,0.513149455 L34.4451572,0.192431046 L36.0487492,0.192431046 C37.3957665,0.192431046 38.2937781,1.09044259 38.2937781,2.50160359 C38.2937781,4.04105196 37.4599102,5.06735087 35.7921745,5.06735087 L34.3810135,5.06735087 L34.3810135,4.74663246 L34.4451572,4.74663246 Z M35.5355997,4.49005773 C35.6638871,4.68248877 35.9204618,4.74663246 36.2411802,4.74663246 C37.2033355,4.74663246 37.6523412,3.72033355 37.6523412,2.822322 C37.6523412,1.02629891 36.7543297,0.577293137 35.5355997,0.577293137 L35.5355997,4.49005773 Z" id="Shape"></path>
                        <path d="M47.1456062,2.62989096 C47.1456062,4.10519564 46.375882,5.25978191 45.2854394,5.25978191 C44.1949968,5.25978191 43.4252726,4.233483 43.4252726,2.75817832 C43.4252726,1.21872996 44.1949968,0.128287364 45.2854394,0.128287364 C46.375882,0.128287364 47.1456062,1.15458627 47.1456062,2.62989096 Z M46.5041693,2.88646568 C46.5041693,1.53944836 45.9910199,0.449005773 45.157152,0.449005773 C44.4515715,0.449005773 44.0667094,1.21872996 44.0667094,2.37331623 C44.0667094,3.46375882 44.4515715,4.87491982 45.4137267,4.87491982 C45.9910199,4.87491982 46.5041693,4.233483 46.5041693,2.88646568 Z" id="Shape"></path>
                        <path d="M49.2623477,4.74663246 L49.7754971,4.55420141 L49.7754971,0.7055805 L49.2623477,0.513149455 L49.2623477,0.192431046 L50.8659397,0.192431046 C52.212957,0.192431046 53.1109686,1.15458627 53.1109686,2.50160359 C53.1109686,4.04105196 52.2771007,5.06735087 50.609365,5.06735087 L49.198204,5.06735087 L49.198204,4.74663246 L49.2623477,4.74663246 Z M50.3527903,4.49005773 C50.4810776,4.68248877 50.7376523,4.74663246 51.0583708,4.74663246 C52.020526,4.74663246 52.4695318,3.72033355 52.4695318,2.822322 C52.4695318,1.02629891 51.5715202,0.577293137 50.3527903,0.577293137 L50.3527903,4.49005773 Z" id="Shape"></path>
                        <polygon id="Path" points="55.2918538 4.81077614 55.8050032 4.61834509 55.8050032 0.769724182 55.2918538 0.577293137 55.2918538 0.256574727 56.8954458 0.256574727 56.8954458 0.577293137 56.3822963 0.769724182 56.3822963 4.61834509 56.8954458 4.81077614 56.8954458 5.13149455 55.2918538 5.13149455"></polygon>
                        <polygon id="Path" points="60.0384862 2.822322 60.0384862 4.68248877 61.5137909 4.68248877 62.0269403 3.59204618 62.2835151 3.59204618 62.0269403 5.06735087 58.9480436 5.06735087 58.9480436 4.74663246 59.4611931 4.55420141 59.4611931 0.7055805 58.9480436 0.513149455 58.9480436 0.192431046 61.5137909 0.192431046 62.0269403 0.128287364 62.0269403 1.47530468 61.8345093 1.47530468 61.5137909 0.513149455 60.0384862 0.513149455 60.0384862 2.30917255 60.9364978 2.30917255 61.1289288 1.60359205 61.3213598 1.60359205 61.3213598 3.27132777 61.1289288 3.27132777 60.9364978 2.69403464"></polygon>
                        <path d="M64.3361129,4.81077614 L64.8492623,4.61834509 L64.8492623,0.769724182 L64.3361129,0.577293137 L64.3361129,0.256574727 L65.7472739,0.256574727 C66.7735728,0.256574727 67.4791533,0.641436818 67.4791533,1.53944836 C67.4791533,2.30917255 66.9018602,2.69403464 66.5169981,2.88646568 L66.5169981,2.88646568 L67.543297,4.68248877 L67.9923028,4.81077614 L67.9923028,5.13149455 L66.9660038,5.13149455 L66.0679923,3.59204618 C65.8755613,3.27132777 65.8114176,3.07889673 65.8114176,3.07889673 L65.4265555,3.07889673 L65.4265555,4.68248877 L65.9397049,4.87491982 L65.9397049,5.19563823 L64.3361129,5.19563823 L64.3361129,4.81077614 L64.3361129,4.81077614 Z M65.4265555,2.62989096 L65.9397049,2.62989096 C66.3887107,2.56574727 66.7735728,2.18088518 66.7735728,1.60359205 C66.7735728,0.898011546 66.2604233,0.513149455 65.4265555,0.577293137 L65.4265555,2.62989096 Z" id="Shape"></path>
                        <path d="M72.7389352,4.81077614 L73.2520847,4.61834509 L73.2520847,0.769724182 L72.7389352,0.577293137 L72.7389352,0.256574727 L74.3425273,0.256574727 C75.6895446,0.256574727 76.5875561,1.21872996 76.5875561,2.56574727 C76.5875561,4.10519564 75.7536883,5.13149455 74.0859525,5.13149455 L72.6747915,5.13149455 L72.7389352,4.81077614 L72.7389352,4.81077614 Z M73.8293778,4.49005773 C73.9576652,4.68248877 74.2142399,4.74663246 74.5349583,4.74663246 C75.4971135,4.74663246 75.9461193,3.72033355 75.9461193,2.822322 C75.9461193,1.02629891 75.0481078,0.577293137 73.8293778,0.577293137 L73.8293778,4.49005773 Z" id="Shape"></path>
                        <path d="M78.5118666,4.81077614 L78.8967287,4.68248877 L80.3078897,0.320718409 L80.5644644,0.256574727 L80.8210391,0.192431046 L82.2322001,4.74663246 L82.6812059,4.87491982 L82.6812059,5.19563823 L81.0776139,5.19563823 L81.0776139,4.87491982 L81.5907633,4.74663246 L81.2700449,3.59204618 L79.7305965,3.59204618 L79.4098781,4.74663246 L79.9871713,4.9390635 L79.9871713,5.25978191 L78.5760103,5.25978191 L78.5760103,4.81077614 L78.5118666,4.81077614 Z M79.7305965,3.01475305 L80.9493265,3.01475305 L80.3078897,0.962155228 L80.3078897,0.962155228 L79.7305965,3.01475305 Z" id="Shape"></path>
                        <path d="M84.477229,4.81077614 L84.9903784,4.61834509 L84.9903784,0.769724182 L84.477229,0.577293137 L84.477229,0.256574727 L85.88839,0.256574727 C86.9146889,0.256574727 87.6202694,0.641436818 87.6202694,1.53944836 C87.6202694,2.30917255 87.0429763,2.69403464 86.6581142,2.88646568 L86.6581142,2.88646568 L87.6844131,4.68248877 L88.1334189,4.81077614 L88.1334189,5.13149455 L87.1071199,5.13149455 L86.2091084,3.59204618 C86.0166774,3.27132777 85.9525337,3.07889673 85.9525337,3.07889673 L85.5676716,3.07889673 L85.5676716,4.68248877 L86.080821,4.87491982 L86.080821,5.19563823 L84.477229,5.19563823 L84.477229,4.81077614 L84.477229,4.81077614 Z M85.5676716,2.62989096 L86.080821,2.62989096 C86.5298268,2.56574727 86.9146889,2.18088518 86.9146889,1.60359205 C86.9146889,0.898011546 86.4015394,0.513149455 85.5676716,0.577293137 L85.5676716,2.62989096 L85.5676716,2.62989096 Z" id="Shape"></path>
                        <polygon id="Path" points="90.0577293 4.81077614 90.5708788 4.61834509 90.5708788 0.769724182 90.0577293 0.577293137 90.0577293 0.256574727 91.6613214 0.256574727 91.6613214 0.577293137 91.1481719 0.769724182 91.1481719 4.61834509 91.6613214 4.81077614 91.6613214 5.13149455 90.0577293 5.13149455"></polygon>
                        <polygon id="Path" points="94.8043618 2.822322 94.8043618 4.68248877 96.2796665 4.68248877 96.7928159 3.59204618 97.0493906 3.59204618 96.7928159 5.06735087 93.7139192 5.06735087 93.7139192 4.74663246 94.2270686 4.55420141 94.2270686 0.7055805 93.7139192 0.513149455 93.7139192 0.192431046 96.2796665 0.192431046 96.7928159 0.128287364 96.7928159 1.47530468 96.6003849 1.47530468 96.2796665 0.513149455 94.8043618 0.513149455 94.8043618 2.30917255 95.7023733 2.30917255 95.8948044 1.60359205 96.0872354 1.60359205 96.0872354 3.27132777 95.8948044 3.27132777 95.7023733 2.69403464"></polygon>
                        <path d="M99.1019885,4.81077614 L99.6151379,4.61834509 L99.6151379,0.769724182 L99.1019885,0.577293137 L99.1019885,0.256574727 L100.513149,0.256574727 C101.539448,0.256574727 102.245029,0.641436818 102.245029,1.53944836 C102.245029,2.30917255 101.667736,2.69403464 101.282874,2.88646568 L101.282874,2.88646568 L102.309173,4.68248877 L102.758178,4.81077614 L102.758178,5.13149455 L101.731879,5.13149455 L100.833868,3.59204618 C100.641437,3.27132777 100.577293,3.07889673 100.577293,3.07889673 L100.192431,3.07889673 L100.192431,4.68248877 L100.705581,4.87491982 L100.705581,5.19563823 L99.1019885,5.19563823 L99.1019885,4.81077614 L99.1019885,4.81077614 Z M100.192431,2.69403464 L100.705581,2.69403464 C101.154586,2.62989096 101.539448,2.24502886 101.539448,1.66773573 C101.539448,0.962155228 101.026299,0.577293137 100.192431,0.641436818 L100.192431,2.69403464 Z" id="Shape"></path>
                        <polygon id="Path" points="110.070558 4.81077614 110.583708 4.61834509 110.583708 2.822322 108.659397 2.822322 108.659397 4.61834509 109.172547 4.81077614 109.172547 5.13149455 107.568954 5.13149455 107.568954 4.81077614 108.082104 4.61834509 108.082104 0.769724182 107.568954 0.577293137 107.568954 0.256574727 109.172547 0.256574727 109.172547 0.577293137 108.659397 0.769724182 108.659397 2.43745991 110.583708 2.43745991 110.583708 0.769724182 110.070558 0.577293137 110.070558 0.256574727 111.67415 0.256574727 111.67415 0.577293137 111.161001 0.769724182 111.161001 4.61834509 111.67415 4.81077614 111.67415 5.13149455 110.070558 5.13149455"></polygon>
                        <polygon id="Path" points="114.881334 2.822322 114.881334 4.68248877 116.356639 4.68248877 116.869788 3.59204618 117.126363 3.59204618 116.869788 5.06735087 113.790892 5.06735087 113.790892 4.74663246 114.304041 4.55420141 114.304041 0.7055805 113.790892 0.513149455 113.790892 0.192431046 116.356639 0.192431046 116.869788 0.128287364 116.869788 1.47530468 116.613214 1.47530468 116.292495 0.513149455 114.817191 0.513149455 114.817191 2.30917255 115.715202 2.30917255 115.907633 1.60359205 116.100064 1.60359205 116.100064 3.27132777 115.907633 3.27132777 115.715202 2.69403464"></polygon>
                        <polygon id="Path" points="122.514432 5.19563823 119.948685 1.411161 119.948685 4.55420141 120.590122 4.81077614 120.590122 5.13149455 119.114817 5.13149455 119.114817 4.81077614 119.627967 4.61834509 119.627967 0.833867864 119.114817 0.577293137 119.114817 0.256574727 120.012829 0.256574727 122.322001 3.72033355 122.322001 0.833867864 121.680564 0.577293137 121.680564 0.256574727 123.155869 0.256574727 123.155869 0.577293137 122.64272 0.769724182 122.64272 4.36177037 122.64272 5.13149455"></polygon>
                        <polygon id="Path" points="128.22322 0.256574727 128.672226 0.192431046 128.736369 1.66773573 128.543938 1.66773573 128.159076 0.641436818 127.325208 0.641436818 127.325208 4.61834509 127.902502 4.81077614 127.902502 5.13149455 126.234766 5.13149455 126.234766 4.81077614 126.747915 4.61834509 126.747915 0.641436818 125.914047 0.641436818 125.529185 1.66773573 125.336754 1.66773573 125.400898 0.192431046 125.849904 0.256574727"></polygon>
                        <path d="M130.788967,3.46375882 L131.045542,3.46375882 L131.430404,4.55420141 C131.622835,4.68248877 131.815266,4.81077614 132.135985,4.81077614 C132.58499,4.81077614 132.905709,4.49005773 132.905709,3.91276459 C132.905709,3.5279025 132.777421,3.27132777 132.328416,3.07889673 L131.751123,2.822322 C131.109686,2.56574727 130.917255,2.1167415 130.917255,1.47530468 C130.917255,0.7055805 131.558691,0 132.328416,0 C132.777421,0 133.162284,0.128287364 133.354715,0.256574727 L133.418858,1.60359205 L133.226427,1.60359205 L132.905709,0.7055805 C132.777421,0.577293137 132.58499,0.449005773 132.264272,0.449005773 C131.815266,0.449005773 131.494548,0.769724182 131.494548,1.21872996 C131.494548,1.66773573 131.622835,1.86016677 132.071841,2.05259782 L132.58499,2.24502886 C133.354715,2.56574727 133.547146,2.95060936 133.547146,3.59204618 C133.547146,4.49005773 132.905709,5.19563823 132.071841,5.19563823 C131.686979,5.19563823 131.237973,5.06735087 130.917255,4.87491982 L130.788967,3.46375882 Z" id="Path"></path>
                        <path d="M135.599743,2.88646568 C135.599743,1.28287364 136.497755,0.192431046 137.716485,0.192431046 C138.293778,0.192431046 138.614496,0.449005773 138.935215,0.577293137 L138.999359,1.92431046 L138.806928,1.92431046 L138.422065,0.898011546 C138.229634,0.7055805 138.037203,0.577293137 137.652341,0.577293137 C136.882617,0.577293137 136.305324,1.28287364 136.305324,2.75817832 C136.305324,4.10519564 136.882617,4.9390635 137.844772,4.9390635 C138.101347,4.9390635 138.357922,4.81077614 138.550353,4.61834509 L138.935215,3.5279025 L139.127646,3.5279025 L139.063502,4.87491982 C138.614496,5.13149455 138.229634,5.32392559 137.652341,5.32392559 C136.177037,5.32392559 135.599743,3.97690827 135.599743,2.88646568 Z" id="Path"></path>
                        <polygon id="Path" points="143.874278 4.81077614 144.387428 4.61834509 144.387428 2.822322 142.463117 2.822322 142.463117 4.61834509 142.976267 4.81077614 142.976267 5.13149455 141.372675 5.13149455 141.372675 4.81077614 141.885824 4.61834509 141.885824 0.769724182 141.372675 0.577293137 141.372675 0.256574727 142.976267 0.256574727 142.976267 0.577293137 142.463117 0.769724182 142.463117 2.43745991 144.387428 2.43745991 144.387428 0.769724182 143.874278 0.577293137 143.874278 0.256574727 145.47787 0.256574727 145.47787 0.577293137 144.964721 0.769724182 144.964721 4.61834509 145.47787 4.81077614 145.47787 5.13149455 143.874278 5.13149455"></polygon>
                    </g>
                    <g transform="translate(98.139833, 12.892880)" id="Shape">
                        <path d="M4.49005773,8.33867864 C4.04105196,8.59525337 3.46375882,8.78768441 2.88646568,8.78768441 C1.09044259,8.78768441 0,7.56895446 0,5.90121873 C0,3.91276459 1.66773573,2.62989096 3.39961514,2.62989096 C5.38806928,2.62989096 6.86337396,3.97690827 6.86337396,6.02950609 C6.86337396,9.74983964 3.27132777,11.9307248 0.577293137,12.508018 L0.449005773,11.9948685 C1.98845414,11.3534317 3.72033355,10.1988454 4.49005773,8.33867864 Z M4.68248877,7.69724182 C4.81077614,7.24823605 4.87491982,6.73508659 4.87491982,6.22193714 C4.87491982,4.55420141 4.233483,3.27132777 3.14304041,3.27132777 C2.37331623,3.27132777 1.86016677,4.10519564 1.86016677,5.25978191 C1.86016677,6.73508659 2.62989096,7.88967287 3.91276459,7.88967287 C4.233483,7.82552919 4.49005773,7.7613855 4.68248877,7.69724182 Z"></path>
                        <path d="M10.7119949,4.04105196 C11.1610006,3.78447723 11.6741501,3.59204618 12.1872996,3.59204618 C13.919179,3.59204618 15.0737652,4.81077614 15.0737652,6.41436818 C15.0737652,8.40282232 13.4060295,9.68569596 11.6741501,9.68569596 C9.81398332,9.68569596 8.21039128,8.53110969 8.21039128,6.28608082 C8.21039128,2.62989096 11.9307248,0.577293137 14.6889031,0 L14.8171905,0.513149455 C13.3418858,1.09044259 11.5458627,2.24502886 10.7119949,4.04105196 Z M10.5195638,4.68248877 C10.3912765,5.13149455 10.3271328,5.644644 10.3271328,6.15779346 C10.3271328,7.82552919 10.9685696,9.04425914 11.9948685,9.04425914 C12.8287364,9.04425914 13.2777421,8.27453496 13.2777421,7.11994869 C13.2777421,5.70878768 12.508018,4.55420141 11.289288,4.55420141 C11.0327133,4.55420141 10.7119949,4.55420141 10.5195638,4.68248877 Z"></path>
                    </g>
                    <g transform="translate(34.765876, 15.394484)" id="Path">
                        <polygon points="3.46375882 6.09364978 4.9390635 6.28608082 4.9390635 6.92751764 0.128287364 6.92751764 0.128287364 6.28608082 1.73187941 6.09364978 1.73187941 1.411161 3.64614617e-14 1.411161 3.64614617e-14 0.769724182 3.39961514 1.42427585e-16 3.46375882 1.42427585e-16"></polygon>
                        <polygon points="6.28608082 9.23669019 11.1610006 1.86016677 6.54265555 1.86016677 6.54265555 0.192431046 12.8287364 0.192431046 12.8287364 0.449005773 8.59525337 7.50481078 7.31237973 9.74983964"></polygon>
                    </g>
                    <g transform="translate(0.064144, 50.481078)">
                        <polygon id="Path" points="3.64614617e-14 26.4271969 3.64614617e-14 0.449005773 3.84862091 0.449005773 3.84862091 23.0275818 8.78768441 23.0275818 8.78768441 26.4271969"></polygon>
                        <g transform="translate(10.006414, 0.000000)">
                            <path d="M3.84862091,22.2578576 C3.84862091,23.5407312 4.233483,23.8614496 5.06735087,23.8614496 C5.83707505,23.8614496 6.22193714,23.5407312 6.22193714,22.2578576 L6.22193714,4.68248877 C6.22193714,3.39961514 5.83707505,3.07889673 5.06735087,3.07889673 C4.29762668,3.07889673 3.84862091,3.39961514 3.84862091,4.68248877 L3.84862091,22.2578576 Z M0,4.36177037 C0,0.962155228 2.62989096,0 5.00320718,0 C7.44066709,0 10.0705581,0.962155228 10.0705581,4.36177037 L10.0705581,22.578576 C10.0705581,25.9781911 7.37652341,26.9403464 5.00320718,26.9403464 C2.62989096,26.9403464 0,25.9781911 0,22.578576 L0,4.36177037 Z" id="Shape"></path>
                            <path d="M18.152662,26.4271969 L16.741501,13.919179 C16.4207826,11.2251443 16.1000641,7.44066709 15.8434894,5.25978191 L15.7152021,5.25978191 C15.7793457,6.86337396 15.8434894,8.78768441 15.8434894,10.3271328 L15.8434894,26.4271969 L12.4438743,26.4271969 L12.4438743,0.449005773 L18.152662,0.449005773 L19.3713919,11.1610006 C19.563823,12.7645927 19.9486851,15.9717768 20.0128287,19.2431046 L20.2052598,19.2431046 C20.3335471,16.5490699 20.3335471,13.2777421 20.5901219,11.1610006 L21.6805645,0.384862091 L27.3893521,0.384862091 L27.3893521,26.3630532 L23.989737,26.3630532 L23.989737,14.3681847 C23.989737,11.289288 24.0538807,8.40282232 24.1180244,5.13149455 L23.989737,5.13149455 C23.797306,7.055805 23.1558691,13.7267479 23.0275818,15.1379089 L21.6805645,26.3630532 L18.152662,26.4271969 L18.152662,26.4271969 Z" id="Path"></path>
                            <path d="M33.5471456,23.3483002 L34.3168698,23.3483002 C35.4073124,23.3483002 35.9204618,22.8992944 35.9204618,21.2957024 L35.9204618,16.3566389 C35.9204618,14.7530468 35.4073124,14.3040411 34.3168698,14.3040411 L33.5471456,14.3040411 L33.5471456,23.3483002 Z M33.5471456,11.2251443 L34.4451572,11.2251443 C35.4073124,11.2251443 35.8563182,10.7761386 35.8563182,9.30083387 L35.8563182,5.38806928 C35.8563182,3.91276459 35.4714561,3.46375882 34.4451572,3.46375882 L33.5471456,3.46375882 L33.5471456,11.2251443 Z M29.6985247,0.449005773 L35.1507377,0.449005773 C38.2296344,0.449005773 39.7049391,2.37331623 39.7049391,5.13149455 L39.7049391,9.23669019 C39.6407954,11.4817191 38.3579217,12.1872996 36.1128929,12.700449 L36.1128929,12.7645927 C38.5503528,13.2135985 39.7690827,13.919179 39.7690827,16.8056446 L39.7690827,20.9108403 C39.7690827,23.989737 38.3579217,26.3630532 35.086594,26.3630532 L29.634381,26.3630532 L29.634381,0.449005773 L29.6985247,0.449005773 Z" id="Shape"></path>
                        </g>
                        <path d="M57.7293137,16.0359205 L56.8954458,5.25978191 L56.6388711,5.25978191 L55.6767158,16.0359205 L57.7293137,16.0359205 Z M54.0089801,0.449005773 L59.7819115,0.449005773 L62.7325208,26.4271969 L58.8197563,26.4271969 L58.1141758,19.3713919 L55.3559974,19.3713919 L54.5221296,26.4271969 L50.9942271,26.4271969 L54.0089801,0.449005773 Z" id="Shape"></path>
                        <g transform="translate(63.951251, 0.000000)" id="Shape">
                            <path d="M3.91276459,11.2251443 L4.61834509,11.2251443 C5.96536241,11.2251443 6.28608082,10.5195638 6.28608082,9.5574086 L6.28608082,4.87491982 C6.28608082,3.91276459 5.70878768,3.59204618 4.81077614,3.59204618 L3.91276459,3.59204618 L3.91276459,11.2251443 L3.91276459,11.2251443 Z M-3.64614617e-14,26.4271969 L-3.64614617e-14,0.449005773 L5.13149455,0.449005773 C8.21039128,0.449005773 10.1347017,1.53944836 10.1347017,4.87491982 L10.1347017,8.53110969 C10.1347017,10.4554201 9.5574086,12.0590122 6.28608082,12.4438743 L6.28608082,12.508018 C8.01796023,12.700449 9.81398332,13.2777421 9.94227069,15.7152021 C10.1347017,19.1789609 9.94227069,22.8351507 10.5837075,26.4271969 L6.73508659,26.4271969 C6.09364978,23.4124439 6.28608082,19.4996793 6.28608082,16.4849262 C6.28608082,14.9454779 5.70878768,14.3040411 3.91276459,14.3681847 L3.91276459,26.4271969 L-3.64614617e-14,26.4271969 L-3.64614617e-14,26.4271969 Z"></path>
                            <path d="M16.0359205,23.3483002 L16.933932,23.3483002 C17.8960872,23.3483002 18.4092367,23.0917255 18.4092367,21.4239897 L18.4092367,5.51635664 C18.4092367,3.84862091 17.9602309,3.59204618 16.933932,3.59204618 L16.0359205,3.59204618 L16.0359205,23.3483002 Z M12.1872996,0.449005773 L16.8697883,0.449005773 C20.7184092,0.449005773 22.3220013,1.73187941 22.3220013,6.3502245 L22.3220013,21.7447081 C22.3220013,24.2463117 20.7184092,26.4271969 17.7036562,26.4271969 L12.1872996,26.4271969 L12.1872996,0.449005773 Z"></path>
                            <path d="M34.2527261,22.2578576 C34.2527261,23.5407312 34.6375882,23.8614496 35.4714561,23.8614496 C36.2411802,23.8614496 36.6260423,23.5407312 36.6260423,22.2578576 L36.6260423,4.68248877 C36.6260423,3.39961514 36.2411802,3.07889673 35.4714561,3.07889673 C34.6375882,3.07889673 34.2527261,3.39961514 34.2527261,4.68248877 L34.2527261,22.2578576 Z M30.4041052,4.36177037 C30.4041052,0.962155228 33.0339962,0 35.4073124,0 C37.8447723,0 40.4746632,0.962155228 40.4746632,4.36177037 L40.4746632,22.578576 C40.4746632,25.9781911 37.7806286,26.9403464 35.4073124,26.9403464 C33.0339962,26.9403464 30.4041052,25.9781911 30.4041052,22.578576 L30.4041052,4.36177037 Z"></path>
                            <path d="M46.375882,23.3483002 L47.2738935,23.3483002 C48.2360487,23.3483002 48.7491982,23.0917255 48.7491982,21.4239897 L48.7491982,5.51635664 C48.7491982,3.84862091 48.3001924,3.59204618 47.2738935,3.59204618 L46.375882,3.59204618 L46.375882,23.3483002 Z M42.5272611,0.449005773 L47.2097498,0.449005773 C51.0583708,0.449005773 52.6619628,1.73187941 52.6619628,6.3502245 L52.6619628,21.7447081 C52.6619628,24.2463117 51.0583708,26.4271969 48.0436177,26.4271969 L42.5272611,26.4271969 L42.5272611,0.449005773 L42.5272611,0.449005773 Z"></path>
                        </g>
                        <rect id="Rectangle" x="118.665811" y="0.449005773" width="3.84862091" height="25.9781911"></rect>
                        <polygon id="Path" points="124.823605 26.4271969 124.823605 0.449005773 133.418858 0.449005773 133.418858 3.84862091 128.672226 3.84862091 128.672226 10.5195638 133.226427 10.5195638 133.226427 13.919179 128.672226 13.919179 128.672226 23.0275818 133.483002 23.0275818 133.483002 26.4271969"></polygon>
                        <path d="M138.742784,11.2251443 L139.448364,11.2251443 C140.795382,11.2251443 141.1161,10.5195638 141.1161,9.5574086 L141.1161,4.87491982 C141.1161,3.91276459 140.538807,3.59204618 139.640795,3.59204618 L138.742784,3.59204618 L138.742784,11.2251443 L138.742784,11.2251443 Z M134.830019,26.4271969 L134.830019,0.449005773 L139.961514,0.449005773 C143.040411,0.449005773 144.964721,1.53944836 144.964721,4.87491982 L144.964721,8.53110969 C144.964721,10.4554201 144.387428,12.0590122 141.1161,12.4438743 L141.1161,12.508018 C142.847979,12.700449 144.644003,13.2777421 144.77229,15.7152021 C144.964721,19.1789609 144.77229,22.8351507 145.413727,26.4271969 L141.565106,26.4271969 C140.923669,23.4124439 141.1161,19.4996793 141.1161,16.4849262 C141.1161,14.9454779 140.538807,14.3040411 138.742784,14.3681847 L138.742784,26.4271969 L134.830019,26.4271969 L134.830019,26.4271969 Z" id="Shape"></path>
                    </g>
                    <path d="M89.8011546,34.0602951 C88.9672867,32.9057088 87.7485568,31.2379731 86.3373958,29.3778063 C84.0282232,26.2989096 81.5907633,23.2200128 80.6927518,22.1937139 L84.0282232,18.8582425 L84.4130853,18.8582425 C84.6055164,19.6921103 85.3110969,20.3335471 86.2091084,20.3335471 C86.7222579,20.3335471 88.0051315,20.0128287 88.9672867,19.6921103 C89.3521488,19.563823 89.9294419,19.3713919 90.4425914,19.1789609 C91.0198845,18.9223861 91.2764593,18.7940988 91.2764593,18.4733804 C91.2764593,18.152662 90.9557409,17.9602309 90.4425914,17.7677999 C89.9935856,17.5753688 89.4162925,17.3829378 88.9672867,17.2546504 C88.0051315,16.933932 86.7222579,16.6132136 86.2091084,16.6132136 C85.3110969,16.6132136 84.5413727,17.2546504 84.4130853,18.0885183 L84.0282232,18.0885183 L80.6927518,14.7530468 C81.5907633,13.7267479 84.0282232,10.6478512 86.3373958,7.56895446 C87.7485568,5.70878768 88.9672867,4.04105196 89.8011546,2.88646568 C90.2501604,2.18088518 90.6350225,1.66773573 90.8915972,1.28287364 C91.2123156,0.769724182 91.4047466,0.384862091 91.1481719,0.128287364 C91.0840282,0.0641436818 90.9557409,0 90.8274535,0 C90.6350225,0 90.1860167,0 83.5150738,5.06735087 C80.5003207,7.31237973 77.4855677,9.74983964 76.5234124,10.5837075 L73.187941,7.24823605 L73.187941,6.86337396 C74.0218089,6.67094291 74.6632457,5.96536241 74.6632457,5.06735087 C74.6632457,4.55420141 74.3425273,3.27132777 74.0218089,2.30917255 C73.8935215,1.92431046 73.7010904,1.34701732 73.5086594,0.833867864 C73.2520847,0.256574727 73.1237973,0 72.8030789,0 C72.4823605,0 72.2899294,0.320718409 72.0974984,0.833867864 C71.9050674,1.28287364 71.7126363,1.86016677 71.5843489,2.30917255 C71.2636305,3.27132777 70.9429121,4.55420141 70.9429121,5.06735087 C70.9429121,5.96536241 71.5843489,6.67094291 72.4182168,6.86337396 L72.4182168,7.24823605 L69.0827453,10.5837075 C68.1205901,9.74983964 65.0416934,7.31237973 62.091084,5.06735087 C55.4201411,0 54.9711353,0 54.7787043,0 C54.6504169,0 54.5862733,0.0641436818 54.4579859,0.128287364 C54.2014112,0.384862091 54.3938422,0.7055805 54.7145606,1.28287364 C54.9711353,1.66773573 55.2918538,2.18088518 55.8050032,2.88646568 C56.6388711,4.10519564 57.857601,5.70878768 59.268762,7.56895446 C61.5779346,10.6478512 64.0153945,13.7267479 64.913406,14.7530468 L61.5779346,18.0885183 L61.1930725,18.0885183 C61.0006414,17.2546504 60.2950609,16.6132136 59.3970494,16.6132136 C58.8838999,16.6132136 57.6010263,16.933932 56.6388711,17.2546504 C56.254009,17.3829378 55.6767158,17.5753688 55.1635664,17.7677999 C54.5862733,18.0243746 54.3296985,18.152662 54.3296985,18.4733804 C54.3296985,18.7940988 54.6504169,18.9865298 55.1635664,19.1789609 C55.6125722,19.3713919 56.1898653,19.563823 56.6388711,19.6921103 C57.6010263,20.0128287 58.8838999,20.3335471 59.3970494,20.3335471 C60.2950609,20.3335471 61.0647851,19.6921103 61.1930725,18.8582425 L61.5779346,18.8582425 L64.913406,22.1937139 C64.0153945,23.2200128 61.5779346,26.2989096 59.268762,29.3778063 C57.857601,31.2379731 56.6388711,32.9057088 55.8050032,34.0602951 C55.3559974,34.7658756 54.9711353,35.279025 54.7145606,35.6638871 C54.3938422,36.1770366 54.2014112,36.5618987 54.4579859,36.8184734 C54.5221296,36.8826171 54.6504169,36.9467607 54.7787043,36.9467607 C54.9711353,36.9467607 55.4201411,36.9467607 62.091084,31.8794099 C65.1058371,29.634381 68.1205901,27.1969211 69.0827453,26.3630532 C69.7883258,27.0686337 71.9050674,29.1853752 72.4182168,29.6985247 L72.4182168,30.0833868 C71.5843489,30.2758178 70.9429121,30.9813983 70.9429121,31.8794099 C70.9429121,32.3925593 71.2636305,33.675433 71.5843489,34.6375882 C71.7126363,35.0224503 71.9050674,35.5997434 72.0974984,36.1128929 C72.3540731,36.690186 72.4823605,36.9467607 72.8030789,36.9467607 C73.1237973,36.9467607 73.3162284,36.6260423 73.5086594,36.1128929 C73.7010904,35.6638871 73.8935215,35.086594 74.0218089,34.6375882 C74.3425273,33.675433 74.6632457,32.3925593 74.6632457,31.8794099 C74.6632457,30.9813983 74.0218089,30.2116742 73.187941,30.0833868 L73.187941,29.6985247 L76.5234124,26.3630532 C77.4855677,27.1969211 80.5644644,29.634381 83.5150738,31.8794099 C90.1860167,36.9467607 90.6350225,36.9467607 90.8274535,36.9467607 L90.8274535,36.9467607 C90.9557409,36.9467607 91.0198845,36.8826171 91.1481719,36.8184734 C91.4047466,36.5618987 91.2123156,36.2411802 90.8915972,35.6638871 C90.6350225,35.279025 90.2501604,34.7017319 89.8011546,34.0602951 Z M86.2091084,17.3187941 C86.8505452,17.3187941 89.2880051,18.0243746 90.2501604,18.4092367 C89.2880051,18.7940988 86.8505452,19.4996793 86.2091084,19.4996793 C85.5676716,19.4996793 85.1186658,18.9865298 85.1186658,18.4092367 C85.1186658,17.8319436 85.5676716,17.3187941 86.2091084,17.3187941 Z M59.3970494,19.563823 C58.7556126,19.563823 56.3181527,18.8582425 55.3559974,18.4733804 C56.3181527,18.0885183 58.7556126,17.3829378 59.3970494,17.3829378 C60.0384862,17.3829378 60.487492,17.8960872 60.487492,18.4733804 C60.487492,19.0506735 60.0384862,19.563823 59.3970494,19.563823 Z M76.5234124,11.6100064 L76.7799872,11.3534317 C77.2289929,10.9044259 80.5644644,8.27453496 83.8357922,5.77293137 C87.0429763,3.33547146 88.9672867,1.92431046 90.0577293,1.21872996 C89.3521488,2.24502886 87.9409878,4.233483 85.5035279,7.44066709 C83.0019243,10.7119949 80.436177,13.9833226 79.9230276,14.4964721 L79.6664529,14.7530468 L83.0019243,18.0885183 L77.3572803,18.0885183 C77.1648493,15.9076331 75.4329699,14.11161 73.2520847,13.9833226 L73.2520847,8.33867864 L76.5234124,11.6100064 Z M71.7126363,5.06735087 C71.7126363,4.42591405 72.4182168,1.98845414 72.8030789,1.02629891 C73.187941,1.98845414 73.8935215,4.42591405 73.8935215,5.06735087 C73.8935215,5.70878768 73.380372,6.15779346 72.8030789,6.15779346 C72.1616421,6.15779346 71.7126363,5.644644 71.7126363,5.06735087 Z M65.9397049,14.7530468 L65.6831302,14.4964721 C65.2341244,14.0474663 62.6042335,10.7119949 60.1026299,7.44066709 C57.66517,4.233483 56.254009,2.30917255 55.5484285,1.21872996 C56.5747274,1.92431046 58.5631815,3.33547146 61.7703656,5.77293137 C65.0416934,8.27453496 68.3130212,10.8402822 68.8261706,11.3534317 L69.0827453,11.6100064 L72.4182168,8.27453496 L72.4182168,13.919179 C70.2373316,14.11161 68.4413085,15.8434894 68.3130212,18.0243746 L62.6683772,18.0243746 L65.9397049,14.7530468 Z M69.0827453,25.2726106 L68.8261706,25.5291854 C68.3771648,25.9781911 65.0416934,28.6080821 61.7703656,31.1096857 C58.5631815,33.5471456 56.6388711,34.9583066 55.5484285,35.6638871 C56.254009,34.6375882 57.66517,32.6491341 60.1026299,29.44195 C62.6042335,26.1706222 65.1699808,22.8992944 65.6831302,22.386145 L65.9397049,22.1295702 L62.6042335,18.7940988 L68.2488775,18.7940988 C68.4413085,20.974984 70.1731879,22.7710071 72.3540731,22.8992944 L72.3540731,28.5439384 L69.0827453,25.2726106 Z M73.8935215,31.8152662 C73.8935215,32.456703 73.187941,34.8941629 72.8030789,35.8563182 C72.4182168,34.8941629 71.7126363,32.456703 71.7126363,31.8152662 C71.7126363,31.1738294 72.2257858,30.7248236 72.8030789,30.7248236 C73.380372,30.7248236 73.8935215,31.2379731 73.8935215,31.8152662 Z M72.8030789,22.1937139 C70.7504811,22.1937139 69.0186017,20.5259782 69.0186017,18.4092367 C69.0186017,16.3566389 70.6863374,14.6247595 72.8030789,14.6247595 C74.8556767,14.6247595 76.5875561,16.2924952 76.5875561,18.4092367 C76.5875561,20.5259782 74.8556767,22.1937139 72.8030789,22.1937139 Z M83.7716485,31.1096857 C80.5003207,28.6080821 77.2289929,26.0423348 76.7158435,25.5291854 L76.4592688,25.2726106 L73.1237973,28.6080821 L73.1237973,22.9634381 C75.3046825,22.7710071 77.1007056,21.0391276 77.2289929,18.8582425 L82.8736369,18.8582425 L79.5381655,22.1937139 L79.7947402,22.4502886 C80.243746,22.8992944 82.8736369,26.2347659 85.3752405,29.5060936 C87.8127004,32.7132777 89.2238614,34.6375882 89.9294419,35.7280308 C88.9672867,34.9583066 86.9788326,33.5471456 83.7716485,31.1096857 Z" id="Shape"></path>
                </g>
            </g>
        </g>
    </g>
</svg>