<?xml version="1.0" encoding="UTF-8"?>
<svg width="140px" height="63px" viewBox="0 0 140 63" version="1.1" xmlns="http://www.w3.org/2000/svg" xmlns:xlink="http://www.w3.org/1999/xlink">
    <title>logo_Meilleur_Placement</title>
    <defs>
        <polygon id="path-1" points="-8.28966525e-15 0 7.58916667 0 7.58916667 7.62405 -8.28966525e-15 7.62405"></polygon>
        <polygon id="path-3" points="0 4.14483263e-15 15.6548 4.14483263e-15 15.6548 20.9049167 0 20.9049167"></polygon>
        <polygon id="path-5" points="0 63 140 63 140 0 0 0"></polygon>
    </defs>
    <g id="Symbols" stroke="none" stroke-width="1" fill="none" fill-rule="evenodd">
        <g id="Section_Clients-Partners" transform="translate(-505.000000, -304.000000)">
            <g id="logo_Meilleur_Placement" transform="translate(505.000000, 304.000000)">
                <polygon id="Fill-1" fill="#000000" points="64.106 29.76575 71.211 29.76575 71.211 1.54116667 64.106 1.54116667"></polygon>
                <polygon id="Fill-2" fill="#000000" points="73.5525 29.76575 80.6575 29.76575 80.6575 1.54116667 73.5525 1.54116667"></polygon>
                <g id="Group-30">
                    <path d="M89.1349667,17.7620333 C89.2154667,16.5452 89.5386333,15.6532833 89.9423,15.0046167 C90.58805,14.0310333 91.4764667,13.5445333 92.6069667,13.5445333 C93.5753,13.5445333 94.3832167,13.8688667 94.9478833,14.5181167 C95.5131333,15.1667833 95.9168,16.2208667 96.0783833,17.7620333 L89.1349667,17.7620333 Z M103.263883,20.6005333 C103.263883,17.9242 102.860217,15.7343667 102.052883,14.0310333 C101.24555,12.3277 100.115633,11.0303667 98.5814667,10.2195333 C97.0473,9.32703333 94.9478833,8.92161667 92.3643,8.92161667 C89.1349667,8.92161667 86.5513833,9.89461667 84.6946333,11.9222833 C82.8373,13.8688667 81.9494667,16.4641167 81.9494667,19.7086167 C81.9494667,21.9795333 82.4336333,23.9261167 83.32205,25.5483667 C84.2098833,27.1700333 85.4208833,28.3868667 86.7934667,29.1977 C88.16605,29.9280333 90.1038833,30.33345 92.5258833,30.33345 C95.35155,30.33345 97.4509667,29.9280333 98.9851333,29.0355333 C100.5193,28.1436167 101.8108,26.6835333 102.860217,24.5747833 L95.9168,23.8450333 C95.5131333,24.4937 95.1094667,24.8991167 94.7058,25.1423667 C94.06005,25.5483667 93.4143,25.7105333 92.7679667,25.7105333 C91.63805,25.7105333 90.7496333,25.3045333 90.1038833,24.4126167 C89.6191333,23.76395 89.29655,22.87145 89.2154667,21.5741167 L103.344967,21.5741167 L103.344967,20.6005333 L103.263883,20.6005333 Z" id="Fill-3" fill="#000000"></path>
                    <path d="M123.529408,29.765575 L116.909158,29.765575 L116.909158,26.4399917 C115.940242,27.8189917 114.971325,28.792575 113.921325,29.3601583 C112.952992,29.9277417 111.660908,30.252075 110.207825,30.252075 C108.269992,30.252075 106.735825,29.6034083 105.686408,28.3054917 C104.555908,27.0081583 103.990658,24.9804917 103.990658,22.3041583 L103.990658,9.327325 L111.095658,9.327325 L111.095658,20.600825 C111.095658,21.8981583 111.337742,22.7906583 111.741408,23.3582417 C112.145075,23.925825 112.791408,24.169075 113.517658,24.169075 C114.324992,24.169075 115.051825,23.8447417 115.617075,23.1149917 C116.182325,22.3852417 116.424408,21.087325 116.424408,19.221825 L116.424408,9.327325 L123.529408,9.327325 L123.529408,29.765575 Z" id="Fill-5" fill="#000000"></path>
                    <path d="M125.547858,9.32709167 L132.168108,9.32709167 L132.168108,12.652675 C132.814442,11.1925917 133.460192,10.2190083 134.105942,9.651425 C134.752275,9.08384167 135.640108,8.84059167 136.609025,8.84059167 C137.658442,8.84059167 138.788942,9.164925 139.999942,9.894675 L137.820025,15.491175 C137.012692,15.0857583 136.366942,14.9235917 135.882192,14.9235917 C134.994358,14.9235917 134.267525,15.3290083 133.702275,16.220925 C132.976025,17.4377583 132.572358,19.6275917 132.572358,22.9525917 L132.572358,29.846425 L125.467358,29.846425 L125.467358,9.32709167 L125.547858,9.32709167 Z" id="Fill-7" fill="#000000"></path>
                    <g id="Group-11" transform="translate(54.498500, 0.000000)">
                        <mask id="mask-2" fill="white">
                            <use xlink:href="#path-1"></use>
                        </mask>
                        <g id="Clip-10"></g>
                        <path d="M7.58916667,3.81196667 C7.58916667,5.92071667 5.89341667,7.62405 3.79458333,7.62405 C1.69516667,7.62405 -8.28966525e-15,5.92071667 -8.28966525e-15,3.81196667 C-8.28966525e-15,1.70321667 1.69516667,-0.000116666667 3.79458333,-0.000116666667 C5.89341667,-0.000116666667 7.58916667,1.70321667 7.58916667,3.81196667" id="Fill-9" fill="#F7941D" mask="url(#mask-2)"></path>
                    </g>
                    <path d="M0,9.32709167 L6.53975,9.32709167 L6.53975,12.3277583 C7.50866667,11.1115083 8.47758333,10.2190083 9.4465,9.651425 C10.4154167,9.08384167 11.5453333,8.84059167 12.9179167,8.84059167 C14.3715833,8.84059167 15.5825833,9.164925 16.3899167,9.73250833 C17.27775,10.3000917 17.9240833,11.1925917 18.4893333,12.3277583 C19.61925,10.9493417 20.5881667,10.0568417 21.5570833,9.57034167 C22.4455,9.08384167 23.5754167,8.84059167 24.948,8.84059167 C26.9663333,8.84059167 28.5005,9.48925833 29.5499167,10.787175 C30.6804167,12.0845083 31.2456667,14.112175 31.2456667,16.8695917 L31.2456667,29.7653417 L24.2211667,29.7653417 L24.2211667,18.1675083 C24.2211667,17.2755917 24.0601667,16.5452583 23.737,16.1398417 C23.2528333,15.4100917 22.6875833,15.0857583 21.96075,15.0857583 C21.1534167,15.0857583 20.4265833,15.4100917 19.9424167,16.0587583 C19.4576667,16.707425 19.2155833,17.7620917 19.2155833,19.3032583 L19.2155833,29.846425 L12.1105833,29.846425 L12.1105833,18.572925 C12.1105833,17.6810083 12.1105833,17.0323417 11.949,16.707425 C11.788,16.220925 11.5453333,15.8155083 11.1416667,15.491175 C10.738,15.1668417 10.3343333,15.004675 9.85016667,15.004675 C9.04283333,15.004675 8.3965,15.3290083 7.83183333,16.0587583 C7.34708333,16.707425 7.0245,17.843175 7.0245,19.3843417 L7.0245,29.846425 L0,29.846425 L0,9.32709167 Z" id="Fill-12" fill="#000000"></path>
                    <path d="M39.4002583,17.7620333 C39.4807583,16.5452 39.803925,15.6532833 40.2075917,15.0046167 C40.8533417,14.0310333 41.7417583,13.5445333 42.8722583,13.5445333 C43.8405917,13.5445333 44.6485083,13.8688667 45.213175,14.5181167 C45.778425,15.1667833 46.1820917,16.2208667 46.343675,17.7620333 L39.4002583,17.7620333 Z M53.529175,20.6005333 C53.529175,17.9242 53.1255083,15.7343667 52.318175,14.0310333 C51.5108417,12.3277 50.380925,11.0303667 48.8467583,10.2195333 C47.3125917,9.32703333 45.213175,8.92161667 42.6295917,8.92161667 C39.4002583,8.92161667 36.816675,9.89461667 34.959925,11.9222833 C33.1025917,13.8688667 32.2147583,16.4641167 32.2147583,19.7086167 C32.2147583,21.9795333 32.698925,23.9261167 33.5873417,25.5483667 C34.475175,27.1700333 35.686175,28.3868667 37.0587583,29.1977 C38.4313417,29.9280333 40.369175,30.33345 42.791175,30.33345 C45.6168417,30.33345 47.7162583,29.9280333 49.250425,29.0355333 C50.7845917,28.1436167 51.9955917,26.6835333 53.1255083,24.5747833 L46.1820917,23.8450333 C45.778425,24.4937 45.3747583,24.8991167 44.9710917,25.1423667 C44.3253417,25.5483667 43.6795917,25.7105333 43.0332583,25.7105333 C41.9033417,25.7105333 41.0960083,25.3045333 40.369175,24.4126167 C39.884425,23.76395 39.5618417,22.87145 39.4807583,21.5741167 L53.6102583,21.5741167 L53.6102583,20.6005333 L53.529175,20.6005333 Z" id="Fill-14" fill="#000000"></path>
                    <path d="M61.7647333,9.32709167 L61.7647333,29.846425 L54.6597333,29.846425 L54.6597333,9.32709167 C54.6597333,9.32709167 56.1128167,10.137925 58.2122333,10.137925 C60.39215,10.137925 61.7647333,9.32709167 61.7647333,9.32709167" id="Fill-16" fill="#000000"></path>
                    <g id="Group-20" transform="translate(0.000000, 42.094967)">
                        <mask id="mask-4" fill="white">
                            <use xlink:href="#path-3"></use>
                        </mask>
                        <g id="Clip-19"></g>
                        <path d="M5.47621667,7.83941667 C5.47621667,9.02708333 5.71421667,9.91783333 6.19021667,10.45275 C6.6668,11.0465833 7.2618,11.284 7.97638333,11.284 C8.63088333,11.284 9.16696667,10.9870833 9.58346667,10.45275 C9.99996667,9.91783333 10.2379667,8.96758333 10.2379667,7.6615 C10.2379667,6.47325 9.99996667,5.5825 9.58346667,4.98866667 C9.16696667,4.39483333 8.57138333,4.15741667 7.97638333,4.15741667 C7.2618,4.15741667 6.7263,4.45433333 6.2503,4.98866667 C5.65471667,5.642 5.47621667,6.53275 5.47621667,7.83941667 M-0.000116666667,20.9049167 L-0.000116666667,0.356416667 L5.11921667,0.356416667 L5.11921667,2.55383333 C5.83321667,1.60358333 6.4883,1.00975 7.0833,0.653333333 C7.85738333,0.237416667 8.74988333,4.14483263e-15 9.70246667,4.14483263e-15 C11.60705,4.14483263e-15 13.0951333,0.772333333 14.1072167,2.25691667 C15.1193,3.7415 15.6548,5.642 15.6548,7.89891667 C15.6548,10.39325 15.0598,12.29375 13.9287167,13.6004167 C12.7976333,14.9065 11.36905,15.5598333 9.64296667,15.5598333 C8.80938333,15.5598333 8.03588333,15.3819167 7.3213,15.085 C6.6073,14.7880833 6.01171667,14.3126667 5.47621667,13.7783333 L5.47621667,20.9049167 C5.47621667,20.9049167 -0.000116666667,20.9049167 -0.000116666667,20.9049167" id="Fill-18" fill="#F7941D" mask="url(#mask-4)"></path>
                    </g>
                    <mask id="mask-6" fill="white">
                        <use xlink:href="#path-5"></use>
                    </mask>
                    <g id="Clip-22"></g>
                    <polygon id="Fill-21" fill="#F7941D" mask="url(#mask-6)" points="16.4284167 57.2985 21.90475 57.2985 21.90475 36.75 16.4284167 36.75"></polygon>
                    <path d="M33.0952417,50.2907417 C32.3211583,50.5876583 31.5476583,50.825075 30.773575,51.063075 C29.643075,51.3599917 28.9879917,51.6569083 28.6904917,51.953825 C28.3929917,52.2507417 28.2144917,52.6071583 28.2144917,53.0224917 C28.2144917,53.4979083 28.3929917,53.854325 28.6904917,54.1512417 C28.9879917,54.4481583 29.4044917,54.566575 30.000075,54.566575 C30.595075,54.566575 31.1906583,54.3886583 31.6666583,54.0917417 C32.2021583,53.794825 32.5597417,53.3789083 32.7977417,52.9629917 C33.0357417,52.5476583 33.1547417,51.953825 33.1547417,51.2409917 L33.1547417,50.2907417 L33.0952417,50.2907417 Z M28.3334917,47.262075 L23.1546583,46.6682417 C23.3331583,45.7179917 23.6312417,44.9456583 23.9882417,44.411325 C24.3452417,43.8769917 24.8807417,43.401575 25.595325,42.9856583 C26.071325,42.6887417 26.7859083,42.451325 27.6784083,42.332325 C28.5714917,42.2139083 29.524075,42.0949083 30.535575,42.0949083 C32.1426583,42.0949083 33.4522417,42.2139083 34.464325,42.391825 C35.4764083,42.570325 36.2499083,42.9856583 36.9644917,43.5794917 C37.4404917,43.9954083 37.7974917,44.5892417 38.0354917,45.361575 C38.274075,46.133325 38.452575,46.8461583 38.452575,47.5589917 L38.452575,54.1512417 C38.452575,54.8634917 38.512075,55.3984083 38.571575,55.8137417 C38.631075,56.2296583 38.869075,56.7044917 39.107075,57.357825 L33.988325,57.357825 C33.8092417,57.0019917 33.6307417,56.7044917 33.5712417,56.467075 C33.5117417,56.2891583 33.4522417,55.9327417 33.3927417,55.516825 C32.6787417,56.2296583 31.9641583,56.7639917 31.2501583,57.0609083 C30.297575,57.476825 29.1664917,57.6547417 27.9164083,57.6547417 C26.249825,57.6547417 24.9402417,57.2394083 24.0477417,56.407575 C23.1546583,55.576325 22.7381583,54.566575 22.7381583,53.3789083 C22.7381583,52.2507417 23.0356583,51.3004917 23.6907417,50.5876583 C24.3452417,49.874825 25.476325,49.3404917 27.2024083,48.984075 C29.2259917,48.5687417 30.535575,48.2712417 31.1906583,48.093325 C31.7856583,47.9154083 32.4407417,47.6774083 33.0952417,47.4399917 C33.0952417,46.7271583 32.9762417,46.252325 32.6787417,45.9554083 C32.3806583,45.6584917 31.9046583,45.5394917 31.2501583,45.5394917 C30.357075,45.5394917 29.702575,45.7179917 29.2259917,46.0149083 C28.8689917,46.192825 28.5714917,46.6087417 28.3334917,47.262075 L28.3334917,47.262075 Z" id="Fill-23" fill="#F7941D" mask="url(#mask-6)"></path>
                    <path d="M50.238125,51.478525 L55.4169583,52.0723583 C55.118875,53.200525 54.642875,54.210275 53.988375,54.9826083 C53.3332917,55.8138583 52.5002917,56.4671917 51.4882083,56.8831083 C50.476125,57.3579417 49.1665417,57.5953583 47.6189583,57.5953583 C46.130875,57.5953583 44.8807917,57.4769417 43.8692917,57.180025 C42.8572083,56.8831083 42.023625,56.4076917 41.309625,55.7543583 C40.5950417,55.101025 40.0000417,54.329275 39.5835417,53.438525 C39.1664583,52.547775 38.9879583,51.359525 38.9879583,49.9344417 C38.9879583,48.3903583 39.2259583,47.1431917 39.7620417,46.1334417 C40.1190417,45.3616917 40.6545417,44.7083583 41.250125,44.114525 C41.904625,43.5201083 42.5597083,43.104775 43.2142083,42.8078583 C44.2857917,42.3324417 45.654875,42.095025 47.2619583,42.095025 C49.583625,42.095025 51.3692083,42.5109417 52.5597917,43.4016917 C53.7497917,44.2924417 54.642875,45.5396083 55.118875,47.2026917 L50.000125,47.9149417 C49.821625,47.2616083 49.524125,46.786775 49.1070417,46.4898583 C48.6905417,46.1929417 48.0955417,46.0144417 47.3809583,46.0144417 C46.487875,46.0144417 45.773875,46.3708583 45.178875,47.0241917 C44.6427917,47.677525 44.3452917,48.746775 44.3452917,50.1123583 C44.3452917,51.359525 44.6427917,52.2508583 45.178875,52.9036083 C45.714375,53.5569417 46.428375,53.8538583 47.2619583,53.8538583 C47.9759583,53.8538583 48.5715417,53.6759417 49.0475417,53.260025 C49.643125,52.9036083 50.000125,52.309775 50.238125,51.478525" id="Fill-24" fill="#F7941D" mask="url(#mask-6)"></path>
                    <path d="M66.1904833,48.56845 C66.0714833,47.4402833 65.7739833,46.66795 65.3569,46.1931167 C64.8809,45.7177 64.2859,45.4802833 63.5713167,45.4802833 C62.6788167,45.4802833 62.0237333,45.8367 61.4882333,46.54895 C61.1312333,47.0243667 60.95215,47.6777 60.83315,48.56845 C60.83315,48.56845 66.1904833,48.56845 66.1904833,48.56845 L66.1904833,48.56845 Z M71.7263167,51.3002 L60.83315,51.3002 C60.95215,52.19095 61.1907333,52.9037833 61.5477333,53.3197 C62.0832333,53.9730333 62.7383167,54.26995 63.6308167,54.26995 C64.1669,54.26995 64.7024,54.15095 65.1784,53.8540333 C65.4764833,53.6761167 65.7739833,53.3792 66.1309833,52.9037833 L71.4883167,53.4381167 C70.6547333,54.9232833 69.70215,55.99195 68.51215,56.6452833 C67.3810667,57.2986167 65.7144833,57.5955333 63.5118167,57.5955333 C61.6072333,57.5955333 60.17865,57.2986167 59.0475667,56.7642833 C57.9759833,56.2293667 57.0834833,55.3386167 56.3689,54.09145 C55.6549,52.9037833 55.2979,51.4787 55.2979,49.8156167 C55.2979,47.4992 56.0119,45.5992833 57.4404833,44.1736167 C58.8690667,42.7485333 60.83315,42.0357 63.3333167,42.0357 C65.3574833,42.0357 66.9645667,42.3326167 68.1545667,42.98595 C69.34515,43.6392833 70.2382333,44.5895333 70.8332333,45.7772 C71.4288167,47.0243667 71.7858167,48.56845 71.7858167,50.58795 L71.7858167,51.3002 L71.7263167,51.3002 Z" id="Fill-25" fill="#F7941D" mask="url(#mask-6)"></path>
                    <path d="M72.2619333,42.4513833 L77.3211833,42.4513833 L77.3211833,44.6488 C78.0357667,43.75805 78.8092667,43.1047167 79.52385,42.6888 C80.23785,42.2734667 81.1904333,42.0949667 82.2025167,42.0949667 C83.3336,42.0949667 84.2261,42.3323833 84.8811833,42.7483 C85.5356833,43.1642167 86.0711833,43.81755 86.4882667,44.6488 C87.3212667,43.69855 88.09535,42.9857167 88.80935,42.6888 C89.5239333,42.3918833 90.3569333,42.1544667 91.4285167,42.1544667 C92.9761,42.1544667 94.1666833,42.6293 95.0002667,43.57955 C95.8332667,44.5298 96.30985,46.0149667 96.30985,48.0338833 L96.30985,57.4173833 L90.8335167,57.4173833 L90.8335167,48.8651333 C90.8335167,48.2123833 90.7145167,47.6774667 90.4759333,47.38055 C90.1189333,46.8462167 89.6429333,46.6088 89.1074333,46.6088 C88.45235,46.6088 87.97635,46.8462167 87.55985,47.32105 C87.1427667,47.7964667 86.9642667,48.5682167 86.9642667,49.6374667 L86.9642667,57.2983833 L81.4879333,57.2983833 L81.4879333,49.1626333 C81.4879333,48.5093 81.4284333,48.0338833 81.3689333,47.8559667 C81.2499333,47.49955 81.0714333,47.2026333 80.7739333,46.9652167 C80.4764333,46.7272167 80.17835,46.6088 79.76185,46.6088 C79.10735,46.6088 78.6307667,46.8462167 78.2142667,47.38055 C77.7977667,47.8559667 77.6192667,48.6872167 77.6192667,49.8153833 L77.6192667,57.4173833 L72.1429333,57.4173833 L72.1429333,42.4513833 L72.2619333,42.4513833 Z" id="Fill-26" fill="#F7941D" mask="url(#mask-6)"></path>
                    <path d="M107.857167,48.56845 C107.738167,47.4402833 107.440667,46.66795 107.023583,46.1931167 C106.607083,45.7177 105.952583,45.4802833 105.238,45.4802833 C104.3455,45.4802833 103.690417,45.8367 103.154917,46.54895 C102.797917,47.0243667 102.618833,47.6777 102.499833,48.56845 C102.499833,48.56845 107.857167,48.56845 107.857167,48.56845 L107.857167,48.56845 Z M113.393,51.3002 L102.499833,51.3002 C102.618833,52.19095 102.857417,52.9037833 103.214417,53.3197 C103.749917,53.9730333 104.405,54.26995 105.2975,54.26995 C105.833583,54.26995 106.369083,54.15095 106.845083,53.8540333 C107.143167,53.6761167 107.440667,53.3792 107.797667,52.9037833 L113.155,53.4381167 C112.321417,54.9232833 111.368833,55.99195 110.178833,56.6452833 C109.04775,57.2986167 107.381167,57.5955333 105.1785,57.5955333 C103.273917,57.5955333 101.845333,57.2986167 100.71425,56.7642833 C99.6426667,56.2293667 98.7501667,55.3386167 98.0355833,54.09145 C97.3215833,52.9037833 96.9645833,51.4787 96.9645833,49.8156167 C96.9645833,47.4992 97.6785833,45.5992833 99.1071667,44.1736167 C100.53575,42.7485333 102.499833,42.0357 105,42.0357 C107.023583,42.0357 108.63125,42.3326167 109.82125,42.98595 C111.011833,43.6392833 111.904917,44.5895333 112.499917,45.7772 C113.0955,47.0243667 113.393,48.56845 113.393,50.58795 L113.393,51.3002 Z" id="Fill-27" fill="#F7941D" mask="url(#mask-6)"></path>
                    <path d="M113.928558,42.4513833 L118.987808,42.4513833 L118.987808,44.8862167 C119.761892,43.8764667 120.535975,43.1642167 121.309475,42.7483 C122.083558,42.3323833 123.035558,42.0949667 124.166642,42.0949667 C125.654725,42.0949667 126.845308,42.5703833 127.678308,43.5206333 C128.511892,44.4708833 128.928392,45.8959667 128.928392,47.8559667 L128.928392,57.2983833 L123.452058,57.2983833 L123.452058,49.1626333 C123.452058,48.2123833 123.273558,47.55905 122.976058,47.2026333 C122.678558,46.8462167 122.202558,46.6088 121.606975,46.6088 C120.952475,46.6088 120.416392,46.8462167 119.999892,47.38055 C119.583392,47.9154667 119.404892,48.8651333 119.404892,50.1718 L119.404892,57.2983833 L113.988058,57.2983833 L113.988058,42.4513833 L113.928558,42.4513833 Z" id="Fill-28" fill="#F7941D" mask="url(#mask-6)"></path>
                    <path d="M136.785717,36.75 L136.785717,42.392 L139.761883,42.392 L139.761883,46.5494167 L136.785717,46.5494167 L136.785717,51.835 C136.785717,52.4883333 136.845217,52.9036667 136.964217,53.0821667 C137.142717,53.3790833 137.440217,53.557 137.9168,53.557 C138.3333,53.557 138.8688,53.4385833 139.583383,53.2005833 L139.999883,57.1205833 C138.6308,57.4175 137.380717,57.5954167 136.250217,57.5954167 C134.881133,57.5954167 133.86905,57.4175 133.27405,57.0610833 C132.618967,56.7046667 132.142967,56.1703333 131.845467,55.398 C131.547383,54.68575 131.368883,53.4385833 131.368883,51.7755 L131.368883,46.5494167 L129.3453,46.5494167 L129.3453,42.392 L131.368883,42.392 L131.368883,39.7191667 L136.785717,36.75 Z" id="Fill-29" fill="#F7941D" mask="url(#mask-6)"></path>
                </g>
            </g>
        </g>
    </g>
</svg>