<?xml version="1.0" encoding="UTF-8"?>
<svg width="204px" height="41px" viewBox="0 0 204 41" version="1.1" xmlns="http://www.w3.org/2000/svg" xmlns:xlink="http://www.w3.org/1999/xlink">
    <title>SG_logo</title>
    <g id="Symbols" stroke="none" stroke-width="1" fill="none" fill-rule="evenodd">
        <g id="Section_Clients-Partners" transform="translate(-173.000000, -317.000000)">
            <g id="SG_logo" transform="translate(173.500000, 317.586207)">
                <path d="M66.1666667,4.66666667 C64,3.83333333 61.8333333,3.16666667 59.6666667,3.16666667 C56.6666667,3.16666667 55.1666667,3.83333333 55.1666667,5 C55.1666667,8.33333333 68.3333333,5.66666667 68.3333333,12.6666667 C68.3333333,15.5 65.6666667,17.8333333 60.1666667,17.8333333 C57,17.8333333 54.3333333,17.1666667 51.5,15.6666667 L52.6666667,13 C55.1666667,14.3333333 57.6666667,15 60.1666667,15 C63.3333333,15 65.1666667,14 65.1666667,12.6666667 C65.1666667,9 52,11.8333333 52,5.16666667 C52,2.33333333 54.6666667,0.333333333 59.5,0.333333333 C62.5,0.333333333 64.8333333,1 67.1666667,2.16666667 L66.1666667,4.66666667 L66.1666667,4.66666667 Z M81,17.8333333 C75.6666667,17.8333333 71.3333333,14.3333333 71.3333333,9 C71.3333333,3.83333333 75.6666667,0.166666667 81,0.166666667 C86.3333333,0.166666667 90.6666667,3.83333333 90.6666667,9 C90.6666667,14.1666667 86.3333333,17.8333333 81,17.8333333 M81,3 C77.1666667,3 74.5,5.66666667 74.5,9 C74.5,12.5 77,15 81,15 C85,15 87.5,12.5 87.5,9 C87.3333333,5.66666667 84.8333333,3 81,3 M103.166667,17.6666667 C97.6666667,17.6666667 93.5,14.1666667 93.5,8.83333333 C93.5,3.66666667 97.8333333,0 103.166667,0 C106.5,0 108.833333,1 110.833333,2.5 L109.166667,5 C107.666667,3.83333333 105.666667,3 103.166667,3 C99.1666667,3 96.6666667,5.5 96.6666667,8.83333333 C96.6666667,12.3333333 99.1666667,14.8333333 103.333333,14.8333333 C105.833333,14.8333333 107.833333,14 109.5,12.8333333 L111.166667,15.3333333 C109,16.8333333 106.5,17.6666667 103.166667,17.6666667 M114.5,17.3333333 L117.5,17.3333333 L117.5,0.666666667 L114.333333,0.666666667 L114.333333,17.3333333 L114.5,17.3333333 Z M122.166667,0.666666667 L122.166667,17.3333333 L137.833333,17.3333333 L137.833333,14.6666667 L125.333333,14.6666667 L125.333333,10.1666667 L134.666667,10.1666667 L134.666667,7.5 L125.333333,7.5 L125.333333,3.5 L137.333333,3.5 L137.333333,0.833333333 L122.166667,0.833333333 L122.166667,0.666666667 Z M139.333333,0.666666667 L139.333333,3.33333333 L146.166667,3.33333333 L146.166667,17.1666667 L149.166667,17.1666667 L149.166667,3.33333333 L156,3.33333333 L156,0.666666667 L139.333333,0.666666667 Z M158.5,0.666666667 L158.5,17.3333333 L174.166667,17.3333333 L174.166667,14.6666667 L161.666667,14.6666667 L161.666667,10.1666667 L171,10.1666667 L171,7.5 L161.666667,7.5 L161.666667,3.5 L173.666667,3.5 L173.666667,0.833333333 L158.5,0.833333333 L158.5,0.666666667 Z M61.1666667,37 C62.8333333,37 64.6666667,36.6666667 65.8333333,36 L65.8333333,31.1666667 L68.8333333,31.1666667 L68.8333333,37.6666667 C66.6666667,39.1666667 63.8333333,40 61,40 C55.5,40 51.3333333,36.5 51.3333333,31.1666667 C51.3333333,26 55.6666667,22.3333333 61,22.3333333 C64.1666667,22.3333333 66.6666667,23.1666667 68.6666667,24.8333333 L67,27.3333333 C65.5,26.1666667 63.5,25.3333333 61,25.3333333 C57,25.1666667 54.5,27.8333333 54.5,31.1666667 C54.5,34.5 57.1666667,37 61.1666667,37 M73,22.8333333 L73,39.5 L88.6666667,39.5 L88.6666667,36.8333333 L76.1666667,36.8333333 L76.1666667,32.5 L85.5,32.5 L85.5,29.8333333 L76.1666667,29.8333333 L76.1666667,25.8333333 L88.1666667,25.8333333 L88.1666667,23.1666667 L73,22.8333333 Z M94.6666667,39.3333333 L91.6666667,39.3333333 L91.6666667,22.6666667 L94.8333333,22.6666667 L105.666667,35.1666667 L105.666667,35.1666667 C105.5,32.5 105.5,29.6666667 105.5,27 L105.5,22.6666667 L108.5,22.6666667 L108.5,39.3333333 L105.333333,39.3333333 L94.6666667,26.8333333 L94.6666667,26.8333333 C94.8333333,29.3333333 94.8333333,33.6666667 94.8333333,35 L94.6666667,39.3333333 L94.6666667,39.3333333 Z M112.833333,22.8333333 L112.833333,39.5 L128.5,39.5 L128.5,36.8333333 L115.833333,36.8333333 L115.833333,32.5 L125.166667,32.5 L125.166667,29.8333333 L115.833333,29.8333333 L115.833333,25.8333333 L127.833333,25.8333333 L127.833333,23.1666667 L112.833333,22.8333333 Z M139.833333,33.3333333 L134.833333,33.3333333 L134.833333,39.5 L131.833333,39.5 L131.833333,22.8333333 L142.5,22.8333333 C146,22.8333333 148.166667,25 148.166667,28.1666667 C148.166667,31.1666667 146,32.8333333 143.333333,33.3333333 L148.333333,39.5 L144.5,39.5 L139.833333,33.3333333 L139.833333,33.3333333 Z M142.166667,30.5 C144.166667,30.5 145.166667,29.5 145.166667,28 C145.166667,26.5 144.166667,25.5 142.5,25.5 L134.833333,25.5 L134.833333,30.5 L142.166667,30.5 L142.166667,30.5 Z M157.5,22.8333333 L149.333333,39.5 L152.666667,39.5 L154.5,35.5 L163.5,35.5 L165.333333,39.5 L168.666667,39.5 L160.5,22.8333333 L157.5,22.8333333 L157.5,22.8333333 Z M159.166667,26 L162.333333,32.6666667 L156,32.6666667 L159.166667,26 Z M171.166667,22.8333333 L171.166667,39.5 L185.333333,39.5 L185.333333,36.8333333 L174.166667,36.8333333 L174.166667,23 L171.166667,23 L171.166667,22.8333333 Z M187.333333,22.8333333 L187.333333,39.5 L203,39.5 L203,36.8333333 L190.5,36.8333333 L190.5,32.5 L199.833333,32.5 L199.833333,29.8333333 L190.5,29.8333333 L190.5,25.8333333 L202.5,25.8333333 L202.5,23.1666667 L187.333333,22.8333333 Z" id="Shape" fill="#000000" fill-rule="nonzero"></path>
                <polygon id="Path" fill="#ED0210" points="-1.18423789e-14 20.3333333 39.6666667 20.3333333 39.6666667 0.166666667 -1.18423789e-14 0.166666667"></polygon>
                <polygon id="Path" fill="#000000" fill-rule="nonzero" points="-1.18423789e-14 39.8333333 39.6666667 39.8333333 39.6666667 20 -1.18423789e-14 20"></polygon>
                <polygon id="Path" fill="#FFFFFF" points="7 21.1666667 32.8333333 21.1666667 32.8333333 18.8333333 7 18.8333333"></polygon>
            </g>
        </g>
    </g>
</svg>