<?xml version="1.0" standalone="no"?>
<!DOCTYPE svg PUBLIC "-//W3C//DTD SVG 20010904//EN"
 "http://www.w3.org/TR/2001/REC-SVG-20010904/DTD/svg10.dtd">
<svg version="1.0" xmlns="http://www.w3.org/2000/svg"
 width="520.000000pt" height="520.000000pt" viewBox="0 0 520.000000 520.000000"
 preserveAspectRatio="xMidYMid meet">
<metadata>
Created by potrace 1.14, written by Peter Selinger 2001-2017
</metadata>
<g transform="translate(0.000000,520.000000) scale(0.100000,-0.100000)"
fill="#000000" stroke="none">
<path d="M12 5188 c-17 -17 -17 -5159 0 -5176 17 -17 5159 -17 5176 0 17 17
17 5159 0 5176 -17 17 -5159 17 -5176 0z m2490 -1363 c21 -66 208 -659 416
-1318 l379 -1197 -376 2 -376 3 -247 720 c-136 396 -337 979 -446 1295 -110
316 -203 585 -206 598 l-7 22 412 -2 413 -3 38 -120z m1322 -187 c53 -150 96
-276 96 -280 0 -5 -173 -8 -384 -8 l-384 0 -91 273 c-50 149 -91 275 -91 280
0 4 170 7 379 7 l378 0 97 -272z m-2055 -390 l182 -526 -267 -734 c-146 -403
-267 -734 -268 -734 -2 -3 -729 26 -732 29 -3 2 832 2558 850 2602 7 16 12 8
31 -45 12 -36 104 -302 204 -592z m2528 -1128 c149 -448 272 -818 272 -822 1
-10 -323 -10 -566 -1 l-180 6 -278 804 c-153 442 -275 806 -271 810 6 6 606
22 716 19 l35 -1 272 -815z"/>
</g>
</svg>
