<?xml version="1.0" encoding="UTF-8" standalone="no"?>
<!-- Created with Inkscape (http://www.inkscape.org/) -->

<svg
   version="1.1"
   id="svg9"
   width="403"
   height="125"
   viewBox="0 0 403 125"
   sodipodi:docname="LIDTA_2023.svg"
   inkscape:version="1.2.2 (732a01da63, 2022-12-09)"
   xmlns:inkscape="http://www.inkscape.org/namespaces/inkscape"
   xmlns:sodipodi="http://sodipodi.sourceforge.net/DTD/sodipodi-0.dtd"
   xmlns="http://www.w3.org/2000/svg"
   xmlns:svg="http://www.w3.org/2000/svg">
  <defs
     id="defs13">
    <filter
       id="fx0"
       x="-10%"
       y="-10%"
       width="120%"
       height="120%"
       filterUnits="userSpaceOnUse"
       primitiveUnits="userSpaceOnUse">
      <feComponentTransfer
         color-interpolation-filters="sRGB"
         id="feComponentTransfer192">
        <feFuncR
           type="discrete"
           tableValues="0 0"
           id="feFuncR184" />
        <feFuncG
           type="discrete"
           tableValues="0 0"
           id="feFuncG186" />
        <feFuncB
           type="discrete"
           tableValues="0 0"
           id="feFuncB188" />
        <feFuncA
           type="linear"
           slope="0.301961"
           intercept="0"
           id="feFuncA190" />
      </feComponentTransfer>
      <feGaussianBlur
         stdDeviation="1.07015 1.07015"
         id="feGaussianBlur194" />
    </filter>
    <clipPath
       id="clip1">
      <rect
         x="2"
         y="2"
         width="351"
         height="56"
         id="rect197" />
    </clipPath>
  </defs>
  <sodipodi:namedview
     id="namedview11"
     pagecolor="#ffffff"
     bordercolor="#666666"
     borderopacity="1.0"
     inkscape:pageshadow="2"
     inkscape:pageopacity="0.0"
     inkscape:pagecheckerboard="0"
     showgrid="false"
     inkscape:zoom="1.6725562"
     inkscape:cx="152.46124"
     inkscape:cy="106.42393"
     inkscape:window-width="1280"
     inkscape:window-height="961"
     inkscape:window-x="1912"
     inkscape:window-y="-8"
     inkscape:window-maximized="1"
     inkscape:current-layer="g15"
     inkscape:showpageshadow="2"
     inkscape:deskcolor="#d1d1d1" />
  <g
     inkscape:groupmode="layer"
     inkscape:label="Image"
     id="g15">
    <g
       transform="matrix(1.1416027,0,0,1.580129,-203.75384,-865.47907)"
       id="g212">
      <g
         clip-path="url(#clip1)"
         filter="url(#fx0)"
         transform="translate(178,556)"
         id="g206">
        <g
           id="g204">
          <path
             d="m 257.353,14.3437 c -0.864,0 -1.68,0.216 -2.448,0.648 -0.768,0.432 -1.44,1.212 -2.016,2.34 -0.576,1.128 -1.032,2.688 -1.368,4.68 -0.336,1.992 -0.504,4.548 -0.504,7.668 0,3.12 0.168,5.688 0.504,7.704 0.336,2.016 0.792,3.624 1.368,4.824 0.576,1.2 1.248,2.028 2.016,2.484 0.768,0.456 1.584,0.684 2.448,0.684 0.912,0 1.752,-0.228 2.52,-0.684 0.768,-0.456 1.44,-1.284 2.016,-2.484 0.576,-1.2 1.02,-2.808 1.332,-4.824 0.312,-2.016 0.468,-4.584 0.468,-7.704 0,-3.12 -0.156,-5.676 -0.468,-7.668 -0.312,-1.992 -0.756,-3.552 -1.332,-4.68 -0.576,-1.128 -1.248,-1.908 -2.016,-2.34 -0.768,-0.432 -1.608,-0.648 -2.52,-0.648 z m -181.8803,0 v 29.808 h 2.016 c 2.016,0 3.84,-0.264 5.472,-0.792 1.632,-0.528 3.024,-1.38 4.176,-2.556 1.152,-1.176 2.052,-2.724 2.7,-4.644 0.648,-1.92 0.972,-4.296 0.972,-7.128 0,-2.784 -0.324,-5.124 -0.972,-7.02 -0.648,-1.896 -1.548,-3.408 -2.7,-4.536 -1.152,-1.128 -2.544,-1.932 -4.176,-2.412 -1.632,-0.48 -3.456,-0.72 -5.472,-0.72 z m 90.1043,-0.504 c -0.576,2.496 -1.164,5.052 -1.764,7.668 -0.6,2.616 -1.236,5.1 -1.908,7.452 l -1.152,4.32 h 10.008 l -1.08,-4.32 c -0.672,-2.352 -1.32,-4.848 -1.944,-7.488 -0.624,-2.64 -1.248,-5.184 -1.872,-7.632 z M 331.625,6.13567 c 2.352,0 4.5,0.27599 6.444,0.828 1.944,0.552 3.6,1.368 4.968,2.448 1.368,1.08003 2.436,2.38803 3.204,3.92403 0.768,1.536 1.152,3.312 1.152,5.328 0,2.4 -0.66,4.428 -1.98,6.084 -1.32,1.656 -3.204,3.012 -5.652,4.068 v 0.288 c 2.64,0.768 4.812,2.076 6.516,3.924 1.704,1.848 2.556,4.26 2.556,7.236 0,2.112 -0.456,3.996 -1.368,5.652 -0.912,1.656 -2.136,3.048 -3.672,4.176 -1.536,1.128 -3.336,1.992 -5.4,2.592 -2.064,0.6 -4.248,0.9 -6.552,0.9 -3.744,0 -6.912,-0.588 -9.504,-1.764 -2.592,-1.176 -4.728,-2.748 -6.408,-4.716 l 4.896,-6.696 c 1.392,1.344 2.916,2.448 4.572,3.312 1.656,0.864 3.468,1.296 5.436,1.296 2.256,0 4.056,-0.468 5.4,-1.404 1.344,-0.936 2.016,-2.268 2.016,-3.996 0,-1.008 -0.18,-1.92 -0.54,-2.736 -0.36,-0.816 -0.996,-1.5 -1.908,-2.052 -0.912,-0.552 -2.16,-0.984 -3.744,-1.296 -1.584,-0.312 -3.624,-0.468 -6.12,-0.468 v -7.488 c 2.064,0 3.78,-0.144 5.148,-0.432 1.368,-0.288 2.472,-0.708 3.312,-1.26 0.84,-0.552 1.44,-1.2 1.8,-1.944 0.36,-0.744 0.54,-1.572 0.54,-2.484 0,-1.584 -0.48,-2.82 -1.44,-3.708 -0.96,-0.888 -2.352,-1.332 -4.176,-1.332 -1.632,0 -3.108,0.36 -4.428,1.08 -1.32,0.72 -2.7,1.704 -4.14,2.952 l -5.328,-6.48 c 2.112,-1.824 4.332,-3.25204 6.66,-4.28403 2.328,-1.032 4.908,-1.548 7.74,-1.548 z m -37.784,0 c 2.256,0 4.308,0.348 6.156,1.04399 1.848,0.69601 3.444,1.68 4.788,2.95204 1.344,1.272 2.376,2.796 3.096,4.572 0.72,1.776 1.08,3.768 1.08,5.976 0,1.92 -0.408,3.876 -1.224,5.868 -0.816,1.992 -1.908,3.984 -3.276,5.976 -1.368,1.992 -2.928,3.984 -4.68,5.976 -1.752,1.992 -3.564,3.948 -5.436,5.868 1.152,-0.144 2.436,-0.276 3.852,-0.396 1.416,-0.12 2.676,-0.18 3.78,-0.18 h 9.216 v 8.928 h -32.184 v -6.048 c 2.928,-2.736 5.604,-5.292 8.028,-7.668 2.424,-2.376 4.512,-4.608 6.264,-6.696 1.752,-2.088 3.12,-4.032 4.104,-5.832 0.984,-1.8 1.476,-3.516 1.476,-5.148 0,-2.256 -0.576,-3.972 -1.728,-5.148 -1.152,-1.176 -2.736,-1.764 -4.752,-1.764 -1.68,0 -3.168,0.468 -4.464,1.404 -1.296,0.936 -2.52,2.028 -3.672,3.276 l -5.76,-5.688 c 2.256,-2.4 4.56,-4.21203 6.912,-5.43604 2.352,-1.22399 5.16,-1.83599 8.424,-1.83599 z m -36.488,0 c 2.448,0 4.68,0.49199 6.696,1.47599 2.016,0.98401 3.732,2.47204 5.148,4.46404 1.416,1.992 2.52,4.452 3.312,7.38 0.792,2.928 1.188,6.336 1.188,10.224 0,3.888 -0.396,7.32 -1.188,10.296 -0.792,2.976 -1.896,5.472 -3.312,7.488 -1.416,2.016 -3.132,3.54 -5.148,4.572 -2.016,1.032 -4.248,1.548 -6.696,1.548 -2.448,0 -4.68,-0.516 -6.696,-1.548 -2.016,-1.032 -3.732,-2.556 -5.148,-4.572 -1.416,-2.016 -2.52,-4.512 -3.312,-7.488 -0.792,-2.976 -1.188,-6.408 -1.188,-10.296 0,-3.888 0.396,-7.296 1.188,-10.224 0.792,-2.928 1.896,-5.388 3.312,-7.38 1.416,-1.992 3.132,-3.48003 5.148,-4.46404 2.016,-0.984 4.248,-1.47599 6.696,-1.47599 z m -39.512,0 c 2.256,0 4.308,0.348 6.156,1.04399 1.848,0.69601 3.444,1.68 4.788,2.95204 1.344,1.272 2.376,2.796 3.096,4.572 0.72,1.776 1.08,3.768 1.08,5.976 0,1.92 -0.408,3.876 -1.224,5.868 -0.816,1.992 -1.908,3.984 -3.276,5.976 -1.368,1.992 -2.928,3.984 -4.68,5.976 -1.752,1.992 -3.564,3.948 -5.436,5.868 1.152,-0.144 2.436,-0.276 3.852,-0.396 1.416,-0.12 2.676,-0.18 3.78,-0.18 h 9.216 v 8.928 h -32.184 v -6.048 c 2.928,-2.736 5.604,-5.292 8.028,-7.668 2.424,-2.376 4.512,-4.608 6.264,-6.696 1.752,-2.088 3.12,-4.032 4.104,-5.832 0.984,-1.8 1.476,-3.516 1.476,-5.148 0,-2.256 -0.576,-3.972 -1.728,-5.148 -1.152,-1.176 -2.736,-1.764 -4.752,-1.764 -1.68,0 -3.168,0.468 -4.464,1.404 -1.296,0.936 -2.52,2.028 -3.672,3.276 l -5.76,-5.688 c 2.256,-2.4 4.56,-4.21203 6.912,-5.43604 2.352,-1.22399 5.16,-1.83599 8.424,-1.83599 z m -58.24,-0.36 h 12.744 l 14.688,46.94403 h -11.232 l -2.88,-11.16 h -14.328 l -2.88,11.16 h -10.8 z m -52.456,0 h 36.432 v 8.92803 h -12.888 v 38.016 h -10.656 v -38.016 h -12.888 z m -42.2563,0 h 13.248 c 3.6,0 6.84,0.45599 9.72,1.368 2.88,0.912 5.352,2.316 7.416,4.21203 2.064,1.896 3.648,4.308 4.7523,7.236 1.104,2.928 1.656,6.408 1.656,10.44 0,4.032 -0.552,7.536 -1.656,10.512 -1.1043,2.976 -2.6643,5.436 -4.6803,7.38 -2.016,1.944 -4.428,3.396 -7.236,4.356 -2.808,0.96 -5.94,1.44 -9.396,1.44 h -13.824 z m -22,0 h 10.584 V 52.7197 h -10.584 z m -36.99997,0 H 16.4727 V 43.7917 h 18.576 v 8.928 H 5.88873 Z"
             stroke="#000000"
             stroke-linejoin="round"
             stroke-miterlimit="10"
             fill="#ffffff"
             fill-rule="evenodd"
             id="path202" />
        </g>
      </g>
      <path
         d="m 435.353,568.382 c -0.864,0 -1.68,0.216 -2.448,0.648 -0.768,0.432 -1.44,1.212 -2.016,2.34 -0.576,1.128 -1.032,2.688 -1.368,4.68 -0.336,1.992 -0.504,4.548 -0.504,7.668 0,3.12 0.168,5.688 0.504,7.704 0.336,2.016 0.792,3.624 1.368,4.824 0.576,1.2 1.248,2.028 2.016,2.484 0.768,0.456 1.584,0.684 2.448,0.684 0.912,0 1.752,-0.228 2.52,-0.684 0.768,-0.456 1.44,-1.284 2.016,-2.484 0.576,-1.2 1.02,-2.808 1.332,-4.824 0.312,-2.016 0.468,-4.584 0.468,-7.704 0,-3.12 -0.156,-5.676 -0.468,-7.668 -0.312,-1.992 -0.756,-3.552 -1.332,-4.68 -0.576,-1.128 -1.248,-1.908 -2.016,-2.34 -0.768,-0.432 -1.608,-0.648 -2.52,-0.648 z m -181.88,0 v 29.808 h 2.016 c 2.016,0 3.84,-0.264 5.472,-0.792 1.632,-0.528 3.024,-1.38 4.176,-2.556 1.152,-1.176 2.052,-2.724 2.7,-4.644 0.648,-1.92 0.972,-4.296 0.972,-7.128 0,-2.784 -0.324,-5.124 -0.972,-7.02 -0.648,-1.896 -1.548,-3.408 -2.7,-4.536 -1.152,-1.128 -2.544,-1.932 -4.176,-2.412 -1.632,-0.48 -3.456,-0.72 -5.472,-0.72 z m 90.104,-0.504 c -0.576,2.496 -1.164,5.052 -1.764,7.668 -0.6,2.616 -1.236,5.1 -1.908,7.452 l -1.152,4.32 h 10.008 l -1.08,-4.32 c -0.672,-2.352 -1.32,-4.848 -1.944,-7.488 -0.624,-2.64 -1.248,-5.184 -1.872,-7.632 z m 166.048,-7.704 c 2.352,0 4.5,0.276 6.444,0.828 1.944,0.552 3.6,1.368 4.968,2.448 1.368,1.08 2.436,2.388 3.204,3.924 0.768,1.536 1.152,3.312 1.152,5.328 0,2.4 -0.66,4.428 -1.98,6.084 -1.32,1.656 -3.204,3.012 -5.652,4.068 v 0.288 c 2.64,0.768 4.812,2.076 6.516,3.924 1.704,1.848 2.556,4.26 2.556,7.236 0,2.112 -0.456,3.996 -1.368,5.652 -0.912,1.656 -2.136,3.048 -3.672,4.176 -1.536,1.128 -3.336,1.992 -5.4,2.592 -2.064,0.6 -4.248,0.9 -6.552,0.9 -3.744,0 -6.912,-0.588 -9.504,-1.764 -2.592,-1.176 -4.728,-2.748 -6.408,-4.716 l 4.896,-6.696 c 1.392,1.344 2.916,2.448 4.572,3.312 1.656,0.864 3.468,1.296 5.436,1.296 2.256,0 4.056,-0.468 5.4,-1.404 1.344,-0.936 2.016,-2.268 2.016,-3.996 0,-1.008 -0.18,-1.92 -0.54,-2.736 -0.36,-0.816 -0.996,-1.5 -1.908,-2.052 -0.912,-0.552 -2.16,-0.984 -3.744,-1.296 -1.584,-0.312 -3.624,-0.468 -6.12,-0.468 v -7.488 c 2.064,0 3.78,-0.144 5.148,-0.432 1.368,-0.288 2.472,-0.708 3.312,-1.26 0.84,-0.552 1.44,-1.2 1.8,-1.944 0.36,-0.744 0.54,-1.572 0.54,-2.484 0,-1.584 -0.48,-2.82 -1.44,-3.708 -0.96,-0.888 -2.352,-1.332 -4.176,-1.332 -1.632,0 -3.108,0.36 -4.428,1.08 -1.32,0.72 -2.7,1.704 -4.14,2.952 l -5.328,-6.48 c 2.112,-1.824 4.332,-3.252 6.66,-4.284 2.328,-1.032 4.908,-1.548 7.74,-1.548 z m -37.784,0 c 2.256,0 4.308,0.348 6.156,1.044 1.848,0.696 3.444,1.68 4.788,2.952 1.344,1.272 2.376,2.796 3.096,4.572 0.72,1.776 1.08,3.768 1.08,5.976 0,1.92 -0.408,3.876 -1.224,5.868 -0.816,1.992 -1.908,3.984 -3.276,5.976 -1.368,1.992 -2.928,3.984 -4.68,5.976 -1.752,1.992 -3.564,3.948 -5.436,5.868 1.152,-0.144 2.436,-0.276 3.852,-0.396 1.416,-0.12 2.676,-0.18 3.78,-0.18 h 9.216 v 8.928 h -32.184 v -6.048 c 2.928,-2.736 5.604,-5.292 8.028,-7.668 2.424,-2.376 4.512,-4.608 6.264,-6.696 1.752,-2.088 3.12,-4.032 4.104,-5.832 0.984,-1.8 1.476,-3.516 1.476,-5.148 0,-2.256 -0.576,-3.972 -1.728,-5.148 -1.152,-1.176 -2.736,-1.764 -4.752,-1.764 -1.68,0 -3.168,0.468 -4.464,1.404 -1.296,0.936 -2.52,2.028 -3.672,3.276 l -5.76,-5.688 c 2.256,-2.4 4.56,-4.212 6.912,-5.436 2.352,-1.224 5.16,-1.836 8.424,-1.836 z m -36.488,0 c 2.448,0 4.68,0.492 6.696,1.476 2.016,0.984 3.732,2.472 5.148,4.464 1.416,1.992 2.52,4.452 3.312,7.38 0.792,2.928 1.188,6.336 1.188,10.224 0,3.888 -0.396,7.32 -1.188,10.296 -0.792,2.976 -1.896,5.472 -3.312,7.488 -1.416,2.016 -3.132,3.54 -5.148,4.572 -2.016,1.032 -4.248,1.548 -6.696,1.548 -2.448,0 -4.68,-0.516 -6.696,-1.548 -2.016,-1.032 -3.732,-2.556 -5.148,-4.572 -1.416,-2.016 -2.52,-4.512 -3.312,-7.488 -0.792,-2.976 -1.188,-6.408 -1.188,-10.296 0,-3.888 0.396,-7.296 1.188,-10.224 0.792,-2.928 1.896,-5.388 3.312,-7.38 1.416,-1.992 3.132,-3.48 5.148,-4.464 2.016,-0.984 4.248,-1.476 6.696,-1.476 z m -39.512,0 c 2.256,0 4.308,0.348 6.156,1.044 1.848,0.696 3.444,1.68 4.788,2.952 1.344,1.272 2.376,2.796 3.096,4.572 0.72,1.776 1.08,3.768 1.08,5.976 0,1.92 -0.408,3.876 -1.224,5.868 -0.816,1.992 -1.908,3.984 -3.276,5.976 -1.368,1.992 -2.928,3.984 -4.68,5.976 -1.752,1.992 -3.564,3.948 -5.436,5.868 1.152,-0.144 2.436,-0.276 3.852,-0.396 1.416,-0.12 2.676,-0.18 3.78,-0.18 h 9.216 v 8.928 h -32.184 v -6.048 c 2.928,-2.736 5.604,-5.292 8.028,-7.668 2.424,-2.376 4.512,-4.608 6.264,-6.696 1.752,-2.088 3.12,-4.032 4.104,-5.832 0.984,-1.8 1.476,-3.516 1.476,-5.148 0,-2.256 -0.576,-3.972 -1.728,-5.148 -1.152,-1.176 -2.736,-1.764 -4.752,-1.764 -1.68,0 -3.168,0.468 -4.464,1.404 -1.296,0.936 -2.52,2.028 -3.672,3.276 l -5.76,-5.688 c 2.256,-2.4 4.56,-4.212 6.912,-5.436 2.352,-1.224 5.16,-1.836 8.424,-1.836 z m -58.24,-0.36 h 12.744 l 14.688,46.944 h -11.232 l -2.88,-11.16 h -14.328 l -2.88,11.16 h -10.8 z m -52.456,0 h 36.432 v 8.928 h -12.888 v 38.016 h -10.656 v -38.016 h -12.888 z m -42.256,0 h 13.248 c 3.6,0 6.84,0.456 9.72,1.368 2.88,0.912 5.352,2.316 7.416,4.212 2.064,1.896 3.648,4.308 4.752,7.236 1.104,2.928 1.656,6.408 1.656,10.44 0,4.032 -0.552,7.536 -1.656,10.512 -1.104,2.976 -2.664,5.436 -4.68,7.38 -2.016,1.944 -4.428,3.396 -7.236,4.356 -2.808,0.96 -5.94,1.44 -9.396,1.44 h -13.824 z m -22,0 h 10.584 v 46.944 h -10.584 z m -37,0 h 10.584 v 38.016 h 18.576 v 8.928 h -29.16 z"
         stroke="#000000"
         stroke-linejoin="round"
         stroke-miterlimit="10"
         fill="#ffffff"
         fill-rule="evenodd"
         id="path208" />
      <text
         fill="#000000"
         fill-opacity="0"
         font-family="Arial, Arial_MSFontService, sans-serif"
         font-size="47.808px"
         x="183.88901"
         y="601.646"
         id="text210">LIDTA 2023</text>
    </g>
  </g>
</svg>
