<?xml version="1.0" encoding="UTF-8"?>
<svg width="98px" height="99px" viewBox="0 0 98 99" version="1.1" xmlns="http://www.w3.org/2000/svg" xmlns:xlink="http://www.w3.org/1999/xlink">
    <title>icon_puzzle</title>
    <defs>
        <filter color-interpolation-filters="auto" id="filter-1">
            <feColorMatrix in="SourceGraphic" type="matrix" values="0 0 0 0 0.050980 0 0 0 0 0.168627 0 0 0 0 0.258824 0 0 0 1.000000 0"></feColorMatrix>
        </filter>
    </defs>
    <g id="Symbols" stroke="none" stroke-width="1" fill="none" fill-rule="evenodd">
        <g id="Section_Icones" transform="translate(-771.000000, -251.000000)">
            <g id="icon_puzzle" transform="translate(769.000000, 251.000000)" filter="url(#filter-1)">
                <g id="Group" transform="translate(2.390438, 0.000000)" fill="#000000" fill-rule="nonzero">
                    <path d="M76.1733068,51.9780876 C70.7091633,51.9780876 66.3605578,47.9462151 65.874502,42.6294821 L55.7768924,42.6294821 C55.226808,42.6294821 54.7808765,42.1835505 54.7808765,41.6334661 L54.7808765,30.876494 C54.7808765,30.3264096 55.226808,29.8804781 55.7768924,29.8804781 C58.7609853,29.8804781 61.5184009,28.2884835 63.0104474,25.7041833 C64.5024938,23.1198831 64.5024938,19.9358938 63.0104474,17.3515936 C61.5184009,14.7672933 58.7609853,13.1752988 55.7768924,13.1752988 C55.226808,13.1752988 54.7808765,12.7293673 54.7808765,12.1792829 L54.7808765,0.996015936 C54.7808765,0.445931524 55.226808,0 55.7768924,0 L90.6374502,0 C94.4880411,0 97.6095618,3.12152067 97.6095618,6.97211155 L97.6095618,41.6334661 C97.6095618,42.1835505 97.1636302,42.6294821 96.6135458,42.6294821 L86.4721116,42.6294821 C85.9860558,47.9462151 81.6374502,51.9780876 76.1733068,51.9780876 Z M56.7729084,40.6374502 L66.8247012,40.6374502 C67.3747856,40.6374502 67.8207171,41.0833817 67.8207171,41.6334661 C67.8207171,46.246474 71.5602989,49.9860558 76.1733068,49.9860558 C80.7863147,49.9860558 84.5258964,46.246474 84.5258964,41.6334661 C84.5258964,41.0833817 84.9718279,40.6374502 85.5219124,40.6374502 L95.6175299,40.6374502 L95.6175299,6.97211155 C95.6175299,4.22168949 93.3878723,1.99203187 90.6374502,1.99203187 L56.7729084,1.99203187 L56.7729084,11.2350598 C62.0896414,11.7211155 66.1215139,16.0697211 66.1215139,21.5338645 C66.1215139,26.998008 62.0896414,31.3466135 56.7729084,31.8326693 L56.7729084,40.6374502 Z" id="Shape"></path>
                    <path d="M41.6334661,57.1713147 L30.876494,57.1713147 C30.3264096,57.1713147 29.8804781,56.7253832 29.8804781,56.1752988 C29.8804781,51.5622909 26.1408963,47.8227092 21.5278884,47.8227092 C16.9148806,47.8227092 13.1752988,51.5622909 13.1752988,56.1752988 C13.1752988,56.7253832 12.7293673,57.1713147 12.1792829,57.1713147 L0.996015936,57.1713147 C0.445931524,57.1713147 3.53855944e-16,56.7253832 3.53855944e-16,56.1752988 L3.53855944e-16,21.314741 C3.53855944e-16,17.4641502 3.12152067,14.3426295 6.97211155,14.3426295 L41.6334661,14.3426295 C42.1835505,14.3426295 42.6294821,14.788561 42.6294821,15.3386454 L42.6294821,25.4800797 C47.9462151,25.9661355 51.9780876,30.314741 51.9780876,35.7788845 C51.9780876,41.2430279 47.9462151,45.5916335 42.6294821,46.0776892 L42.6294821,56.1752988 C42.6294821,56.7253832 42.1835505,57.1713147 41.6334661,57.1713147 Z M31.8326693,55.1792829 L40.6374502,55.1792829 L40.6374502,45.12749 C40.6374502,44.5774056 41.0833817,44.1314741 41.6334661,44.1314741 C46.246474,44.1314741 49.9860558,40.3918923 49.9860558,35.7788845 C49.9860558,31.1658766 46.246474,27.4262948 41.6334661,27.4262948 C41.0833817,27.4262948 40.6374502,26.9803633 40.6374502,26.4302789 L40.6374502,16.3346614 L6.97211155,16.3346614 C4.22168949,16.3346614 1.99203187,18.564319 1.99203187,21.314741 L1.99203187,55.1792829 L11.2350598,55.1792829 C11.7211155,49.8625498 16.0697211,45.8306773 21.5338645,45.8306773 C26.998008,45.8306773 31.3466135,49.8625498 31.8326693,55.1792829 Z" id="Shape"></path>
                    <path d="M76.2948207,98.0079681 L41.6334661,98.0079681 C41.0833817,98.0079681 40.6374502,97.5620366 40.6374502,97.0119522 L40.6374502,86.8705179 C35.3207171,86.3844622 31.2888446,82.0358566 31.2888446,76.5717131 C31.2888446,71.1075697 35.3207171,66.7589641 40.6374502,66.2729084 L40.6374502,56.1752988 C40.6374502,55.6252144 41.0833817,55.1792829 41.6334661,55.1792829 L52.3904382,55.1792829 C52.9405227,55.1792829 53.3864542,55.6252144 53.3864542,56.1752988 C53.3864542,60.7883067 57.1260359,64.5278884 61.7390438,64.5278884 C66.3520517,64.5278884 70.0916335,60.7883067 70.0916335,56.1752988 C70.0916335,55.6252144 70.537565,55.1792829 71.0876494,55.1792829 L82.2709163,55.1792829 C82.8210007,55.1792829 83.2669323,55.6252144 83.2669323,56.1752988 L83.2669323,91.0358566 C83.2669323,94.8864475 80.1454116,98.0079681 76.2948207,98.0079681 L76.2948207,98.0079681 Z M42.6294821,96.0159363 L76.2948207,96.0159363 C79.0452428,96.0159363 81.2749004,93.7862786 81.2749004,91.0358566 L81.2749004,57.1713147 L72.0318725,57.1713147 C71.5458167,62.4880478 67.1972112,66.5199203 61.7330677,66.5199203 C56.2689243,66.5199203 51.9203187,62.4880478 51.4342629,57.1713147 L42.6294821,57.1713147 L42.6294821,67.2231076 C42.6294821,67.773192 42.1835505,68.2191235 41.6334661,68.2191235 C37.0204583,68.2191235 33.2808765,71.9587053 33.2808765,76.5717131 C33.2808765,81.184721 37.0204583,84.9243028 41.6334661,84.9243028 C42.1835505,84.9243028 42.6294821,85.3702343 42.6294821,85.9203187 L42.6294821,96.0159363 Z" id="Shape"></path>
                    <path d="M41.8326693,98.0079681 L6.97211155,98.0079681 C3.12152067,98.0079681 7.07711888e-16,94.8864475 7.07711888e-16,91.0358566 L7.07711888e-16,56.374502 C7.07711888e-16,55.8244176 0.445931524,55.3784861 0.996015936,55.3784861 C1.54610035,55.3784861 1.99203187,55.8244176 1.99203187,56.374502 L1.99203187,91.0358566 C1.99203187,93.7862786 4.22168949,96.0159363 6.97211155,96.0159363 L41.8326693,96.0159363 C42.3827537,96.0159363 42.8286853,96.4618678 42.8286853,97.0119522 C42.8286853,97.5620366 42.3827537,98.0079681 41.8326693,98.0079681 Z" id="Path"></path>
                    <path d="M36.0557769,24.5318725 L7.04183267,24.5318725 C6.49174826,24.5318725 6.04581673,24.085941 6.04581673,23.5358566 C6.04581673,22.9857722 6.49174826,22.5398406 7.04183267,22.5398406 L36.0557769,22.5398406 C36.6058613,22.5398406 37.0517928,22.9857722 37.0517928,23.5358566 C37.0517928,24.085941 36.6058613,24.5318725 36.0557769,24.5318725 Z" id="Path"></path>
                    <path d="M36.0557769,30.7908367 L7.04183267,30.7908367 C6.49174826,30.7908367 6.04581673,30.3449051 6.04581673,29.7948207 C6.04581673,29.2447363 6.49174826,28.7988048 7.04183267,28.7988048 L36.0557769,28.7988048 C36.6058613,28.7988048 37.0517928,29.2447363 37.0517928,29.7948207 C37.0517928,30.3449051 36.6058613,30.7908367 36.0557769,30.7908367 Z" id="Path"></path>
                    <path d="M21.5657371,37.0517928 L7.05976096,37.0517928 C6.50967654,37.0517928 6.06374502,36.6058613 6.06374502,36.0557769 C6.06374502,35.5056925 6.50967654,35.059761 7.05976096,35.059761 L21.5657371,35.059761 C22.1158215,35.059761 22.561753,35.5056925 22.561753,36.0557769 C22.561753,36.6058613 22.1158215,37.0517928 21.5657371,37.0517928 L21.5657371,37.0517928 Z" id="Path"></path>
                    <path d="M76.4940239,75.7270916 L47.4800797,75.7270916 C46.9299953,75.7270916 46.4840637,75.2811601 46.4840637,74.7310757 C46.4840637,74.1809913 46.9299953,73.7350598 47.4800797,73.7350598 L76.4940239,73.7350598 C77.0441083,73.7350598 77.4900398,74.1809913 77.4900398,74.7310757 C77.4900398,75.2811601 77.0441083,75.7270916 76.4940239,75.7270916 Z" id="Path"></path>
                    <path d="M76.4940239,81.9860558 L47.4800797,81.9860558 C46.9299953,81.9860558 46.4840637,81.5401243 46.4840637,80.9900398 C46.4840637,80.4399554 46.9299953,79.9940239 47.4800797,79.9940239 L76.4940239,79.9940239 C77.0441083,79.9940239 77.4900398,80.4399554 77.4900398,80.9900398 C77.4900398,81.5401243 77.0441083,81.9860558 76.4940239,81.9860558 L76.4940239,81.9860558 Z" id="Path"></path>
                    <path d="M62.0039841,88.247012 L47.498008,88.247012 C46.9479236,88.247012 46.501992,87.8010804 46.501992,87.250996 C46.501992,86.7009116 46.9479236,86.2549801 47.498008,86.2549801 L62.0039841,86.2549801 C62.5540685,86.2549801 63,86.7009116 63,87.250996 C63,87.8010804 62.5540685,88.247012 62.0039841,88.247012 L62.0039841,88.247012 Z" id="Path"></path>
                    <path d="M26.4940239,64.9701195 L7.04183267,64.9701195 C6.49174826,64.9701195 6.04581673,64.524188 6.04581673,63.9741036 C6.04581673,63.4240192 6.49174826,62.9780876 7.04183267,62.9780876 L26.4940239,62.9780876 C27.0441083,62.9780876 27.4900398,63.4240192 27.4900398,63.9741036 C27.4900398,64.524188 27.0441083,64.9701195 26.4940239,64.9701195 L26.4940239,64.9701195 Z" id="Path"></path>
                    <path d="M26.4940239,71.2290837 L7.04183267,71.2290837 C6.49174826,71.2290837 6.04581673,70.7831521 6.04581673,70.2330677 C6.04581673,69.6829833 6.49174826,69.2370518 7.04183267,69.2370518 L26.4940239,69.2370518 C27.0441083,69.2370518 27.4900398,69.6829833 27.4900398,70.2330677 C27.4900398,70.7831521 27.0441083,71.2290837 26.4940239,71.2290837 Z" id="Path"></path>
                    <path d="M16.7788845,77.4900398 L7.05378486,77.4900398 C6.50370045,77.4900398 6.05776892,77.0441083 6.05776892,76.4940239 C6.05776892,75.9439395 6.50370045,75.498008 7.05378486,75.498008 L16.7788845,75.498008 C17.3289689,75.498008 17.7749004,75.9439395 17.7749004,76.4940239 C17.7749004,77.0441083 17.3289689,77.4900398 16.7788845,77.4900398 L16.7788845,77.4900398 Z" id="Path"></path>
                    <path d="M16.7788845,83.4661355 L7.05378486,83.4661355 C6.50370045,83.4661355 6.05776892,83.0202039 6.05776892,82.4701195 C6.05776892,81.9200351 6.50370045,81.4741036 7.05378486,81.4741036 L16.7788845,81.4741036 C17.3289689,81.4741036 17.7749004,81.9200351 17.7749004,82.4701195 C17.7749004,83.0202039 17.3289689,83.4661355 16.7788845,83.4661355 L16.7788845,83.4661355 Z" id="Path"></path>
                    <path d="M90.2390438,11.185259 L70.7171315,11.185259 C70.1670471,11.185259 69.7211155,10.7393274 69.7211155,10.189243 C69.7211155,9.63915862 70.1670471,9.19322709 70.7171315,9.19322709 L90.2390438,9.19322709 C90.7891282,9.19322709 91.2350597,9.63915863 91.2350597,10.189243 C91.2350597,10.7393274 90.7891282,11.185259 90.2390438,11.185259 L90.2390438,11.185259 Z" id="Path"></path>
                    <path d="M90.2390438,17.4442231 L70.7171315,17.4442231 C70.1670471,17.4442231 69.7211155,16.9982916 69.7211155,16.4482072 C69.7211155,15.8981228 70.1670471,15.4521912 70.7171315,15.4521912 L90.2390438,15.4521912 C90.7891282,15.4521912 91.2350598,15.8981228 91.2350598,16.4482072 C91.2350598,16.9982916 90.7891282,17.4442231 90.2390438,17.4442231 Z" id="Path"></path>
                    <path d="M90.2390438,23.8187251 L70.7171315,23.8187251 C70.1670471,23.8187251 69.7211155,23.3727936 69.7211155,22.8227092 C69.7211155,22.2726248 70.1670471,21.8266932 70.7171315,21.8266932 L90.2390438,21.8266932 C90.7891282,21.8266932 91.2350598,22.2726248 91.2350598,22.8227092 C91.2350598,23.3727936 90.7891282,23.8187251 90.2390438,23.8187251 Z" id="Path"></path>
                    <path d="M80.4900398,30.0796813 L70.7290837,30.0796813 C70.1789993,30.0796813 69.7330677,29.6337498 69.7330677,29.0836653 C69.7330677,28.5335809 70.1789993,28.0876494 70.7290837,28.0876494 L80.4900398,28.0876494 C81.0401243,28.0876494 81.4860558,28.5335809 81.4860558,29.0836653 C81.4860558,29.6337498 81.0401243,30.0796813 80.4900398,30.0796813 L80.4900398,30.0796813 Z" id="Path"></path>
                </g>
            </g>
        </g>
    </g>
</svg>