<?xml version="1.0" encoding="UTF-8"?>
<svg width="512px" height="512px" viewBox="0 0 512 512" version="1.1" xmlns="http://www.w3.org/2000/svg" xmlns:xlink="http://www.w3.org/1999/xlink">
    <title>icon-allocation@2x</title>
    <defs>
        <filter color-interpolation-filters="auto" id="filter-1">
            <feColorMatrix in="SourceGraphic" type="matrix" values="0 0 0 0 1.000000 0 0 0 0 1.000000 0 0 0 0 1.000000 0 0 0 1.000000 0"></feColorMatrix>
        </filter>
    </defs>
    <g id="icon-allocation" stroke="none" stroke-width="1" fill="none" fill-rule="evenodd">
        <g filter="url(#filter-1)" id="noun_Asset-allocation_2147062">
            <g transform="translate(9.000000, 0.000000)" id="Group" fill="#000000" fill-rule="nonzero">
                <path d="M80.9036777,445.455931 C119.657051,481.018337 170.503064,503.582695 226.560614,506.274617 L226.560614,388.875359 C202.715572,386.545706 180.993748,376.956481 163.644861,362.323857 L80.9036777,445.455931 Z M215.655536,398.383837 L215.655536,494.532509 C193.507325,492.328341 171.975249,486.832104 151.499876,478.144188 C131.731152,469.755253 113.394265,458.59474 96.8523532,444.893977 L164.570702,376.855002 C179.827996,387.78746 197.199784,395.108137 215.655536,398.383837 Z" id="Shape"></path>
                <path d="M302.511205,369.652172 L357.172905,473.644192 C416.283876,438.230186 458.353483,377.276195 468.174596,306.028081 L348.815254,306.028081 C341.254764,332.283875 324.607073,354.700925 302.511205,369.652172 Z M455.309876,316.939806 C449.697033,345.682384 438.553135,372.631073 422.099554,397.199915 C406.076724,421.127147 385.21204,441.998005 361.317925,458.087345 L316.530773,372.880951 C334.84694,358.29743 348.804349,338.886561 356.735611,316.939806 L455.309876,316.939806 L455.309876,316.939806 Z" id="Shape"></path>
                <path d="M152.027682,342.655471 C136.274208,322.967444 127.948181,299.207161 127.948181,273.942151 C127.948181,249.948357 135.52721,227.148306 149.866296,208.009139 C163.737554,189.493031 183.480106,175.562031 205.459289,168.778211 L209.304419,167.592106 L209.304419,37.5134223 L203.061263,38.4289161 C176.573921,42.3123993 151.09857,50.6140403 127.338587,63.1068752 C49.5319514,104.044397 0.743726269,184.049171 0.011995585,271.851464 C0,272.551997 0,273.241618 0,273.942151 C0,332.777085 21.6182252,389.253996 60.8721413,432.968552 L64.7249051,437.259043 L155.07238,346.46039 L152.027682,342.655471 Z M65.1829183,421.33447 C30.138362,380.260552 10.9050773,328.150514 10.9050773,273.942151 C10.9050773,273.301632 10.9050773,272.673117 10.9159823,271.987861 C11.6139073,188.166165 58.1698631,111.827731 132.41272,72.7648438 C153.203249,61.8323857 175.373272,54.2640126 198.399342,50.2288564 L198.399342,159.612361 C175.785483,167.456801 155.569651,182.205089 141.141143,201.464285 C125.376764,222.506458 117.044194,247.568509 117.044194,273.942151 C117.044194,300.073552 125.152119,324.747146 140.539183,345.601637 L65.1829183,421.33447 Z" id="Shape"></path>
                <path d="M280.426243,375.450663 C270.335775,379.694233 259.676062,382.383973 248.742631,383.445684 L243.816808,383.923618 L243.816808,512 L249.532159,511.722842 C280.944234,510.207203 311.205823,502.656289 339.473965,489.279604 L344.61789,486.84629 L285.035819,373.511649 L280.426243,375.450663 Z M254.722976,500.4794 L254.722976,393.725621 C263.36634,392.525331 271.831951,390.390998 279.992221,387.355356 L329.635404,481.786522 C305.898322,492.302153 280.747943,498.577486 254.722976,500.4794 Z" id="Shape"></path>
                <path d="M331.219912,273.945424 C331.219912,222.464993 289.362954,180.582516 237.91498,180.582516 C186.465916,180.582516 144.610049,222.464993 144.610049,273.945424 C144.610049,325.424765 186.465916,367.307242 237.91498,367.307242 C289.364044,367.307242 331.219912,325.424765 331.219912,273.945424 Z M237.91498,356.395516 C192.478976,356.395516 155.515126,319.40913 155.515126,273.945424 C155.515126,228.481719 192.478976,191.494242 237.91498,191.494242 C283.350985,191.494242 320.314834,228.480627 320.314834,273.945424 C320.314834,319.408039 283.350985,356.395516 237.91498,356.395516 Z" id="Shape"></path>
                <path d="M239.451506,268.708887 C226.96083,265.041456 224.535541,261.837773 224.057898,256.462657 C223.387236,248.927019 228.118949,242.225037 235.065483,240.874166 C235.417717,240.805422 235.76777,240.749772 236.118914,240.707216 C239.640163,240.27293 243.081806,241.366284 245.810256,243.787596 C248.680472,246.335484 250.321687,249.996368 250.310781,253.830749 L250.3086,254.522552 L261.213678,254.556379 L261.215859,253.862393 C261.235488,246.896347 258.256221,240.247833 253.045775,235.623443 C250.228993,233.123567 246.904035,231.370052 243.367519,230.450194 L243.367519,223.073867 L232.462442,223.073867 L232.462442,230.289792 C220.30219,232.935885 212.042684,244.492494 213.19426,257.429436 C214.328389,270.162329 223.282547,275.332305 236.379545,279.178688 C249.044702,282.897404 251.687002,287.168254 251.846216,292.852172 C252.027241,299.343557 248.188653,304.884532 242.29555,306.638046 C241.462402,306.886833 240.616168,307.065786 239.781929,307.172721 C236.245413,307.623375 232.787413,306.542023 230.040424,304.121802 C227.15494,301.581552 225.50064,297.919577 225.50064,294.07865 L214.595563,294.07865 C214.595563,301.055607 217.598821,307.699757 222.835439,312.312144 C225.641316,314.784741 228.951007,316.507702 232.463532,317.421014 L232.463532,324.813708 L243.368609,324.813708 L243.368609,317.614151 C244.051267,317.466843 244.731744,317.29662 245.404587,317.095844 C255.932349,313.964179 263.064269,303.869741 262.748022,292.547735 C262.324905,277.358612 250.075232,271.829641 239.451506,268.708887 Z" id="Path"></path>
                <path d="M395.171647,72.8488641 C350.45974,37.7032863 295.614834,18.6154043 237.91498,18.6154043 L226.560614,18.6154043 L226.560614,159.008943 C227.378494,158.930378 228.20728,158.849631 229.036066,158.793982 C229.558419,158.748152 230.080773,158.714326 230.603126,158.691411 C231.102578,158.645582 231.614026,158.622667 232.125475,158.599753 C234.044768,158.498274 235.973876,158.452444 237.916071,158.452444 C300.991038,158.452444 352.244901,209.078488 353.312508,271.942031 C353.324503,272.6011 353.335408,273.272171 353.335408,273.942151 C353.335408,274.90893 353.323413,275.862615 353.289607,276.816299 C353.289607,277.453544 353.266706,278.077695 353.232901,278.713849 C353.220905,279.089212 353.21,279.475487 353.187099,279.85085 C353.175104,280.100729 353.164199,280.338604 353.141298,280.588483 C353.118397,281.100243 353.084592,281.601091 353.050786,282.099757 C353.027885,282.508947 352.994079,282.907225 352.960274,283.304412 L493.177757,283.304412 L493.075249,271.749985 C492.508185,203.808124 465.574826,140.081463 417.250066,92.3186565 C412.853139,87.9692426 408.320989,83.8031456 403.672155,79.816001 L430.5957,37.2329909 L494,37.2329909 L494,26.3212651 L424.591364,26.3212651 L395.171647,72.8488641 Z M409.585978,100.080167 C455.850768,145.805754 481.62819,206.805575 482.172353,271.846008 L482.177806,272.391595 L364.226309,272.391595 C364.223038,272.179907 364.218675,271.967128 364.215404,271.756532 C363.052923,203.263629 306.394503,147.540719 237.91498,147.540719 C237.76449,147.540719 237.615091,147.540719 237.465691,147.54181 L237.465691,29.5271301 L237.91498,29.5271301 C293.516698,29.5271301 346.348525,48.0454201 389.306896,82.1227399 L373.199007,107.60162 L382.414887,113.43612 L397.771417,89.147709 C401.806296,92.6525553 405.752843,96.2894335 409.585978,100.080167 Z" id="Shape"></path>
                <rect id="Rectangle" x="427.593532" y="1.55064951e-14" width="66.406468" height="10.9117258"></rect>
            </g>
        </g>
    </g>
</svg>