<?xml version="1.0" encoding="UTF-8"?>
<svg width="130px" height="103px" viewBox="0 0 130 103" version="1.1" xmlns="http://www.w3.org/2000/svg" xmlns:xlink="http://www.w3.org/1999/xlink">
    <title>noun_Deep Learning_3600487</title>
    <defs>
        <filter color-interpolation-filters="auto" id="filter-1">
            <feColorMatrix in="SourceGraphic" type="matrix" values="0 0 0 0 1.000000 0 0 0 0 1.000000 0 0 0 0 1.000000 0 0 0 1.000000 0"></feColorMatrix>
        </filter>
    </defs>
    <g id="Symbols" stroke="none" stroke-width="1" fill="none" fill-rule="evenodd">
        <g id="noun_Deep-Learning_3600487" transform="translate(-671.000000, -138.000000)" filter="url(#filter-1)">
            <g transform="translate(671.000000, 138.000000)">
                <path d="M122.041189,43.4416524 C119.627366,43.4416524 117.468873,44.5219626 116.009444,46.2212828 C108.348706,45.2803765 104.366629,42.2833322 102.827058,40.7817122 C103.460039,39.639163 103.823069,38.3273577 103.823069,36.9307835 C103.823069,32.53801 100.254638,28.9641994 95.868195,28.9641994 C94.5912646,28.9641994 93.3877276,29.2745493 92.316917,29.8124514 C86.8844094,18.6775956 77.5606527,13.8477413 72.9863683,12.0690031 C73.7101777,10.868721 74.1347901,9.46820408 74.1347901,7.96686571 C74.1347901,3.57381052 70.5663589,0 66.1799162,0 C61.7937548,0 58.2250424,3.57381052 58.2250424,7.96686571 C58.2250424,9.57860075 58.7092692,11.0779677 59.5340296,12.3331666 C54.5258531,14.287075 50.5060956,17.3021432 47.4069876,20.3833931 C44.641102,17.2165294 43.285998,14.445911 42.6923842,12.9451359 C43.7870968,11.579822 44.4462302,9.85008643 44.4462302,7.96686571 C44.4462302,3.57381052 40.877799,0 36.4916375,0 C32.7044326,0 29.532775,2.6664175 28.7352911,6.2213592 C19.9424405,7.30589382 13.5738172,11.7924482 10.79584,14.1195086 C9.91202758,13.7793066 8.95679034,13.5852676 7.95487385,13.5852676 C3.56843116,13.5852676 0,17.1590781 0,21.5518517 C0,25.9449069 3.56843116,29.5187174 7.95487385,29.5187174 C10.2967095,29.5187174 12.3992438,28.4936055 13.8561423,26.8748298 C16.4890202,27.328808 23.953762,29.0368585 28.9726241,34.3519511 C28.6947982,35.1621838 28.5364825,36.0276149 28.5364825,36.9310651 C28.5364825,37.6672307 28.6447446,38.3772052 28.8320239,39.0542296 C24.380624,43.8685946 17.6264752,45.8582692 14.8184095,46.5085394 C13.4371539,44.1445862 10.8813248,42.5491854 7.95487385,42.5491854 C3.56843116,42.5491854 0,46.1229959 0,50.5160511 C0,54.9088247 3.56843116,58.4826352 7.95487385,58.4826352 C10.1833858,58.4826352 12.1979044,57.5572182 13.6435549,56.0730589 C14.7602011,56.2699142 23.4681292,57.9709241 28.8320239,63.7715368 C28.6447446,64.4488429 28.5364825,65.1588174 28.5364825,65.8947013 C28.5364825,66.7981516 28.6947982,67.6635827 28.9726241,68.4738153 C24.5535622,73.1504661 18.2113717,75.0381928 14.9702577,75.7315514 C13.6289325,73.22397 10.9884621,71.5131032 7.95487385,71.5131032 C3.56843116,71.5131032 0,75.0871954 0,79.4799689 C0,83.8727425 3.56843116,87.4468346 7.95487385,87.4468346 C8.40451305,87.4468346 8.84234184,87.4003667 9.27201582,87.3279893 C9.74443224,87.8109747 17.134656,95.1737566 28.7352911,96.6044073 C29.532775,100.159349 32.7044326,102.825766 36.4916375,102.825766 C40.877799,102.825766 44.4462302,99.2516743 44.4462302,94.8586191 C44.4462302,92.9723006 43.7848472,91.2391855 42.686479,89.8730267 C43.2719379,88.3708435 44.6166375,85.5993802 47.3912404,82.4274473 C50.4923167,85.5140481 54.5174171,88.535312 59.5337484,90.4928815 C58.7087068,91.7477987 58.2247612,93.2471657 58.2247612,94.8589008 C58.2247612,99.251956 61.7934736,102.825766 66.179635,102.825766 C70.5660777,102.825766 74.1345089,99.251956 74.1345089,94.8589008 C74.1345089,93.3575624 73.7098965,91.9567639 72.9860871,90.757045 C77.5606527,88.9780252 86.883847,84.1484525 92.3166358,73.0135967 C93.3871652,73.5517805 94.5907022,73.8621303 95.8679138,73.8621303 C100.254356,73.8621303 103.822788,70.2883198 103.822788,65.894983 C103.822788,64.4936212 103.456665,63.1778731 102.819746,62.0325077 C104.337103,60.5289163 108.273625,57.5276477 116.000446,56.5946269 C117.459875,58.2998611 119.622305,59.3841141 122.040908,59.3841141 C126.43663,59.3841141 130,55.8150912 130,51.4127424 C130,47.0103936 126.436912,43.4416524 122.041189,43.4416524 Z M7.95543625,24.8626252 C6.13241503,24.8626252 4.64908372,23.3773395 4.64908372,21.5512884 C4.64908372,19.7252374 6.13213383,18.2402332 7.95543625,18.2402332 C9.77873867,18.2402332 11.2615076,19.7252374 11.2615076,21.5512884 C11.2615076,23.3773395 9.77845747,24.8626252 7.95543625,24.8626252 Z M7.95543625,53.8268247 C6.13241503,53.8268247 4.64908372,52.3418205 4.64908372,50.5157695 C4.64908372,48.6897185 6.13213383,47.2044327 7.95543625,47.2044327 C9.77873867,47.2044327 11.2615076,48.6897185 11.2615076,50.5157695 C11.2615076,52.3418205 9.77845747,53.8268247 7.95543625,53.8268247 Z M95.868195,33.6197283 C97.6912162,33.6197283 99.1745475,35.1047325 99.1745475,36.9307835 C99.1745475,38.7568345 97.6914974,40.2421203 95.868195,40.2421203 C94.0448925,40.2421203 92.5621236,38.7568345 92.5621236,36.9307835 C92.5621236,35.1047325 94.0451737,33.6197283 95.868195,33.6197283 Z M66.1799162,4.65524728 C68.0029375,4.65524728 69.4862688,6.14053307 69.4862688,7.96658409 C69.4862688,9.79263511 68.0032187,11.2779209 66.1799162,11.2779209 C64.3566138,11.2779209 62.8735637,9.79263511 62.8735637,7.96658409 C62.8735637,6.14053307 64.356895,4.65524728 66.1799162,4.65524728 Z M60.938906,14.7779459 C60.938906,14.7779459 61.2189814,14.669239 61.6764943,14.5250474 C61.6939287,14.5371572 61.7077075,14.5464508 61.7234547,14.5571526 C62.9950422,15.424555 64.5287084,15.9334498 66.1799162,15.9334498 C67.9779106,15.9334498 69.6327741,15.3257049 70.9662257,14.3146742 C74.5658701,15.5890235 84.6575846,20.0654394 90.042007,31.5247263 C88.7254274,32.9466466 87.9136023,34.8431037 87.9136023,36.9305019 C87.9136023,38.5357596 88.3938923,40.0286492 89.2124663,41.2807502 C87.7268853,44.4777476 85.8431249,47.1602177 83.8347927,49.3889913 C79.3659583,45.1418174 74.7680531,42.8341891 72.4315602,41.8403374 C73.4944971,40.4854436 74.1347901,38.7830256 74.1347901,36.9302203 C74.1347901,32.5374467 70.5663589,28.9636362 66.1799162,28.9636362 C64.3864211,28.9636362 62.7352132,29.5682832 61.4031676,30.5753712 C56.0612065,28.0458231 52.1632086,25.164808 49.3458633,22.4277028 C52.3088704,19.4652983 56.157377,16.5640063 60.938906,14.7779459 Z M66.1799162,57.927554 C64.3872647,57.927554 62.7371816,58.5316378 61.4054172,59.5373177 C56.8339448,57.4831511 52.8667716,54.4269658 49.6973636,51.4124608 C52.8667716,48.3982375 56.8339448,45.3417705 61.4054172,43.2876039 C62.7369004,44.2932838 64.3872647,44.8973676 66.1799162,44.8973676 C67.5749507,44.8973676 68.8853438,44.5335092 70.0264545,43.89901 C70.2879707,43.9880032 76.1847399,46.056251 81.8582361,51.4124608 C76.1847399,56.7686706 70.2879707,58.8366368 70.0264545,58.9259116 C68.8853438,58.291694 67.5749507,57.927554 66.1799162,57.927554 Z M69.4862688,65.8944197 C69.4862688,67.7201891 68.0032187,69.2060381 66.1799162,69.2060381 C64.3566138,69.2060381 62.8735637,67.7204707 62.8735637,65.8944197 C62.8735637,64.0683687 64.3566138,62.5830829 66.1799162,62.5830829 C68.0032187,62.5830829 69.4862688,64.0686503 69.4862688,65.8944197 Z M62.8735637,36.9307835 C62.8735637,35.1050141 64.3566138,33.6197283 66.1799162,33.6197283 C68.0032187,33.6197283 69.4862688,35.1047325 69.4862688,36.9307835 C69.4862688,38.7568345 68.0032187,40.2421203 66.1799162,40.2421203 C64.3566138,40.2421203 62.8735637,38.7565529 62.8735637,36.9307835 Z M47.4199228,24.4942609 C50.2963202,27.2682588 54.1850384,30.155188 59.4327975,32.7309225 C58.672432,33.9520448 58.2250424,35.3886097 58.2250424,36.9305019 C58.2250424,38.4695779 58.6704636,39.9030449 59.4280171,41.1224774 C54.8258938,43.3315373 50.8736243,46.4060282 47.7039351,49.4233494 C44.9653258,46.5505014 43.0334801,43.9494207 42.0835857,42.5888944 C43.5413278,41.1441625 44.4465114,39.1418148 44.4465114,36.9305019 C44.4465114,34.8878819 43.6681491,33.0283176 42.401342,31.6165357 C43.2488795,30.0875982 44.9113354,27.3795003 47.4199228,24.4942609 Z M36.4919187,4.65524728 C38.3146588,4.65524728 39.7979901,6.14053307 39.7979901,7.96658409 C39.7979901,9.79263511 38.31494,11.2779209 36.4919187,11.2779209 C34.6686163,11.2779209 33.1855662,9.79263511 33.1855662,7.96658409 C33.1855662,6.14053307 34.6686163,4.65524728 36.4919187,4.65524728 Z M15.4047121,24.3193723 C15.7261239,23.455631 15.9100289,22.525708 15.9100289,21.5512884 C15.9100289,19.228734 14.9064252,17.1416174 13.3173626,15.6839308 C16.0863415,13.5233103 21.490729,10.0565169 28.619999,9.05309008 C29.1520298,12.9324628 32.474692,15.9334498 36.4919187,15.9334498 C37.9353196,15.9334498 39.2864868,15.5403025 40.4548738,14.8641229 C41.275135,16.7239688 42.7837743,19.4517804 45.4577075,22.4581182 C42.8976604,25.3695487 41.1550625,28.1269308 40.170018,29.8738455 C39.0688378,29.2953894 37.8191839,28.9641994 36.4919187,28.9641994 C34.0480074,28.9641994 31.859707,30.0754884 30.3994341,31.8181786 C25.4224709,26.9362239 18.8106095,25.0192083 15.4047121,24.3193723 Z M39.7979901,36.9307835 C39.7979901,38.7565529 38.31494,40.2421203 36.4919187,40.2421203 C34.6686163,40.2421203 33.1855662,38.7568345 33.1855662,36.9307835 C33.1855662,35.1047325 34.6683351,33.6197283 36.4919187,33.6197283 C38.3146588,33.6197283 39.7979901,35.1047325 39.7979901,36.9307835 Z M15.3046048,53.5564655 C15.6929423,52.6186571 15.9097477,51.5924186 15.9097477,50.5157695 C15.9097477,50.0519345 15.8616625,49.5999277 15.7854572,49.1577778 C18.91381,48.4117554 25.3631377,46.3930735 30.1412923,41.7085373 C31.594254,43.640479 33.8964404,44.8976492 36.4919187,44.8976492 C37.6653674,44.8976492 38.7763896,44.6351755 39.7797121,44.1764098 C40.7931577,45.6439532 42.8206115,48.3892255 45.7088193,51.4124608 C42.8206115,54.4359777 40.7934389,57.18125 39.7797121,58.6487935 C38.7763896,58.1897461 37.6650862,57.9272724 36.4919187,57.9272724 C33.8964404,57.9272724 31.594254,59.1844426 30.1412923,61.1163843 C25.1030274,56.1775415 18.2060289,54.2019481 15.3046048,53.5564655 Z M39.7979901,65.8944197 C39.7979901,67.7201891 38.31494,69.2060381 36.4919187,69.2060381 C34.6686163,69.2060381 33.1855662,67.7204707 33.1855662,65.8944197 C33.1855662,64.0683687 34.6683351,62.5830829 36.4919187,62.5830829 C38.3146588,62.5830829 39.7979901,64.0686503 39.7979901,65.8944197 Z M7.95543625,82.7910241 C6.13241503,82.7910241 4.64908372,81.3057383 4.64908372,79.4796873 C4.64908372,77.6536363 6.13213383,76.1683505 7.95543625,76.1683505 C9.77873867,76.1683505 11.2615076,77.6536363 11.2615076,79.4796873 C11.2615076,81.3057383 9.77845747,82.7910241 7.95543625,82.7910241 Z M36.4919187,98.169956 C34.6686163,98.169956 33.1855662,96.6846702 33.1855662,94.8586191 C33.1855662,93.0325681 34.6683351,91.547564 36.4919187,91.547564 C38.3146588,91.547564 39.7979901,93.0325681 39.7979901,94.8586191 C39.7979901,96.6846702 38.3146588,98.169956 36.4919187,98.169956 Z M40.4548738,87.961362 C39.2864868,87.285464 37.9353196,86.8920351 36.4919187,86.8920351 C32.4749732,86.8920351 29.152311,89.8921772 28.619999,93.7712683 C20.3664904,92.6050627 14.3923912,88.1123125 12.1877812,86.2133208 C14.4199488,84.8006941 15.9097477,82.3139528 15.9097477,79.4799689 C15.9097477,79.1183635 15.8771285,78.7649252 15.8304492,78.4159929 C19.3395471,77.6474406 25.6226855,75.6921241 30.3991529,71.0075879 C31.859707,72.7502781 34.0480074,73.8618487 36.4919187,73.8618487 C37.8191839,73.8618487 39.0688378,73.530377 40.1702992,72.9522027 C41.1553437,74.6991173 42.8976604,77.4562178 45.4577075,80.3673666 C42.7837743,83.3734229 41.275135,86.1012344 40.4548738,87.961362 Z M42.4030292,71.2069778 C43.6687115,69.7957591 44.4465114,67.9367581 44.4465114,65.8947013 C44.4465114,63.6833885 43.5410466,61.6813224 42.0835857,60.2363088 C43.0334801,58.8757825 44.9653258,56.2749835 47.7039351,53.4018538 C50.8736243,56.419175 54.8258938,59.4939475 59.4280171,61.7027258 C58.6704636,62.9221584 58.2250424,64.3556253 58.2250424,65.8947013 C58.2250424,67.4371568 58.6721508,68.8731584 59.4327975,70.0942807 C54.1884128,72.6688888 50.3011006,75.5538466 47.4255468,78.3258731 C44.9183654,75.4420418 43.2530975,72.7356337 42.4030292,71.2069778 Z M66.1799162,98.169956 C64.356895,98.169956 62.8735637,96.6846702 62.8735637,94.8586191 C62.8735637,93.0325681 64.3566138,91.547564 66.1799162,91.547564 C68.0032187,91.547564 69.4862688,93.0325681 69.4862688,94.8586191 C69.4862688,96.6846702 68.0032187,98.169956 66.1799162,98.169956 Z M70.9665069,88.5108107 C69.6330553,87.4994984 67.9779106,86.8920351 66.1801974,86.8920351 C64.5433308,86.8920351 63.0223186,87.3916363 61.7571987,88.2455207 C61.7296411,88.2641079 61.6871799,88.2891725 61.6871799,88.2891725 C61.4672813,88.2317212 61.2755027,88.1739882 60.9110672,88.0368372 C56.1427546,86.2502136 52.2993095,83.3455421 49.3382709,80.3800397 C52.1530854,77.6539179 56.0508021,74.782478 61.4026052,72.249832 C62.7346508,73.25692 64.3861399,73.8618487 66.1799162,73.8618487 C70.5663589,73.8618487 74.1347901,70.2880381 74.1347901,65.8947013 C74.1347901,64.0421776 73.4947783,62.339478 72.4315602,60.9848658 C74.7680531,59.9910142 79.3659583,57.6831042 83.8347927,53.4359304 C85.8431249,55.6649855 87.7268853,58.347174 89.2124663,61.544453 C88.3938923,62.7962724 87.9136023,64.2894437 87.9136023,65.8944197 C87.9136023,67.9820996 88.7257086,69.8785566 90.042007,71.3007586 C84.6578658,82.7597638 74.5658701,87.2361798 70.9665069,88.5108107 Z M95.868195,69.2060381 C94.0451737,69.2060381 92.5621236,67.7204707 92.5621236,65.8944197 C92.5621236,64.0683687 94.0448925,62.5830829 95.868195,62.5830829 C97.6914974,62.5830829 99.1745475,64.0683687 99.1745475,65.8944197 C99.1745475,67.7204707 97.6914974,69.2060381 95.868195,69.2060381 Z M101.052122,59.8648466 C99.6584931,58.6611849 97.8486883,57.927554 95.868195,57.927554 C94.1570914,57.927554 92.5747776,58.4767211 91.2759137,59.4010116 C89.7085035,56.2713223 87.810683,53.627998 85.8062876,51.4124608 C87.810683,49.1969236 89.7085035,46.5538809 91.2759137,43.4241917 C92.5747776,44.3482005 94.1570914,44.8973676 95.868195,44.8973676 C97.8486883,44.8973676 99.6584931,44.1640183 101.052122,42.9603567 C102.948817,44.7683837 107.082742,47.7136092 114.512053,48.845175 C114.237601,49.6517466 114.082097,50.5132349 114.082097,51.4124608 C114.082097,52.3133765 114.238445,53.1759913 114.513177,53.9834077 C107.085554,55.1146919 102.948536,58.0568195 101.052122,59.8648466 Z M121.992823,54.7412583 C120.169802,54.7412583 118.68647,53.2559725 118.68647,51.4299215 C118.68647,49.6038705 120.16952,48.1188663 121.992823,48.1188663 C123.816125,48.1188663 125.299175,49.6038705 125.299175,51.4299215 C125.299175,53.2559725 123.815844,54.7412583 121.992823,54.7412583 Z" id="Shape" fill="#000000" fill-rule="nonzero"></path>
            </g>
        </g>
    </g>
</svg>