<?xml version="1.0" encoding="UTF-8"?>
<svg width="100px" height="100px" viewBox="0 0 100 100" version="1.1" xmlns="http://www.w3.org/2000/svg" xmlns:xlink="http://www.w3.org/1999/xlink">
    <title>icon_continu@2x</title>
    <defs>
        <filter color-interpolation-filters="auto" id="filter-1">
            <feColorMatrix in="SourceGraphic" type="matrix" values="0 0 0 0 0.050980 0 0 0 0 0.168627 0 0 0 0 0.258824 0 0 0 1.000000 0"></feColorMatrix>
        </filter>
        <filter color-interpolation-filters="auto" id="filter-2">
            <feColorMatrix in="SourceGraphic" type="matrix" values="0 0 0 0 0.050980 0 0 0 0 0.168627 0 0 0 0 0.258824 0 0 0 1.000000 0"></feColorMatrix>
        </filter>
    </defs>
    <g id="Symbols" stroke="none" stroke-width="1" fill="none" fill-rule="evenodd">
        <g id="Section_Icones" transform="translate(-770.000000, -71.000000)">
            <g id="icon_continu" transform="translate(770.000000, 71.000000)">
                <g filter="url(#filter-1)" id="noun_make-money_3606185">
                    <g id="Group" transform="translate(50.000000, 50.000000) scale(-1, 1) translate(-50.000000, -50.000000) " fill="#000000" fill-rule="nonzero">
                        <path d="M52.8575943,87.2271146 L46.8973509,87.2271146 C45.1557214,87.2271146 44.638325,85.7173731 44.4183297,85.0715053 C44.4061077,85.0348314 44.3959228,84.9961201 44.3857378,84.9574088 L42.8763255,77.9628846 C42.6176274,77.8997241 42.3589292,77.8324886 42.102268,77.7591408 L37.3336659,83.0340675 C37.311259,83.0585167 37.2888521,83.082966 37.2644081,83.1053778 C36.8468244,83.4843412 35.5777774,84.6416059 34.0255883,83.7471707 L28.8638465,80.7663991 C27.3503602,79.8943757 27.6620202,78.3214737 27.7944248,77.6572689 C27.7944248,77.6185576 27.8127578,77.5818837 27.8249797,77.5431724 L29.978082,70.8583388 C29.7601237,70.654595 29.5421653,70.4325143 29.330318,70.2145085 L22.6652749,72.3660428 C22.6335168,72.3777044 22.6008004,72.386567 22.5674992,72.3925295 C22.0154739,72.5127384 20.3268062,72.8774397 19.442751,71.3249121 L16.4565184,66.164082 C15.5846851,64.656378 16.6378108,63.4522522 17.0859494,62.9388179 C17.1122405,62.9094667 17.1401213,62.8815798 17.1694661,62.8552829 L22.3413929,58.1691758 C22.2660241,57.900234 22.1926924,57.6211051 22.1213976,57.327714 L15.3117279,55.8505716 L15.2180262,55.8240849 C14.6965559,55.6590524 13.1077009,55.1558052 13.1077009,53.3384107 L13.1077009,47.3850173 C13.1077009,45.6185586 14.5722993,45.1173489 15.1956193,44.9034179 C15.2343222,44.8911933 15.2709881,44.8810061 15.309691,44.8728564 L22.1275086,43.3896016 C22.2028773,43.0900983 22.2843571,42.7926323 22.3699108,42.4972038 L17.1633551,37.788685 C17.1394481,37.7678256 17.1169892,37.7453618 17.0961344,37.7214495 C16.0918965,36.6212331 15.8861601,35.5373161 16.4850363,34.4982228 L19.4651579,29.3353553 C20.3451392,27.8154266 21.8830693,28.1128926 22.5410183,28.2494009 L22.6530529,28.277925 L29.4321677,30.4539087 C29.6195711,30.2623895 29.8090115,30.0749452 30.0004889,29.8936133 L27.8086838,23.0906082 C27.8086838,23.0600467 27.7903508,23.0274477 27.7822029,22.9948487 C27.6640572,22.4528902 27.3055464,20.8005281 28.8679205,19.8999806 L34.0276253,16.919209 C35.5492595,16.0431107 36.7307158,17.0760917 37.2338532,17.5161783 C37.2638533,17.5424631 37.2924127,17.5703486 37.319407,17.5997132 L42.2081916,22.9887364 C42.411891,22.9337255 42.6257753,22.8807521 42.8396597,22.8277788 L44.338887,15.8088053 C44.338887,15.7762063 44.3551829,15.7436073 44.3653679,15.7110083 C44.5405493,15.1568252 45.0783156,13.4698267 46.8505001,13.4698267 L52.8107434,13.4698267 C54.532003,13.4698267 55.0636583,15.0264292 55.2897646,15.6906339 C55.3020959,15.7280584 55.3122972,15.7661516 55.3203195,15.8047305 L56.8602867,22.935763 C57.0497271,22.9846615 57.2412045,23.0376349 57.4326819,23.0906082 L62.3560955,17.6323122 C62.3785024,17.6058255 62.4029463,17.5834137 62.4273903,17.5589645 C62.8592329,17.1677764 64.1730938,15.9758752 65.702876,16.8560484 L70.8646178,19.8388574 C72.3516231,20.6966188 72.0338521,22.3143444 71.8973736,23.0070733 C71.8900331,23.0456144 71.8805118,23.0837078 71.8688557,23.1211698 L69.5894598,30.2073787 C69.7014945,30.3174003 69.8094551,30.427422 69.9174158,30.5374436 L77.0326345,28.231064 C77.0646843,28.2203427 77.0973315,28.2114988 77.1304102,28.2045773 C77.7028054,28.0802936 79.4403609,27.7033676 80.3223792,29.2334834 L83.3045378,34.3963509 C84.1661861,35.8918303 83.0845425,37.1305925 82.620108,37.6562515 C82.5945215,37.6855897 82.5673194,37.713478 82.5386282,37.7397864 L77.0183755,42.753921 C77.0672634,42.9209909 77.1181882,43.0900983 77.1670761,43.2632805 L84.5409929,44.8219204 L84.6387686,44.8484071 C85.2315338,45.0358514 87.0342731,45.6083714 87.0342731,47.3340813 L87.0342731,53.293587 C87.0342731,54.9642861 85.3720863,55.5347687 84.6611756,55.7751864 C84.6224727,55.787411 84.5817328,55.7996356 84.5430299,55.8077854 L77.1528171,57.3766125 C77.1141142,57.5253455 77.0754113,57.6761159 77.0346715,57.8268863 L82.5671461,62.8124967 L82.6384409,62.883807 C83.0458396,63.3218562 84.2537768,64.6584154 83.3758326,66.1803815 L80.3957109,71.343249 C79.5422106,72.8203915 77.8963198,72.4964389 77.193557,72.361968 C77.1549865,72.3539439 77.1169016,72.3437403 77.0794853,72.3314064 L70.0844493,70.0780001 C69.9500077,70.2185833 69.8155661,70.3550917 69.6770505,70.4854877 L71.9401504,77.4657498 C71.9401504,77.4983488 71.9584834,77.5309478 71.9666314,77.5655842 C72.090888,78.1442166 72.4738428,79.9086378 70.9481345,80.7867735 L65.7904667,83.7634702 C64.3116094,84.6171567 63.0486733,83.5128653 62.510907,83.0401798 C62.4804163,83.0144305 62.451824,82.9865129 62.4253533,82.9566448 L57.6078634,77.6348571 C57.3715721,77.7020926 57.1332439,77.769328 56.8969526,77.8386009 L55.3671704,84.9696334 C55.3611902,85.002068 55.3530236,85.0340609 55.3427265,85.065393 C55.171619,85.5971643 54.6481116,87.2271146 52.8575943,87.2271146 Z M46.3656956,84.4663863 C46.6182828,85.1896767 46.7405024,85.1896767 46.8973509,85.1896767 L52.8575943,85.1896767 C52.9961098,85.1896767 53.1529583,85.1896767 53.3872126,84.4786109 L55.0371774,76.7852455 C55.1198725,76.4017415 55.4153965,76.0998133 55.796976,76.0089817 C56.4080741,75.8622862 57.0191722,75.6931789 57.6200853,75.5036971 C58.000186,75.382978 58.4157576,75.4952546 58.683396,75.7909759 L63.8940257,81.5467378 C64.5621596,82.1233327 64.6945642,82.0459101 64.7719699,82.0010865 L69.9337117,79.0203149 C69.9887106,78.9877159 70.157781,78.8899188 69.9805626,78.0443821 L67.5361702,70.5160493 C67.4148395,70.1428313 67.5186394,69.7330892 67.8030164,69.4626939 C68.2226371,69.0552063 68.6320728,68.6477187 69.0252126,68.2198568 C69.2937813,67.9255952 69.7092137,67.8149483 70.0885232,67.9366529 L77.6437326,70.3713912 C78.5094548,70.5343862 78.5848236,70.4060276 78.6316745,70.3265675 L81.6117961,65.1637 C81.644388,65.1086892 81.7421637,64.9375444 81.1656945,64.293714 L75.1993402,58.918953 C74.9078646,58.6556419 74.7937313,58.2481606 74.9060131,57.8717099 C75.0628617,57.3399386 75.2013772,56.8081674 75.3134119,56.2926956 C75.4003192,55.903816 75.705934,55.6013188 76.0956174,55.5184692 L84.0541515,53.8294332 C84.828209,53.5604914 84.9932055,53.3913841 84.9932055,53.2956245 L84.9932055,47.3361188 C84.9932055,47.2974074 84.9483917,47.0936636 84.0663734,46.8063849 L76.1220983,45.1275361 C75.7346559,45.0459562 75.4295926,44.7471833 75.3398928,44.3614595 C75.2319321,43.8948862 75.0832316,43.4120134 74.9324941,42.935253 L74.8693473,42.7315092 C74.7543602,42.3546085 74.867008,41.9451794 75.1586004,41.6801913 L81.1127327,36.2728312 C81.658647,35.639188 81.5853152,35.5149043 81.5201314,35.4130324 L78.5379728,30.2501649 C78.4972329,30.1788546 78.4014942,30.0138221 77.5907707,30.1829294 L69.9214898,32.6686036 C69.5433639,32.7917942 69.1281363,32.6835887 68.8581791,32.3915121 C68.5057792,32.0105112 68.1207874,31.6213606 67.7133887,31.2362848 C67.4317498,30.96241 67.3326726,30.5509518 67.4587645,30.1788546 L69.9031568,22.5466123 C70.0600053,21.7194126 69.9337117,21.6460648 69.84001,21.5930914 L64.6823422,18.6184322 C64.6049364,18.575646 64.4460509,18.4839613 63.8308789,19.0259197 L58.5143255,24.9222649 C58.2487343,25.2170412 57.8361815,25.3307366 57.4571258,25.2136185 C56.8826936,25.0363614 56.3123354,24.8815161 55.7623472,24.7511201 C55.3799791,24.6609757 55.0835311,24.3589134 55.0005115,23.9748563 L53.3403617,16.2876032 C53.0653676,15.5011522 52.932963,15.5011522 52.8087064,15.5011522 L46.8484631,15.5011522 C46.7588354,15.5011522 46.571432,15.5011522 46.3188448,16.2753786 L44.6892499,23.8770593 C44.6061037,24.2673917 44.3027385,24.5732123 43.9131553,24.6594354 C43.2857613,24.7979812 42.7133661,24.9467141 42.1593038,25.1097092 C41.7845633,25.2207963 41.3793198,25.1075883 41.1163631,24.8183556 L35.8507346,19.0136951 C35.3007463,18.5389721 35.2029706,18.5939829 35.0359371,18.6856676 L29.8762323,21.6644017 C29.7438277,21.7418244 29.6093861,21.819247 29.7540127,22.5160508 L32.1271102,29.8854635 C32.2491716,30.2658603 32.1376647,30.6825092 31.8419311,30.9510435 C31.3734226,31.376868 30.9089881,31.8352915 30.4588125,32.3140894 C30.1898369,32.6007058 29.7799904,32.7069561 29.4056868,32.5871061 L22.0725098,30.2379403 C21.359562,30.1014319 21.3004892,30.2033038 21.2128984,30.3540742 L18.2490727,35.5169417 C18.173704,35.6493752 18.0942612,35.7838461 18.5688807,36.3135799 L24.211353,41.4214367 C24.5062053,41.6887615 24.6183874,42.1033687 24.4985691,42.4829418 C24.2948698,43.1328845 24.1115404,43.8032015 23.9567288,44.475556 C23.8693719,44.8611612 23.5668339,45.1613824 23.1806343,45.2457075 L15.7985694,46.8512085 C15.1406205,47.081439 15.1406205,47.1833109 15.1406205,47.3850173 L15.1406205,53.344523 C15.1406205,53.5156678 15.1406205,53.6644007 15.7863475,53.8742568 L23.1806343,55.4695707 C23.5681813,55.5535134 23.8717885,55.8548019 23.9587658,56.2417596 C24.1237623,56.9731998 24.2907958,57.6109179 24.4720882,58.1895502 C24.5896721,58.568294 24.4768156,58.9808666 24.1828351,59.2469805 L18.5831397,64.3242756 C18.0820393,64.902908 18.1431491,65.0108922 18.2205548,65.1392507 L21.2006765,70.3163803 C21.2678973,70.4304769 21.349377,70.5730975 22.0826947,70.4202897 L29.3079111,68.0751987 C29.6854301,67.9528808 30.0996041,68.0610189 30.3691847,68.3522903 C30.8336193,68.8555374 31.3245348,69.342485 31.8256352,69.7968337 C32.1206395,70.0658338 32.2313315,70.4824131 32.1087773,70.8624137 L29.7743826,78.1156925 C29.6297561,78.867507 29.7377167,78.9306676 29.8741953,79.0080902 L35.0339001,81.9868244 C35.1500088,82.0540598 35.2905613,82.1355574 35.8486976,81.6363851 L41.0084024,75.9315591 C41.2716561,75.6400199 41.6790485,75.5258617 42.0554171,75.638168 C42.6787372,75.8235749 43.3142792,75.9886073 43.9457472,76.1271531 C44.3347628,76.2130627 44.6379888,76.5179469 44.7218418,76.9074918 L46.3656956,84.4663863 Z" id="Shape"></path>
                        <path d="M84.3658115,92.9951039 L84.2965537,92.9951039 C83.7359437,92.956996 83.3120969,92.471973 83.3493517,91.9111842 L83.8056382,85.2120885 L77.1670761,84.8046009 C76.8032022,84.7816719 76.4791986,84.5663179 76.3171145,84.2396606 C76.1550304,83.9130033 76.17949,83.5246698 76.3812798,83.2209416 C76.5830696,82.9172134 76.9315328,82.744234 77.2954067,82.7671631 L84.9565396,83.2479984 C85.226569,83.2651209 85.4786892,83.3890092 85.6572654,83.5923254 C85.8362009,83.7962914 85.9263842,84.0632333 85.9078157,84.3339528 L85.3843083,92.0456551 C85.3478258,92.5810587 84.9023387,92.9963432 84.3658115,92.9951039 L84.3658115,92.9951039 Z" id="Path"></path>
                        <path d="M22.7915685,17.0659045 L22.7263847,17.0659045 L15.0652517,16.5850692 C14.7949175,16.5674223 14.542751,16.4427779 14.3645259,16.2387047 C14.1886646,16.0378099 14.0986927,15.7758836 14.1139757,15.509302 L14.6395201,7.7874125 C14.6777701,7.22478959 15.1647744,6.79970814 15.7272746,6.8379665 C16.2897749,6.87622486 16.7147637,7.36333536 16.6765137,7.92595827 L16.2161531,14.6148668 L22.8547153,15.0223543 C23.4172156,15.0397956 23.8590762,15.5100306 23.8416387,16.0726535 C23.8242012,16.6352765 23.3540688,17.0772335 22.7915685,17.0597922 L22.7915685,17.0659045 Z" id="Path"></path>
                        <path d="M49.9976552,100 L49.9976552,100 C33.6057271,100 18.2550409,91.9626763 8.91358584,78.4900497 C-0.427869251,65.0174231 -2.57344193,47.8205325 3.171246,32.4648598 C3.38214427,31.9593361 3.95495598,31.7111198 4.46791695,31.902974 C4.98087791,32.0948281 5.25032901,32.6580618 5.07787203,33.1779631 C-2.83483786,54.3205642 5.06207663,78.1204469 24.0430793,90.3356935 C43.024082,102.55094 67.9518455,99.8754173 83.9095249,83.9101657 C84.3091616,83.5240996 84.944404,83.5296209 85.3372727,83.9225752 C85.7301413,84.3155295 85.7356614,84.9509105 85.3496794,85.3506343 C75.9952429,94.7610834 63.264987,100.036249 49.9976552,100 Z" id="Path"></path>
                        <path d="M95.8687144,68.1974458 C95.7471209,68.1974458 95.6264863,68.1759218 95.5122406,68.1342844 C95.2590353,68.039582 95.0538577,67.8480806 94.9419086,67.6019681 C94.8299594,67.3558556 94.8204235,67.075324 94.9154014,66.8221744 C102.828111,45.6795733 94.9311968,21.8796906 75.9501941,9.66444403 C56.9691914,-2.55080251 32.041428,0.124720215 16.0837485,16.0899718 C15.8261258,16.3472867 15.4508267,16.4475855 15.0992227,16.3530865 C14.7476186,16.2585875 14.4731267,15.9836474 14.3791454,15.6318335 C14.2851641,15.2800195 14.3859713,14.9047807 14.643594,14.6474658 C31.2802912,-1.99216454 57.2645672,-4.77907103 77.0502319,7.95413077 C96.8358966,20.6873326 105.069135,45.4951578 96.8240644,67.5352777 C96.6751509,67.933922 96.2941824,68.1974458 95.8687144,68.1974458 Z" id="Path"></path>
                        <path d="M27.3299903,51.3682083 L27.1262909,51.3682083 C26.5637907,51.3682083 26.1077941,50.9121123 26.1077941,50.3494893 C26.1077941,49.7868664 26.5637907,49.3307704 27.1262909,49.3307704 L27.3299903,49.3307704 C27.8924905,49.3307704 28.3484871,49.7868664 28.3484871,50.3494893 C28.3484871,50.9121123 27.8924905,51.3682083 27.3299903,51.3682083 Z" id="Path"></path>
                        <path d="M72.7549479,51.3682083 L72.5512485,51.3682083 C71.9887483,51.3682083 71.5327517,50.9121123 71.5327517,50.3494893 C71.5327517,49.7868664 71.9887483,49.3307704 72.5512485,49.3307704 L72.7549479,49.3307704 C73.3174481,49.3307704 73.7734447,49.7868664 73.7734447,50.3494893 C73.7734447,50.9121123 73.3174481,51.3682083 72.7549479,51.3682083 L72.7549479,51.3682083 Z" id="Path"></path>
                        <path d="M87.1748257,83.013695 C86.7605534,83.0136515 86.3875829,82.7626344 86.2314924,82.3788095 C86.0754019,81.9949847 86.1672959,81.5548381 86.4639149,81.2655714 L86.6003935,81.1311005 C86.8564918,80.8666647 87.2353101,80.761012 87.591259,80.8547475 C87.9472079,80.9484829 88.2248979,81.2270203 88.3176056,81.5833106 C88.4103134,81.9396009 88.3036126,82.3182014 88.038511,82.5736065 L87.8857365,82.7264143 C87.6952254,82.9111408 87.4401617,83.0142119 87.1748257,83.013695 L87.1748257,83.013695 Z M89.8860642,79.7110067 C89.6818121,79.7106647 89.4823811,79.6489057 89.313669,79.5337492 C89.0901789,79.3817167 88.9362703,79.1470663 88.8858379,78.8814746 C88.8354056,78.6158829 88.8925858,78.3411321 89.0447858,78.1177299 L89.1547835,77.9547349 C89.4749968,77.5063207 90.0936569,77.3938752 90.5511237,77.700941 C91.0085906,78.0080068 91.1390112,78.6232582 90.8454882,79.0895878 L90.7293795,79.2648074 C90.5396061,79.5441722 90.2237394,79.7112976 89.8860642,79.7110067 L89.8860642,79.7110067 Z M92.0676843,76.021207 C91.7112468,76.0212651 91.3807129,75.8349455 91.1961646,75.529937 C91.0116164,75.2249284 90.9999091,74.8456156 91.1652962,74.5298018 L91.2569609,74.3525447 C91.423979,74.0289903 91.7508867,73.8191362 92.114541,73.8020324 C92.4781953,73.7849287 92.8233485,73.9631738 93.0199847,74.2696244 C93.2166209,74.5760751 93.2348664,74.9641743 93.0678482,75.2877287 L92.9721095,75.4731356 C92.7965015,75.8103162 92.4477886,76.0216321 92.0676843,76.021207 L92.0676843,76.021207 Z M93.8643127,72.1297 C93.5268071,72.1293518 93.2113928,71.9617954 93.0221124,71.682301 C92.8328319,71.4028067 92.7942704,71.047677 92.9191477,70.7340551 C92.9619245,70.6240335 92.9863685,70.5629103 92.9863685,70.5588355 C93.1854936,70.0322204 93.7737291,69.7667726 94.3002293,69.9659411 C94.8267296,70.1651096 95.0921195,70.7534734 94.8929945,71.2800885 L94.8115147,71.4838322 C94.6610029,71.8764858 94.2847422,72.1362837 93.8643127,72.1378498 L93.8643127,72.1297 Z" id="Shape"></path>
                        <path d="M5.94155732,30.3826112 C5.81820162,30.383233 5.69584885,30.3604165 5.58100945,30.3153629 C5.05531447,30.1164984 4.79003622,29.5292941 4.98824431,29.0032529 L5.06972405,28.7995091 C5.20243715,28.4586249 5.5076965,28.215086 5.86948241,28.1614542 C6.23126832,28.1078224 6.59402775,28.2523329 6.81988697,28.5400617 C7.04574619,28.8277906 7.10002402,29.2145563 6.96209112,29.5533611 C6.91931425,29.6633828 6.89487033,29.7245059 6.89487033,29.7285808 C6.74355752,30.1233183 6.36422077,30.3835611 5.94155732,30.3826112 Z M7.71781575,26.4829428 C7.36221159,26.4829711 7.03234023,26.2974876 6.84755057,25.9936005 C6.66276091,25.6897134 6.64981267,25.3114292 6.81339059,24.9956126 L6.90912929,24.8102058 C7.07760288,24.4873793 7.40546725,24.2789745 7.76921904,24.2634955 C8.13297084,24.2480165 8.47734751,24.4278149 8.67262571,24.7351623 C8.86790391,25.0425098 8.88441622,25.430713 8.71594262,25.7535395 L8.62427791,25.9307966 C8.44944683,26.2702084 8.09954326,26.4833422 7.71781575,26.4829428 Z M9.87906598,22.78703 C9.50374515,22.7858366 9.15949547,22.5782775 8.98318255,22.2468732 C8.80686963,21.9154689 8.82706929,21.5139317 9.03575062,21.2019034 L9.15185926,21.0266837 C9.48262107,20.6031432 10.0854406,20.5094613 10.5290919,20.8126532 C10.9727431,21.1158452 11.1046014,21.7116069 10.830342,22.1737612 L10.7203443,22.3367562 C10.5318983,22.6170741 10.216785,22.7857309 9.87906598,22.78703 Z M12.5617866,19.4578565 C12.1507595,19.4553104 11.7815481,19.205895 11.625674,18.8254792 C11.4697999,18.4450635 11.5578182,18.008218 11.8488388,17.7178846 L12.0016133,17.5650768 C12.404926,17.1712408 13.0510731,17.1789944 13.4448233,17.582395 C13.8385734,17.9857957 13.8308215,18.6320837 13.4275089,19.0259197 L13.2910303,19.1603906 C13.0976611,19.3533396 12.8349123,19.4605175 12.5617866,19.4578565 L12.5617866,19.4578565 Z" id="Shape"></path>
                    </g>
                </g>
                <g filter="url(#filter-2)" id="Group-2-Copy">
                    <g transform="translate(35.351562, 39.843750)">
                        <polygon id="Path" fill="#0D2B42" points="25.2041706 7.8125 29.296875 20.1171875 23.716457 20.0169552 19.53125 7.9127323"></polygon>
                        <polygon id="Path" fill="#0D2B42" points="6.48549183 0.5859375 9.5703125 9.4912992 5.54612752 20.5078125 0 20.3070364"></polygon>
                        <polygon id="Path" fill="#0D2B42" points="17.1875 0.1953125 22.9122212 0.1953125 24.4140625 4.4921875 18.5946964 4.4921875"></polygon>
                        <polygon id="Path" fill="#0D2B42" points="7.421875 0 13.5286364 0 19.7265625 19.921875 14.1756936 19.921875 10.4748317 8.89977707 10.4565987 8.95065757"></polygon>
                    </g>
                </g>
            </g>
        </g>
    </g>
</svg>