<?xml version="1.0" encoding="UTF-8"?>
<svg width="98px" height="96px" viewBox="0 0 98 96" version="1.1" xmlns="http://www.w3.org/2000/svg" xmlns:xlink="http://www.w3.org/1999/xlink">
    <title>icon-idea</title>
    <g id="Symbols" stroke="none" stroke-width="1" fill="none" fill-rule="evenodd">
        <g id="Section_Icones" transform="translate(-771.000000, -477.000000)">
            <g id="icon-idea" transform="translate(769.000000, 477.000000)">
                <g id="noun_Idea_3605947" transform="translate(2.091633, 0.000000)" fill="#000000" fill-rule="nonzero">
                    <g id="Group">
                        <path d="M65.0159363,68.7058827 C64.597649,68.7058827 64.2237228,68.4448936 64.0798825,68.0517244 C63.9360421,67.6585551 64.0529383,67.2173132 64.37251,66.9471585 C72.8381002,59.8058097 75.2973539,47.78022 70.3160824,37.8834788 C65.3348108,27.9867375 54.2165416,22.8086804 43.4452324,25.3690493 C32.6739231,27.9294181 25.0682714,37.5582011 25.063745,48.6400798 C25.0917424,55.5432025 28.035483,62.1123766 33.1673307,66.7238285 C33.4399698,66.9599682 33.5638417,67.325155 33.4912063,67.678646 C33.4185708,68.032137 33.1607686,68.3187409 32.8171568,68.4280004 C32.4735449,68.53726 32.0977721,68.4521163 31.8346614,68.2053838 C26.2825077,63.2162627 23.0983782,56.1085746 23.0697211,48.6400798 C23.0697211,34.3449651 34.689243,22.7178465 48.9661355,22.7178465 C63.2430279,22.7178465 74.8625578,34.3489531 74.8625578,48.6400798 C74.8685491,56.288423 71.4951231,63.547863 65.6474104,68.4705882 C65.4706187,68.6200718 65.2473435,68.7032666 65.0159363,68.7058827 L65.0159363,68.7058827 Z" id="Path"></path>
                        <path d="M60.8565737,84.8576028 L36.5079681,84.8576028 C35.2617792,84.8682585 34.0637696,84.3761307 33.1844239,83.4921563 C32.3050782,82.6081819 31.8185408,81.4068954 31.8346614,80.1595214 L31.8346614,67.9421735 C31.8346614,67.3915406 32.2805929,66.9451645 32.8306773,66.9451645 L64.5039841,66.9451645 C65.0540685,66.9451645 65.5,67.3915406 65.5,67.9421735 L65.5,80.1595214 C65.5198371,81.4028096 65.0386152,82.6017034 64.1649389,83.4856303 C63.2912626,84.3695572 62.0987645,84.8640207 60.8565737,84.8576028 L60.8565737,84.8576028 Z M33.8247012,68.9391825 L33.8247012,80.1595214 C33.8055407,80.8790502 34.0811438,81.5751295 34.5875279,82.086161 C35.093912,82.5971924 35.7870318,82.8787266 36.5059761,82.8654038 L60.8565737,82.8654038 C62.3685259,82.8654038 63.5079681,81.7028913 63.5079681,80.1595214 L63.5079681,68.9391825 L33.8247012,68.9391825 Z" id="Shape"></path>
                        <path d="M48.7191235,95.6131605 C44.9581673,95.6131605 41.3944223,94.3569292 38.689243,92.0777667 C36.0996016,89.8983051 34.6175299,87.0488534 34.6175299,84.2612164 C34.6175299,83.7105835 35.0634614,83.2642074 35.6135458,83.2642074 C36.1636302,83.2642074 36.6095618,83.7105835 36.6095618,84.2612164 C36.6095618,86.4546361 37.8346614,88.7537388 39.9721116,90.552343 C42.3187251,92.5304088 45.4262948,93.6191426 48.7191235,93.6191426 C56.0697211,93.6191426 60.6195219,88.7617149 60.6195219,84.2612164 C60.6195219,83.7105835 61.0654534,83.2642074 61.6155378,83.2642074 C62.1656223,83.2642074 62.6115538,83.7105835 62.6115538,84.2612164 C62.6115538,89.7308076 57.3007968,95.6131605 48.7191235,95.6131605 Z" id="Path"></path>
                        <path d="M48.9043825,12.0797607 C48.3542981,12.0797607 47.9083665,11.6333846 47.9083665,11.0827517 L47.9083665,0.997008973 C47.9083665,0.446376122 48.3542981,0 48.9043825,0 C49.4544669,0 49.9003984,0.446376122 49.9003984,0.997008973 L49.9003984,11.0827517 C49.9003984,11.6333846 49.4544669,12.0797607 48.9043825,12.0797607 Z" id="Path"></path>
                        <path d="M96.812749,49.9501496 L86.7370518,49.9501496 C86.1869674,49.9501496 85.7410359,49.5037734 85.7410359,48.9531406 C85.7410359,48.4025077 86.1869674,47.9561316 86.7370518,47.9561316 L96.812749,47.9561316 C97.3628334,47.9561316 97.8087649,48.4025077 97.8087649,48.9531406 C97.8087649,49.5037734 97.3628334,49.9501496 96.812749,49.9501496 L96.812749,49.9501496 Z" id="Path"></path>
                        <path d="M11.0717131,49.9501496 L0.996015936,49.9501496 C0.445931524,49.9501496 0,49.5037734 0,48.9531406 C0,48.4025077 0.445931524,47.9561316 0.996015936,47.9561316 L11.0717131,47.9561316 C11.6217976,47.9561316 12.0677291,48.4025077 12.0677291,48.9531406 C12.0677291,49.5037734 11.6217976,49.9501496 11.0717131,49.9501496 L11.0717131,49.9501496 Z" id="Path"></path>
                        <path d="M22.1513944,23.1704885 C21.8877441,23.1704325 21.6348716,23.0657407 21.4482072,22.8793619 L14.3247012,15.7527418 C14.0657803,15.5024183 13.9619396,15.1317269 14.0530905,14.7831432 C14.1442413,14.4345596 14.4161985,14.1623313 14.7644349,14.0710896 C15.1126714,13.9798479 15.4829936,14.083792 15.7330677,14.3429711 L22.8565737,21.4735793 C23.1407592,21.7589392 23.2254168,22.1874744 23.0711243,22.5596291 C22.9168317,22.9317838 22.5539234,23.1744766 22.1513944,23.1744766 L22.1513944,23.1704885 Z" id="Path"></path>
                        <path d="M82.7808765,83.8604187 C82.5162499,83.8604187 82.2625236,83.7548966 82.0756972,83.5672981 L74.9521912,76.4366899 C74.6932703,76.1863664 74.5894297,75.8156751 74.6805805,75.4670914 C74.7717314,75.1185077 75.0436885,74.8462794 75.391925,74.7550377 C75.7401615,74.663796 76.1104836,74.7677402 76.3605578,75.0269192 L83.4840637,82.1535394 C83.7694171,82.4384561 83.8551072,82.8674336 83.7011448,83.2402805 C83.5471824,83.6131274 83.183918,83.856345 82.7808765,83.8564307 L82.7808765,83.8604187 Z" id="Path"></path>
                        <path d="M75.6573705,23.1704958 C75.2548416,23.1704032 74.8919332,22.9277958 74.7376407,22.5556411 C74.5833481,22.1834864 74.6680058,21.7549512 74.9521912,21.4695912 L82.0756972,14.3389831 C82.4657071,13.9496857 83.0971461,13.9505784 83.4860557,14.3409771 C83.8749654,14.7313758 83.8740736,15.3634443 83.4840637,15.7527418 L76.3605578,22.88335 C76.1732446,23.0682675 75.9204515,23.1714927 75.6573705,23.1704958 L75.6573705,23.1704958 Z" id="Path"></path>
                        <path d="M15.0278884,83.8604261 C14.6230851,83.8619699 14.25761,83.6181225 14.1032822,83.2435154 C13.9489544,82.8689083 14.0364761,82.4380664 14.3247012,82.1535394 L21.4482072,75.0229312 C21.6982813,74.7637522 22.0686035,74.659808 22.41684,74.7510497 C22.7650764,74.8422914 23.0370336,75.1145197 23.1281844,75.4631034 C23.2193353,75.811687 23.1154946,76.1823784 22.8565737,76.4327019 L15.7330677,83.5672981 C15.5462414,83.7548966 15.292515,83.8604261 15.0278884,83.8604261 L15.0278884,83.8604261 Z" id="Path"></path>
                        <path d="M34.6055777,15.0648056 C34.2008196,15.0648843 33.8362655,14.8197669 33.6832669,14.444666 L31.4621514,8.99302094 C31.2547696,8.4825843 31.500032,7.90050988 32.0099602,7.6929213 C32.5198884,7.48533273 33.1013831,7.73083956 33.3087649,8.24127617 L35.5278884,13.6929212 C35.6524456,14.0001874 35.6162375,14.3493347 35.431286,14.6244394 C35.2463345,14.8995441 34.9368464,15.0646001 34.6055777,15.0648056 L34.6055777,15.0648056 Z" id="Path"></path>
                        <path d="M84.0498008,35.6171487 C83.573493,35.6173759 83.1636866,35.2800086 83.0719556,34.8121513 C82.9802246,34.344294 83.2322456,33.8769058 83.6733068,33.6969093 L89.1195219,31.4755733 C89.4506998,31.3328624 89.8330702,31.3804566 90.1192462,31.6000105 C90.4054221,31.8195645 90.5507147,32.1767927 90.4991199,32.5339994 C90.4475251,32.8912062 90.2071001,33.1926103 89.8705179,33.3220339 L84.4243028,35.5433699 C84.3053876,35.5918995 84.178219,35.6169523 84.0498008,35.6171487 Z" id="Path"></path>
                        <path d="M7.97211155,66.654038 C7.49580374,66.6542652 7.08599738,66.3168979 6.99426638,65.8490406 C6.90253538,65.3811833 7.15455639,64.9137952 7.59561753,64.7337986 L13.5517928,62.3030907 C14.061171,62.0949515 14.6426657,62.3395656 14.8505976,62.8494516 C15.0585295,63.3593377 14.814159,63.9414121 14.3047809,64.1495513 L8.34661355,66.5802592 C8.22769831,66.6287889 8.10052974,66.6538417 7.97211155,66.654038 L7.97211155,66.654038 Z" id="Path"></path>
                        <path d="M13.9223108,35.3579266 C13.7894229,35.3578398 13.6579406,35.330703 13.5358566,35.2781655 L8.11553785,32.995015 C7.60836004,32.7813694 7.37023263,32.1966167 7.58366538,31.6889332 C7.79709812,31.1812497 8.38126839,30.9428849 8.88844622,31.1565304 L14.3087649,33.441675 C14.7461724,33.625545 14.9933163,34.0927129 14.8994392,34.5582069 C14.805562,35.023701 14.396722,35.3583113 13.9223108,35.3579266 Z" id="Path"></path>
                        <path d="M89.2131474,67.0827559 C89.0810568,67.0831363 88.9502625,67.0566801 88.8286853,67.004985 L82.8984064,64.5064806 C82.4114849,64.2808298 82.1906503,63.709629 82.3989668,63.2146528 C82.6072833,62.7196766 83.1698708,62.4788459 83.6713147,62.66999 L89.6015936,65.1684945 C90.0367007,65.3540318 90.2814677,65.8202703 90.187324,66.2842091 C90.0931803,66.7481479 89.6860881,67.0818456 89.2131474,67.0827559 Z" id="Path"></path>
                        <path d="M63.4023904,14.8933201 C63.2697305,14.8929537 63.1384317,14.8665322 63.0159363,14.8155533 C62.7723252,14.7130238 62.5794061,14.5177871 62.479651,14.2728257 C62.379896,14.0278642 62.3814834,13.753261 62.4840637,13.5094716 L64.7649402,8.08374875 C64.978373,7.57606529 65.5625433,7.33770047 66.0697211,7.55134601 C66.5768989,7.76499155 66.8150263,8.34974424 66.6015936,8.85742772 L64.3207171,14.2831505 C64.1651733,14.6529995 63.8032767,14.8934567 63.4023904,14.8933201 L63.4023904,14.8933201 Z" id="Path"></path>
                        <path d="M63.7928287,74.227318 L32.8306773,74.227318 C32.2805929,74.227318 31.8346614,73.7809419 31.8346614,73.2303091 C31.8346614,72.6796762 32.2805929,72.2333001 32.8306773,72.2333001 L63.7928287,72.2333001 C64.3429131,72.2333001 64.7888446,72.6796762 64.7888446,73.2303091 C64.7888446,73.7809419 64.3429131,74.227318 63.7928287,74.227318 L63.7928287,74.227318 Z" id="Path"></path>
                        <path d="M63.7928287,79.4117647 L32.8306773,79.4117647 C32.2805929,79.4117647 31.8346614,78.9653886 31.8346614,78.4147557 C31.8346614,77.8641229 32.2805929,77.4177468 32.8306773,77.4177468 L63.7928287,77.4177468 C64.3429131,77.4177468 64.7888446,77.8641229 64.7888446,78.4147557 C64.7888446,78.9653886 64.3429131,79.4117647 63.7928287,79.4117647 L63.7928287,79.4117647 Z" id="Path"></path>
                    </g>
                </g>
                <g id="Group-2" transform="translate(36.055777, 37.288136)" fill="#0D2B42">
                    <polygon id="Path" points="25.7062457 7.97607178 29.8804781 20.5383848 24.1888963 20.436054 19.9203187 8.07840267"></polygon>
                    <polygon id="Path" points="6.61468489 0.598205384 9.76095618 9.69002032 5.65660815 20.9371884 0 20.7322087"></polygon>
                    <polygon id="Path" points="17.5298805 0.199401795 23.36864 0.199401795 24.9003984 4.58624128 18.9651087 4.58624128"></polygon>
                    <polygon id="Path" points="7.56972112 0 13.7981312 0 20.1195219 20.3389831 14.458078 20.3389831 10.6834937 9.08611338 10.6648975 9.13805918"></polygon>
                </g>
            </g>
        </g>
    </g>
</svg>