<?xml version="1.0" encoding="UTF-8"?>
<svg width="126px" height="123px" viewBox="0 0 126 123" version="1.1" xmlns="http://www.w3.org/2000/svg" xmlns:xlink="http://www.w3.org/1999/xlink">
    <title>icon-idea copy</title>
    <defs>
        <filter color-interpolation-filters="auto" id="filter-1">
            <feColorMatrix in="SourceGraphic" type="matrix" values="0 0 0 0 1.000000 0 0 0 0 1.000000 0 0 0 0 1.000000 0 0 0 1.000000 0"></feColorMatrix>
        </filter>
    </defs>
    <g id="Symbols" stroke="none" stroke-width="1" fill="none" fill-rule="evenodd">
        <g id="Solution" transform="translate(-976.000000, -31.000000)">
            <g id="icon-idea-copy" transform="translate(974.000000, 31.000000)" filter="url(#filter-1)">
                <g>
                    <g id="noun_Idea_3605947" transform="translate(2.677291, 0.000000)" fill="#000000" fill-rule="nonzero">
                        <g id="Group">
                            <path d="M83.2203984,87.9435298 C82.6849908,87.9435298 82.2063652,87.6094638 82.0222496,87.1062072 C81.8381339,86.6029506 81.987761,86.0381609 82.3968127,85.6923629 C93.2327682,76.5514364 96.380613,61.1586816 90.0045854,48.4908528 C83.6285579,35.823024 69.3971733,29.1951109 55.6098974,32.4723831 C41.8226215,35.7496552 32.0873874,48.0744974 32.0815936,62.2593021 C32.1174303,71.0952992 35.8854183,79.5038421 42.4541833,85.4065005 C42.8031613,85.7087593 42.9617174,86.1761985 42.868744,86.6286669 C42.7757706,87.0811354 42.4457839,87.4479883 42.0059607,87.5878406 C41.5661375,87.7276928 41.0851483,87.6187089 40.7483665,87.3028913 C33.6416099,80.9168163 29.5659241,71.8189755 29.529243,62.2593021 C29.529243,43.9615553 44.4022311,29.0788435 62.6766534,29.0788435 C80.9510757,29.0788435 95.824074,43.96666 95.824074,62.2593021 C95.8317429,72.0491814 91.5137576,81.3412646 84.0286853,87.6423529 C83.802392,87.8336919 83.5165996,87.9401812 83.2203984,87.9435298 L83.2203984,87.9435298 Z" id="Path"></path>
                            <path d="M77.8964143,108.617732 L46.7301992,108.617732 C45.1350774,108.631371 43.6016251,108.001447 42.4760626,106.86996 C41.3505001,105.738473 40.7277323,104.200826 40.7483665,102.604187 L40.7483665,86.9659821 C40.7483665,86.261172 41.3191589,85.6898106 42.0232669,85.6898106 L82.5650996,85.6898106 C83.2692076,85.6898106 83.84,86.261172 83.84,86.9659821 L83.84,102.604187 C83.8653915,104.195596 83.2494274,105.73018 82.1311218,106.861607 C81.0128161,107.993033 79.4864185,108.625946 77.8964143,108.617732 L77.8964143,108.617732 Z M43.2956175,88.2421535 L43.2956175,102.604187 C43.2710921,103.525184 43.623864,104.416166 44.2720357,105.070286 C44.9202073,105.724406 45.8074007,106.08477 46.7276494,106.067717 L77.8964143,106.067717 C79.8317131,106.067717 81.2901992,104.579701 81.2901992,102.604187 L81.2901992,88.2421535 L43.2956175,88.2421535 Z" id="Shape"></path>
                            <path d="M62.3604781,122.384845 C57.5464542,122.384845 52.9848606,120.776869 49.5222311,117.859541 C46.20749,115.069831 44.3104382,111.422532 44.3104382,107.854357 C44.3104382,107.149547 44.8812306,106.578185 45.5853386,106.578185 C46.2894467,106.578185 46.860239,107.149547 46.860239,107.854357 C46.860239,110.661934 48.4283665,113.604786 51.1643028,115.906999 C54.1679681,118.438923 58.1456574,119.832502 62.3604781,119.832502 C71.769243,119.832502 77.592988,113.614995 77.592988,107.854357 C77.592988,107.149547 78.1637804,106.578185 78.8678884,106.578185 C79.5719965,106.578185 80.1427888,107.149547 80.1427888,107.854357 C80.1427888,114.855434 73.3450199,122.384845 62.3604781,122.384845 Z" id="Path"></path>
                            <path d="M62.5976096,15.4620937 C61.8935015,15.4620937 61.3227092,14.8907323 61.3227092,14.1859222 L61.3227092,1.27617149 C61.3227092,0.571361436 61.8935015,0 62.5976096,0 C63.3017176,0 63.87251,0.571361436 63.87251,1.27617149 L63.87251,14.1859222 C63.87251,14.8907323 63.3017176,15.4620937 62.5976096,15.4620937 Z" id="Path"></path>
                            <path d="M123.920319,63.9361914 L111.023426,63.9361914 C110.319318,63.9361914 109.748526,63.36483 109.748526,62.6600199 C109.748526,61.9552099 110.319318,61.3838485 111.023426,61.3838485 L123.920319,61.3838485 C124.624427,61.3838485 125.195219,61.9552099 125.195219,62.6600199 C125.195219,63.36483 124.624427,63.9361914 123.920319,63.9361914 L123.920319,63.9361914 Z" id="Path"></path>
                            <path d="M14.1717928,63.9361914 L1.2749004,63.9361914 C0.570792351,63.9361914 0,63.36483 0,62.6600199 C0,61.9552099 0.570792351,61.3838485 1.2749004,61.3838485 L14.1717928,61.3838485 C14.8759009,61.3838485 15.4466932,61.9552099 15.4466932,62.6600199 C15.4466932,63.36483 14.8759009,63.9361914 14.1717928,63.9361914 L14.1717928,63.9361914 Z" id="Path"></path>
                            <path d="M28.3537849,29.6582253 C28.0163125,29.6581536 27.6926356,29.5241481 27.4537052,29.2855833 L18.3356175,20.1635095 C18.0041988,19.8430954 17.8712827,19.3686105 17.9879558,18.9224234 C18.1046289,18.4762362 18.452734,18.1277841 18.8984767,18.0109947 C19.3442194,17.8942053 19.8182318,18.0272538 20.1383267,18.359003 L29.2564143,27.4861815 C29.6201717,27.8514422 29.7285336,28.3999672 29.5310391,28.8763252 C29.3335446,29.3526833 28.8690219,29.66333 28.3537849,29.66333 L28.3537849,29.6582253 Z" id="Path"></path>
                            <path d="M105.959522,107.341336 C105.6208,107.341336 105.29603,107.206268 105.056892,106.966142 L95.9388048,97.8389631 C95.607386,97.518549 95.47447,97.0440641 95.5911431,96.597877 C95.7078161,96.1516899 96.0559213,95.8032377 96.501664,95.6864483 C96.9474067,95.5696589 97.421419,95.7027074 97.7415139,96.0344566 L106.859602,105.15653 C107.224854,105.521224 107.334537,106.070315 107.137465,106.547559 C106.940394,107.024803 106.475415,107.336122 105.959522,107.336231 L105.959522,107.341336 Z" id="Path"></path>
                            <path d="M96.8414343,29.6582346 C96.3261972,29.6581161 95.8616745,29.3475786 95.66418,28.8712206 C95.4666856,28.3948625 95.5750474,27.8463375 95.9388048,27.4810768 L105.056892,18.3538983 C105.556105,17.8555976 106.364347,17.8567404 106.862151,18.3564507 C107.359956,18.856161 107.358814,19.6652088 106.859602,20.1635095 L97.7415139,29.2906879 C97.5017531,29.5273824 97.178178,29.6595107 96.8414343,29.6582346 L96.8414343,29.6582346 Z" id="Path"></path>
                            <path d="M19.2356972,107.341345 C18.7175489,107.343321 18.2497408,107.031197 18.0522013,106.5517 C17.8546617,106.072203 17.9666895,105.520725 18.3356175,105.15653 L27.4537052,96.0293519 C27.7738001,95.6976028 28.2478125,95.5645542 28.6935552,95.6813436 C29.1392979,95.798133 29.487403,96.1465852 29.6040761,96.5927723 C29.7207491,97.0389594 29.5878331,97.5134443 29.2564143,97.8338584 L20.1383267,106.966142 C19.899189,107.206268 19.5744192,107.341345 19.2356972,107.341345 L19.2356972,107.341345 Z" id="Path"></path>
                            <path d="M44.2951394,19.2829512 C43.7770491,19.283052 43.3104198,18.9693016 43.1145817,18.4891725 L40.2715538,11.5110668 C40.0061051,10.8577079 40.3200409,10.1126526 40.972749,9.84693927 C41.6254572,9.58122589 42.3697704,9.89547464 42.6352191,10.5488335 L45.4756972,17.5269392 C45.6351303,17.9202399 45.588784,18.3671484 45.3520461,18.7192824 C45.1153082,19.0714165 44.7191634,19.2826882 44.2951394,19.2829512 L44.2951394,19.2829512 Z" id="Path"></path>
                            <path d="M107.583745,45.5899503 C106.974071,45.5902411 106.449519,45.158411 106.332103,44.5595536 C106.214688,43.9606963 106.537274,43.3624395 107.101833,43.1320439 L114.072988,40.2887338 C114.496896,40.1060639 114.98633,40.1669845 115.352635,40.4480135 C115.71894,40.7290425 115.904915,41.1862946 115.838873,41.6435192 C115.772832,42.1007439 115.465088,42.4865412 115.034263,42.6522034 L108.063108,45.4955135 C107.910896,45.5576314 107.74812,45.589699 107.583745,45.5899503 Z" id="Path"></path>
                            <path d="M10.2043028,85.3171686 C9.59462878,85.3174595 9.07007665,84.8856293 8.95266097,84.286772 C8.83524529,83.6879147 9.15783217,83.0896578 9.72239044,82.8592622 L17.3462948,79.7479561 C17.9982989,79.4815379 18.7426121,79.794644 19.0087649,80.4472981 C19.2749178,81.0999522 18.9621236,81.8450075 18.3101195,82.1114257 L10.6836653,85.2227318 C10.5314538,85.2848498 10.3686781,85.3169173 10.2043028,85.3171686 L10.2043028,85.3171686 Z" id="Path"></path>
                            <path d="M17.8205578,45.258146 C17.6504613,45.258035 17.4821639,45.2232999 17.3258964,45.1560518 L10.3878884,42.2336191 C9.73870086,41.9601528 9.43389777,41.2116694 9.70709168,40.5618345 C9.9802856,39.9119997 10.7280235,39.6068927 11.3772112,39.8803589 L18.3152191,42.805344 C18.8751007,43.0406977 19.1914448,43.6386725 19.0712821,44.2345049 C18.9511194,44.8303373 18.4278042,45.2586385 17.8205578,45.258146 Z" id="Path"></path>
                            <path d="M114.192829,85.8659275 C114.023753,85.8664145 113.856336,85.8325505 113.700717,85.7663809 L106.10996,82.5682951 C105.486701,82.2794621 105.204032,81.5483251 105.470677,80.9147556 C105.737323,80.281186 106.457435,79.9729227 107.099283,80.2175872 L114.69004,83.415673 C115.246977,83.6531607 115.560279,84.249946 115.439775,84.8437877 C115.319271,85.4376294 114.798193,85.8647624 114.192829,85.8659275 Z" id="Path"></path>
                            <path d="M81.1550598,19.0634497 C80.985255,19.0629807 80.8171925,19.0291613 80.6603984,18.9639083 C80.3485763,18.8326705 80.1016398,18.5827675 79.9739533,18.2692168 C79.8462669,17.9556662 79.8482987,17.6041741 79.9796016,17.2921236 L82.8991235,10.3471984 C83.1723175,9.69736358 83.9200554,9.3922566 84.569243,9.66572289 C85.2184306,9.93918918 85.5232337,10.6876726 85.2500398,11.3375075 L82.3305179,18.2824327 C82.1314218,18.7558394 81.6681942,19.0636246 81.1550598,19.0634497 L81.1550598,19.0634497 Z" id="Path"></path>
                            <path d="M81.6548207,95.0109671 L42.0232669,95.0109671 C41.3191589,95.0109671 40.7483665,94.4396057 40.7483665,93.7347956 C40.7483665,93.0299856 41.3191589,92.4586241 42.0232669,92.4586241 L81.6548207,92.4586241 C82.3589288,92.4586241 82.9297211,93.0299856 82.9297211,93.7347956 C82.9297211,94.4396057 82.3589288,95.0109671 81.6548207,95.0109671 L81.6548207,95.0109671 Z" id="Path"></path>
                            <path d="M81.6548207,101.647059 L42.0232669,101.647059 C41.3191589,101.647059 40.7483665,101.075697 40.7483665,100.370887 C40.7483665,99.6660773 41.3191589,99.0947159 42.0232669,99.0947159 L81.6548207,99.0947159 C82.3589288,99.0947159 82.9297211,99.6660773 82.9297211,100.370887 C82.9297211,101.075697 82.3589288,101.647059 81.6548207,101.647059 L81.6548207,101.647059 Z" id="Path"></path>
                        </g>
                    </g>
                    <g id="Group-2" transform="translate(46.151394, 47.728814)" fill="#0D2B42">
                        <polygon id="Path" points="32.9039945 10.2093719 38.247012 26.2891326 30.9617873 26.1581491 25.498008 10.3403554"></polygon>
                        <polygon id="Path" points="8.46679666 0.765702891 12.4940239 12.403226 7.24045843 26.7996012 0 26.5372271"></polygon>
                        <polygon id="Path" points="22.438247 0.255234297 29.9118592 0.255234297 31.87251 5.87038883 24.2753392 5.87038883"></polygon>
                        <polygon id="Path" points="9.68924303 0 17.6616079 0 25.752988 26.0338983 18.5063398 26.0338983 13.6748719 11.6302251 13.6510688 11.6967157"></polygon>
                    </g>
                </g>
            </g>
        </g>
    </g>
</svg>