<?xml version="1.0" encoding="UTF-8"?>
<svg width="86px" height="100px" viewBox="0 0 86 100" version="1.1" xmlns="http://www.w3.org/2000/svg" xmlns:xlink="http://www.w3.org/1999/xlink">
    <title>noun_intelligence_2989289</title>
    <defs>
        <filter color-interpolation-filters="auto" id="filter-1">
            <feColorMatrix in="SourceGraphic" type="matrix" values="0 0 0 0 0.050980 0 0 0 0 0.168627 0 0 0 0 0.258824 0 0 0 1.000000 0"></feColorMatrix>
        </filter>
    </defs>
    <g id="Symbols" stroke="none" stroke-width="1" fill="none" fill-rule="evenodd">
        <g id="noun_intelligence_2989289" transform="translate(-177.000000, -78.000000)" filter="url(#filter-1)">
            <g transform="translate(177.000000, 78.000000)">
                <path d="M13.908727,42.7980703 C13.9677456,34.8528109 17.213771,27.6656493 22.4270845,22.4475731 C27.6895802,17.1802698 34.9685463,13.9214335 43.0049182,13.9214335 C51.0314537,13.9214335 58.3104198,17.1802698 63.5729155,22.4475731 C68.8354112,27.7148764 72.1011095,35.0004923 72.1011095,43.044206 C72.1011095,48.2425913 70.7043349,53.2539136 68.1862061,57.6154376 C65.795951,61.7603623 62.3827062,65.3145614 58.1628732,67.8842178 L58.182546,83.4990647 L60.3760723,83.4990647 C61.0941324,83.4990647 61.664646,84.0799449 61.664646,84.7888156 L61.664646,98.7102491 C61.664646,99.4191198 61.0941324,100 60.3760723,100 L32.5684548,100 C31.860231,100 31.279881,99.4191198 31.279881,98.7102491 L31.279881,79.1178498 L22.1418277,79.1178498 L22.0237905,79.1178498 C19.7712456,79.0784681 17.7449388,78.1529979 16.2793092,76.6663385 C14.8136795,75.1698336 13.908727,73.1219848 13.908727,70.8772275 L13.908727,61.7209806 L8.24293721,61.7209806 C7.52487704,61.7209806 6.95436349,61.1499459 6.95436349,60.4410751 C6.95436349,60.2343212 7.00354569,60.0374126 7.08223722,59.8700404 L13.908727,42.7980703 Z M30.384765,39.9232057 L39.8867666,30.4125234 L30.384765,30.4125234 L30.384765,39.9232057 Z M46.103397,30.4125234 L55.615235,39.9330511 L55.615235,30.4125234 L46.103397,30.4125234 Z M55.615235,46.1455154 L46.103397,55.6660431 L55.615235,55.6660431 L55.615235,46.1455154 Z M39.8867666,55.6660431 L30.384765,46.1553608 L30.384765,55.6660431 L39.8867666,55.6660431 Z M42.9950818,30.9441764 L30.9159327,43.044206 L42.9950818,55.1343901 L55.0840673,43.044206 L42.9950818,30.9441764 Z M24.246826,24.2689771 C19.7318998,28.788028 16.8399863,34.9315743 16.5153837,41.7544551 L27.8076175,41.7544551 L27.8076175,29.1227725 C27.8076175,28.4139017 28.3879675,27.8330216 29.0961912,27.8330216 L56.9038088,27.8330216 C57.6120325,27.8330216 58.1923825,28.4139017 58.1923825,29.1227725 L58.1923825,56.955794 C58.1923825,57.6646648 57.6120325,58.2455449 56.9038088,58.2455449 L29.0961912,58.2455449 C28.3879675,58.2455449 27.8076175,57.6646648 27.8076175,56.955794 L27.8076175,44.3241115 L16.0629075,44.3241115 L10.1413702,59.1513242 L15.1874643,59.1513242 C15.9055244,59.1513242 16.476038,59.722359 16.476038,60.4410751 L16.476038,70.8772275 C16.476038,72.432805 17.1055702,73.840701 18.1088871,74.8646254 C19.112204,75.8787043 20.4991422,76.5186571 22.0434633,76.5481934 L22.1418277,76.5481934 L32.5684548,76.5481934 C33.2865149,76.5481934 33.8570285,77.1192281 33.8570285,77.8280988 L33.8570285,83.4990647 L55.6250715,83.4990647 L55.6053986,69.2822684 C53.962713,70.0699025 52.2610088,70.7098553 50.5199588,71.1725903 C48.0706851,71.8223885 45.5427199,72.1669784 43.0049182,72.1669784 C42.2868581,72.1669784 41.7163445,71.5860983 41.7163445,70.8772275 C41.7163445,70.1585114 42.2868581,69.5874766 43.0049182,69.5874766 C45.3263182,69.5874766 47.6280453,69.2822684 49.8510809,68.6816974 C52.0741164,68.0909717 54.2184605,67.2147288 56.2152579,66.0628138 L56.2742766,66.0234321 C60.3662358,63.6605297 63.6712799,60.2933937 65.9631705,56.3256867 C68.2550612,52.3579797 69.523962,47.7897017 69.523962,43.044206 C69.523962,35.709363 66.553357,29.0735453 61.753174,24.2689771 C56.952991,19.4644088 50.32323,16.4910899 43.0049182,16.4910899 C35.67677,16.4910899 29.047009,19.4644088 24.246826,24.2689771 Z M77.4816425,75.7310229 C77.9833009,76.2331397 77.9833009,77.0503101 77.4816425,77.5524269 C76.979984,78.0545437 76.1635594,78.0545437 75.6619009,77.5524269 L68.7075375,70.5917102 C68.205879,70.0895934 68.205879,69.272423 68.7075375,68.7703062 C69.2091959,68.2681894 70.0256205,68.2681894 70.527279,68.7703062 L77.4816425,75.7310229 Z M44.2836555,86.0785665 L44.2836555,97.4204982 L52.1429715,97.4204982 L52.1429715,86.0785665 L44.2836555,86.0785665 Z M41.7163445,97.4204982 L41.7163445,86.0785665 L33.8570285,86.0785665 L33.8570285,97.4204982 L41.7163445,97.4204982 Z M54.720119,86.0785665 L54.720119,97.4204982 L59.097335,97.4204982 L59.097335,86.0785665 L54.720119,86.0785665 Z M44.2836555,8.25046766 C44.2836555,8.95933839 43.7131419,9.54021857 43.0049182,9.54021857 C42.2868581,9.54021857 41.7163445,8.95933839 41.7163445,8.25046766 L41.7163445,1.28975091 C41.7163445,0.580880181 42.2868581,0 43.0049182,0 C43.7131419,0 44.2836555,0.580880181 44.2836555,1.28975091 L44.2836555,8.25046766 Z M70.527279,17.3082603 C70.0256205,17.8103771 69.2091959,17.8103771 68.7075375,17.3082603 C68.205879,16.8061435 68.205879,15.9889731 68.7075375,15.4868564 L75.6619009,8.52613961 C76.1635594,8.02402284 76.979984,8.02402284 77.4816425,8.52613961 C77.9833009,9.0381018 77.9833009,9.8454268 77.4816425,10.357389 L70.527279,17.3082603 Z M17.2924625,15.4868564 C17.794121,15.9889731 17.794121,16.8061435 17.2924625,17.3082603 C16.7908041,17.8103771 15.9743795,17.8103771 15.472721,17.3082603 L8.51835754,10.357389 C8.01669907,9.8454268 8.01669907,9.0381018 8.51835754,8.52613961 C9.02985245,8.02402284 9.83644058,8.02402284 10.3479355,8.52613961 L17.2924625,15.4868564 Z M77.7570628,44.3241115 C77.0488391,44.3241115 76.4783255,43.7530767 76.4783255,43.044206 C76.4783255,42.3254898 77.0488391,41.7544551 77.7570628,41.7544551 L84.7114263,41.7544551 C85.41965,41.7544551 86,42.3254898 86,43.044206 C86,43.7530767 85.41965,44.3241115 84.7114263,44.3241115 L77.7570628,44.3241115 Z M8.24293721,41.7544551 C8.95116093,41.7544551 9.53151092,42.3254898 9.53151092,43.044206 C9.53151092,43.7530767 8.95116093,44.3241115 8.24293721,44.3241115 L1.28857372,44.3241115 C0.580349994,44.3241115 0,43.7530767 0,43.044206 C0,42.3254898 0.580349994,41.7544551 1.28857372,41.7544551 L8.24293721,41.7544551 Z" id="Shape" fill="#000000" fill-rule="nonzero"></path>
            </g>
        </g>
    </g>
</svg>