<?xml version="1.0" encoding="UTF-8"?>
<svg width="125px" height="125px" viewBox="0 0 125 125" version="1.1" xmlns="http://www.w3.org/2000/svg" xmlns:xlink="http://www.w3.org/1999/xlink">
    <title>icon_data</title>
    <defs>
        <filter color-interpolation-filters="auto" id="filter-1">
            <feColorMatrix in="SourceGraphic" type="matrix" values="0 0 0 0 1.000000 0 0 0 0 1.000000 0 0 0 0 1.000000 0 0 0 1.000000 0"></feColorMatrix>
        </filter>
    </defs>
    <g id="Symbols" stroke="none" stroke-width="1" fill="none" fill-rule="evenodd">
        <g id="Solution" transform="translate(-75.000000, -31.000000)">
            <g id="icon_data" transform="translate(72.000000, 31.000000)" filter="url(#filter-1)">
                <g id="Group" transform="translate(3.059761, -0.000000)" fill="#000000" fill-rule="nonzero">
                    <path d="M94.8525896,47.303419 L62.2151394,47.303419 C61.5110314,47.303419 60.940239,46.7326267 60.940239,46.0285186 C60.940239,45.3244106 61.5110314,44.7536182 62.2151394,44.7536182 L94.8525896,44.7536182 C95.5566977,44.7536182 96.12749,45.3244106 96.12749,46.0285186 C96.12749,46.7326267 95.5566977,47.303419 94.8525896,47.303419 L94.8525896,47.303419 Z" id="Path"></path>
                    <path d="M78.7888446,59.7362705 C63.7971762,59.7546264 51.1149986,48.6561085 49.1453105,33.7943862 C47.1756224,18.932664 56.5288714,4.91369599 71.0077511,1.02621595 C85.4866309,-2.86126409 100.603834,4.58755519 106.342954,18.4372107 C112.082074,32.2868663 106.664438,48.2450602 93.6796813,55.7381601 C89.1510488,58.3499802 84.0166603,59.7285283 78.7888446,59.7362705 L78.7888446,59.7362705 Z M78.694502,2.51871784 C68.9290526,2.53465936 59.91391,7.75919523 55.0449912,16.2242933 C50.1760724,24.6893914 50.193082,35.1090018 55.0896127,43.5581582 C59.9861434,52.0073145 69.0182956,57.2023889 78.783745,57.1864835 C88.5385674,57.1701568 97.5449586,51.9550964 102.415087,43.5029559 C107.285215,35.0508155 107.280436,24.6435144 102.40255,16.1958493 C98.7925664,9.90544811 92.8164809,5.32032426 85.8058964,3.46214413 C83.4851166,2.83820745 81.09259,2.52103267 78.6894024,2.51871784 L78.694502,2.51871784 Z" id="Shape"></path>
                    <path d="M92.3027888,46.0285186 L89.752988,46.0285186 L89.752988,22.8253314 L84.1434263,22.8253314 L84.1434263,46.0285186 L81.5936255,46.0285186 L81.5936255,21.550431 C81.5936255,20.8463229 82.1644178,20.2755306 82.8685259,20.2755306 L91.0278884,20.2755306 C91.7319965,20.2755306 92.3027888,20.8463229 92.3027888,21.550431 L92.3027888,46.0285186 Z" id="Path"></path>
                    <path d="M74.7091633,47.303419 C74.0050553,47.303419 73.4342629,46.7326267 73.4342629,46.0285186 L73.4342629,13.3910684 C73.4342629,12.6869604 74.0050553,12.116168 74.7091633,12.116168 L82.8685259,12.116168 C83.5726339,12.116168 84.1434263,12.6869604 84.1434263,13.3910684 L84.1434263,23.8452517 C84.1434263,24.5493597 83.5726339,25.1201521 82.8685259,25.1201521 C82.1644178,25.1201521 81.5936255,24.5493597 81.5936255,23.8452517 L81.5936255,14.6659688 L75.9840637,14.6659688 L75.9840637,46.0285186 C75.9840637,46.7326267 75.4132714,47.303419 74.7091633,47.303419 Z" id="Path"></path>
                    <path d="M67.8247012,46.0285186 L65.2749004,46.0285186 L65.2749004,29.9647736 C65.2749004,29.2606656 65.8456927,28.6898732 66.5498008,28.6898732 L74.7091633,28.6898732 L74.7091633,31.239674 L67.8247012,31.239674 L67.8247012,46.0285186 Z" id="Path"></path>
                    <path d="M5.63250996,124.817363 C5.00603204,124.816262 4.47318791,124.360156 4.37545817,123.741347 C4.19953374,121.871886 4.80708515,120.013222 6.05322709,118.608598 C8.34804781,115.913459 12.6393625,114.546766 18.7767331,114.546766 C22.1832669,114.546766 26.5918725,113.937363 28.2721912,111.04079 C28.9300398,109.906128 28.8917928,108.957602 28.8407968,107.641905 C28.8407968,107.267084 28.812749,106.876965 28.812749,106.458798 C28.812749,105.754689 29.3835414,105.183897 30.0876494,105.183897 C30.7917574,105.183897 31.3625498,105.754689 31.3625498,106.458798 C31.3625498,106.831068 31.3752988,107.19314 31.3905976,107.545013 C31.4466932,109.021347 31.5053386,110.546128 30.4777689,112.31824 C28.6674104,115.444296 24.6132271,117.096566 18.7767331,117.096566 C12.1013546,117.096566 9.22772908,118.820232 7.9910757,120.265969 C6.69322709,121.795849 6.89211155,123.32573 6.89466135,123.343578 C6.94749286,123.677657 6.86540536,124.019038 6.66646767,124.292578 C6.46752998,124.566117 6.16804857,124.749393 5.83394422,124.802064 C5.76726987,124.812136 5.69994055,124.817363 5.63250996,124.817363 Z" id="Path"></path>
                    <path d="M116.015936,107.733698 L8.92430279,107.733698 C3.99554646,107.733698 9.05871217e-16,103.738151 9.05871217e-16,98.8093951 L9.05871217e-16,24.865172 C9.05871217e-16,19.9364157 3.99554646,15.9408692 8.92430279,15.9408692 L52.7808765,15.9408692 C53.4849845,15.9408692 54.0557769,16.5116616 54.0557769,17.2157696 C54.0557769,17.9198777 53.4849845,18.49067 52.7808765,18.49067 L8.92430279,18.49067 C5.40376255,18.49067 2.5498008,21.3446318 2.5498008,24.865172 L2.5498008,98.8093951 C2.5498008,100.500018 3.22139819,102.121398 4.4168492,103.316849 C5.61230022,104.5123 7.23367975,105.183897 8.92430279,105.183897 L116.015936,105.183897 C119.536476,105.183897 122.390438,102.329935 122.390438,98.8093951 L122.390438,24.865172 C122.390438,21.3446318 119.536476,18.49067 116.015936,18.49067 L104.733068,18.49067 C104.02896,18.49067 103.458167,17.9198777 103.458167,17.2157696 C103.458167,16.5116616 104.02896,15.9408692 104.733068,15.9408692 L116.015936,15.9408692 C120.944693,15.9408692 124.940239,19.9364157 124.940239,24.865172 L124.940239,98.8093951 C124.940239,103.738151 120.944693,107.733698 116.015936,107.733698 Z" id="Path"></path>
                    <path d="M72.6693227,118.187881 C71.9652147,118.187881 71.3944223,117.617089 71.3944223,116.912981 L71.3944223,106.458798 C71.3944223,105.754689 71.9652147,105.183897 72.6693227,105.183897 C73.3734308,105.183897 73.9442231,105.754689 73.9442231,106.458798 L73.9442231,116.912981 C73.9442231,117.617089 73.3734308,118.187881 72.6693227,118.187881 L72.6693227,118.187881 Z" id="Path"></path>
                    <path d="M52.2709163,118.187881 C51.5668083,118.187881 50.9960159,117.617089 50.9960159,116.912981 L50.9960159,106.458798 C50.9960159,105.754689 51.5668083,105.183897 52.2709163,105.183897 C52.9750244,105.183897 53.5458167,105.754689 53.5458167,106.458798 L53.5458167,116.912981 C53.5458167,117.617089 52.9750244,118.187881 52.2709163,118.187881 L52.2709163,118.187881 Z" id="Path"></path>
                    <path d="M91.0482869,124.633778 C90.3441788,124.633778 89.7733865,124.062985 89.7733865,123.358877 L89.7733865,120.079833 C89.77198,119.27533 89.1194053,118.623896 88.3149004,118.623897 L36.8905179,118.623897 C36.5043796,118.623897 36.1340565,118.77729 35.8610155,119.050331 C35.5879745,119.323372 35.4345817,119.693695 35.4345817,120.079833 L35.4345817,123.358877 C35.4345817,124.062985 34.8637893,124.633778 34.1596813,124.633778 C33.4555732,124.633778 32.8847809,124.062985 32.8847809,123.358877 L32.8847809,120.079833 C32.8875905,117.868691 34.6793753,116.076906 36.8905179,116.074096 L88.3149004,116.074096 C90.5270388,116.075501 92.3203751,117.867696 92.3231873,120.079833 L92.3231873,123.358877 C92.3231873,124.062985 91.7523949,124.633778 91.0482869,124.633778 L91.0482869,124.633778 Z" id="Path"></path>
                    <path d="M104.82741,88.1002318 L1.2749004,88.1002318 C0.570792351,88.1002318 4.52935608e-16,87.5294394 4.52935608e-16,86.8253314 C4.52935608e-16,86.1212233 0.570792351,85.550431 1.2749004,85.550431 L104.82741,85.550431 C105.531518,85.550431 106.102311,86.1212233 106.102311,86.8253314 C106.102311,87.5294394 105.531518,88.1002318 104.82741,88.1002318 Z" id="Path"></path>
                    <path d="M123.665339,88.1002318 L116.73498,88.1002318 C116.030872,88.1002318 115.46008,87.5294394 115.46008,86.8253314 C115.46008,86.1212233 116.030872,85.550431 116.73498,85.550431 L123.665339,85.550431 C124.369447,85.550431 124.940239,86.1212233 124.940239,86.8253314 C124.940239,87.5294394 124.369447,88.1002318 123.665339,88.1002318 Z" id="Path"></path>
                    <path d="M103.266932,124.817363 L21.9282869,124.817363 C21.2241788,124.817363 20.6533865,124.246571 20.6533865,123.542463 C20.6533865,122.838355 21.2241788,122.267562 21.9282869,122.267562 L103.266932,122.267562 C103.97104,122.267562 104.541833,122.838355 104.541833,123.542463 C104.541833,124.246571 103.97104,124.817363 103.266932,124.817363 Z" id="Path"></path>
                    <path d="M62.4701195,102.009395 C59.3720441,102.009395 56.8605578,99.4979088 56.8605578,96.3998334 C56.8605578,93.301758 59.3720441,90.7902716 62.4701195,90.7902716 C65.5681949,90.7902716 68.0796813,93.301758 68.0796813,96.3998334 C68.0796813,99.4979088 65.5681949,102.009395 62.4701195,102.009395 L62.4701195,102.009395 Z M62.4701195,93.357921 C60.7802602,93.357921 59.4103586,94.7278227 59.4103586,96.417682 C59.4103586,98.1075413 60.7802602,99.4774429 62.4701195,99.4774429 C64.1599788,99.4774429 65.5298805,98.1075413 65.5298805,96.417682 C65.5298805,94.7278227 64.1599788,93.357921 62.4701195,93.357921 Z" id="Shape"></path>
                    <path d="M110.827092,92.1340166 C110.194775,92.1312162 109.565558,92.0454917 108.955538,91.8790366 C107.108881,91.3909878 105.53479,90.1833278 104.585179,88.5260485 L91.0992829,65.1673234 C90.9304397,64.8741966 90.8850147,64.5259839 90.9730092,64.1993521 C91.0610037,63.8727203 91.275203,63.5944503 91.5684462,63.4258095 L101.828845,57.5204708 C102.438702,57.1705949 103.216689,57.3804918 103.567809,57.9896342 L117.035857,81.3407099 C118.318407,83.5652864 118.318767,86.3046373 117.0368,88.5295505 C115.754834,90.7544638 113.384701,92.1279672 110.816892,92.1340166 L110.827092,92.1340166 Z M93.9448606,65.006686 L106.793307,87.2587975 C107.622732,88.6958307 109.155801,89.581424 110.815021,89.581424 C112.474241,89.581424 114.007537,88.6966506 114.837332,87.2598304 C115.667126,85.8230102 115.667354,84.0526435 114.837928,82.6156103 L101.992032,60.3736979 L93.9448606,65.006686 Z" id="Shape"></path>
                    <path d="M97.330996,62.8572166 C96.8746188,62.8581045 96.4525706,62.6149892 96.2243825,62.2197537 L92.3996813,55.5902716 C92.0533032,54.9810478 92.2635964,54.2064687 92.8705093,53.8560571 C93.4774221,53.5056455 94.2533791,53.7107961 94.6078088,54.3153712 L98.43251,60.9448533 C98.7845474,61.5546131 98.5756407,62.334303 97.9658964,62.6863672 C97.7734077,62.7992071 97.5541186,62.8582126 97.330996,62.8572166 L97.330996,62.8572166 Z" id="Path"></path>
                    <path d="M108.111554,124.817363 L107.856574,124.817363 C107.152466,124.817363 106.581673,124.246571 106.581673,123.542463 C106.581673,122.838355 107.152466,122.267562 107.856574,122.267562 L108.111554,122.267562 C108.815662,122.267562 109.386454,122.838355 109.386454,123.542463 C109.386454,124.246571 108.815662,124.817363 108.111554,124.817363 Z" id="Path"></path>
                    <path d="M31.1075697,47.3901123 L9.43426295,47.3901123 C8.7301549,47.3901123 8.15936255,46.8193199 8.15936255,46.1152119 C8.15936255,45.4111038 8.7301549,44.8403115 9.43426295,44.8403115 L31.1075697,44.8403115 C31.8116778,44.8403115 32.3824701,45.4111038 32.3824701,46.1152119 C32.3824701,46.8193199 31.8116778,47.3901123 31.1075697,47.3901123 Z" id="Path"></path>
                    <path d="M21.4183267,55.4627816 L9.43426295,55.4627816 C8.7301549,55.4627816 8.15936255,54.8919892 8.15936255,54.1878812 C8.15936255,53.4837731 8.7301549,52.9129808 9.43426295,52.9129808 L21.4183267,52.9129808 C22.1224347,52.9129808 22.6932271,53.4837731 22.6932271,54.1878812 C22.6932271,54.8919892 22.1224347,55.4627816 21.4183267,55.4627816 L21.4183267,55.4627816 Z" id="Path"></path>
                    <path d="M38.7569721,31.2243752 L9.43426295,31.2243752 C8.7301549,31.2243752 8.15936255,30.6535829 8.15936255,29.9494748 C8.15936255,29.2453668 8.7301549,28.6745744 9.43426295,28.6745744 L38.7569721,28.6745744 C39.4610802,28.6745744 40.0318725,29.2453668 40.0318725,29.9494748 C40.0318725,30.6535829 39.4610802,31.2243752 38.7569721,31.2243752 L38.7569721,31.2243752 Z" id="Path"></path>
                    <path d="M38.7569721,39.2970445 L9.43426295,39.2970445 C8.7301549,39.2970445 8.15936255,38.7262522 8.15936255,38.0221441 C8.15936255,37.3180361 8.7301549,36.7472437 9.43426295,36.7472437 L38.7569721,36.7472437 C39.4610802,36.7472437 40.0318725,37.3180361 40.0318725,38.0221441 C40.0318725,38.7262522 39.4610802,39.2970445 38.7569721,39.2970445 L38.7569721,39.2970445 Z" id="Path"></path>
                    <path d="M86.9482072,79.9408692 L9.43426295,79.9408692 C8.73015494,79.9408692 8.15936266,79.3700768 8.15936266,78.6659688 C8.15936266,77.9618608 8.73015494,77.3910684 9.43426295,77.3910684 L86.9482072,77.3910684 C87.6523152,77.3910684 88.2231075,77.9618608 88.2231075,78.6659688 C88.2231075,79.3700768 87.6523152,79.9408692 86.9482072,79.9408692 L86.9482072,79.9408692 Z" id="Path"></path>
                    <path d="M86.9482072,72.1308294 L86.9023108,72.1308294 C78.9979283,71.8478015 70.7085259,71.1287577 63.7705179,65.8098732 C62.0876494,64.519674 60.5781673,63.0050923 59.1171315,61.5262079 C57.561753,59.9555306 56.0930677,58.4664469 54.4305976,57.2476421 C50.2310757,54.1445346 45.1314741,54.6238971 40.44749,58.5607895 C39.4403187,59.4073234 38.4535458,60.2870047 37.4973705,61.1360884 C34.2718725,64.0071641 31.2248606,66.7176023 27.2089243,68.5305107 C22.1220717,70.8380804 16.1453386,72.046686 9.44956175,72.12318 L9.43426295,72.12318 C8.97878491,72.1259129 8.55644787,71.8854435 8.32634211,71.4923544 C8.09623636,71.0992652 8.09332042,70.613276 8.31869271,70.217454 C8.544065,69.821632 8.9634861,69.5761121 9.41896414,69.5733792 C15.8495618,69.499435 21.3239841,68.4004708 26.1558566,66.2076421 C29.8173705,64.5477218 32.7241434,61.9622238 35.801753,59.2237378 C36.7706773,58.3619051 37.772749,57.4720246 38.8079681,56.6025425 C44.3920319,51.9109091 50.7920319,51.3856501 55.9451793,55.1899529 C57.7657371,56.5336979 59.3721116,58.1553712 60.92749,59.7209489 C62.3936255,61.1998334 63.7756175,62.5945744 65.3207968,63.777682 C71.6647012,68.6401521 79.5053386,69.3081999 86.9941036,69.5733792 C87.6982116,69.5860531 88.2587297,70.1671197 88.2462665,70.8712278 C88.2333818,71.5753358 87.6523152,72.1358539 86.9482072,72.12318 L86.9482072,72.1308294 Z" id="Path"></path>
                    <path d="M48.1912351,70.7615864 C47.487127,70.7615864 46.9163347,70.190794 46.9163347,69.486686 L46.9163347,69.2317059 C46.9163347,68.5275978 47.487127,67.9568055 48.1912351,67.9568055 C48.8953431,67.9568055 49.4661355,68.5275978 49.4661355,69.2317059 L49.4661355,69.486686 C49.4661355,70.190794 48.8953431,70.7615864 48.1912351,70.7615864 Z M48.1912351,65.4070047 C47.487127,65.4070047 46.9163347,64.8362123 46.9163347,64.1321043 L46.9163347,63.8771242 C46.9163347,63.1730162 47.487127,62.6022238 48.1912351,62.6022238 C48.8953431,62.6022238 49.4661355,63.1730162 49.4661355,63.8771242 L49.4661355,64.1321043 C49.4661355,64.8362123 48.8953431,65.4070047 48.1912351,65.4070047 Z M48.1912351,60.052423 C47.487127,60.052423 46.9163347,59.4816307 46.9163347,58.7775226 L46.9163347,58.5225425 C46.9163347,57.8184345 47.487127,57.2476421 48.1912351,57.2476421 C48.8953431,57.2476421 49.4661355,57.8184345 49.4661355,58.5225425 L49.4661355,58.7775226 C49.4661355,59.4816307 48.8953431,60.052423 48.1912351,60.052423 Z" id="Shape"></path>
                </g>
            </g>
        </g>
    </g>
</svg>