<?xml version="1.0" encoding="UTF-8"?>
<svg width="100px" height="100px" viewBox="0 0 100 100" version="1.1" xmlns="http://www.w3.org/2000/svg" xmlns:xlink="http://www.w3.org/1999/xlink">
    <title>noun_decision tree_1601149</title>
    <defs>
        <filter color-interpolation-filters="auto" id="filter-1">
            <feColorMatrix in="SourceGraphic" type="matrix" values="0 0 0 0 1.000000 0 0 0 0 1.000000 0 0 0 0 1.000000 0 0 0 1.000000 0"></feColorMatrix>
        </filter>
    </defs>
    <g id="Symbols" stroke="none" stroke-width="1" fill="none" fill-rule="evenodd">
        <g id="noun_decision-tree_1601149" transform="translate(-385.000000, -138.000000)" filter="url(#filter-1)">
            <g transform="translate(385.000000, 138.000000)" id="Group" fill="#000000" fill-rule="nonzero">
                <path d="M81.6312515,73.1134362 L77.7359215,68.3687485 L74.4899814,71.4207805 L83.7086935,82.6522986 L92.85772,71.5015755 L89.61077,68.4475236 L85.7134201,73.1992809 L85.7134201,47.9589157 L62.2434758,47.9589157 L50,35.71443 L37.7555143,47.9589157 L14.28557,47.9589157 L14.28557,73.116466 L10.38923,68.3687485 L7.14328997,71.4217904 L16.3599822,82.6533086 L25.5100186,71.5005656 L22.2640785,68.4475236 L18.3677385,73.1992809 L18.3677385,52.0410843 L37.7545043,52.0410843 L50,64.2865799 L62.2454957,52.0410843 L81.6312515,52.0410843 L81.6312515,73.1134362 Z M50,58.5733619 L41.4266381,50.0010099 L50,41.4276481 L58.5723519,50.0010099 L50,58.5733619 Z" id="Shape"></path>
                <path d="M0,100 L32.6533086,100 L32.6533086,83.6733457 L0,83.6733457 L0,100 Z M4.03975115,87.7130969 L28.6135574,87.7130969 L28.6135574,95.9602488 L4.03975115,95.9602488 L4.03975115,87.7130969 Z" id="Shape"></path>
                <path d="M67.3466914,83.6733457 L67.3466914,100 L100,100 L100,83.6733457 L67.3466914,83.6733457 Z M95.9602488,95.9602488 L71.3864426,95.9602488 L71.3864426,87.7130969 L95.9602488,87.7130969 L95.9602488,95.9602488 L95.9602488,95.9602488 Z" id="Shape"></path>
                <path d="M47.9589157,25.1555304 L44.0625757,20.4078129 L40.8166357,23.4638846 L50.0343379,34.6943928 L59.1843742,23.5446796 L55.9394441,20.4896178 L52.0420942,25.2383453 L52.0420942,16.3266543 L66.3286742,16.3266543 L66.3286742,0 L66.3276642,0 L33.6733457,0 L33.6733457,16.3266543 L47.9589157,16.3266543 L47.9589157,25.1555304 Z M37.7130969,12.2869031 L37.7130969,4.03975115 L62.2869031,4.03975115 L62.2869031,12.2869031 L52.0410843,12.2869031 L48.0013331,12.2869031 L47.9589157,12.2869031 L37.7130969,12.2869031 Z" id="Shape"></path>
            </g>
        </g>
    </g>
</svg>