<?xml version="1.0" encoding="UTF-8"?>
<svg width="512px" height="512px" viewBox="0 0 512 512" version="1.1" xmlns="http://www.w3.org/2000/svg" xmlns:xlink="http://www.w3.org/1999/xlink">
    <title>icon_eye@2x</title>
    <defs>
        <filter color-interpolation-filters="auto" id="filter-1">
            <feColorMatrix in="SourceGraphic" type="matrix" values="0 0 0 0 1.000000 0 0 0 0 1.000000 0 0 0 0 1.000000 0 0 0 1.000000 0"></feColorMatrix>
        </filter>
    </defs>
    <g id="icon_eye" stroke="none" stroke-width="1" fill="none" fill-rule="evenodd">
        <g id="Group-3">
            <g filter="url(#filter-1)" id="noun_Vision_3606178">
                <g>
                    <path d="M253.330267,394.232608 C177.096916,394.232608 115.071258,332.697002 115.071258,257.065955 C115.071258,181.434908 177.096916,119.909651 253.330267,119.909651 C329.563618,119.909651 391.578844,181.434908 391.578844,257.065955 C391.578844,332.697002 329.584481,394.232608 253.330267,394.232608 Z M253.330267,130.258727 C201.626965,130.254541 155.012552,161.151118 135.224606,208.540537 C115.43666,255.929957 126.372377,310.478967 162.932133,346.749872 C199.491888,383.020777 254.475311,393.870093 302.242127,374.238487 C350.008942,354.606881 381.15157,308.36076 381.147351,257.065955 C381.061136,187.067717 323.885951,130.344261 253.330267,130.258727 Z" id="Shape" fill="#FFFFFF" fill-rule="nonzero"></path>
                    <path d="M5.2276362,264.310318 C3.41803647,264.308462 1.73871468,263.376186 0.790544862,261.847056 C-0.157624956,260.317927 -0.239130967,258.410485 0.575190297,256.807228 C1.44100422,255.09963 22.2935588,214.5623 64.3637703,173.414374 C89.1281348,149.218234 116.093544,129.948255 144.519363,116.059795 C215.064301,81.4103253 297.815146,81.165693 368.566971,115.397454 C396.554666,128.851253 423.102816,147.707269 447.491647,171.282464 C488.9464,211.385133 509.527736,250.908255 510.383119,252.564107 C511.297761,254.216546 511.234204,256.231726 510.21722,257.824202 C509.200236,259.416679 507.390766,260.334436 505.494077,260.219765 C503.597387,260.105095 501.913637,258.976144 501.09909,257.272936 C500.89046,256.879671 480.288261,217.387598 439.97054,178.464723 C416.395366,155.696756 390.775619,137.585873 363.820641,124.649528 C296.059208,91.9287419 216.847902,92.1656523 149.286555,125.29117 C121.903886,138.589733 95.9190368,157.166324 71.9266028,180.555236 C30.9829925,220.513018 10.0991435,261.060698 9.89051359,261.474661 C9.00042153,263.217381 7.19687109,264.314178 5.2276362,264.310318 Z" id="Path" fill="#FFFFFF" fill-rule="nonzero"></path>
                    <path d="M253.518034,424.172785 C215.151386,424.185271 177.293672,415.46125 142.860755,398.672361 C114.925217,385.166817 88.3562043,366.362546 63.8943531,342.787351 C22.3039903,302.695031 1.45143571,263.192608 0.58562179,261.526407 C-0.739443752,258.988664 0.260008692,255.865726 2.8179613,254.551129 C5.37591391,253.236533 8.52372208,254.228089 9.84878762,256.765832 C10.0574175,257.159097 30.9412666,296.671869 71.3945966,335.594743 C95.0636543,358.36271 120.693833,376.483943 147.607085,389.461684 C180.570416,405.504982 216.801767,413.838948 253.518034,413.823409 C291.252965,413.877131 328.490701,405.284954 362.328938,388.71655 C389.784627,375.355893 415.821634,356.706858 439.68889,333.286899 C480.371713,293.339466 500.869597,253.029815 501.067795,252.626201 C502.349652,250.054165 505.490455,249.000058 508.082974,250.271787 C510.675494,251.543516 511.737996,254.659503 510.456139,257.23154 C509.600757,258.939138 489.019421,299.497166 447.063956,340.645092 C422.393475,364.851581 395.438497,384.111211 366.960521,398.010021 C331.680849,415.279138 292.858126,424.232557 253.518034,424.172785 Z" id="Path" fill="#FFFFFF" fill-rule="nonzero"></path>
                    <path d="M255.0306,327.998522 C215.543647,327.998522 183.533147,296.24093 183.533147,257.065955 C183.533147,217.89098 215.543647,186.133388 255.0306,186.133388 C294.517553,186.133388 326.528054,217.89098 326.528054,257.065955 C326.487804,296.224378 294.50087,327.95859 255.0306,327.998522 L255.0306,327.998522 Z M255.0306,196.492813 C230.330776,196.492813 208.063251,211.254627 198.612012,233.894397 C189.160773,256.534166 194.38723,282.593017 211.854135,299.91896 C229.32104,317.244903 255.588309,322.425614 278.406761,313.04518 C301.225212,303.664746 316.10078,281.570631 316.096561,257.065955 C316.056313,223.624846 288.738031,196.527029 255.0306,196.492813 Z" id="Shape" fill="#FFFFFF" fill-rule="nonzero"></path>
                    <path d="M506.700802,138.310318 L506.700802,138.310318 C503.820224,138.310318 501.485055,135.993588 501.485055,133.13577 L501.547644,97.0588912 L465.496404,97.1830801 L465.496404,97.1830801 C462.615827,97.1830801 460.280657,94.8663605 460.280657,92.0085421 C460.280657,89.1507237 462.615827,86.8340041 465.496404,86.8340041 L506.784253,86.689117 L506.784253,86.689117 C509.664831,86.689117 512,89.0058366 512,91.863655 L511.92698,133.146119 C511.924216,134.518493 511.372049,135.833568 510.39195,136.802042 C509.411851,137.770516 508.084104,138.313056 506.700802,138.310318 Z" id="Path" fill="#FFFFFF" fill-rule="nonzero"></path>
                    <path d="M432.856262,169.585224 C430.743792,169.588965 428.83765,168.328187 428.028731,166.392146 C427.219812,164.456104 427.667879,162.227169 429.163514,160.747105 L501.704116,88.862423 C503.780611,87.3173565 506.686275,87.5222242 508.521654,89.3431025 C510.357033,91.1639808 510.563532,94.0466876 509.006161,96.1067762 L436.507285,168.032854 C435.544299,169.007811 434.232016,169.565775 432.856262,169.585224 Z" id="Path" fill="#FFFFFF" fill-rule="nonzero"></path>
                    <path d="M5.68662189,435.556468 C3.58174231,435.543535 1.69100196,434.27664 0.89276702,432.344335 C0.0945320843,430.41203 0.545275634,428.193093 2.03559932,426.718357 L78.6653473,350.694045 C79.9198631,349.174053 81.9337773,348.489948 83.8640868,348.928089 C85.7943963,349.366231 87.3081374,350.851043 87.7716743,352.760999 C88.2352112,354.670955 87.5685874,356.676602 86.0508443,357.938398 L9.33764446,434.045503 C8.36784648,435.005262 7.05640402,435.547999 5.68662189,435.556468 L5.68662189,435.556468 Z" id="Path" fill="#FFFFFF" fill-rule="nonzero"></path>
                    <path d="M356.706363,228.574949 C355.322116,228.577534 353.993661,228.033836 353.013614,227.063984 L322.762285,197.051663 L305.852834,213.837864 C303.813386,215.8612 300.506786,215.8612 298.467337,213.837864 C296.427889,211.814529 296.427889,208.534054 298.467337,206.510719 L319.152988,186.143737 C320.131507,185.170492 321.46015,184.623522 322.845737,184.623522 C324.231323,184.623522 325.559967,185.170492 326.538485,186.143737 L356.789815,216.156057 L420.046389,153.399261 C422.092938,151.438255 425.346029,151.4663 427.357919,153.462294 C429.369809,155.458288 429.398077,158.685678 427.421454,160.716057 L360.482563,227.136427 C359.470128,228.100369 358.108897,228.618922 356.706363,228.574949 L356.706363,228.574949 Z" id="Path" fill="#FFFFFF" fill-rule="nonzero"></path>
                    <path d="M98.7876974,369.063663 C96.6752274,369.067405 94.7690848,367.806627 93.960166,365.870585 C93.1512472,363.934544 93.5993143,361.705609 95.0949488,360.225544 L152.989735,302.788172 C153.968254,301.814928 155.296897,301.267958 156.682484,301.267958 C158.06807,301.267958 159.396714,301.814928 160.375232,302.788172 L180.935705,323.19655 L203.686791,300.625216 C204.996332,299.28006 206.935565,298.740584 208.759143,299.214134 C210.582722,299.687684 212.006855,301.100565 212.484176,302.909736 C212.961498,304.718907 212.417725,306.642818 211.061857,307.942012 L184.586728,334.135524 C183.608209,335.108768 182.279566,335.655739 180.893979,335.655739 C179.508392,335.655739 178.179749,335.108768 177.201231,334.135524 L156.640758,313.727146 L102.396994,367.542341 C101.439171,368.495933 100.144462,369.041651 98.7876974,369.063663 L98.7876974,369.063663 Z" id="Path" fill="#FFFFFF" fill-rule="nonzero"></path>
                    <path d="M220.314591,179.230554 C218.192475,179.22925 216.282726,177.952502 215.48481,176.001643 L210.185612,163.106694 C209.372754,161.372774 209.590054,159.335443 210.750693,157.808702 C211.911331,156.281961 213.826076,155.514729 215.729907,155.813548 C217.633739,156.112366 219.216255,157.428516 219.845174,159.23614 L225.144373,172.131088 C225.801137,173.726939 225.613788,175.542468 224.644706,176.973185 C223.675625,178.403902 222.052062,179.261937 220.314591,179.261602 L220.314591,179.230554 Z" id="Path" fill="#FFFFFF" fill-rule="nonzero"></path>
                    <path d="M293.908775,358.393758 C291.789215,358.394166 289.880187,357.121992 289.078994,355.175195 L283.279083,341.069405 C282.190225,338.423065 283.469898,335.402062 286.137313,334.321807 C288.804727,333.241552 291.849788,334.511114 292.938646,337.157454 L298.738556,351.263244 C299.39532,352.859095 299.207972,354.674624 298.23889,356.105341 C297.269808,357.536059 295.646245,358.394093 293.908775,358.393758 L293.908775,358.393758 Z" id="Path" fill="#FFFFFF" fill-rule="nonzero"></path>
                    <path d="M170.931903,227.23992 C170.236257,227.237201 169.548188,227.096452 168.908194,226.825955 L155.973142,221.423737 C154.191189,220.750517 152.921555,219.166236 152.662079,217.292113 C152.402604,215.41799 153.194648,213.55276 154.727641,212.427803 C156.260634,211.302847 158.290216,211.097484 160.020562,211.892238 L172.955613,217.294456 C175.246145,218.248753 176.540341,220.673383 176.048743,223.089325 C175.557145,225.505268 173.41621,227.241916 170.931903,227.23992 L170.931903,227.23992 Z" id="Path" fill="#FFFFFF" fill-rule="nonzero"></path>
                    <path d="M350.67696,302.301768 C349.982272,302.299865 349.294711,302.162736 348.65325,301.898152 L334.497714,295.98883 C332.779653,295.27154 331.577816,293.699404 331.344923,291.86463 C331.112031,290.029857 331.883465,288.21119 333.368633,287.093706 C334.853802,285.976222 336.827073,285.729692 338.545134,286.446982 L352.70067,292.356304 C354.991202,293.310601 356.285398,295.735231 355.7938,298.151173 C355.302202,300.567116 353.161267,302.303765 350.67696,302.301768 L350.67696,302.301768 Z" id="Path" fill="#FFFFFF" fill-rule="nonzero"></path>
                    <path d="M289.058131,178.816643 C288.362942,178.819703 287.674391,178.682376 287.034421,178.412977 C285.758725,177.880843 284.748483,176.867552 284.226105,175.596187 C283.703726,174.324822 283.712039,172.899615 284.249212,171.634333 L289.694452,158.801478 C290.417453,157.096991 292.002109,155.90465 293.851495,155.673597 C295.70088,155.442545 297.53403,156.207883 298.660413,157.681318 C299.786797,159.154752 300.03529,161.112433 299.312288,162.81692 L293.867049,175.649774 C293.052526,177.569313 291.157415,178.817301 289.058131,178.816643 L289.058131,178.816643 Z" id="Path" fill="#FFFFFF" fill-rule="nonzero"></path>
                    <path d="M212.97082,358.14538 C212.276241,358.142414 211.588886,358.005326 210.947111,357.741766 C209.671415,357.209631 208.661173,356.196341 208.138794,354.924976 C207.616416,353.653611 207.624729,352.228403 208.161902,350.963121 L214.128716,336.919425 C214.807298,335.151551 216.404195,333.891947 218.293243,333.634522 C220.182291,333.377097 222.062376,334.162883 223.196291,335.683764 C224.330206,337.204645 224.537205,339.218192 223.736121,340.934867 L217.779739,354.978563 C216.965216,356.898102 215.070105,358.146089 212.97082,358.14538 Z" id="Path" fill="#FFFFFF" fill-rule="nonzero"></path>
                    <path d="M190.845624,198.417741 C189.451142,198.420229 188.113726,197.868618 187.132012,196.886078 L177.253388,186.992361 C175.774742,185.717103 175.141189,183.727303 175.613116,181.840757 C176.085042,179.954211 177.582833,178.489183 179.490905,178.04779 C181.398978,177.606398 183.395436,178.263104 184.659748,179.748008 L194.548804,189.631376 C196.03088,191.114691 196.468817,193.336529 195.659116,195.264458 C194.849415,197.192386 192.950845,198.448371 190.845624,198.448789 L190.845624,198.417741 Z" id="Path" fill="#FFFFFF" fill-rule="nonzero"></path>
                    <path d="M328.071915,335.843121 C326.681049,335.842845 325.347904,335.291446 324.368735,334.311458 L313.561708,323.496674 C312.083062,322.221415 311.449509,320.231615 311.921435,318.345069 C312.393362,316.458523 313.891152,314.993495 315.799225,314.552102 C317.707297,314.11071 319.703756,314.767417 320.968068,316.25232 L331.775095,327.067105 C333.257171,328.55042 333.695108,330.772258 332.885407,332.700186 C332.075706,334.628115 330.177136,335.8841 328.071915,335.884517 L328.071915,335.843121 Z" id="Path" fill="#FFFFFF" fill-rule="nonzero"></path>
                    <path d="M163.775899,261.557454 L163.775899,261.557454 L149.735109,261.495359 C146.854532,261.495359 144.519363,259.17864 144.519363,256.320821 C144.519363,253.463003 146.854532,251.146283 149.735109,251.146283 L149.735109,251.146283 L163.775899,251.208378 C166.656476,251.208378 168.991646,253.525097 168.991646,256.382916 C168.991646,259.240734 166.656476,261.557454 163.775899,261.557454 L163.775899,261.557454 Z" id="Path" fill="#FFFFFF" fill-rule="nonzero"></path>
                    <path d="M358.792662,262.426776 L358.792662,262.426776 L343.437504,262.364682 C340.556927,262.364682 338.221757,260.047962 338.221757,257.190144 C338.221757,254.332325 340.556927,252.015606 343.437504,252.015606 L343.437504,252.015606 L358.792662,252.0777 C361.673239,252.0777 364.008408,254.39442 364.008408,257.252238 C364.008408,260.110057 361.673239,262.426776 358.792662,262.426776 Z" id="Path" fill="#FFFFFF" fill-rule="nonzero"></path>
                    <path d="M254.12306,171.872361 L254.12306,171.872361 C251.242483,171.872361 248.907314,169.555642 248.907314,166.697823 L248.969903,152.778316 C248.969903,149.920498 251.305072,147.603778 254.185649,147.603778 L254.185649,147.603778 C257.066227,147.603778 259.401396,149.920498 259.401396,152.778316 L259.338807,166.708172 C259.333054,169.561949 256.999569,171.872361 254.12306,171.872361 L254.12306,171.872361 Z" id="Path" fill="#FFFFFF" fill-rule="nonzero"></path>
                    <path d="M253.236383,366.43499 L253.236383,366.43499 C250.355806,366.43499 248.020637,364.11827 248.020637,361.260452 L248.093657,346.016263 C248.093657,343.158444 250.428827,340.841725 253.309404,340.841725 L253.309404,340.841725 C256.189981,340.841725 258.52515,343.158444 258.52515,346.016263 L258.45213,361.250103 C258.4549,362.624268 257.906609,363.943092 256.928166,364.915746 C255.949724,365.888399 254.621495,366.43499 253.236383,366.43499 L253.236383,366.43499 Z" id="Path" fill="#FFFFFF" fill-rule="nonzero"></path>
                    <path d="M256.56403,80.5831622 C253.683452,80.5831622 251.348283,78.2664426 251.348283,75.4086242 L251.348283,74.3737166 C251.348283,71.5158982 253.683452,69.1991786 256.56403,69.1991786 C259.444607,69.1991786 261.779776,71.5158982 261.779776,74.3737166 L261.779776,75.4086242 C261.779776,78.2664426 259.444607,80.5831622 256.56403,80.5831622 Z M256.56403,58.8501027 C253.683452,58.8501027 251.348283,56.5333831 251.348283,53.6755647 L251.348283,52.6406571 C251.348283,49.7828387 253.683452,47.4661191 256.56403,47.4661191 C259.444607,47.4661191 261.779776,49.7828387 261.779776,52.6406571 L261.779776,53.6755647 C261.779776,56.5333831 259.444607,58.8501027 256.56403,58.8501027 Z M256.56403,37.1170431 C253.683452,37.1170431 251.348283,34.8003236 251.348283,31.9425051 L251.348283,30.9075975 C251.348283,28.0497791 253.683452,25.7330595 256.56403,25.7330595 C259.444607,25.7330595 261.779776,28.0497791 261.779776,30.9075975 L261.779776,31.9425051 C261.779776,34.8003236 259.444607,37.1170431 256.56403,37.1170431 Z M256.56403,15.3839836 C253.683452,15.3839836 251.348283,13.067264 251.348283,10.2094456 L251.348283,9.17453799 C251.348283,6.31671957 253.683452,4 256.56403,4 C259.444607,4 261.779776,6.31671957 261.779776,9.17453799 L261.779776,10.2094456 C261.779776,13.067264 259.444607,15.3839836 256.56403,15.3839836 Z" id="Shape" fill="#FFFFFF" fill-rule="nonzero"></path>
                    <path d="M256.56403,508 C253.683452,508 251.348283,505.68328 251.348283,502.825462 L251.348283,501.790554 C251.348283,498.932736 253.683452,496.616016 256.56403,496.616016 C259.444607,496.616016 261.779776,498.932736 261.779776,501.790554 L261.779776,502.825462 C261.779776,505.68328 259.444607,508 256.56403,508 L256.56403,508 Z M256.56403,486.26694 C253.683452,486.26694 251.348283,483.950221 251.348283,481.092402 L251.348283,480.057495 C251.348283,477.199676 253.683452,474.882957 256.56403,474.882957 C259.444607,474.882957 261.779776,477.199676 261.779776,480.057495 L261.779776,481.092402 C261.779776,483.950221 259.444607,486.26694 256.56403,486.26694 Z M256.56403,464.533881 C253.683452,464.533881 251.348283,462.217161 251.348283,459.359343 L251.348283,458.324435 C251.348283,455.466617 253.683452,453.149897 256.56403,453.149897 C259.444607,453.149897 261.779776,455.466617 261.779776,458.324435 L261.779776,459.359343 C261.779776,462.217161 259.444607,464.533881 256.56403,464.533881 Z M256.56403,442.800821 C253.683452,442.800821 251.348283,440.484102 251.348283,437.626283 L251.348283,436.591376 C251.348283,433.733557 253.683452,431.416838 256.56403,431.416838 C259.444607,431.416838 261.779776,433.733557 261.779776,436.591376 L261.779776,437.626283 C261.779776,440.484102 259.444607,442.800821 256.56403,442.800821 Z" id="Shape" fill="#FFFFFF" fill-rule="nonzero"></path>
                    <path d="M175.260973,86.7305133 C173.217931,86.7240553 171.366802,85.5347781 170.525075,83.687885 L170.086952,82.7461191 C169.244079,81.0580279 169.392525,79.0488594 170.474502,77.5007458 C171.556479,75.9526322 173.401015,75.1102045 175.290066,75.3014043 C177.179117,75.492604 178.814177,76.6872181 179.558748,78.4202053 L179.996871,79.3619713 C180.739743,80.9637128 180.609409,82.830494 179.65104,84.3153289 C178.692672,85.8001638 177.038179,86.698678 175.260973,86.6994661 L175.260973,86.7305133 Z M166.112553,66.9844764 C164.085049,66.9969722 162.233974,65.842632 161.366224,64.0246407 L160.938533,63.0828747 C160.09566,61.3947836 160.244106,59.3856151 161.326083,57.8375014 C162.40806,56.2893878 164.252596,55.4469601 166.141647,55.6381599 C168.030698,55.8293597 169.665758,57.0239738 170.410329,58.756961 L170.848451,59.6987269 C171.591324,61.3004685 171.46099,63.1672496 170.502621,64.6520845 C169.544252,66.1369194 167.889759,67.0354337 166.112553,67.0362218 L166.112553,66.9844764 Z M156.964134,47.238463 C154.935928,47.2294819 153.096878,46.054846 152.249099,44.2268583 L151.821408,43.2850924 C150.978535,41.5970012 151.126981,39.5878327 152.208958,38.0397191 C153.290935,36.4916055 155.135471,35.6491778 157.024522,35.8403776 C158.913573,36.0315774 160.548633,37.2261914 161.293204,38.9591786 L161.731326,39.9009446 C162.308285,41.1484153 162.362051,42.5721915 161.880792,43.8589941 C161.399533,45.1457968 160.422682,46.1901936 159.165179,46.7623819 C158.475212,47.0782411 157.724011,47.2407161 156.964134,47.238463 L156.964134,47.238463 Z M147.815715,27.4924087 C145.776178,27.4955437 143.92191,26.3189973 143.069385,24.4808214 L142.641694,23.5390554 C141.798821,21.8509643 141.947267,19.8417958 143.029244,18.2936821 C144.111221,16.7455685 145.955757,15.9031408 147.844808,16.0943406 C149.733859,16.2855404 151.368919,17.4801545 152.11349,19.2131417 L152.551613,20.1549076 C153.128571,21.4023783 153.182337,22.8261545 152.701078,24.1129572 C152.21982,25.3997598 151.242969,26.4441566 149.985465,27.016345 C149.305081,27.3278168 148.565037,27.4901873 147.815715,27.4924087 L147.815715,27.4924087 Z" id="Shape" fill="#FFFFFF" fill-rule="nonzero"></path>
                    <path d="M363.549422,493.107712 C361.506113,493.114876 359.646757,491.937689 358.792662,490.096099 L358.354539,489.154333 C357.577498,487.473879 357.763134,485.509804 358.841519,484.001956 C359.919905,482.494109 361.727207,481.671567 363.582633,481.844174 C365.438059,482.016781 367.059726,483.158314 367.836766,484.838768 L368.274889,485.770185 C368.851848,487.017656 368.905613,488.441432 368.424354,489.728234 C367.943096,491.015037 366.966245,492.059434 365.708741,492.631622 C365.031554,492.941646 364.295224,493.103982 363.549422,493.107712 L363.549422,493.107712 Z M354.401003,473.361649 C352.361466,473.364784 350.507199,472.188238 349.654674,470.350062 L349.216551,469.408296 C348.01247,466.810539 349.159038,463.736252 351.777483,462.541684 C354.395927,461.347116 357.494697,462.484625 358.698778,465.082382 L359.136901,466.024148 C359.71386,467.271619 359.767625,468.695395 359.286366,469.982197 C358.805108,471.269 357.828257,472.313397 356.570754,472.885585 C355.890369,473.197057 355.150325,473.359428 354.401003,473.361649 Z M345.231721,453.61568 C343.192184,453.618747 341.337916,452.442201 340.485391,450.604025 L340.047269,449.662259 C338.843187,447.064502 339.989755,443.990215 342.6082,442.795647 C345.226645,441.601079 348.325414,442.738588 349.529496,445.336345 L349.967618,446.278111 C350.549225,447.524141 350.607777,448.948424 350.13038,450.237304 C349.652984,451.526185 348.67879,452.573963 347.422334,453.149897 C346.734752,453.460723 345.987307,453.619624 345.231721,453.61568 L345.231721,453.61568 Z M336.083301,433.869575 C334.043764,433.87271 332.189497,432.696164 331.336972,430.857988 L330.898849,429.916222 C329.694768,427.318465 330.841336,424.244178 333.459781,423.04961 C336.078225,421.855042 339.176995,422.992551 340.381076,425.590308 L340.819199,426.532074 C341.396158,427.779545 341.449923,429.203321 340.968665,430.490123 C340.487406,431.776926 339.510555,432.821323 338.253052,433.393511 C337.579063,433.702095 336.846445,433.864396 336.104164,433.869575 L336.083301,433.869575 Z" id="Shape" fill="#FFFFFF" fill-rule="nonzero"></path>
                    <path d="M339.191886,87.3411091 C337.407826,87.3417068 335.747226,86.4375943 334.789545,84.944257 C333.831864,83.4509197 333.709978,81.5755567 334.46642,79.9725667 L334.914974,79.0411499 C336.15985,76.4983223 339.231275,75.417259 341.813135,76.6131732 C344.394995,77.8090874 345.531624,80.8393154 344.365907,83.418809 L343.917353,84.3605749 C343.058853,86.1798379 341.216649,87.3417874 339.191886,87.3411091 L339.191886,87.3411091 Z M348.486346,67.6778645 C346.701222,67.676584 345.040755,66.7696515 344.084966,65.2738706 C343.129178,63.7780897 343.010848,61.9012564 343.771312,60.2989733 L344.209434,59.3675565 C344.999519,57.6926484 346.630256,56.5631444 348.487362,56.4045176 C350.344469,56.2458908 352.145807,57.0822405 353.212829,58.5985217 C354.279851,60.114803 354.450451,62.0806566 353.660367,63.7555647 L353.211813,64.6973306 C352.350286,66.5125584 350.508713,67.6700765 348.486346,67.6675154 L348.486346,67.6778645 Z M357.791238,48.0146204 C356.007178,48.0152181 354.346579,47.1111056 353.388897,45.6177683 C352.431216,44.124431 352.30933,42.249068 353.065772,40.646078 L353.514326,39.7146612 C354.232461,37.9385681 355.880004,36.7006908 357.797866,36.4962335 C359.715729,36.2917761 361.59075,37.1541239 362.672841,38.7383005 C363.754932,40.3224772 363.867403,42.3698081 362.965259,44.0612731 L362.527136,45.003039 C361.660716,46.8393679 359.793104,48.0044829 357.749512,47.9835729 L357.791238,48.0146204 Z M367.085699,28.3513812 C366.32031,28.3524893 365.56448,28.1827101 364.874222,27.8546201 C362.267703,26.6396828 361.146963,23.5588353 362.370664,20.9724846 L362.808786,20.0410678 C364.184979,17.7538155 367.086587,16.8767837 369.514471,18.0142263 C371.942356,19.151669 373.103165,21.931908 372.19713,24.4394251 L371.759007,25.3708419 C370.90488,27.1405303 369.115334,28.2787145 367.137856,28.3099795 L367.085699,28.3513812 Z" id="Shape" fill="#FFFFFF" fill-rule="nonzero"></path>
                    <path d="M147.836578,492.300456 C146.052518,492.30105 144.391918,491.396937 143.434237,489.9036 C142.476555,488.410263 142.35467,486.5349 143.111111,484.93191 L143.559666,483.990144 C144.815881,481.460394 147.882568,480.394426 150.455519,481.593171 C153.028469,482.791917 154.160112,485.813899 153.000167,488.388501 L152.562044,489.330267 C151.700517,491.145495 149.858944,492.303013 147.836578,492.300456 L147.836578,492.300456 Z M157.131038,472.637207 C155.348831,472.63427 153.691509,471.72873 152.736326,470.235993 C151.781143,468.743257 151.660344,466.869991 152.416003,465.268665 L152.854126,464.326899 C154.078371,461.737716 157.186481,460.623374 159.796284,461.837947 C162.406087,463.05252 163.529304,466.136073 162.305059,468.725257 L161.856504,469.656674 C160.994977,471.471901 159.153404,472.629419 157.131038,472.626858 L157.131038,472.637207 Z M166.43593,452.973967 C164.648953,452.976227 162.985201,452.070725 162.026911,450.57434 C161.068621,449.077956 160.949209,447.199019 161.710463,445.595072 L162.159018,444.663655 C162.907593,442.92412 164.553195,441.728387 166.45073,441.545196 C168.348265,441.362005 170.195362,442.220548 171.267937,443.784266 C172.340513,445.347985 172.467654,447.3677 171.599519,449.051663 L171.161396,449.993429 C170.29685,451.804623 168.455905,452.957714 166.43593,452.953265 L166.43593,452.973967 Z M175.73039,433.310719 C173.948183,433.307781 172.290861,432.402241 171.335679,430.909505 C170.380496,429.416768 170.259696,427.543502 171.015355,425.942177 L171.453478,425.000411 C172.709694,422.470661 175.77638,421.404693 178.349331,422.603438 C180.922282,423.802184 182.053924,426.824166 180.893979,429.398768 L180.455856,430.330185 C179.585295,432.133314 177.7456,433.277564 175.73039,433.269322 L175.73039,433.310719 Z" id="Shape" fill="#FFFFFF" fill-rule="nonzero"></path>
                    <path d="M35,0 C54.3299662,0 70,15.6700338 70,35 L70,125 C70,144.329966 54.3299662,160 35,160 C15.6700338,160 0,144.329966 0,125 L0,35 C0,15.6700338 15.6700338,0 35,0 Z M35,9 C20.7841905,9 9.23308381,20.4089486 9.00348326,34.5700425 L9,35 L9,125 C9,139.359403 20.6405965,151 35,151 C49.2158095,151 60.7669162,139.591051 60.9965167,125.429958 L61,125 L61,35 C61,20.6405965 49.3594035,9 35,9 Z" id="Rectangle" fill="#FFFFFF" fill-rule="nonzero"></path>
                </g>
            </g>
            <g id="Group-2" transform="translate(35.000000, 80.000000) rotate(-180.000000) translate(-35.000000, -80.000000) translate(19.000000, 20.000000)">
                <circle id="Vert" fill="#03B560" cx="16" cy="16" r="16"></circle>
                <circle id="Orange" fill="#FEB900" transform="translate(16.000000, 60.000000) scale(1, -1) translate(-16.000000, -60.000000) " cx="16" cy="60" r="16"></circle>
                <circle id="Rouge" fill="#D23700" transform="translate(16.000000, 104.000000) scale(1, -1) translate(-16.000000, -104.000000) " cx="16" cy="104" r="16"></circle>
            </g>
        </g>
    </g>
</svg>