<?xml version="1.0" encoding="UTF-8"?>
<svg width="100px" height="100px" viewBox="0 0 100 100" version="1.1" xmlns="http://www.w3.org/2000/svg" xmlns:xlink="http://www.w3.org/1999/xlink">
    <title>Group 3</title>
    <defs>
        <filter color-interpolation-filters="auto" id="filter-1">
            <feColorMatrix in="SourceGraphic" type="matrix" values="0 0 0 0 1.000000 0 0 0 0 1.000000 0 0 0 0 1.000000 0 0 0 1.000000 0"></feColorMatrix>
        </filter>
        <polygon id="path-2" points="0 0 100 0 100 100 0 100"></polygon>
    </defs>
    <g id="Symbols" stroke="none" stroke-width="1" fill="none" fill-rule="evenodd" opacity="0.900000036">
        <g id="Group-3" transform="translate(-81.000000, -145.000000)" filter="url(#filter-1)">
            <g transform="translate(81.000000, 145.000000)">
                <mask id="mask-3" fill="white">
                    <use xlink:href="#path-2"></use>
                </mask>
                <g id="Clip-2"></g>
                <path d="M93.3020764,22.1357887 C91.7194527,22.1357887 90.4315377,20.8595627 90.4315377,19.2913028 C90.4315377,17.723043 91.7194527,16.446817 93.3020764,16.446817 C94.8847,16.446817 96.1726151,17.723043 96.1726151,19.2913028 C96.1726151,20.8595627 94.8847,22.1357887 93.3020764,22.1357887 L93.3020764,22.1357887 Z M86.2348101,32.0478736 C87.2911683,32.0478736 88.1485025,32.899323 88.1485025,33.9441975 L88.1485025,35.1293999 C88.1485025,36.1742743 87.2911683,37.0257238 86.2348101,37.0257238 L13.7671036,37.0257238 C12.7126591,37.0257238 11.8534112,36.1742743 11.8534112,35.1293999 L11.8534112,33.9441975 C11.8534112,32.899323 12.7126591,32.0478736 13.7671036,32.0478736 L86.2348101,32.0478736 Z M55.9716774,69.0470488 C55.6654866,69.3940761 55.4970816,69.8378159 55.4970816,70.2967262 L55.4970816,87.0867779 L44.5048321,94.5222638 L44.5048321,70.2967262 C44.5048321,69.8359195 44.3364271,69.3921797 44.0302363,69.0470488 L19.0699455,40.8183715 L80.9300545,40.8183715 L55.9716774,69.0470488 Z M47.1304181,6.63713358 C47.1304181,5.06887373 48.4183332,3.79264776 50.0009568,3.79264776 C51.5835805,3.79264776 52.8714956,5.06887373 52.8714956,6.63713358 C52.8714956,8.20539343 51.5835805,9.4816194 50.0009568,9.4816194 C48.4183332,9.4816194 47.1304181,8.20539343 47.1304181,6.63713358 L47.1304181,6.63713358 Z M6.69983734,22.1357887 C5.11721366,22.1357887 3.82929863,20.8595627 3.82929863,19.2913028 C3.82929863,17.723043 5.11721366,16.446817 6.69983734,16.446817 C8.28246101,16.446817 9.57037604,17.723043 9.57037604,19.2913028 C9.57037604,20.8595627 8.28246101,22.1357887 6.69983734,22.1357887 L6.69983734,22.1357887 Z M25.1229547,10.4297813 C23.5403311,10.4297813 22.252416,9.15355537 22.252416,7.58529552 C22.252416,6.01703567 23.5403311,4.7408097 25.1229547,4.7408097 C26.7055784,4.7408097 27.9934934,6.01703567 27.9934934,7.58529552 C27.9934934,9.15355537 26.7055784,10.4297813 25.1229547,10.4297813 L25.1229547,10.4297813 Z M74.878959,4.7408097 C76.4615826,4.7408097 77.7494977,6.01703567 77.7494977,7.58529552 C77.7494977,9.15355537 76.4615826,10.4297813 74.878959,10.4297813 C73.2963353,10.4297813 72.0084202,9.15355537 72.0084202,7.58529552 C72.0084202,6.01703567 73.2963353,4.7408097 74.878959,4.7408097 L74.878959,4.7408097 Z M93.3020764,12.6541693 C90.2784423,12.6541693 87.7466271,14.6623762 86.9160846,17.394979 L80.6200364,17.394979 C79.5617644,17.394979 78.7063439,18.2445321 78.7063439,19.2913028 L78.7063439,28.2552258 L65.3104966,28.2552258 L65.3104966,17.8804379 L70.7358148,12.7603634 C71.8802029,13.6611172 73.3078174,14.2243254 74.878959,14.2243254 C78.5723854,14.2243254 81.5768826,11.2470969 81.5768826,7.58719184 C81.5768826,3.92728676 78.5723854,0.950058264 74.878959,0.950058264 C71.1855325,0.950058264 68.1810353,3.92728676 68.1810353,7.58719184 C68.1810353,8.29452065 68.3226486,8.96392298 68.531241,9.60488045 L62.0763563,15.6958728 C61.6974452,16.0523816 61.4831117,16.5473222 61.4831117,17.0669149 L61.4831117,28.2552258 L51.9146493,28.2552258 L51.9146493,12.9651664 C54.6722802,12.1421618 56.6988805,9.63332531 56.6988805,6.63713358 C56.6988805,2.97722849 53.6943833,0 50.0009568,0 C46.3075304,0 43.3030332,2.97722849 43.3030332,6.63713358 C43.3030332,9.63332531 45.3296335,12.1421618 48.0872644,12.9651664 L48.0872644,28.2552258 L38.518802,28.2552258 L38.518802,17.0669149 C38.518802,16.5492185 38.3044685,16.0523816 37.9255574,15.6939764 L31.4706727,9.60298413 C31.6792651,8.96202666 31.8208784,8.29452065 31.8208784,7.58529552 C31.8208784,3.92539043 28.8163812,0.94816194 25.1229547,0.94816194 C21.4295283,0.94816194 18.4250311,3.92539043 18.4250311,7.58529552 C18.4250311,11.2452006 21.4295283,14.2224291 25.1229547,14.2224291 C26.6940963,14.2224291 28.1217108,13.6611172 29.2660989,12.7584671 L34.6914171,17.8804379 L34.6914171,28.2552258 L21.2955698,28.2552258 L21.2955698,19.2913028 C21.2955698,18.2445321 20.4382356,17.394979 19.3818773,17.394979 L13.0839154,17.394979 C12.2533729,14.6623762 9.72155775,12.6541693 6.69792364,12.6541693 C3.00449718,12.6541693 0,15.6313977 0,19.2913028 C0,22.9512079 3.00449718,25.9284364 6.69792364,25.9284364 C9.72155775,25.9284364 12.2533729,23.9202294 13.0839154,21.1876267 L17.4681849,21.1876267 L17.4681849,28.2552258 L13.7671036,28.2552258 C10.6018563,28.2552258 8.02602622,30.8076778 8.02602622,33.9441975 L8.02602622,35.1293999 C8.02602622,38.2659196 10.6018563,40.8183715 13.7671036,40.8183715 L13.9814372,40.8183715 L40.6755334,71.0078477 L40.6755334,98.1101086 C40.6755334,98.8136447 41.0678404,99.4583949 41.6955315,99.7864589 C42.3002583,100.103145 43.0848723,100.069011 43.6685485,99.6745758 L58.4881829,89.6506078 C59.010621,89.2978915 59.3244666,88.7119274 59.3244666,88.0842442 L59.3244666,71.0059514 L86.0185628,40.8164752 L86.2328964,40.8164752 C89.3981437,40.8164752 91.9739738,38.2640233 91.9739738,35.1275036 L91.9739738,33.9423011 C91.9739738,30.8057814 89.3981437,28.2533295 86.2328964,28.2533295 L82.5337288,28.2533295 L82.5337288,21.1857304 L86.9160846,21.1857304 C87.7466271,23.9183331 90.2784423,25.9265401 93.3020764,25.9265401 C96.9955028,25.9265401 100,22.9493116 100,19.2894065 C100,15.6295014 96.9955028,12.6541693 93.3020764,12.6541693 L93.3020764,12.6541693 Z" id="Fill-1" fill="#000000" mask="url(#mask-3)"></path>
            </g>
        </g>
    </g>
</svg>