<?xml version="1.0" encoding="UTF-8"?>
<svg width="94px" height="94px" viewBox="0 0 94 94" version="1.1" xmlns="http://www.w3.org/2000/svg" xmlns:xlink="http://www.w3.org/1999/xlink">
    <title>icon_echec</title>
    <g id="Symbols" stroke="none" stroke-width="1" fill="none" fill-rule="evenodd">
        <g id="Section_Icones" transform="translate(-170.000000, -251.000000)" fill="#000000" fill-rule="nonzero">
            <g id="Group" transform="translate(168.000000, 251.000000)">
                <g id="Group" transform="translate(2.101486, 0.000000)">
                    <path d="M84.1479501,71.4210777 L58.4713959,71.4210777 C58.2126922,71.4210777 57.9650374,71.3161278 57.7849797,71.1303678 L53.9207816,67.1361521 C53.5695432,66.7921109 53.3577762,66.3304453 53.3261425,65.8398007 C53.2764299,65.1400003 53.5670574,64.4344639 54.1922889,63.7365756 C55.7869159,61.9564824 66.7619267,47.7922175 66.8728241,47.6488158 L66.9168006,47.5971911 C67.2787105,47.1929725 67.5859851,46.7429888 67.8307475,46.2587752 L58.9933781,46.2587752 C58.9933781,46.6411797 58.9799939,47.1287456 58.9799939,47.6870562 C58.9827243,48.2035636 58.7708205,48.6980057 58.394915,49.0522405 C57.4255194,49.9891317 55.5058485,49.9853076 55.0832915,49.9700114 L51.8175565,49.9700114 C50.2879383,49.9700114 49.2669181,48.8572142 48.9036338,48.1994783 L48.8921617,48.1784461 C48.8692174,48.1344695 46.5977343,43.7674095 45.8558695,42.3028 C44.9725149,40.5819795 46.4811009,38.7923262 47.5231533,38.0007487 C48.2229537,37.4271419 60.4446034,27.4368227 61.5574007,26.618477 C63.1558517,25.448319 64.6606137,25.4559671 64.9875696,25.4712633 L67.6529294,25.4712633 C67.790859,25.4823205 67.9293937,25.4593408 68.0563662,25.4043425 C68.0468061,25.36419 68.0563662,25.3756622 68.0563662,25.3087414 L68.0563662,21.0334584 C68.0587402,20.4978674 68.310361,19.9939191 68.7370463,19.6701861 C69.0678262,19.4330953 69.6529052,19.2151247 70.55538,19.5210484 C71.649057,19.8919808 75.2761643,21.587945 78.8803272,24.9358969 C83.8649707,29.5687282 87.1230575,35.7445618 88.3027756,42.7999259 C91.0943289,59.497621 85.2435391,70.4726319 84.9949762,70.9315174 C84.8238199,71.2377206 84.4987117,71.4255935 84.1479501,71.4210777 L84.1479501,71.4210777 Z M58.8748327,69.5089724 L83.557135,69.5089724 C84.6316918,67.2145451 88.7654851,57.1783374 86.411785,43.1058496 C83.6795045,26.7618787 70.6471571,21.589857 69.968389,21.331734 L69.968389,25.2705009 C70.0010283,25.7782398 69.8335634,26.2785756 69.5018554,26.6643655 C69.215052,26.9932335 68.6586534,27.3851981 67.6529294,27.3851981 L64.9569772,27.3851981 L64.8785843,27.3851981 C64.8460799,27.3851981 63.8193237,27.3354855 62.6893182,28.1633914 C61.8231719,28.798183 53.1731807,35.8516351 48.7200796,39.4940385 L48.6913993,39.5169828 C48.2860504,39.8248185 47.2612062,40.8553988 47.5575697,41.4290056 C48.2822264,42.8439025 50.4256039,46.9738717 50.5804778,47.2797954 C50.6225423,47.3467162 51.0680436,48.0560766 51.8175565,48.0560766 L55.1387401,48.0560766 C55.9953264,48.0828449 56.9054492,47.8648743 57.0756192,47.6736721 C57.0756192,46.245391 57.1119477,45.3027638 57.1138597,45.2626113 C57.1333962,44.7488598 57.5557484,44.342557 58.0698711,44.3429283 L67.876636,44.3429283 C69.0238497,44.3429283 69.4922953,44.8668226 69.6892336,45.3084999 C70.2360722,46.5264584 68.964577,48.1765341 68.3642018,48.845742 C67.6854338,49.7233605 57.2381412,63.2031212 55.6148338,65.0118948 C55.2783178,65.3942994 55.207573,65.6428623 55.2324293,65.7384635 C55.2496375,65.7499356 55.2228691,65.7384635 55.2687577,65.784352 L58.8748327,69.5089724 Z" id="Shape"></path>
                    <path d="M89.8668102,77.3425298 L53.9207816,77.3425298 C52.3368101,77.3425298 51.0527474,76.0584672 51.0527474,74.4744956 L51.0527474,72.3712706 C51.0527474,70.787299 52.3368101,69.5032364 53.9207816,69.5032364 L89.8668102,69.5032364 C91.4507818,69.5032364 92.7348444,70.787299 92.7348444,72.3712706 L92.7348444,74.4744956 C92.7348444,76.0584672 91.4507818,77.3425298 89.8668102,77.3425298 L89.8668102,77.3425298 Z M53.9207816,71.4152592 C53.3927911,71.4152592 52.9647702,71.84328 52.9647702,72.3712706 L52.9647702,74.4744956 C52.9647702,75.0024861 53.3927911,75.430507 53.9207816,75.430507 L89.8668102,75.430507 C90.3948008,75.430507 90.8228216,75.0024861 90.8228216,74.4744956 L90.8228216,72.3712706 C90.8228216,71.84328 90.3948008,71.4152592 89.8668102,71.4152592 L53.9207816,71.4152592 Z" id="Shape"></path>
                    <path d="M92.7864691,89.5794757 L51.104372,89.5794757 C50.5763815,89.5794757 50.1483606,89.1514549 50.1483606,88.6234643 L50.1483606,85.659829 C50.1483606,81.9868332 53.4274797,80.3864701 55.7333792,79.9237606 L55.7333792,76.4821196 C55.7333792,75.9541291 56.1614001,75.5261082 56.6893906,75.5261082 C57.2173812,75.5261082 57.645402,75.9541291 57.645402,76.4821196 L57.645402,80.7363703 C57.6475029,81.231837 57.270714,81.6468028 56.7773437,81.6923817 C56.5861414,81.7115019 52.0603834,82.1971557 52.0603834,85.6636531 L52.0603834,87.671277 L91.8304577,87.671277 L91.8304577,85.659829 C91.8304577,82.1933317 87.3046997,81.7076779 87.1115854,81.6885577 C86.6197302,81.6411258 86.2450693,81.2266779 86.2473511,80.7325463 L86.2473511,76.4821196 C86.2473511,75.9541291 86.675372,75.5261082 87.2033625,75.5261082 C87.731353,75.5261082 88.1593739,75.9541291 88.1593739,76.4821196 L88.1593739,79.9237606 C90.4633614,80.3941182 93.7424805,81.9944813 93.7424805,85.659829 L93.7424805,88.6234643 C93.7424805,89.1514549 93.3144596,89.5794757 92.7864691,89.5794757 L92.7864691,89.5794757 Z" id="Path"></path>
                    <path d="M88.2836554,93.7859259 L55.5020245,93.7859259 C53.9180529,93.7859259 52.6339903,92.5018633 52.6339903,90.9178917 L52.6339903,88.6234643 C52.6339903,88.0954738 53.0620112,87.6674529 53.5900017,87.6674529 C54.1179922,87.6674529 54.5460131,88.0954738 54.5460131,88.6234643 L54.5460131,90.9178917 C54.5460131,91.4458822 54.974034,91.8739031 55.5020245,91.8739031 L88.2836554,91.8739031 C88.8116459,91.8739031 89.2396668,91.4458822 89.2396668,90.9178917 L89.2396668,88.6234643 C89.2396668,88.0954738 89.6676877,87.6674529 90.1956782,87.6674529 C90.7236687,87.6674529 91.1516896,88.0954738 91.1516896,88.6234643 L91.1516896,90.9178917 C91.1516896,91.6785417 90.8495225,92.4080374 90.3116618,92.9458981 C89.7738011,93.4837589 89.0443053,93.7859259 88.2836554,93.7859259 L88.2836554,93.7859259 Z" id="Path"></path>
                    <path d="M13.3858983,29.637561 L7.26742532,29.637561 C6.73943481,29.637561 6.31141392,29.2095401 6.31141392,28.6815496 L6.31141392,22.5630766 C6.31141392,22.0350861 6.73943481,21.6070652 7.26742532,21.6070652 L13.3858983,21.6070652 C13.9138888,21.6070652 14.3419097,22.0350861 14.3419097,22.5630766 L14.3419097,28.6815496 C14.3419097,29.2095401 13.9138888,29.637561 13.3858983,29.637561 Z M8.22343672,27.7255382 L12.4298869,27.7255382 L12.4298869,23.519088 L8.22343672,23.519088 L8.22343672,27.7255382 Z" id="Shape"></path>
                    <path d="M13.3858983,41.8745069 L7.26742532,41.8745069 C6.73943481,41.8745069 6.31141392,41.446486 6.31141392,40.9184955 L6.31141392,34.8000225 C6.31141392,34.272032 6.73943481,33.8440111 7.26742532,33.8440111 L13.3858983,33.8440111 C13.9138888,33.8440111 14.3419097,34.272032 14.3419097,34.8000225 L14.3419097,40.9184955 C14.3419097,41.446486 13.9138888,41.8745069 13.3858983,41.8745069 L13.3858983,41.8745069 Z M8.22343672,39.9624841 L12.4298869,39.9624841 L12.4298869,35.7560339 L8.22343672,35.7560339 L8.22343672,39.9624841 Z" id="Shape"></path>
                    <path d="M13.3858983,53.9202505 L7.26742532,53.9202505 C6.73943481,53.9202505 6.31141392,53.4922297 6.31141392,52.9642391 L6.31141392,46.8457662 C6.31141392,46.3177757 6.73943481,45.8897548 7.26742532,45.8897548 L13.3858983,45.8897548 C13.9138888,45.8897548 14.3419097,46.3177757 14.3419097,46.8457662 L14.3419097,52.9642391 C14.3419097,53.4922297 13.9138888,53.9202505 13.3858983,53.9202505 Z M8.22343672,52.0082277 L12.4298869,52.0082277 L12.4298869,47.8017776 L8.22343672,47.8017776 L8.22343672,52.0082277 Z" id="Shape"></path>
                    <path d="M0.957750085,93.6903248 C0.429759568,93.6903248 0.00173868518,93.2623039 0.00173868518,92.7343134 L0.00173868518,16.3490025 C0.00173868518,15.821012 0.429759568,15.3929911 0.957750085,15.3929911 L15.3935222,15.3929911 L15.3935222,0.957219003 C15.3935222,0.429228487 15.8215431,0.00120760377 16.3495336,0.00120760377 L83.557135,0.00120760377 C84.0851255,0.00120760377 84.5131464,0.429228487 84.5131464,0.957219003 L84.5131464,31.7407861 C84.5131464,32.2687766 84.0851255,32.6967975 83.557135,32.6967975 C83.0291445,32.6967975 82.6011236,32.2687766 82.6011236,31.7407861 L82.6011236,1.9132304 L17.305545,1.9132304 L17.305545,16.3490025 C17.305545,16.8769931 16.8775241,17.3050139 16.3495336,17.3050139 L1.91376148,17.3050139 L1.91376148,92.7343134 C1.91376148,93.2623039 1.4857406,93.6903248 0.957750085,93.6903248 Z" id="Path"></path>
                    <path d="M0.957750085,17.2094143 C0.570548488,17.2101056 0.221165331,16.977173 0.0728959336,16.6194836 C-0.0753734635,16.2617941 0.00675422498,15.8499917 0.280894014,15.5765453 L15.5770764,0.280362932 C15.9508937,-0.0934543233 16.5569712,-0.093454309 16.9307885,0.280362964 C17.3046058,0.654180238 17.3046058,1.26025778 16.9307885,1.63407507 L1.63460616,16.9302575 C1.45497021,17.1094407 1.21147334,17.2098659 0.957750085,17.2094143 Z" id="Path"></path>
                    <path d="M54.876793,93.6903248 L0.957750085,93.6903248 C0.429759568,93.6903248 0.00173868518,93.2623039 0.00173868518,92.7343134 C0.00173868518,92.2063228 0.429759568,91.778302 0.957750085,91.778302 L54.876793,91.778302 C55.4047835,91.778302 55.8328044,92.2063228 55.8328044,92.7343134 C55.8328044,93.2623039 55.4047835,93.6903248 54.876793,93.6903248 Z" id="Path"></path>
                    <path d="M63.3221977,35.0963861 C62.9078092,35.096208 62.5407158,34.8290832 62.4130774,34.4348418 C62.285439,34.0406004 62.4263203,33.6090152 62.761975,33.3660054 L63.846092,32.5820761 C64.1219038,32.3651642 64.4943794,32.316779 64.8164567,32.456024 C65.138534,32.5952691 65.3584472,32.8997643 65.3893695,33.249288 C65.4202919,33.5988116 65.2572533,33.9371866 64.9646253,34.1308146 L63.8805084,34.9147439 C63.7180638,35.032353 63.5227467,35.095898 63.3221977,35.0963861 L63.3221977,35.0963861 Z" id="Path"></path>
                    <path d="M87.7234327,49.0331203 L84.0905894,49.0331203 C83.5625989,49.0331203 83.134578,48.6050994 83.134578,48.0771089 C83.134578,47.5491183 83.5625989,47.1210975 84.0905894,47.1210975 L87.7234327,47.1210975 C88.2514232,47.1210975 88.6794441,47.5491183 88.6794441,48.0771089 C88.6794441,48.6050994 88.2514232,49.0331203 87.7234327,49.0331203 L87.7234327,49.0331203 Z" id="Path"></path>
                    <path d="M87.7980016,54.4135524 L87.7635852,54.4135524 L84.0332287,54.3122152 C83.6916787,54.3029934 83.3809933,54.1122573 83.2182046,53.8118554 C83.055416,53.5114535 83.0652556,53.147024 83.2440169,52.855844 C83.4227783,52.5646639 83.7433033,52.3909705 84.0848533,52.4001924 L87.8171218,52.5015296 C88.3451123,52.5089215 88.7671408,52.9429347 88.759749,53.4709252 C88.7523571,53.9989157 88.318344,54.4209443 87.7903535,54.4135524 L87.7980016,54.4135524 Z" id="Path"></path>
                    <path d="M87.2339549,60.0196033 C87.1893864,60.0224504 87.1446817,60.0224504 87.1001133,60.0196033 L83.3812289,59.497621 C83.0365028,59.4576525 82.7405075,59.2340114 82.6078859,58.9133167 C82.4752643,58.592622 82.5268459,58.2252423 82.7426525,57.9534683 C82.9584591,57.6816943 83.304596,57.5482111 83.6470001,57.6047185 L87.3658844,58.1247887 C87.7074344,58.1483556 88.0104668,58.3523471 88.1608322,58.6599216 C88.3111976,58.967496 88.286052,59.3319255 88.0948674,59.615933 C87.9036828,59.8999404 87.5755048,60.0603784 87.2339549,60.0368115 L87.2339549,60.0196033 Z" id="Path"></path>
                    <path d="M86.3066238,65.6638996 C86.235139,65.6641346 86.1638841,65.6557894 86.0943893,65.6390383 L81.9548599,64.7002351 C81.614941,64.6314045 81.3389582,64.3838794 81.2336864,64.0534247 C81.1284146,63.7229699 81.2103662,63.3614189 81.4478349,63.108652 C81.6853036,62.8558851 82.0410413,62.75155 82.3774169,62.8360129 L86.5169463,63.774816 C86.9931108,63.8810547 87.3128909,64.3287942 87.2589067,64.8136705 C87.2049225,65.2985467 86.7944948,65.6649878 86.3066238,65.6638996 L86.3066238,65.6638996 Z" id="Path"></path>
                    <path d="M83.5819913,43.9586359 C83.0889244,43.9537313 82.6804561,43.5746438 82.6388513,43.0833111 C82.5972466,42.5919784 82.9361556,42.1496049 83.4213814,42.0618851 L86.9242072,41.4557739 C87.4448058,41.3660155 87.9395979,41.7152806 88.0293563,42.2358792 C88.1191147,42.7564779 87.7698497,43.25127 87.249251,43.3410284 L83.7483373,43.9452276 C83.6933848,43.9545293 83.6377241,43.9590078 83.5819913,43.9586359 L83.5819913,43.9586359 Z" id="Path"></path>
                    <path d="M82.4099213,39.0657515 C81.9492707,39.0673844 81.5529564,38.7402866 81.4672147,38.287683 C81.381473,37.8350793 81.6306891,37.3856916 82.0600212,37.2187314 L85.3104599,35.9510603 C85.8025471,35.7588717 86.3572621,36.0019876 86.5494507,36.4940747 C86.7416392,36.9861619 86.4985234,37.540877 86.0064362,37.7330655 L82.7559975,39.0007366 C82.6456591,39.0436477 82.5283102,39.0656911 82.4099213,39.0657515 Z" id="Path"></path>
                    <path d="M80.0103327,34.3124768 C79.5769407,34.3141772 79.1966079,34.0241378 79.0835989,33.6057354 C78.9705899,33.1873329 79.1531791,32.7452504 79.528503,32.5285395 L82.6068597,30.7427102 C82.9032128,30.5543192 83.2789949,30.5435656 83.5856364,30.7147011 C83.8922779,30.8858365 84.0804129,31.2113101 84.0756602,31.5624422 C84.0709075,31.9135743 83.8740321,32.2338367 83.5628711,32.3966099 L80.4978985,34.1824392 C80.3499536,34.2686616 80.1815658,34.313565 80.0103327,34.3124768 Z" id="Path"></path>
                    <path d="M77.5399993,29.7828748 C77.1391174,29.7830443 76.7807063,29.5330874 76.642337,29.1568425 C76.5039676,28.7805975 76.6150318,28.3579845 76.9205039,28.0983826 L78.9682803,26.3546178 C79.2271377,26.1223573 79.5917063,26.0489925 79.9202548,26.1630452 C80.2488033,26.2770978 80.4894978,26.5605741 80.5487648,26.9032687 C80.6080318,27.2459632 80.476521,27.5938102 80.205359,27.8115792 L78.1518466,29.555344 C77.9809102,29.7006255 77.7643272,29.7811673 77.5399993,29.7828748 Z" id="Path"></path>
                    <path d="M78.2034712,59.5435096 C78.103561,59.5432401 78.0042738,59.5277667 77.9090197,59.497621 C77.6675513,59.4196547 77.4669839,59.2488909 77.3515024,59.0229489 C77.2360209,58.7970069 77.2151,58.5344239 77.2933483,58.2930467 C81.205347,46.1708221 75.3947097,37.2340276 75.335437,37.1441625 C75.053026,36.7057455 75.1740788,36.1218849 75.6075135,35.8318852 C76.0409482,35.5418856 76.6268275,35.6527568 76.9243279,36.0810778 C77.186275,36.4730425 83.3200442,45.8419542 79.113594,58.8800377 C78.9865197,59.275393 78.6187467,59.5435096 78.2034712,59.5435096 L78.2034712,59.5435096 Z" id="Path"></path>
                    <path d="M84.3219441,81.6923817 L84.1307418,81.6923817 C83.6027513,81.6923817 83.1747304,81.2643608 83.1747304,80.7363703 C83.1747304,80.2083798 83.6027513,79.7803589 84.1307418,79.7803589 L84.3219441,79.7803589 C84.8499346,79.7803589 85.2779555,80.2083798 85.2779555,80.7363703 C85.2779555,81.2643608 84.8499346,81.6923817 84.3219441,81.6923817 Z M80.3066963,81.6923817 L80.115494,81.6923817 C79.5875035,81.6923817 79.1594826,81.2643608 79.1594826,80.7363703 C79.1594826,80.2083798 79.5875035,79.7803589 80.115494,79.7803589 L80.3066963,79.7803589 C80.8346868,79.7803589 81.2627076,80.2083798 81.2627076,80.7363703 C81.2627076,81.2643608 80.8346868,81.6923817 80.3066963,81.6923817 Z M76.2914484,81.6923817 L76.1002461,81.6923817 C75.5722556,81.6923817 75.1442347,81.2643608 75.1442347,80.7363703 C75.1442347,80.2083798 75.5722556,79.7803589 76.1002461,79.7803589 L76.2914484,79.7803589 C76.8194389,79.7803589 77.2474598,80.2083798 77.2474598,80.7363703 C77.2474598,81.2643608 76.8194389,81.6923817 76.2914484,81.6923817 L76.2914484,81.6923817 Z M72.2762005,81.6923817 L72.0849982,81.6923817 C71.5570077,81.6923817 71.1289868,81.2643608 71.1289868,80.7363703 C71.1289868,80.2083798 71.5570077,79.7803589 72.0849982,79.7803589 L72.2762005,79.7803589 C72.804191,79.7803589 73.2322119,80.2083798 73.2322119,80.7363703 C73.2322119,81.2643608 72.804191,81.6923817 72.2762005,81.6923817 L72.2762005,81.6923817 Z M68.2609526,81.6923817 L68.0697503,81.6923817 C67.5417598,81.6923817 67.1137389,81.2643608 67.1137389,80.7363703 C67.1137389,80.2083798 67.5417598,79.7803589 68.0697503,79.7803589 L68.2609526,79.7803589 C68.7889431,79.7803589 69.216964,80.2083798 69.216964,80.7363703 C69.216964,81.2643608 68.7889431,81.6923817 68.2609526,81.6923817 L68.2609526,81.6923817 Z M64.2457047,81.6923817 L64.0545025,81.6923817 C63.5265119,81.6923817 63.0984911,81.2643608 63.0984911,80.7363703 C63.0984911,80.2083798 63.5265119,79.7803589 64.0545025,79.7803589 L64.2457047,79.7803589 C64.7736953,79.7803589 65.2017161,80.2083798 65.2017161,80.7363703 C65.2017161,81.2643608 64.7736953,81.6923817 64.2457047,81.6923817 Z M60.2304569,81.6923817 L60.0392546,81.6923817 C59.5112641,81.6923817 59.0832432,81.2643608 59.0832432,80.7363703 C59.0832432,80.2083798 59.5112641,79.7803589 60.0392546,79.7803589 L60.2304569,79.7803589 C60.7584474,79.7803589 61.1864683,80.2083798 61.1864683,80.7363703 C61.1864683,81.2643608 60.7584474,81.6923817 60.2304569,81.6923817 Z" id="Shape"></path>
                    <path d="M74.9530324,8.22290564 L74.7618301,8.22290564 C74.2338396,8.22290564 73.8058187,7.79488476 73.8058187,7.26689424 C73.8058187,6.73890372 74.2338396,6.31088284 74.7618301,6.31088284 L74.9530324,6.31088284 C75.4810229,6.31088284 75.9090438,6.73890372 75.9090438,7.26689424 C75.9090438,7.79488476 75.4810229,8.22290564 74.9530324,8.22290564 L74.9530324,8.22290564 Z M70.9377845,8.22290564 L70.7465823,8.22290564 C70.2185917,8.22290564 69.7905709,7.79488476 69.7905709,7.26689424 C69.7905709,6.73890372 70.2185917,6.31088284 70.7465823,6.31088284 L70.9377845,6.31088284 C71.4657751,6.31088284 71.8937959,6.73890372 71.8937959,7.26689424 C71.8937959,7.79488476 71.4657751,8.22290564 70.9377845,8.22290564 L70.9377845,8.22290564 Z M66.9225367,8.22290564 L66.7313344,8.22290564 C66.2033439,8.22290564 65.775323,7.79488476 65.775323,7.26689424 C65.775323,6.73890372 66.2033439,6.31088284 66.7313344,6.31088284 L66.9225367,6.31088284 C67.4505272,6.31088284 67.8785481,6.73890372 67.8785481,7.26689424 C67.8785481,7.79488476 67.4505272,8.22290564 66.9225367,8.22290564 L66.9225367,8.22290564 Z M62.9072888,8.22290564 L62.7160865,8.22290564 C62.188096,8.22290564 61.7600751,7.79488476 61.7600751,7.26689424 C61.7600751,6.73890372 62.188096,6.31088284 62.7160865,6.31088284 L62.9072888,6.31088284 C63.4352793,6.31088284 63.8633002,6.73890372 63.8633002,7.26689424 C63.8633002,7.79488476 63.4352793,8.22290564 62.9072888,8.22290564 L62.9072888,8.22290564 Z M58.8920409,8.22290564 L58.7008386,8.22290564 C58.1728481,8.22290564 57.7448272,7.79488476 57.7448272,7.26689424 C57.7448272,6.73890372 58.1728481,6.31088284 58.7008386,6.31088284 L58.8920409,6.31088284 C59.4200314,6.31088284 59.8480523,6.73890372 59.8480523,7.26689424 C59.8480523,7.79488476 59.4200314,8.22290564 58.8920409,8.22290564 L58.8920409,8.22290564 Z M54.876793,8.22290564 L54.6855907,8.22290564 C54.1576002,8.22290564 53.7295793,7.79488476 53.7295793,7.26689424 C53.7295793,6.73890372 54.1576002,6.31088284 54.6855907,6.31088284 L54.876793,6.31088284 C55.4047835,6.31088284 55.8328044,6.73890372 55.8328044,7.26689424 C55.8328044,7.79488476 55.4047835,8.22290564 54.876793,8.22290564 L54.876793,8.22290564 Z M50.8615451,8.22290564 L50.6703429,8.22290564 C50.1423523,8.22290564 49.7143315,7.79488476 49.7143315,7.26689424 C49.7143315,6.73890372 50.1423523,6.31088284 50.6703429,6.31088284 L50.8615451,6.31088284 C51.3895357,6.31088284 51.8175565,6.73890372 51.8175565,7.26689424 C51.8175565,7.79488476 51.3895357,8.22290564 50.8615451,8.22290564 L50.8615451,8.22290564 Z M46.8462973,8.22290564 L46.655095,8.22290564 C46.1271045,8.22290564 45.6990836,7.79488476 45.6990836,7.26689424 C45.6990836,6.73890372 46.1271045,6.31088284 46.655095,6.31088284 L46.8462973,6.31088284 C47.3742878,6.31088284 47.8023087,6.73890372 47.8023087,7.26689424 C47.8023087,7.79488476 47.3742878,8.22290564 46.8462973,8.22290564 L46.8462973,8.22290564 Z M42.8310494,8.22290564 L42.6398471,8.22290564 C42.1118566,8.22290564 41.6838357,7.79488476 41.6838357,7.26689424 C41.6838357,6.73890372 42.1118566,6.31088284 42.6398471,6.31088284 L42.8310494,6.31088284 C43.3590399,6.31088284 43.7870608,6.73890372 43.7870608,7.26689424 C43.7870608,7.79488476 43.3590399,8.22290564 42.8310494,8.22290564 L42.8310494,8.22290564 Z M38.8158015,8.22290564 L38.6245992,8.22290564 C38.0966087,8.22290564 37.6685878,7.79488476 37.6685878,7.26689424 C37.6685878,6.73890372 38.0966087,6.31088284 38.6245992,6.31088284 L38.8158015,6.31088284 C39.343792,6.31088284 39.7718129,6.73890372 39.7718129,7.26689424 C39.7718129,7.79488476 39.343792,8.22290564 38.8158015,8.22290564 L38.8158015,8.22290564 Z M34.8005536,8.22290564 L34.6093514,8.22290564 C34.0813608,8.22290564 33.65334,7.79488476 33.65334,7.26689424 C33.65334,6.73890372 34.0813608,6.31088284 34.6093514,6.31088284 L34.8005536,6.31088284 C35.3285441,6.31088284 35.756565,6.73890372 35.756565,7.26689424 C35.756565,7.79488476 35.3285441,8.22290564 34.8005536,8.22290564 L34.8005536,8.22290564 Z M30.7853058,8.22290564 L30.5941035,8.22290564 C30.066113,8.22290564 29.6380921,7.79488476 29.6380921,7.26689424 C29.6380921,6.73890372 30.066113,6.31088284 30.5941035,6.31088284 L30.7853058,6.31088284 C31.3132963,6.31088284 31.7413172,6.73890372 31.7413172,7.26689424 C31.7413172,7.79488476 31.3132963,8.22290564 30.7853058,8.22290564 L30.7853058,8.22290564 Z M26.7700579,8.22290564 L26.5788556,8.22290564 C26.0508651,8.22290564 25.6228442,7.79488476 25.6228442,7.26689424 C25.6228442,6.73890372 26.0508651,6.31088284 26.5788556,6.31088284 L26.7700579,6.31088284 C27.2980484,6.31088284 27.7260693,6.73890372 27.7260693,7.26689424 C27.7260693,7.79488476 27.2980484,8.22290564 26.7700579,8.22290564 L26.7700579,8.22290564 Z M22.75481,8.22290564 L22.5636077,8.22290564 C22.0356172,8.22290564 21.6075963,7.79488476 21.6075963,7.26689424 C21.6075963,6.73890372 22.0356172,6.31088284 22.5636077,6.31088284 L22.75481,6.31088284 C23.2828005,6.31088284 23.7108214,6.73890372 23.7108214,7.26689424 C23.7108214,7.79488476 23.2828005,8.22290564 22.75481,8.22290564 L22.75481,8.22290564 Z" id="Shape"></path>
                    <path d="M38.8158015,14.3413786 L38.6245992,14.3413786 C38.0966087,14.3413786 37.6685878,13.9133577 37.6685878,13.3853672 C37.6685878,12.8573767 38.0966087,12.4293558 38.6245992,12.4293558 L38.8158015,12.4293558 C39.343792,12.4293558 39.7718129,12.8573767 39.7718129,13.3853672 C39.7718129,13.9133577 39.343792,14.3413786 38.8158015,14.3413786 L38.8158015,14.3413786 Z M34.8005536,14.3413786 L34.6093514,14.3413786 C34.0813608,14.3413786 33.65334,13.9133577 33.65334,13.3853672 C33.65334,12.8573767 34.0813608,12.4293558 34.6093514,12.4293558 L34.8005536,12.4293558 C35.3285441,12.4293558 35.756565,12.8573767 35.756565,13.3853672 C35.756565,13.9133577 35.3285441,14.3413786 34.8005536,14.3413786 L34.8005536,14.3413786 Z M30.7853058,14.3413786 L30.5941035,14.3413786 C30.066113,14.3413786 29.6380921,13.9133577 29.6380921,13.3853672 C29.6380921,12.8573767 30.066113,12.4293558 30.5941035,12.4293558 L30.7853058,12.4293558 C31.3132963,12.4293558 31.7413172,12.8573767 31.7413172,13.3853672 C31.7413172,13.9133577 31.3132963,14.3413786 30.7853058,14.3413786 Z M26.7700579,14.3413786 L26.5788556,14.3413786 C26.0508651,14.3413786 25.6228442,13.9133577 25.6228442,13.3853672 C25.6228442,12.8573767 26.0508651,12.4293558 26.5788556,12.4293558 L26.7700579,12.4293558 C27.2980484,12.4293558 27.7260693,12.8573767 27.7260693,13.3853672 C27.7260693,13.9133577 27.2980484,14.3413786 26.7700579,14.3413786 Z M22.75481,14.3413786 L22.5636077,14.3413786 C22.0356172,14.3413786 21.6075963,13.9133577 21.6075963,13.3853672 C21.6075963,12.8573767 22.0356172,12.4293558 22.5636077,12.4293558 L22.75481,12.4293558 C23.2828005,12.4293558 23.7108214,12.8573767 23.7108214,13.3853672 C23.7108214,13.9133577 23.2828005,14.3413786 22.75481,14.3413786 Z" id="Shape"></path>
                    <path d="M7.07622304,72.0845694 C6.64510833,72.0840759 6.26759286,71.7951878 6.15453719,71.3791608 C6.04148152,70.9631338 6.22086006,70.5229093 6.59248127,70.3043739 L21.8886637,61.3178668 C22.1142526,61.1862255 22.3838795,61.1526147 22.6348824,61.2248458 C22.8858854,61.2970769 23.0964062,61.4688596 23.2175195,61.7002713 L26.0301051,66.9965745 L43.54997,58.235686 C43.8557016,58.0795037 44.2217036,58.0992476 44.5088594,58.2874132 C44.7960152,58.4755788 44.9602275,58.8032702 44.9390794,59.1459326 C44.9179314,59.488595 44.7146706,59.793607 44.4065562,59.9450344 L26.0511373,69.1227438 C25.5870336,69.3559994 25.0215984,69.176011 24.7777301,68.717395 L21.9900009,63.4803645 L7.55422874,71.9620977 C7.40861974,72.0446922 7.24360807,72.0869352 7.07622304,72.0845694 Z" id="Path"></path>
                    <path d="M7.26742532,87.5718518 C6.73943481,87.5718518 6.31141392,87.1438309 6.31141392,86.6158404 L6.31141392,77.2469287 C6.31141392,76.7189382 6.73943481,76.2909173 7.26742532,76.2909173 C7.79541584,76.2909173 8.22343672,76.7189382 8.22343672,77.2469287 L8.22343672,86.6158404 C8.22343672,87.1438309 7.79541584,87.5718518 7.26742532,87.5718518 L7.26742532,87.5718518 Z" id="Path"></path>
                    <path d="M13.3858983,87.5718518 C12.8579078,87.5718518 12.4298869,87.1438309 12.4298869,86.6158404 L12.4298869,73.4228831 C12.4298869,72.8948926 12.8579078,72.4668717 13.3858983,72.4668717 C13.9138888,72.4668717 14.3419097,72.8948926 14.3419097,73.4228831 L14.3419097,86.6158404 C14.3419097,87.1438309 13.9138888,87.5718518 13.3858983,87.5718518 L13.3858983,87.5718518 Z" id="Path"></path>
                    <path d="M19.5043712,87.5718518 C18.9763807,87.5718518 18.5483598,87.1438309 18.5483598,86.6158404 L18.5483598,70.5548489 C18.5483598,70.0268584 18.9763807,69.5988375 19.5043712,69.5988375 C20.0323618,69.5988375 20.4603826,70.0268584 20.4603826,70.5548489 L20.4603826,86.6158404 C20.4603826,87.1438309 20.0323618,87.5718518 19.5043712,87.5718518 L19.5043712,87.5718518 Z" id="Path"></path>
                    <path d="M25.6228442,87.5718518 C25.0948537,87.5718518 24.6668328,87.1438309 24.6668328,86.6158404 L24.6668328,74.9525013 C24.6668328,74.4245108 25.0948537,73.9964899 25.6228442,73.9964899 C26.1508347,73.9964899 26.5788556,74.4245108 26.5788556,74.9525013 L26.5788556,86.6158404 C26.5788556,87.1438309 26.1508347,87.5718518 25.6228442,87.5718518 L25.6228442,87.5718518 Z" id="Path"></path>
                    <path d="M31.7413172,87.5718518 C31.2133266,87.5718518 30.7853058,87.1438309 30.7853058,86.6158404 L30.7853058,71.8932649 C30.7853058,71.3652743 31.2133266,70.9372535 31.7413172,70.9372535 C32.2693077,70.9372535 32.6973286,71.3652743 32.6973286,71.8932649 L32.6973286,86.6158404 C32.6973286,87.1438309 32.2693077,87.5718518 31.7413172,87.5718518 L31.7413172,87.5718518 Z" id="Path"></path>
                    <path d="M37.8597901,87.5718518 C37.3317996,87.5718518 36.9037787,87.1438309 36.9037787,86.6158404 L36.9037787,69.2164329 C36.9037787,68.6884424 37.3317996,68.2604215 37.8597901,68.2604215 C38.3877806,68.2604215 38.8158015,68.6884424 38.8158015,69.2164329 L38.8158015,86.6158404 C38.8158015,86.8693904 38.7150792,87.1125556 38.5357923,87.2918425 C38.3565053,87.4711295 38.1133401,87.5718518 37.8597901,87.5718518 L37.8597901,87.5718518 Z" id="Path"></path>
                    <path d="M43.9782631,87.5718518 C43.4502725,87.5718518 43.0222517,87.1438309 43.0222517,86.6158404 L43.0222517,65.2011851 C43.0222517,64.6731945 43.4502725,64.2451737 43.9782631,64.2451737 C44.5062536,64.2451737 44.9342745,64.6731945 44.9342745,65.2011851 L44.9342745,86.6158404 C44.9342745,87.1438309 44.5062536,87.5718518 43.9782631,87.5718518 L43.9782631,87.5718518 Z" id="Path"></path>
                    <path d="M42.2574425,24.2838972 L19.5043712,24.2838972 C18.9763807,24.2838972 18.5483598,23.8558763 18.5483598,23.3278858 C18.5483598,22.7998952 18.9763807,22.3718744 19.5043712,22.3718744 L42.2574425,22.3718744 C42.785433,22.3718744 43.2134539,22.7998953 43.2134539,23.3278858 C43.2134539,23.8558762 42.785433,24.2838972 42.2574425,24.2838972 L42.2574425,24.2838972 Z" id="Path"></path>
                    <path d="M34.6724481,28.8727519 L19.5043712,28.8727519 C18.9763807,28.8727519 18.5483598,28.444731 18.5483598,27.9167405 C18.5483598,27.38875 18.9763807,26.9607291 19.5043712,26.9607291 L34.6724481,26.9607291 C35.2004386,26.9607291 35.6284595,27.38875 35.6284595,27.9167405 C35.6284595,28.444731 35.2004386,28.8727519 34.6724481,28.8727519 Z" id="Path"></path>
                    <path d="M42.2574425,36.5208431 L19.5043712,36.5208431 C18.9763807,36.5208431 18.5483598,36.0928222 18.5483598,35.5648317 C18.5483598,35.0368412 18.9763807,34.6088203 19.5043712,34.6088203 L42.2574425,34.6088203 C42.7854331,34.6088203 43.2134539,35.0368412 43.2134539,35.5648317 C43.2134539,36.0928222 42.7854331,36.5208431 42.2574425,36.5208431 L42.2574425,36.5208431 Z" id="Path"></path>
                    <path d="M34.6724481,41.1096978 L19.5043712,41.1096978 C18.9763807,41.1096978 18.5483598,40.6816769 18.5483598,40.1536864 C18.5483598,39.6256959 18.9763807,39.197675 19.5043712,39.197675 L34.6724481,39.197675 C35.2004386,39.197675 35.6284595,39.6256959 35.6284595,40.1536864 C35.6284595,40.6816769 35.2004386,41.1096978 34.6724481,41.1096978 Z" id="Path"></path>
                    <path d="M42.2574425,48.5665867 L19.5043712,48.5665867 C18.9763807,48.5665867 18.5483598,48.1385658 18.5483598,47.6105753 C18.5483598,47.0825848 18.9763807,46.6545639 19.5043712,46.6545639 L42.2574425,46.6545639 C42.785433,46.6545639 43.2134539,47.0825848 43.2134539,47.6105753 C43.2134539,48.1385658 42.785433,48.5665867 42.2574425,48.5665867 L42.2574425,48.5665867 Z" id="Path"></path>
                    <path d="M34.6724481,53.1554414 L19.5043712,53.1554414 C18.9763807,53.1554414 18.5483598,52.7274205 18.5483598,52.19943 C18.5483598,51.6714395 18.9763807,51.2434186 19.5043712,51.2434186 L34.6724481,51.2434186 C35.2004386,51.2434186 35.6284595,51.6714395 35.6284595,52.19943 C35.6284595,52.7274205 35.2004386,53.1554414 34.6724481,53.1554414 Z" id="Path"></path>
                </g>
            </g>
        </g>
    </g>
</svg>