<?xml version="1.0" encoding="UTF-8"?>
<svg width="95px" height="122px" viewBox="0 0 95 122" version="1.1" xmlns="http://www.w3.org/2000/svg" xmlns:xlink="http://www.w3.org/1999/xlink">
    <title>Logo_Ai-for-Alpha_Square@2x</title>
    <g id="Logo_Ai-for-Alpha_Square" stroke="none" stroke-width="1" fill="none" fill-rule="evenodd">
        <g id="Logo_Ai-for-Alpha" transform="translate(2.000000, 0.000000)" fill="#FFFFFF">
            <path d="M70.4265724,39.6308891 L80.0275724,68.4798891 L66.9365724,68.2448891 L57.1185724,39.8658891 L70.4265724,39.6308891 Z M26.9585724,22.6208891 L34.1175724,43.3788891 L24.7785724,69.0578891 L11.9075724,68.5898891 L26.9585724,22.6208891 Z M51.8835724,22.5098891 L65.1905724,22.5098891 L68.6815724,32.3608891 L55.1545724,32.3608891 L51.8835724,22.5098891 Z M28.6785724,21.9318891 L43.0805724,21.9318891 L57.6975724,68.1338891 L44.6065724,68.1338891 L35.8785724,42.5718891 L35.8355724,42.6898891 L28.6785724,21.9318891 Z M2,0 L89,0 C90.1045695,-2.02906125e-16 91,0.8954305 91,2 L91,89 C91,90.1045695 90.1045695,91 89,91 L2,91 C0.8954305,91 1.3527075e-16,90.1045695 0,89 L0,2 C-1.3527075e-16,0.8954305 0.8954305,2.02906125e-16 2,0 Z" id="Fill-3"></path>
        </g>
        <path d="M4.104,117 L4.104,111.978 L8.856,111.978 L8.856,109.314 L4.104,109.314 L4.104,106.29 L9.9,106.29 L9.9,103.608 L1.332,103.608 L1.332,117 L4.104,117 Z M16.254,117.18 C19.35,117.18 21.78,114.804 21.78,111.744 C21.78,108.684 19.35,106.308 16.254,106.308 C13.176,106.308 10.746,108.666 10.746,111.744 C10.746,114.804 13.158,117.18 16.254,117.18 Z M16.254,114.552 C14.67,114.552 13.464,113.364 13.464,111.744 C13.464,110.124 14.67,108.936 16.254,108.936 C17.838,108.936 19.044,110.124 19.044,111.744 C19.044,113.346 17.856,114.552 16.254,114.552 Z M26.478,117 L26.478,111.672 C26.478,110.106 27.342,109.08 29.052,109.08 C29.358,109.08 29.7,109.116 30.042,109.17 L30.042,106.452 C29.826,106.416 29.61,106.398 29.394,106.398 C28.116,106.398 27.054,106.956 26.262,107.838 L26.046,106.488 L23.796,106.488 L23.796,117 L26.478,117 Z M39.312,117 L40.374,114.786 L45.648,114.786 L46.692,117 L49.788,117 L42.984,103.284 L36.216,117 L39.312,117 Z M44.676,112.5 L41.292,112.5 L42.984,108.846 L44.676,112.5 Z M53.766,117.18 C54.648,117.18 55.512,117 56.124,116.532 L55.17,114.462 C54.828,114.678 54.576,114.786 54.234,114.786 C53.586,114.786 53.352,114.39 53.352,113.562 L53.37,102.348 L50.67,102.348 L50.67,113.67 C50.67,115.938 51.75,117.18 53.766,117.18 Z M60.156,120.348 L60.156,115.92 C60.93,116.676 61.992,117.18 63.234,117.18 C66.078,117.18 68.436,114.822 68.436,111.744 C68.436,108.684 66.096,106.308 63.234,106.308 C61.884,106.308 60.732,106.92 59.94,107.73 L59.742,106.488 L57.474,106.488 L57.474,120.348 L60.156,120.348 Z M62.91,114.552 C61.344,114.552 60.138,113.364 60.138,111.744 C60.138,110.142 61.326,108.936 62.91,108.936 C64.494,108.936 65.7,110.124 65.7,111.744 C65.7,113.364 64.494,114.552 62.91,114.552 Z M73.134,117 L73.134,111.96 C73.134,109.98 73.998,108.9 75.618,108.9 C77.112,108.9 77.886,109.764 77.886,111.456 L77.886,117 L80.568,117 L80.568,110.808 C80.568,108.018 78.912,106.308 76.194,106.308 C74.988,106.308 73.98,106.722 73.134,107.604 L73.134,102.348 L70.452,102.348 L70.452,117 L73.134,117 Z M87.678,117.18 C89.028,117.18 90.162,116.586 90.954,115.758 L91.152,117 L93.438,117 L93.438,106.488 L91.152,106.488 L90.954,107.73 C90.162,106.902 89.028,106.308 87.678,106.308 C84.816,106.308 82.476,108.666 82.476,111.744 C82.476,114.804 84.816,117.18 87.678,117.18 Z M87.984,114.552 C86.4,114.552 85.194,113.364 85.194,111.744 C85.194,110.124 86.4,108.936 87.984,108.936 C89.568,108.936 90.774,110.124 90.774,111.744 C90.774,113.346 89.568,114.552 87.984,114.552 Z" id="ForAlpha" fill="#FFFFFF" fill-rule="nonzero"></path>
    </g>
</svg>