<?xml version="1.0" encoding="UTF-8"?>
<svg width="390px" height="91px" viewBox="0 0 390 91" version="1.1" xmlns="http://www.w3.org/2000/svg" xmlns:xlink="http://www.w3.org/1999/xlink">
    <title>Logo_Ai-for-Alpha_White@2x</title>
    <g id="Logo_Ai-for-Alpha_White" stroke="none" stroke-width="1" fill="none" fill-rule="evenodd">
        <path d="M126.990872,68.0316891 L126.990872,54.6396891 L139.662872,54.6396891 L139.662872,47.5356891 L126.990872,47.5356891 L126.990872,39.4716891 L142.446872,39.4716891 L142.446872,32.3196891 L119.598872,32.3196891 L119.598872,68.0316891 L126.990872,68.0316891 Z M159.390872,68.5116891 C167.646872,68.5116891 174.126872,62.1756891 174.126872,54.0156891 C174.126872,45.8556891 167.646872,39.5196891 159.390872,39.5196891 C151.182872,39.5196891 144.702872,45.8076891 144.702872,54.0156891 C144.702872,62.1756891 151.134872,68.5116891 159.390872,68.5116891 Z M159.390872,61.5036891 C155.166872,61.5036891 151.950872,58.3356891 151.950872,54.0156891 C151.950872,49.6956891 155.166872,46.5276891 159.390872,46.5276891 C163.614872,46.5276891 166.830872,49.6956891 166.830872,54.0156891 C166.830872,58.2876891 163.662872,61.5036891 159.390872,61.5036891 Z M186.654872,68.0316891 L186.654872,53.8236891 C186.654872,49.6476891 188.958872,46.9116891 193.518872,46.9116891 C194.334872,46.9116891 195.246872,47.0076891 196.158872,47.1516891 L196.158872,39.9036891 C195.582872,39.8076891 195.006872,39.7596891 194.430872,39.7596891 C191.022872,39.7596891 188.190872,41.2476891 186.078872,43.5996891 L185.502872,39.9996891 L179.502872,39.9996891 L179.502872,68.0316891 L186.654872,68.0316891 Z M220.878872,68.0316891 L223.710872,62.1276891 L237.774872,62.1276891 L240.558872,68.0316891 L248.814872,68.0316891 L230.670872,31.4556891 L212.622872,68.0316891 L220.878872,68.0316891 Z M235.182872,56.0316891 L226.158872,56.0316891 L230.670872,46.2876891 L235.182872,56.0316891 Z M259.422872,68.5116891 C261.774872,68.5116891 264.078872,68.0316891 265.710872,66.7836891 L263.166872,61.2636891 C262.254872,61.8396891 261.582872,62.1276891 260.670872,62.1276891 C258.942872,62.1276891 258.318872,61.0716891 258.318872,58.8636891 L258.366872,28.9596891 L251.166872,28.9596891 L251.166872,59.1516891 C251.166872,65.1996891 254.046872,68.5116891 259.422872,68.5116891 Z M276.462872,76.9596891 L276.462872,65.1516891 C278.526872,67.1676891 281.358872,68.5116891 284.670872,68.5116891 C292.254872,68.5116891 298.542872,62.2236891 298.542872,54.0156891 C298.542872,45.8556891 292.302872,39.5196891 284.670872,39.5196891 C281.070872,39.5196891 277.998872,41.1516891 275.886872,43.3116891 L275.358872,39.9996891 L269.310872,39.9996891 L269.310872,76.9596891 L276.462872,76.9596891 Z M283.806872,61.5036891 C279.630872,61.5036891 276.414872,58.3356891 276.414872,54.0156891 C276.414872,49.7436891 279.582872,46.5276891 283.806872,46.5276891 C288.030872,46.5276891 291.246872,49.6956891 291.246872,54.0156891 C291.246872,58.3356891 288.030872,61.5036891 283.806872,61.5036891 Z M311.070872,68.0316891 L311.070872,54.5916891 C311.070872,49.3116891 313.374872,46.4316891 317.694872,46.4316891 C321.678872,46.4316891 323.742872,48.7356891 323.742872,53.2476891 L323.742872,68.0316891 L330.894872,68.0316891 L330.894872,51.5196891 C330.894872,44.0796891 326.478872,39.5196891 319.230872,39.5196891 C316.014872,39.5196891 313.326872,40.6236891 311.070872,42.9756891 L311.070872,28.9596891 L303.918872,28.9596891 L303.918872,68.0316891 L311.070872,68.0316891 Z M349.854872,68.5116891 C353.454872,68.5116891 356.478872,66.9276891 358.590872,64.7196891 L359.118872,68.0316891 L365.214872,68.0316891 L365.214872,39.9996891 L359.118872,39.9996891 L358.590872,43.3116891 C356.478872,41.1036891 353.454872,39.5196891 349.854872,39.5196891 C342.222872,39.5196891 335.982872,45.8076891 335.982872,54.0156891 C335.982872,62.1756891 342.222872,68.5116891 349.854872,68.5116891 Z M350.670872,61.5036891 C346.446872,61.5036891 343.230872,58.3356891 343.230872,54.0156891 C343.230872,49.6956891 346.446872,46.5276891 350.670872,46.5276891 C354.894872,46.5276891 358.110872,49.6956891 358.110872,54.0156891 C358.110872,58.2876891 354.894872,61.5036891 350.670872,61.5036891 Z" id="ForAlpha" fill="#FFFFFF" fill-rule="nonzero"></path>
        <g id="Symbol" transform="translate(-0.000000, 0.000000)" fill="#FFFFFF">
            <path d="M70.4265724,39.6308891 L80.0275724,68.4798891 L66.9365724,68.2448891 L57.1185724,39.8658891 L70.4265724,39.6308891 Z M26.9585724,22.6208891 L34.1175724,43.3788891 L24.7785724,69.0578891 L11.9075724,68.5898891 L26.9585724,22.6208891 Z M51.8835724,22.5098891 L65.1905724,22.5098891 L68.6815724,32.3608891 L55.1545724,32.3608891 L51.8835724,22.5098891 Z M28.6785724,21.9318891 L43.0805724,21.9318891 L57.6975724,68.1338891 L44.6065724,68.1338891 L35.8785724,42.5718891 L35.8355724,42.6898891 L28.6785724,21.9318891 Z M0,0 L91,0 L91,91 L0,91 L0,0 Z" id="Fill-3"></path>
        </g>
    </g>
</svg>