<?xml version="1.0" encoding="UTF-8"?>
<svg width="54px" height="54px" viewBox="0 0 54 54" version="1.1" xmlns="http://www.w3.org/2000/svg" xmlns:xlink="http://www.w3.org/1999/xlink">
    <title>noun_accounting_3605936</title>
    <defs>
        <filter color-interpolation-filters="auto" id="filter-1">
            <feColorMatrix in="SourceGraphic" type="matrix" values="0 0 0 0 1.000000 0 0 0 0 1.000000 0 0 0 0 1.000000 0 0 0 1.000000 0"></feColorMatrix>
        </filter>
    </defs>
    <g id="Symbols" stroke="none" stroke-width="1" fill="none" fill-rule="evenodd">
        <g id="schema_techno" transform="translate(-207.000000, -205.000000)">
            <g id="noun_accounting_3605936" transform="translate(184.000000, 182.000000)" filter="url(#filter-1)">
                <g transform="translate(23.333333, 23.333333)" id="Group" fill="#000000" fill-rule="nonzero">
                    <rect id="Rectangle" x="23.1836735" y="48.7525562" width="21.5782313" height="1.09066121"></rect>
                    <path d="M52.7891156,49.8432175 L46.9453061,49.8432175 L46.9453061,48.7525562 L52.244898,48.7525562 L52.244898,20.2862986 L47.5929252,20.2862986 L47.5929252,19.1956374 L52.7891156,19.1956374 C53.0896788,19.1956374 53.3333333,19.4397902 53.3333333,19.740968 L53.3333333,49.2978868 C53.3333333,49.5990646 53.0896788,49.8432175 52.7891156,49.8432175 L52.7891156,49.8432175 Z" id="Path"></path>
                    <path d="M4.78911565,23.2310838 L3.70068027,23.2310838 L3.70068027,19.740968 C3.70068027,19.4397902 3.94433483,19.1956374 4.24489796,19.1956374 L43.9989116,19.1956374 L43.9989116,20.2862986 L4.78911565,20.2862986 L4.78911565,23.2310838 Z" id="Path"></path>
                    <path d="M22.0952381,53.3333333 L1.63265306,53.3333333 C0.730963674,53.3333333 0,52.6008748 0,51.6973415 L0,24.3217451 C0,23.4182117 0.730963674,22.6857532 1.63265306,22.6857532 L22.0952381,22.6857532 C22.9969275,22.6857532 23.7278912,23.4182117 23.7278912,24.3217451 L23.7278912,51.6973415 C23.7278912,52.6008748 22.9969275,53.3333333 22.0952381,53.3333333 L22.0952381,53.3333333 Z M1.63265306,23.7764145 C1.33208993,23.7764145 1.08843537,24.0205673 1.08843537,24.3217451 L1.08843537,51.6973415 C1.08843537,51.9985193 1.33208993,52.2426721 1.63265306,52.2426721 L22.0952381,52.2426721 C22.3958012,52.2426721 22.6394558,51.9985193 22.6394558,51.6973415 L22.6394558,24.3217451 C22.6394558,24.0205673 22.3958012,23.7764145 22.0952381,23.7764145 L1.63265306,23.7764145 Z" id="Shape"></path>
                    <path d="M4.49306122,31.5899114 C3.57006803,31.5899114 2.81795918,30.873347 2.81686854,29.9899114 L2.81686854,27.0298569 C2.81613622,26.5938983 2.99867633,26.1777901 3.31972789,25.8835719 C3.63754178,25.5868255 4.05648974,25.4229612 4.49088435,25.4254942 L19.4383673,25.3993183 L19.4383673,25.3993183 C20.3613605,25.3993183 21.1134694,26.1158828 21.1145589,26.9993183 L21.1145589,29.9593729 C21.1150586,30.3955978 20.932584,30.8119524 20.6117007,31.1067485 C20.2935403,31.4028128 19.8747291,31.5662336 19.4405442,31.5637355 L4.49306122,31.5899114 L4.49306122,31.5899114 Z M19.4372789,26.4899796 L19.4372789,26.4899796 L4.48979592,26.5161554 C4.32903218,26.5122998 4.17301511,26.5709259 4.05442177,26.6797546 C3.95529686,26.7687656 3.8980333,26.8953988 3.89659864,27.0287662 L3.89659864,29.9888207 C3.89659864,30.2702113 4.16108844,30.4992502 4.48435374,30.4992502 L4.48435374,30.4992502 L19.4318367,30.4730743 C19.590732,30.4755218 19.7445467,30.4169917 19.8617687,30.3094751 C19.9608936,30.2204641 20.0181572,30.0938309 20.0197512,29.9604635 L20.0197512,27.000409 C20.0272109,26.7211997 19.7605442,26.4899796 19.4372789,26.4899796 Z" id="Shape"></path>
                    <path d="M22.9659864,34.2467621 L0.544217687,34.2467621 C0.243654558,34.2467621 0,34.0026093 0,33.7014315 C0,33.4002537 0.243654558,33.1561009 0.544217687,33.1561009 L22.9659864,33.1561009 C23.2665495,33.1561009 23.5102041,33.4002537 23.5102041,33.7014315 C23.5102041,34.0026093 23.2665495,34.2467621 22.9659864,34.2467621 Z" id="Path"></path>
                    <path d="M22.9659864,43.7355147 L0.544217687,43.7355147 C0.243654558,43.7355147 0,43.4913618 0,43.190184 C0,42.8890063 0.243654558,42.6448534 0.544217687,42.6448534 L22.9659864,42.6448534 C23.2665495,42.6448534 23.5102041,42.8890063 23.5102041,43.190184 C23.5102041,43.4913618 23.2665495,43.7355147 22.9659864,43.7355147 Z" id="Path"></path>
                    <path d="M11.9727891,53.3333333 C11.672226,53.3333333 11.4285714,53.0891805 11.4285714,52.7880027 L11.4285714,33.7014315 C11.4285714,33.4002537 11.672226,33.1561009 11.9727891,33.1561009 C12.2733522,33.1561009 12.5170068,33.4002537 12.5170068,33.7014315 L12.5170068,52.7880027 C12.5170068,53.0891805 12.2733522,53.3333333 11.9727891,53.3333333 L11.9727891,53.3333333 Z" id="Path"></path>
                    <path d="M4.16544218,41.117937 C3.94502435,41.1183229 3.74613499,40.9854529 3.66173136,40.7814187 C3.57732774,40.5773845 3.62407963,40.3424831 3.78013605,40.1865031 L8.17306122,35.7845944 C8.38585992,35.5716617 8.73063112,35.5719059 8.94312925,35.7851397 C9.15562738,35.9983736 9.15538373,36.3438499 8.94258503,36.5567825 L4.54965986,40.9619632 C4.44713654,41.0627077 4.30903324,41.1187676 4.16544218,41.117937 Z" id="Path"></path>
                    <path d="M8.5355102,41.1179287 C8.39091969,41.1179287 8.25228499,41.0602107 8.15020408,40.9576005 L3.75836735,36.5611452 C3.54556865,36.3482125 3.545325,36.0027363 3.75782313,35.7895024 C3.97032126,35.5762685 4.31509246,35.5760244 4.52789116,35.7889571 L8.92517007,40.1908657 C9.07868713,40.347804 9.12319575,40.5817425 9.03806988,40.7842703 C8.95294401,40.9867981 8.75481938,41.1183362 8.5355102,41.1179287 Z" id="Path"></path>
                    <path d="M17.5238095,41.6283572 C17.2232464,41.6283572 16.9795918,41.3842044 16.9795918,41.0830266 L16.9795918,35.7736878 C16.9795918,35.47251 17.2232464,35.2283572 17.5238095,35.2283572 C17.8243727,35.2283572 18.0680272,35.47251 18.0680272,35.7736878 L18.0680272,41.0830266 C18.0680272,41.3842044 17.8243727,41.6283572 17.5238095,41.6283572 Z" id="Path"></path>
                    <path d="M20.0272109,38.9736878 L14.872381,38.9736878 C14.5718178,38.9736878 14.3281633,38.729535 14.3281633,38.4283572 C14.3281633,38.1271794 14.5718178,37.8830266 14.872381,37.8830266 L20.0272109,37.8830266 C20.327774,37.8830266 20.5714286,38.1271794 20.5714286,38.4283572 C20.5714286,38.729535 20.327774,38.9736878 20.0272109,38.9736878 Z" id="Path"></path>
                    <path d="M20.1360544,47.262713 L14.9812245,47.262713 C14.6806614,47.262713 14.4370068,47.0185602 14.4370068,46.7173824 C14.4370068,46.4162046 14.6806614,46.1720518 14.9812245,46.1720518 L20.1360544,46.1720518 C20.4366176,46.1720518 20.6802721,46.4162046 20.6802721,46.7173824 C20.6802721,47.0185602 20.4366176,47.262713 20.1360544,47.262713 Z" id="Path"></path>
                    <path d="M20.1360544,49.8802999 L14.9812245,49.8802999 C14.6806614,49.8802999 14.4370068,49.6361471 14.4370068,49.3349693 C14.4370068,49.0337915 14.6806614,48.7896387 14.9812245,48.7896387 L20.1360544,48.7896387 C20.4366176,48.7896387 20.6802721,49.0337915 20.6802721,49.3349693 C20.6802721,49.6361471 20.4366176,49.8802999 20.1360544,49.8802999 L20.1360544,49.8802999 Z" id="Path"></path>
                    <path d="M8.99591837,48.4951602 L3.4829932,48.4951602 C3.18243007,48.4951602 2.93877551,48.2510074 2.93877551,47.9498296 C2.93877551,47.6486518 3.18243007,47.404499 3.4829932,47.404499 L8.99591837,47.404499 C9.2964815,47.404499 9.54013605,47.6486518 9.54013605,47.9498296 C9.54013605,48.2510074 9.2964815,48.4951602 8.99591837,48.4951602 Z" id="Path"></path>
                    <path d="M14.4761905,20.1903204 C14.1756273,20.1903204 13.9319728,19.9461676 13.9319728,19.6449898 L13.9319728,9.27062031 C13.9319728,8.96944254 14.1756273,8.72528971 14.4761905,8.72528971 L19.4829932,8.72528971 C19.7835563,8.72528971 20.0272109,8.96944254 20.0272109,9.27062031 C20.0272109,9.57179809 19.7835563,9.81595092 19.4829932,9.81595092 L15.0204082,9.81595092 L15.0204082,19.6449898 C15.0204082,19.9461676 14.7767536,20.1903204 14.4761905,20.1903204 Z" id="Path"></path>
                    <path d="M45.8231293,16.9052488 C45.5225661,16.9052488 45.2789116,16.661096 45.2789116,16.3599182 L45.2789116,9.81595092 L40.7161905,9.81595092 C40.4156273,9.81595092 40.1719728,9.57179809 40.1719728,9.27062031 C40.1719728,8.96944254 40.4156273,8.72528971 40.7161905,8.72528971 L45.8231293,8.72528971 C46.1236924,8.72528971 46.3673469,8.96944254 46.3673469,9.27062031 L46.3673469,16.3599182 C46.3673469,16.661096 46.1236924,16.9052488 45.8231293,16.9052488 Z" id="Path"></path>
                    <path d="M13.0612245,6.33674165 C12.7606614,6.35210171 12.5045804,6.12040068 12.4892517,5.8192229 C12.473923,5.51804513 12.7051512,5.26144051 13.0057143,5.24608044 C13.0965284,5.23768053 13.1877184,5.23404004 13.2789116,5.23517382 L20.3853061,5.23517382 C20.6858693,5.23517382 20.9295238,5.47932665 20.9295238,5.78050443 C20.9295238,6.08168221 20.6858693,6.32583504 20.3853061,6.32583504 L13.2789116,6.32583504 C13.2234014,6.32583504 13.170068,6.32583504 13.112381,6.33456033 C13.0953805,6.33621151 13.0783034,6.33693968 13.0612245,6.33674165 Z" id="Path"></path>
                    <path d="M11.1020408,20.259032 C10.8014777,20.259032 10.5578231,20.0148792 10.5578231,19.7137014 L10.5578231,11.3014315 C10.5578231,11.0002537 10.8014777,10.7561009 11.1020408,10.7561009 C11.4026039,10.7561009 11.6462585,11.0002537 11.6462585,11.3014315 L11.6462585,19.7137014 C11.6462585,20.0148792 11.4026039,20.259032 11.1020408,20.259032 Z" id="Path"></path>
                    <path d="M49.414966,20.259032 C49.1144029,20.259032 48.8707483,20.0148792 48.8707483,19.7137014 L48.8707483,7.96182686 C48.8707483,7.05829352 48.1397846,6.32583504 47.2380952,6.32583504 L39.9238095,6.32583504 C39.6232464,6.32583504 39.3795918,6.08168221 39.3795918,5.78050443 C39.3795918,5.47932665 39.6232464,5.23517382 39.9238095,5.23517382 L47.2380952,5.23517382 C48.7409109,5.23517382 49.9591837,6.45593797 49.9591837,7.96182686 L49.9591837,19.7137014 C49.9591837,20.0148792 49.7155291,20.259032 49.414966,20.259032 Z" id="Path"></path>
                    <path d="M39.1956463,11.5610089 L21.1428571,11.5610089 C20.6247542,11.5773207 20.123755,11.3742149 19.7627211,11.0014997 C19.1346939,10.334015 19.1477551,9.33060668 19.1564626,9.1473756 L19.1564626,7.74369461 C19.1564626,5.66380368 20.8293878,4.03544649 22.9659864,4.03544649 L25.6108844,4.03544649 C25.8851363,1.76233506 27.8102477,0.052456852 30.0952381,0.052456852 C32.3802285,0.052456852 34.3053399,1.76233506 34.5795918,4.03544649 L37.3333333,4.03544649 C39.469932,4.03544649 41.1428571,5.66380368 41.1428571,7.74369461 L41.1428571,9.16155419 C41.1428571,9.97736878 40.917551,10.607771 40.4734694,11.0364008 C40.1281848,11.3655482 39.6721441,11.5527749 39.1956463,11.5610089 Z M22.9659864,5.1261077 C21.4421769,5.1261077 20.244898,6.27566462 20.244898,7.74369461 L20.244898,9.16155419 C20.2454613,9.17208969 20.2454613,9.18264787 20.244898,9.19318337 C20.235102,9.38513974 20.2731973,9.95664622 20.5572789,10.2554874 C20.6454422,10.3471029 20.8010884,10.4736196 21.1439456,10.4736196 L39.2043537,10.4736196 C39.4012481,10.4630085 39.5876323,10.3812502 39.7289796,10.2434901 C39.9466667,10.0253579 40.0555102,9.65780504 40.0555102,9.16482618 L40.0555102,7.74369461 C40.0555102,6.27566462 38.8582313,5.1261077 37.3344218,5.1261077 L34.0680272,5.1261077 C33.7674641,5.1261077 33.5238095,4.88195487 33.5238095,4.5807771 C33.5238095,2.6833571 31.9887858,1.14519427 30.0952381,1.14519427 C28.2016904,1.14519427 26.6666667,2.6833571 26.6666667,4.5807771 C26.6666667,4.88195487 26.4230121,5.1261077 26.122449,5.1261077 L22.9659864,5.1261077 Z" id="Shape"></path>
                    <path d="M30.0778231,6.77409923 C28.875821,6.77320648 27.8798806,5.8395903 27.7989812,4.63786086 C27.7180818,3.43613141 28.5798683,2.37694263 29.7708614,2.21429837 C30.9618545,2.05165411 32.0750691,2.84113302 32.3180421,4.02072939 C32.561015,5.20032577 31.8507178,6.36694897 30.6927891,6.69011588 C30.4925948,6.74614424 30.285679,6.77440106 30.0778231,6.77409923 L30.0778231,6.77409923 Z M30.0778231,3.29052488 C29.9700442,3.29061719 29.8627712,3.30529192 29.7589116,3.33415133 C29.1256535,3.51320023 28.7552555,4.17075917 28.9295238,4.80654397 L28.9295238,4.80654397 C29.0937339,5.406345 29.6881587,5.78094081 30.2987946,5.66943366 C30.9094305,5.55792652 31.3337716,4.99729565 31.2762737,4.37800809 C31.2187759,3.75872053 30.6985071,3.2861512 30.0778231,3.28941722 L30.0778231,3.29052488 Z" id="Shape"></path>
                    <path d="M45.3039456,51.5882754 C45.1537322,51.5875683 45.0098378,51.5276203 44.9034014,51.4214042 C44.5137415,51.0396728 44.1752381,49.0710293 44.0478912,48.2421268 C43.8051701,46.6617587 43.512381,43.9678255 43.4927891,40.1134288 L43.4546939,17.0143149 C43.4396509,16.6629988 43.5623085,16.3197165 43.7964626,16.057805 C43.9491237,15.9022095 44.1577565,15.8145774 44.3755102,15.8145876 L47.2130612,15.800409 C47.4173848,15.8014207 47.6130175,15.8833624 47.7572789,16.0283572 C47.9870109,16.2789336 48.109352,16.6098908 48.0979592,16.9499659 L48.1360544,40.0403545 C48.1556463,44.004908 47.8585034,46.7642808 47.6059864,48.3806408 C47.5011348,49.0900617 47.3557715,49.7928741 47.1706122,50.4856169 C47.0182313,51.0364008 46.8745578,51.5555556 46.3836735,51.5642808 L45.3104762,51.5850034 L45.3039456,51.5882754 Z M44.5529252,16.9052488 C44.5460161,16.9411827 44.5427343,16.9777223 44.5431293,17.0143149 L44.5812245,40.1047035 C44.6127891,46.3367416 45.3496599,49.6076346 45.6359184,50.4867076 L46.0419048,50.4790729 C46.3292517,49.606544 47.0791837,46.3007498 47.047619,40.0436264 L47.0095238,16.9521472 C47.0107225,16.9318059 47.0107225,16.9114115 47.0095238,16.8910702 L44.5529252,16.9052488 Z" id="Shape"></path>
                    <rect id="Rectangle" x="45.2756463" y="50.52379" width="1.08843537" height="2.80954329" rx="0.544217687"></rect>
                    <path d="M44.1730612,35.1192911 C43.8724981,35.1192911 43.6288435,34.8751382 43.6288435,34.5739605 C43.6288435,34.2727827 43.8724981,34.0286299 44.1730612,34.0286299 L47.4383673,34.0286299 L47.4383673,34.0286299 C47.7389305,34.0286299 47.982585,34.2727827 47.982585,34.5739605 C47.982585,34.8751382 47.7389305,35.1192911 47.4383673,35.1192911 L44.1730612,35.1192911 L44.1730612,35.1192911 Z" id="Path"></path>
                    <path d="M6.96598639,9.85848671 C5.5444898,9.85848671 4.60734694,9.12992502 4.57142857,7.99018405 C4.56361393,7.68900627 4.80093347,7.43850547 5.1014966,7.43067485 C5.40205973,7.42284422 5.6520493,7.66064908 5.65986395,7.96182686 C5.68272109,8.70783913 6.60680272,8.77655078 7.00517007,8.77109748 C7.40353741,8.76564417 7.76707483,8.61731425 7.9662585,8.39263804 C8.08380577,8.26006261 8.13397757,8.08068357 8.10231293,7.90620314 C8.07727891,7.70988412 7.98585034,7.49066121 7.23156463,7.3674165 L7.01387755,7.33251534 C6.35428571,7.23326517 5.53360544,7.11438309 4.98285714,6.32910702 C4.75464578,6.01121121 4.66688021,5.61328946 4.74013605,5.22862986 C4.84762671,4.7245408 5.14865902,4.28303794 5.57823129,3.99945467 C6.18884354,3.58282209 7.12163265,3.51847307 7.89768707,3.83694615 C8.46390983,4.06665106 8.91312594,4.51639234 9.14285714,5.08357192 C9.2512283,5.36363709 9.11317424,5.67878435 8.83408808,5.78842427 C8.55500191,5.89806419 8.23998345,5.76090796 8.12952381,5.48166326 C8.00714049,5.18907666 7.77145633,4.95881468 7.47646259,4.84362645 C7.04108844,4.66257669 6.49687075,4.68548057 6.18122449,4.89815951 C5.99528916,5.01961531 5.86076127,5.20569783 5.80353741,5.42058623 C5.78282639,5.51707077 5.80507884,5.61780976 5.8644898,5.69652352 C6.13333333,6.07716428 6.53496599,6.15460123 7.17061224,6.25057941 L7.40571429,6.2876619 C7.8062585,6.35310157 9.02421769,6.55160191 9.18204082,7.76114519 C9.25336656,8.24472784 9.10977992,8.7353556 8.78911565,9.10374915 C8.38857143,9.56728016 7.72680272,9.84867076 7.01931973,9.85848671 L6.96598639,9.85848671 Z" id="Path"></path>
                    <path d="M6.96598639,11.0734833 C6.66542327,11.0734833 6.42176871,10.8293305 6.42176871,10.5281527 L6.42176871,9.33715065 C6.42176871,9.03597287 6.66542327,8.79182004 6.96598639,8.79182004 C7.26654952,8.79182004 7.51020408,9.03597287 7.51020408,9.33715065 L7.51020408,10.5281527 C7.51020408,10.8293305 7.26654952,11.0734833 6.96598639,11.0734833 Z" id="Path"></path>
                    <path d="M6.96598639,4.72038173 C6.66542327,4.72038173 6.42176871,4.4762289 6.42176871,4.17505112 L6.42176871,2.98295842 C6.42176871,2.68178064 6.66542327,2.43762781 6.96598639,2.43762781 C7.26654952,2.43762781 7.51020408,2.68178064 7.51020408,2.98295842 L7.51020408,4.17505112 C7.51020408,4.4762289 7.26654952,4.72038173 6.96598639,4.72038173 L6.96598639,4.72038173 Z" id="Path"></path>
                    <path d="M6.96598639,13.3060668 C3.29911622,13.3060668 0.326530612,10.3274023 0.326530612,6.6530334 C0.326530612,2.97866451 3.29911622,0 6.96598639,0 C10.6328566,0 13.6054422,2.97866451 13.6054422,6.6530334 L13.6054422,6.6530334 C13.6012435,10.3256582 10.631116,13.3018596 6.96598639,13.3060668 Z M6.96598639,1.09066121 C3.90024248,1.09066121 1.41496599,3.58102007 1.41496599,6.6530334 C1.41496599,9.72504673 3.90024248,12.2154056 6.96598639,12.2154056 C10.0317303,12.2154056 12.5170068,9.72504673 12.5170068,6.6530334 C12.5170068,5.17780057 11.9321688,3.76298944 10.8911506,2.71984231 C9.8501323,1.67669517 8.43820854,1.09066121 6.96598639,1.09066121 Z" id="Shape"></path>
                    <path d="M23.5102041,8.28902522 L23.4013605,8.28902522 C23.1007974,8.28902522 22.8571429,8.04487239 22.8571429,7.74369461 C22.8571429,7.44251684 23.1007974,7.19836401 23.4013605,7.19836401 L23.5102041,7.19836401 C23.8107672,7.19836401 24.0544217,7.44251685 24.0544217,7.74369461 C24.0544217,8.04487238 23.8107672,8.28902522 23.5102041,8.28902522 L23.5102041,8.28902522 Z" id="Path"></path>
                    <path d="M36.6802721,8.28902522 L36.5714286,8.28902522 C36.2708654,8.28902522 36.0272109,8.04487239 36.0272109,7.74369461 C36.0272109,7.44251684 36.2708654,7.19836401 36.5714286,7.19836401 L36.6802721,7.19836401 C36.9808352,7.19836401 37.2244898,7.44251685 37.2244898,7.74369461 C37.2244898,8.04487238 36.9808352,8.28902522 36.6802721,8.28902522 L36.6802721,8.28902522 Z" id="Path"></path>
                    <path d="M39.5102041,27.142195 L23.1836735,27.142195 C22.8831103,27.142195 22.6394558,26.8980421 22.6394558,26.5968643 C22.6394558,26.2956866 22.8831103,26.0515337 23.1836735,26.0515337 L39.5102041,26.0515337 C39.8107672,26.0515337 40.0544218,26.2956866 40.0544218,26.5968643 C40.0544218,26.8980421 39.8107672,27.142195 39.5102041,27.142195 Z" id="Path"></path>
                    <path d="M34.1768707,30.6475801 L23.1836735,30.6475801 C22.8831103,30.6475801 22.6394558,30.4034273 22.6394558,30.1022495 C22.6394558,29.8010717 22.8831103,29.5569189 23.1836735,29.5569189 L34.1768707,29.5569189 C34.4774339,29.5569189 34.7210884,29.8010717 34.7210884,30.1022495 C34.7210884,30.4034273 34.4774339,30.6475801 34.1768707,30.6475801 Z" id="Path"></path>
                    <path d="M30.1496599,34.2467621 L23.1836735,34.2467621 C22.8831103,34.2467621 22.6394558,34.0026093 22.6394558,33.7014315 C22.6394558,33.4002537 22.8831103,33.1561009 23.1836735,33.1561009 L30.1496599,33.1561009 C30.450223,33.1561009 30.6938776,33.4002537 30.6938776,33.7014315 C30.6938776,34.0026093 30.450223,34.2467621 30.1496599,34.2467621 Z" id="Path"></path>
                    <path d="M30.1496599,37.6278119 L23.1836735,37.6278119 C22.8831103,37.6278119 22.6394558,37.383659 22.6394558,37.0824813 C22.6394558,36.7813035 22.8831103,36.5371506 23.1836735,36.5371506 L30.1496599,36.5371506 C30.450223,36.5371506 30.6938776,36.7813035 30.6938776,37.0824813 C30.6938776,37.383659 30.450223,37.6278119 30.1496599,37.6278119 Z" id="Path"></path>
                    <path d="M30.1496599,41.2269939 L23.1836735,41.2269939 C22.8831103,41.2269939 22.6394558,40.982841 22.6394558,40.6816633 C22.6394558,40.3804855 22.8831103,40.1363327 23.1836735,40.1363327 L30.1496599,40.1363327 C30.450223,40.1363327 30.6938776,40.3804855 30.6938776,40.6816633 C30.6938776,40.982841 30.450223,41.2269939 30.1496599,41.2269939 L30.1496599,41.2269939 Z" id="Path"></path>
                    <path d="M30.1496599,44.7171097 L23.1836735,44.7171097 C22.8831103,44.7171097 22.6394558,44.4729569 22.6394558,44.1717791 C22.6394558,43.8706014 22.8831103,43.6264485 23.1836735,43.6264485 L30.1496599,43.6264485 C30.450223,43.6264485 30.6938776,43.8706014 30.6938776,44.1717791 C30.6938776,44.4729569 30.450223,44.7171097 30.1496599,44.7171097 Z" id="Path"></path>
                    <path d="M39.5102041,23.7764145 L21.4780952,23.7764145 C21.1775321,23.7764145 20.9338776,23.5322616 20.9338776,23.2310838 C20.9338776,22.9299061 21.1775321,22.6857532 21.4780952,22.6857532 L39.5102041,22.6857532 C39.8107672,22.6857532 40.0544218,22.9299061 40.0544218,23.2310838 C40.0544218,23.5322616 39.8107672,23.7764145 39.5102041,23.7764145 L39.5102041,23.7764145 Z" id="Path"></path>
                    <path d="M39.5243537,47.6128877 C36.6195658,47.615348 33.9340825,46.0648334 32.4794996,43.5453351 C31.0249166,41.0258369 31.0222197,37.9201269 32.4724247,35.3980959 C33.9226298,32.8760649 36.6054161,31.3208695 39.5102041,31.3183367 C39.8107672,31.3183367 40.0544218,31.5624896 40.0544218,31.8636673 L40.0544218,38.9366053 L43.9989116,38.9366053 C44.2994747,38.9366053 44.5431293,39.1807581 44.5431293,39.4819359 C44.5431293,39.7831137 44.2994747,40.0272665 43.9989116,40.0272665 L39.5102041,40.0272665 C39.209641,40.0272665 38.9659864,39.7831137 38.9659864,39.4819359 L38.9659864,32.4308112 C35.1951095,32.7285926 32.3325437,35.9582253 32.4826157,39.7455449 C32.6326877,43.5328645 35.7417862,46.5249022 39.5243537,46.5221541 C41.1241832,46.5289792 42.6774949,45.9831875 43.9227211,44.9766871 C44.1571603,44.7881498 44.4997386,44.8257494 44.6878912,45.060668 C44.8760437,45.2955867 44.8385209,45.6388656 44.6040816,45.8274029 C43.1660862,46.9901212 41.3721013,47.6206673 39.5243537,47.6128877 L39.5243537,47.6128877 Z" id="Path"></path>
                    <path d="M50.5034014,37.8568507 L50.5034014,37.8568507 L47.6484354,37.8568507 C47.3478722,37.8568507 47.1042177,37.6126979 47.1042177,37.3115201 C47.1042177,37.0103423 47.3478722,36.7661895 47.6484354,36.7661895 L47.6484354,36.7661895 L49.9406803,36.7661895 C49.7981958,34.6389563 48.8459381,32.6477755 47.2805442,31.2038173 C47.129051,31.0742643 47.0602815,30.8721369 47.1012499,30.6768349 C47.1422182,30.4815329 47.2863799,30.3242548 47.4771053,30.2667826 C47.6678307,30.2093104 47.8746524,30.2608251 48.0163265,30.4010907 C49.9452106,32.1795069 51.0442594,34.6850054 51.047619,37.3115201 C51.047619,37.6126979 50.8039645,37.8568507 50.5034014,37.8568507 L50.5034014,37.8568507 Z" id="Path"></path>
                    <path d="M43.9989116,37.8459441 L43.9989116,37.8459441 L41.7197279,37.8459441 C41.4191648,37.8459441 41.1755102,37.6017913 41.1755102,37.3006135 L41.1439456,28.4771643 C41.1439456,28.1759865 41.3876001,27.9318337 41.6881633,27.9318337 C42.5167713,27.9318337 43.3417231,28.0419011 44.1414966,28.259032 C44.333645,28.3058584 44.4853238,28.4534423 44.5376842,28.6445235 C44.5900446,28.8356047 44.5348458,29.0401096 44.393504,29.1786937 C44.2521622,29.3172779 44.0469227,29.3681299 43.857415,29.3115201 C43.3256953,29.1672187 42.7809756,29.0762465 42.2312925,29.0399455 L42.2585034,36.7563736 L44,36.7563736 C44.3005631,36.7563736 44.5442177,37.0005264 44.5442177,37.3017042 C44.5442177,37.6028819 44.3005631,37.8470348 44,37.8470348 L43.9989116,37.8459441 Z" id="Path"></path>
                    <path d="M18.6492517,20.1914139 C18.4057636,20.1921981 18.1913835,20.0308231 18.1243247,19.7962713 C18.057266,19.5617196 18.1538491,19.3110757 18.3608163,19.1825494 L26.5970068,14.0433538 C26.8116614,13.9089665 27.0904402,13.940608 27.2696599,14.1197001 L32.0522449,18.9131561 L38.5306122,14.0695297 C38.7710627,13.888823 39.1121791,13.9376536 39.292517,14.1785958 C39.4728549,14.419538 39.424124,14.761352 39.1836735,14.9420586 L32.3265306,20.0681663 C32.1098343,20.230485 31.8070469,20.2086472 31.6157823,20.0169052 L26.8059864,15.1961827 L18.9376871,20.1041581 C18.8516524,20.1598629 18.7516755,20.1901063 18.6492517,20.1914139 Z" id="Path"></path>
                    <path d="M38.6688435,17.8792362 C38.6356224,17.8795514 38.6024479,17.876629 38.5697959,17.870484 C38.2743621,17.8153381 38.079454,17.5306788 38.1344218,17.2346285 L38.5991837,14.7162918 L36.1066667,14.2691207 C35.9151529,14.234831 35.7564428,14.1007656 35.6903211,13.9174258 C35.6241993,13.7340859 35.6607113,13.5293253 35.7861034,13.3802751 C35.9114954,13.231225 36.1067175,13.1605297 36.2982313,13.1948194 L39.3295238,13.74015 C39.4721848,13.7658385 39.598725,13.8474923 39.6810884,13.9670075 C39.7640011,14.085981 39.7954043,14.2334844 39.7681633,14.3760055 L39.2043537,17.4298569 C39.1579717,17.6898083 38.9323782,17.8791062 38.6688435,17.8792362 L38.6688435,17.8792362 Z" id="Path"></path>
                </g>
            </g>
        </g>
    </g>
</svg>