<?xml version="1.0" encoding="UTF-8"?>
<svg width="54px" height="54px" viewBox="0 0 54 54" version="1.1" xmlns="http://www.w3.org/2000/svg" xmlns:xlink="http://www.w3.org/1999/xlink">
    <title>noun_Graph_3605908</title>
    <defs>
        <filter color-interpolation-filters="auto" id="filter-1">
            <feColorMatrix in="SourceGraphic" type="matrix" values="0 0 0 0 1.000000 0 0 0 0 1.000000 0 0 0 0 1.000000 0 0 0 1.000000 0"></feColorMatrix>
        </filter>
    </defs>
    <g id="Symbols" stroke="none" stroke-width="1" fill="none" fill-rule="evenodd">
        <g id="schema_techno" transform="translate(-203.000000, -423.000000)">
            <g id="noun_Graph_3605908" transform="translate(180.000000, 400.000000)" filter="url(#filter-1)">
                <g transform="translate(23.333333, 23.333333)" id="Group" fill="#000000" fill-rule="nonzero">
                    <path d="M29.2190606,53.0176844 L0.546628805,53.0176844 C0.246079404,53.0176844 0.00243510568,52.7740409 0.00243510568,52.4734915 L0.00243510568,23.7401101 C0.00243510568,23.5956826 0.059343363,23.4570762 0.161340281,23.3548216 L3.50812619,20.0080357 C3.61504037,19.9023159 3.76053097,19.8449061 3.91082888,19.8491314 C4.06187522,19.855589 4.2034275,19.9245908 4.30155933,20.0395988 L9.59111364,26.0529296 L15.4792801,14.1133389 C15.5757723,13.9225222 15.7738179,13.8046279 15.9875562,13.810539 C16.2012693,13.8183039 16.3907592,13.9503081 16.4718878,14.1481673 L23.1447803,30.518576 L28.5181403,25.0984154 C28.6226976,24.9931329 28.7657112,24.9351098 28.9140672,24.937781 C29.0624232,24.9404523 29.2032553,25.0035862 29.3039547,25.1125644 L34.8884615,31.1607235 L39.3171028,29.6848726 C39.5737141,29.5993145 39.8542142,29.7152237 39.9755761,29.956969 L42.7759924,35.5632435 L46.2152911,31.4393503 C46.3526162,31.2743281 46.5741276,31.205465 46.7808096,31.2635429 C46.9874916,31.3216207 47.1407124,31.495784 47.1719821,31.7081815 L50.2107549,52.345062 C50.2334597,52.5010838 50.1873817,52.6592837 50.0844482,52.7787116 C49.9815148,52.8981394 49.8318449,52.9670547 49.6741807,52.9676186 L29.2234142,53.0176844 L29.2190606,53.0176844 Z M1.09082164,51.9292987 L29.2168839,51.9292987 L49.0396519,51.8814097 L46.268622,33.0708404 L43.0763869,36.8986927 C42.9582247,37.0393253 42.7770917,37.1108591 42.5947234,37.0889135 C42.4123551,37.0669678 42.2533638,36.9545045 42.1719384,36.7898542 L39.2082642,30.8625059 L34.8939035,32.3013517 C34.6905743,32.3690366 34.4664525,32.3110887 34.3214126,32.1533312 L28.8849262,26.2651648 L23.3341594,31.8638207 C23.2055653,31.9935457 23.0204663,32.0501033 22.8413272,32.0144069 C22.6621882,31.9787105 22.5129065,31.855522 22.4438599,31.6864138 L15.9135459,15.674084 L10.2082283,27.2610377 C10.1279019,27.423962 9.97158012,27.5360649 9.79149903,27.5598863 C9.61141793,27.5837077 9.43132458,27.5161063 9.31139853,27.3796717 L3.86947023,21.1911109 L1.09082164,23.9686711 L1.09082164,51.9292987 Z" id="Shape"></path>
                    <path d="M49.5076577,52.9491161 C49.3228472,52.9491161 49.150703,52.8551865 49.0505358,52.6998757 L43.4290238,44.0102046 L39.881975,47.8293499 C39.750929,47.9702979 39.5551815,48.0315466 39.3671685,47.990431 L32.3840861,46.4743098 C32.165438,46.4271427 31.9979196,46.2509894 31.9617925,46.0302484 L30.6078407,37.6627395 L20.9527716,38.7783348 C20.7446239,38.8026523 20.5410066,38.7052885 20.429258,38.5280061 L17.7082939,34.1886124 L13.6203174,34.1886124 L11.2704927,38.4452887 C11.1657108,38.6349844 10.9583636,38.7444295 10.7426257,38.7239155 L0.495474679,37.7443684 C0.194925278,37.7161167 -0.0258156689,37.4495708 0.00243597483,37.1490214 C0.0306876185,36.848472 0.29723353,36.6277311 0.597782931,36.6559827 L10.4901202,37.5985247 L12.8225307,33.3734116 C12.9184501,33.1999899 13.1010629,33.0926078 13.2992436,33.0926078 L18.0054232,33.0926078 C18.1924545,33.0926078 18.3663097,33.1889225 18.4658103,33.3472903 L21.1682719,37.6507672 L30.9996596,36.5144926 C31.2883629,36.4817116 31.5518941,36.6815161 31.5982717,36.9683494 L32.9805215,45.4893207 L39.2986002,46.8617751 L43.1079501,42.7574727 C43.2220852,42.6340415 43.3868608,42.5702905 43.5543501,42.5847622 C43.7218394,42.599234 43.8732378,42.6903037 43.9645096,42.831483 L49.9593378,52.1099707 C50.0671867,52.2771907 50.0751705,52.489941 49.9801576,52.6647737 C49.8851448,52.8396064 49.7022859,52.9486431 49.5033042,52.9491161 L49.5076577,52.9491161 Z" id="Path"></path>
                    <path d="M49.7416607,27.5494599 L30.6949116,27.5494599 C30.3943622,27.5494599 30.1507188,27.3058165 30.1507188,27.0052671 C30.1507188,26.7047177 30.3943622,26.4610742 30.6949116,26.4610742 L49.7416607,26.4610742 C50.0422101,26.4610742 50.2858535,26.7047177 50.2858535,27.0052671 C50.2858535,27.3058165 50.0422101,27.5494599 49.7416607,27.5494599 L49.7416607,27.5494599 Z" id="Path"></path>
                    <path d="M27.2120775,27.5494599 L21.2259564,27.5494599 C20.925407,27.5494599 20.6817635,27.3058165 20.6817635,27.0052671 C20.6817635,26.7047177 20.925407,26.4610742 21.2259564,26.4610742 L27.2120775,26.4610742 C27.5126269,26.4610742 27.7562703,26.7047177 27.7562703,27.0052671 C27.7562703,27.3058165 27.5126269,27.5494599 27.2120775,27.5494599 Z" id="Path"></path>
                    <path d="M49.7416607,35.9300295 L47.2383736,35.9300295 C46.9378242,35.9300295 46.6941808,35.6863861 46.6941808,35.3858367 C46.6941808,35.0852873 46.9378242,34.8416438 47.2383736,34.8416438 L49.7416607,34.8416438 C50.0422101,34.8416438 50.2858535,35.0852873 50.2858535,35.3858367 C50.2858535,35.6863861 50.0422101,35.9300295 49.7416607,35.9300295 L49.7416607,35.9300295 Z" id="Path"></path>
                    <path d="M49.7416607,44.5282762 L48.4355979,44.5282762 C48.1350485,44.5282762 47.891405,44.2846328 47.891405,43.9840834 C47.891405,43.683534 48.1350485,43.4398905 48.4355979,43.4398905 L49.7416607,43.4398905 C50.0422101,43.4398905 50.2858535,43.683534 50.2858535,43.9840834 C50.2858535,44.2846328 50.0422101,44.5282762 49.7416607,44.5282762 L49.7416607,44.5282762 Z" id="Path"></path>
                    <path d="M49.7416607,19.0600518 L17.9607994,19.0600518 C17.66025,19.0600518 17.4166065,18.8164083 17.4166065,18.5158589 C17.4166065,18.2153095 17.66025,17.9716661 17.9607994,17.9716661 L49.7416607,17.9716661 C50.0422101,17.9716661 50.2858535,18.2153095 50.2858535,18.5158589 C50.2858535,18.8164083 50.0422101,19.0600518 49.7416607,19.0600518 L49.7416607,19.0600518 Z" id="Path"></path>
                    <path d="M13.4984182,19.0600518 L0.546628805,19.0600518 C0.246079404,19.0600518 0.00243597483,18.8164083 0.00243597483,18.5158589 C0.00243597483,18.2153095 0.246079404,17.9716661 0.546628805,17.9716661 L13.4984182,17.9716661 C13.7989676,17.9716661 14.042611,18.2153095 14.042611,18.5158589 C14.042611,18.8164083 13.7989676,19.0600518 13.4984182,19.0600518 L13.4984182,19.0600518 Z" id="Path"></path>
                    <path d="M49.7416607,10.5706436 L0.655467371,10.5706436 C0.35491797,10.5706436 0.111274541,10.3270002 0.111274541,10.0264508 C0.111274541,9.72590137 0.35491797,9.48225794 0.655467371,9.48225794 L49.7416607,9.48225794 C50.0422101,9.48225794 50.2858535,9.72590137 50.2858535,10.0264508 C50.2858535,10.3270002 50.0422101,10.5706436 49.7416607,10.5706436 L49.7416607,10.5706436 Z" id="Path"></path>
                    <path d="M49.415145,6.87013236 L44.1908938,6.87013236 C43.8903444,6.87013236 43.646701,6.62648893 43.646701,6.32593953 L43.646701,1.10168836 C43.646701,0.801138954 43.8903444,0.557495525 44.1908938,0.557495525 L49.415145,0.557495525 C49.7156944,0.557495525 49.9593378,0.801138954 49.9593378,1.10168836 L49.9593378,6.32593953 C49.9593378,6.62648893 49.7156944,6.87013236 49.415145,6.87013236 Z M44.7350866,5.78174669 L48.8709521,5.78174669 L48.8709521,1.64588119 L44.7350866,1.64588119 L44.7350866,5.78174669 Z" id="Shape"></path>
                    <path d="M40.5992211,6.87013236 L35.3749699,6.87013236 C35.0744205,6.87013236 34.8307771,6.62648893 34.8307771,6.32593953 L34.8307771,1.10168836 C34.8307771,0.801138954 35.0744205,0.557495525 35.3749699,0.557495525 L40.5992211,0.557495525 C40.8997705,0.557495525 41.1434139,0.801138954 41.1434139,1.10168836 L41.1434139,6.32593953 C41.1434139,6.62648893 40.8997705,6.87013236 40.5992211,6.87013236 L40.5992211,6.87013236 Z M35.9191628,5.78174669 L40.0550283,5.78174669 L40.0550283,1.64588119 L35.9191628,1.64588119 L35.9191628,5.78174669 Z" id="Shape"></path>
                    <path d="M9.18841095,6.08431791 C8.86791627,6.0833805 8.54851551,6.04687756 8.2360735,5.97547934 C7.41107717,5.78827701 6.7634877,5.35183436 6.13766594,4.92954072 C5.3518515,4.40058529 4.67487561,3.94237493 3.74321749,4.01747354 C2.4371547,4.12631211 1.66004734,5.17878104 1.3139407,5.80024925 C1.16757313,6.06292942 0.835974432,6.15721942 0.573294259,6.01085187 C0.310614087,5.86448431 0.216324078,5.53288561 0.362691628,5.27020543 C0.814371677,4.45935812 1.84289613,3.07710833 3.65614664,2.93235304 C4.96220943,2.82351447 5.91237011,3.46457362 6.74607353,4.02726901 C7.31421084,4.41038076 7.85078497,4.77281319 8.47660673,4.91430332 C9.03833943,5.04560184 9.6255521,5.01771112 10.1723116,4.83376278 C9.95611432,4.67809047 9.75757537,4.49925943 9.58022979,4.30045381 C8.93590548,3.57341219 8.74979153,2.7070572 9.05780467,1.86355832 C9.44635835,0.798028756 10.2702663,0.106903862 11.2617856,0.0133026949 C12.0909642,-0.0787816572 12.8995258,0.312594323 13.3416906,1.02005943 C13.8205803,1.82764159 13.689974,2.89099438 12.9847001,3.94019816 C12.819049,4.18684603 12.633398,4.41945584 12.4296234,4.63567659 C13.390668,4.85335373 14.5976877,4.8631492 15.9744955,4.54098704 C16.1678421,4.4856591 16.3759411,4.5414731 16.5156501,4.68612947 C16.6553591,4.83078585 16.7039005,5.04070044 16.6418804,5.23200537 C16.5798603,5.42331031 16.4173902,5.56481603 16.2193823,5.59998629 C14.4398718,6.016838 12.7234876,5.95262324 11.3880384,5.4704684 C10.7235334,5.86954282 9.96353681,6.08163487 9.18841095,6.08431791 Z M11.4805511,1.0908045 C11.4413693,1.0908045 11.4021874,1.0908045 11.3630055,1.09624643 C10.7926914,1.14957732 10.3246856,1.56534065 10.0808872,2.23578621 C9.86974037,2.813719 10.1353065,3.28498999 10.3954306,3.57885412 C10.6430004,3.84826617 10.9381841,4.06965396 11.2661392,4.23188551 C11.5814592,3.97418354 11.8569027,3.67123242 12.0835168,3.33287896 C12.5449923,2.64719599 12.6636264,2.00722522 12.4100325,1.5762245 C12.2073762,1.26194943 11.8542655,1.07753797 11.4805511,1.0908045 Z" id="Shape"></path>
                    <path d="M44.4477528,50.2967202 L44.3062627,50.2967202 C44.0057133,50.2967202 43.7620698,50.0530768 43.7620698,49.7525274 C43.7620698,49.451978 44.0057133,49.2083345 44.3062627,49.2083345 L44.4477528,49.2083345 C44.7483022,49.2083345 44.9919456,49.451978 44.9919456,49.7525274 C44.9919456,50.0530768 44.7483022,50.2967202 44.4477528,50.2967202 L44.4477528,50.2967202 Z" id="Path"></path>
                    <path d="M40.0735308,50.2967202 L39.9320407,50.2967202 C39.6314913,50.2967202 39.3878479,50.0530768 39.3878479,49.7525274 C39.3878479,49.451978 39.6314913,49.2083345 39.9320407,49.2083345 L40.0735308,49.2083345 C40.3740802,49.2083345 40.6177237,49.451978 40.6177237,49.7525274 C40.6177237,50.0530768 40.3740802,50.2967202 40.0735308,50.2967202 Z" id="Path"></path>
                    <path d="M35.7014856,50.2967202 L35.5589071,50.2967202 C35.2583577,50.2967202 35.0147143,50.0530768 35.0147143,49.7525274 C35.0147143,49.451978 35.2583577,49.2083345 35.5589071,49.2083345 L35.7014856,49.2083345 C36.002035,49.2083345 36.2456785,49.451978 36.2456785,49.7525274 C36.2456785,50.0530768 36.002035,50.2967202 35.7014856,50.2967202 Z" id="Path"></path>
                    <path d="M31.3239985,50.2967202 L31.1825084,50.2967202 C30.881959,50.2967202 30.6383155,50.0530768 30.6383155,49.7525274 C30.6383155,49.451978 30.881959,49.2083345 31.1825084,49.2083345 L31.3239985,49.2083345 C31.6245479,49.2083345 31.8681913,49.451978 31.8681913,49.7525274 C31.8681913,50.0530768 31.6245479,50.2967202 31.3239985,50.2967202 Z" id="Path"></path>
                    <path d="M26.9497765,41.3425714 L26.8082864,41.3425714 C26.507737,41.3425714 26.2640936,41.0989279 26.2640936,40.7983785 C26.2640936,40.4978291 26.507737,40.2541857 26.8082864,40.2541857 L26.9497765,40.2541857 C27.2503259,40.2541857 27.4939694,40.4978291 27.4939694,40.7983785 C27.4939694,41.0989279 27.2503259,41.3425714 26.9497765,41.3425714 Z" id="Path"></path>
                    <path d="M29.2136187,45.82019 L29.0721286,45.82019 C28.7715792,45.82019 28.5279357,45.5765466 28.5279357,45.2759972 C28.5279357,44.9754478 28.7715792,44.7318043 29.0721286,44.7318043 L29.2136187,44.7318043 C29.5141681,44.7318043 29.7578115,44.9754478 29.7578115,45.2759972 C29.7578115,45.5765466 29.5141681,45.82019 29.2136187,45.82019 Z" id="Path"></path>
                    <path d="M26.9497765,50.2967202 L26.8082864,50.2967202 C26.507737,50.2967202 26.2640936,50.0530768 26.2640936,49.7525274 C26.2640936,49.451978 26.507737,49.2083345 26.8082864,49.2083345 L26.9497765,49.2083345 C27.2503259,49.2083345 27.4939694,49.451978 27.4939694,49.7525274 C27.4939694,50.0530768 27.2503259,50.2967202 26.9497765,50.2967202 Z" id="Path"></path>
                    <path d="M22.5755546,41.3425714 L22.4340644,41.3425714 C22.133515,41.3425714 21.8898716,41.0989279 21.8898716,40.7983785 C21.8898716,40.4978291 22.133515,40.2541857 22.4340644,40.2541857 L22.5755546,40.2541857 C22.876104,40.2541857 23.1197474,40.4978291 23.1197474,40.7983785 C23.1197474,41.0989279 22.876104,41.3425714 22.5755546,41.3425714 L22.5755546,41.3425714 Z" id="Path"></path>
                    <path d="M24.8393967,45.82019 L24.6979066,45.82019 C24.3973572,45.82019 24.1537138,45.5765466 24.1537138,45.2759972 C24.1537138,44.9754478 24.3973572,44.7318043 24.6979066,44.7318043 L24.8393967,44.7318043 C25.1399461,44.7318043 25.3835896,44.9754478 25.3835896,45.2759972 C25.3835896,45.5765466 25.1399461,45.82019 24.8393967,45.82019 L24.8393967,45.82019 Z" id="Path"></path>
                    <path d="M22.5755546,50.2967202 L22.4340644,50.2967202 C22.133515,50.2967202 21.8898716,50.0530768 21.8898716,49.7525274 C21.8898716,49.451978 22.133515,49.2083345 22.4340644,49.2083345 L22.5755546,49.2083345 C22.876104,49.2083345 23.1197474,49.451978 23.1197474,49.7525274 C23.1197474,50.0530768 22.876104,50.2967202 22.5755546,50.2967202 L22.5755546,50.2967202 Z" id="Path"></path>
                    <path d="M18.2013326,41.3425714 L18.0598425,41.3425714 C17.7592931,41.3425714 17.5156496,41.0989279 17.5156496,40.7983785 C17.5156496,40.4978291 17.7592931,40.2541857 18.0598425,40.2541857 L18.2013326,40.2541857 C18.501882,40.2541857 18.7455254,40.4978291 18.7455254,40.7983785 C18.7455254,41.0989279 18.501882,41.3425714 18.2013326,41.3425714 Z" id="Path"></path>
                    <path d="M20.4640864,45.82019 L20.3225963,45.82019 C20.0220469,45.82019 19.7784034,45.5765466 19.7784034,45.2759972 C19.7784034,44.9754478 20.0220469,44.7318043 20.3225963,44.7318043 L20.4640864,44.7318043 C20.7646358,44.7318043 21.0082792,44.9754478 21.0082792,45.2759972 C21.0082792,45.5765466 20.7646358,45.82019 20.4640864,45.82019 L20.4640864,45.82019 Z" id="Path"></path>
                    <path d="M18.2013326,50.2967202 L18.0598425,50.2967202 C17.7592931,50.2967202 17.5156496,50.0530768 17.5156496,49.7525274 C17.5156496,49.451978 17.7592931,49.2083345 18.0598425,49.2083345 L18.2013326,49.2083345 C18.501882,49.2083345 18.7455254,49.451978 18.7455254,49.7525274 C18.7455254,50.0530768 18.501882,50.2967202 18.2013326,50.2967202 Z" id="Path"></path>
                    <path d="M16.0909528,36.8660412 L15.9494627,36.8660412 C15.6489133,36.8660412 15.4052698,36.6223977 15.4052698,36.3218483 C15.4052698,36.0212989 15.6489133,35.7776555 15.9494627,35.7776555 L16.0909528,35.7776555 C16.3915022,35.7776555 16.6351456,36.0212989 16.6351456,36.3218483 C16.6351456,36.6223977 16.3915022,36.8660412 16.0909528,36.8660412 Z" id="Path"></path>
                    <path d="M13.8249339,41.3425714 L13.6834437,41.3425714 C13.3828943,41.3425714 13.1392509,41.0989279 13.1392509,40.7983785 C13.1392509,40.4978291 13.3828943,40.2541857 13.6834437,40.2541857 L13.8249339,40.2541857 C14.1254833,40.2541857 14.3691267,40.4978291 14.3691267,40.7983785 C14.3691267,41.0989279 14.1254833,41.3425714 13.8249339,41.3425714 Z" id="Path"></path>
                    <path d="M16.0909528,45.82019 L15.9494627,45.82019 C15.6489133,45.82019 15.4052698,45.5765466 15.4052698,45.2759972 C15.4052698,44.9754478 15.6489133,44.7318043 15.9494627,44.7318043 L16.0909528,44.7318043 C16.3915022,44.7318043 16.6351456,44.9754478 16.6351456,45.2759972 C16.6351456,45.5765466 16.3915022,45.82019 16.0909528,45.82019 Z" id="Path"></path>
                    <path d="M13.8249339,50.2967202 L13.6834437,50.2967202 C13.3828943,50.2967202 13.1392509,50.0530768 13.1392509,49.7525274 C13.1392509,49.451978 13.3828943,49.2083345 13.6834437,49.2083345 L13.8249339,49.2083345 C14.1254833,49.2083345 14.3691267,49.451978 14.3691267,49.7525274 C14.3691267,50.0530768 14.1254833,50.2967202 13.8249339,50.2967202 Z" id="Path"></path>
                    <path d="M9.45288866,41.3425714 L9.31031014,41.3425714 C9.00976074,41.3425714 8.76611731,41.0989279 8.76611731,40.7983785 C8.76611731,40.4978291 9.00976074,40.2541857 9.31031014,40.2541857 L9.45288866,40.2541857 C9.75343806,40.2541857 9.99708149,40.4978291 9.99708149,40.7983785 C9.99708149,41.0989279 9.75343806,41.3425714 9.45288866,41.3425714 L9.45288866,41.3425714 Z" id="Path"></path>
                    <path d="M11.7156425,45.82019 L11.5752407,45.82019 C11.2746913,45.82019 11.0310479,45.5765466 11.0310479,45.2759972 C11.0310479,44.9754478 11.2746913,44.7318043 11.5752407,44.7318043 L11.7156425,44.7318043 C12.0161919,44.7318043 12.2598353,44.9754478 12.2598353,45.2759972 C12.2598353,45.5765466 12.0161919,45.82019 11.7156425,45.82019 L11.7156425,45.82019 Z" id="Path"></path>
                    <path d="M9.45288866,50.2967202 L9.31031014,50.2967202 C9.00976074,50.2967202 8.76611731,50.0530768 8.76611731,49.7525274 C8.76611731,49.451978 9.00976074,49.2083345 9.31031014,49.2083345 L9.45288866,49.2083345 C9.75343806,49.2083345 9.99708149,49.451978 9.99708149,49.7525274 C9.99708149,50.0530768 9.75343806,50.2967202 9.45288866,50.2967202 L9.45288866,50.2967202 Z" id="Path"></path>
                    <path d="M5.07757831,41.3425714 L4.93608817,41.3425714 C4.63553877,41.3425714 4.39189534,41.0989279 4.39189534,40.7983785 C4.39189534,40.4978291 4.63553877,40.2541857 4.93608817,40.2541857 L5.07757831,40.2541857 C5.37812771,40.2541857 5.62177114,40.4978291 5.62177114,40.7983785 C5.62177114,41.0989279 5.37812771,41.3425714 5.07757831,41.3425714 L5.07757831,41.3425714 Z" id="Path"></path>
                    <path d="M7.34142048,45.82019 L7.19993035,45.82019 C6.89938095,45.82019 6.65573752,45.5765466 6.65573752,45.2759972 C6.65573752,44.9754478 6.89938095,44.7318043 7.19993035,44.7318043 L7.34142048,44.7318043 C7.64196988,44.7318043 7.88561331,44.9754478 7.88561331,45.2759972 C7.88561331,45.5765466 7.64196988,45.82019 7.34142048,45.82019 Z" id="Path"></path>
                    <path d="M5.07757831,50.2967202 L4.93608817,50.2967202 C4.63553877,50.2967202 4.39189534,50.0530768 4.39189534,49.7525274 C4.39189534,49.451978 4.63553877,49.2083345 4.93608817,49.2083345 L5.07757831,49.2083345 C5.37812771,49.2083345 5.62177114,49.451978 5.62177114,49.7525274 C5.62177114,50.0530768 5.37812771,50.2967202 5.07757831,50.2967202 L5.07757831,50.2967202 Z" id="Path"></path>
                    <path d="M2.96719851,45.82019 L2.82570838,45.82019 C2.52515898,45.82019 2.28151555,45.5765466 2.28151555,45.2759972 C2.28151555,44.9754478 2.52515898,44.7318043 2.82570838,44.7318043 L2.96719851,44.7318043 C3.26774791,44.7318043 3.51139134,44.9754478 3.51139134,45.2759972 C3.51139134,45.5765466 3.26774791,45.82019 2.96719851,45.82019 L2.96719851,45.82019 Z" id="Path"></path>
                    <path d="M52.7891405,10.5706436 L52.0272705,10.5706436 C51.7267211,10.5706436 51.4830777,10.3270002 51.4830777,10.0264508 C51.4830777,9.72590137 51.7267211,9.48225794 52.0272705,9.48225794 L52.7891405,9.48225794 C53.0896899,9.48225794 53.3333333,9.72590137 53.3333333,10.0264508 C53.3333333,10.3270002 53.0896899,10.5706436 52.7891405,10.5706436 L52.7891405,10.5706436 Z" id="Path"></path>
                    <path d="M52.7891405,19.0600518 L52.0272705,19.0600518 C51.7267211,19.0600518 51.4830777,18.8164083 51.4830777,18.5158589 C51.4830777,18.2153095 51.7267211,17.9716661 52.0272705,17.9716661 L52.7891405,17.9716661 C53.0896899,17.9716661 53.3333333,18.2153095 53.3333333,18.5158589 C53.3333333,18.8164083 53.0896899,19.0600518 52.7891405,19.0600518 L52.7891405,19.0600518 Z" id="Path"></path>
                    <path d="M52.7891405,27.5494599 L52.0272705,27.5494599 C51.7267211,27.5494599 51.4830777,27.3058165 51.4830777,27.0052671 C51.4830777,26.7047177 51.7267211,26.4610742 52.0272705,26.4610742 L52.7891405,26.4610742 C53.0896899,26.4610742 53.3333333,26.7047177 53.3333333,27.0052671 C53.3333333,27.3058165 53.0896899,27.5494599 52.7891405,27.5494599 L52.7891405,27.5494599 Z" id="Path"></path>
                    <path d="M52.7891405,35.9300295 L52.0272705,35.9300295 C51.7267211,35.9300295 51.4830777,35.6863861 51.4830777,35.3858367 C51.4830777,35.0852873 51.7267211,34.8416438 52.0272705,34.8416438 L52.7891405,34.8416438 C53.0896899,34.8416438 53.3333333,35.0852873 53.3333333,35.3858367 C53.3333333,35.6863861 53.0896899,35.9300295 52.7891405,35.9300295 L52.7891405,35.9300295 Z" id="Path"></path>
                    <path d="M52.7891405,44.5282762 L52.0272705,44.5282762 C51.7267211,44.5282762 51.4830777,44.2846328 51.4830777,43.9840834 C51.4830777,43.683534 51.7267211,43.4398905 52.0272705,43.4398905 L52.7891405,43.4398905 C53.0896899,43.4398905 53.3333333,43.683534 53.3333333,43.9840834 C53.3333333,44.2846328 53.0896899,44.5282762 52.7891405,44.5282762 L52.7891405,44.5282762 Z" id="Path"></path>
                    <path d="M44.4477528,50.2967202 L44.3062627,50.2967202 C44.0057133,50.2967202 43.7620698,50.0530768 43.7620698,49.7525274 C43.7620698,49.451978 44.0057133,49.2083345 44.3062627,49.2083345 L44.4477528,49.2083345 C44.7483022,49.2083345 44.9919456,49.451978 44.9919456,49.7525274 C44.9919456,50.0530768 44.7483022,50.2967202 44.4477528,50.2967202 L44.4477528,50.2967202 Z" id="Path"></path>
                    <path d="M40.0735308,50.2967202 L39.9320407,50.2967202 C39.6314913,50.2967202 39.3878479,50.0530768 39.3878479,49.7525274 C39.3878479,49.451978 39.6314913,49.2083345 39.9320407,49.2083345 L40.0735308,49.2083345 C40.3740802,49.2083345 40.6177237,49.451978 40.6177237,49.7525274 C40.6177237,50.0530768 40.3740802,50.2967202 40.0735308,50.2967202 Z" id="Path"></path>
                    <path d="M35.7014856,50.2967202 L35.5589071,50.2967202 C35.2583577,50.2967202 35.0147143,50.0530768 35.0147143,49.7525274 C35.0147143,49.451978 35.2583577,49.2083345 35.5589071,49.2083345 L35.7014856,49.2083345 C36.002035,49.2083345 36.2456785,49.451978 36.2456785,49.7525274 C36.2456785,50.0530768 36.002035,50.2967202 35.7014856,50.2967202 Z" id="Path"></path>
                    <path d="M31.3239985,50.2967202 L31.1825084,50.2967202 C30.881959,50.2967202 30.6383155,50.0530768 30.6383155,49.7525274 C30.6383155,49.451978 30.881959,49.2083345 31.1825084,49.2083345 L31.3239985,49.2083345 C31.6245479,49.2083345 31.8681913,49.451978 31.8681913,49.7525274 C31.8681913,50.0530768 31.6245479,50.2967202 31.3239985,50.2967202 Z" id="Path"></path>
                    <path d="M26.9497765,41.3425714 L26.8082864,41.3425714 C26.507737,41.3425714 26.2640936,41.0989279 26.2640936,40.7983785 C26.2640936,40.4978291 26.507737,40.2541857 26.8082864,40.2541857 L26.9497765,40.2541857 C27.2503259,40.2541857 27.4939694,40.4978291 27.4939694,40.7983785 C27.4939694,41.0989279 27.2503259,41.3425714 26.9497765,41.3425714 Z" id="Path"></path>
                    <path d="M29.2136187,45.82019 L29.0721286,45.82019 C28.7715792,45.82019 28.5279357,45.5765466 28.5279357,45.2759972 C28.5279357,44.9754478 28.7715792,44.7318043 29.0721286,44.7318043 L29.2136187,44.7318043 C29.5141681,44.7318043 29.7578115,44.9754478 29.7578115,45.2759972 C29.7578115,45.5765466 29.5141681,45.82019 29.2136187,45.82019 Z" id="Path"></path>
                    <path d="M26.9497765,50.2967202 L26.8082864,50.2967202 C26.507737,50.2967202 26.2640936,50.0530768 26.2640936,49.7525274 C26.2640936,49.451978 26.507737,49.2083345 26.8082864,49.2083345 L26.9497765,49.2083345 C27.2503259,49.2083345 27.4939694,49.451978 27.4939694,49.7525274 C27.4939694,50.0530768 27.2503259,50.2967202 26.9497765,50.2967202 Z" id="Path"></path>
                    <path d="M22.5755546,41.3425714 L22.4340644,41.3425714 C22.133515,41.3425714 21.8898716,41.0989279 21.8898716,40.7983785 C21.8898716,40.4978291 22.133515,40.2541857 22.4340644,40.2541857 L22.5755546,40.2541857 C22.876104,40.2541857 23.1197474,40.4978291 23.1197474,40.7983785 C23.1197474,41.0989279 22.876104,41.3425714 22.5755546,41.3425714 L22.5755546,41.3425714 Z" id="Path"></path>
                    <path d="M24.8393967,45.82019 L24.6979066,45.82019 C24.3973572,45.82019 24.1537138,45.5765466 24.1537138,45.2759972 C24.1537138,44.9754478 24.3973572,44.7318043 24.6979066,44.7318043 L24.8393967,44.7318043 C25.1399461,44.7318043 25.3835896,44.9754478 25.3835896,45.2759972 C25.3835896,45.5765466 25.1399461,45.82019 24.8393967,45.82019 L24.8393967,45.82019 Z" id="Path"></path>
                    <path d="M22.5755546,50.2967202 L22.4340644,50.2967202 C22.133515,50.2967202 21.8898716,50.0530768 21.8898716,49.7525274 C21.8898716,49.451978 22.133515,49.2083345 22.4340644,49.2083345 L22.5755546,49.2083345 C22.876104,49.2083345 23.1197474,49.451978 23.1197474,49.7525274 C23.1197474,50.0530768 22.876104,50.2967202 22.5755546,50.2967202 L22.5755546,50.2967202 Z" id="Path"></path>
                    <path d="M18.2013326,41.3425714 L18.0598425,41.3425714 C17.7592931,41.3425714 17.5156496,41.0989279 17.5156496,40.7983785 C17.5156496,40.4978291 17.7592931,40.2541857 18.0598425,40.2541857 L18.2013326,40.2541857 C18.501882,40.2541857 18.7455254,40.4978291 18.7455254,40.7983785 C18.7455254,41.0989279 18.501882,41.3425714 18.2013326,41.3425714 Z" id="Path"></path>
                    <path d="M20.4640864,45.82019 L20.3225963,45.82019 C20.0220469,45.82019 19.7784034,45.5765466 19.7784034,45.2759972 C19.7784034,44.9754478 20.0220469,44.7318043 20.3225963,44.7318043 L20.4640864,44.7318043 C20.7646358,44.7318043 21.0082792,44.9754478 21.0082792,45.2759972 C21.0082792,45.5765466 20.7646358,45.82019 20.4640864,45.82019 L20.4640864,45.82019 Z" id="Path"></path>
                    <path d="M18.2013326,50.2967202 L18.0598425,50.2967202 C17.7592931,50.2967202 17.5156496,50.0530768 17.5156496,49.7525274 C17.5156496,49.451978 17.7592931,49.2083345 18.0598425,49.2083345 L18.2013326,49.2083345 C18.501882,49.2083345 18.7455254,49.451978 18.7455254,49.7525274 C18.7455254,50.0530768 18.501882,50.2967202 18.2013326,50.2967202 Z" id="Path"></path>
                    <path d="M16.0909528,36.8660412 L15.9494627,36.8660412 C15.6489133,36.8660412 15.4052698,36.6223977 15.4052698,36.3218483 C15.4052698,36.0212989 15.6489133,35.7776555 15.9494627,35.7776555 L16.0909528,35.7776555 C16.3915022,35.7776555 16.6351456,36.0212989 16.6351456,36.3218483 C16.6351456,36.6223977 16.3915022,36.8660412 16.0909528,36.8660412 Z" id="Path"></path>
                    <path d="M13.8249339,41.3425714 L13.6834437,41.3425714 C13.3828943,41.3425714 13.1392509,41.0989279 13.1392509,40.7983785 C13.1392509,40.4978291 13.3828943,40.2541857 13.6834437,40.2541857 L13.8249339,40.2541857 C14.1254833,40.2541857 14.3691267,40.4978291 14.3691267,40.7983785 C14.3691267,41.0989279 14.1254833,41.3425714 13.8249339,41.3425714 Z" id="Path"></path>
                    <path d="M16.0909528,45.82019 L15.9494627,45.82019 C15.6489133,45.82019 15.4052698,45.5765466 15.4052698,45.2759972 C15.4052698,44.9754478 15.6489133,44.7318043 15.9494627,44.7318043 L16.0909528,44.7318043 C16.3915022,44.7318043 16.6351456,44.9754478 16.6351456,45.2759972 C16.6351456,45.5765466 16.3915022,45.82019 16.0909528,45.82019 Z" id="Path"></path>
                    <path d="M13.8249339,50.2967202 L13.6834437,50.2967202 C13.3828943,50.2967202 13.1392509,50.0530768 13.1392509,49.7525274 C13.1392509,49.451978 13.3828943,49.2083345 13.6834437,49.2083345 L13.8249339,49.2083345 C14.1254833,49.2083345 14.3691267,49.451978 14.3691267,49.7525274 C14.3691267,50.0530768 14.1254833,50.2967202 13.8249339,50.2967202 Z" id="Path"></path>
                    <path d="M9.45288866,41.3425714 L9.31031014,41.3425714 C9.00976074,41.3425714 8.76611731,41.0989279 8.76611731,40.7983785 C8.76611731,40.4978291 9.00976074,40.2541857 9.31031014,40.2541857 L9.45288866,40.2541857 C9.75343806,40.2541857 9.99708149,40.4978291 9.99708149,40.7983785 C9.99708149,41.0989279 9.75343806,41.3425714 9.45288866,41.3425714 L9.45288866,41.3425714 Z" id="Path"></path>
                    <path d="M11.7156425,45.82019 L11.5752407,45.82019 C11.2746913,45.82019 11.0310479,45.5765466 11.0310479,45.2759972 C11.0310479,44.9754478 11.2746913,44.7318043 11.5752407,44.7318043 L11.7156425,44.7318043 C12.0161919,44.7318043 12.2598353,44.9754478 12.2598353,45.2759972 C12.2598353,45.5765466 12.0161919,45.82019 11.7156425,45.82019 L11.7156425,45.82019 Z" id="Path"></path>
                    <path d="M9.45288866,50.2967202 L9.31031014,50.2967202 C9.00976074,50.2967202 8.76611731,50.0530768 8.76611731,49.7525274 C8.76611731,49.451978 9.00976074,49.2083345 9.31031014,49.2083345 L9.45288866,49.2083345 C9.75343806,49.2083345 9.99708149,49.451978 9.99708149,49.7525274 C9.99708149,50.0530768 9.75343806,50.2967202 9.45288866,50.2967202 L9.45288866,50.2967202 Z" id="Path"></path>
                    <path d="M5.07757831,41.3425714 L4.93608817,41.3425714 C4.63553877,41.3425714 4.39189534,41.0989279 4.39189534,40.7983785 C4.39189534,40.4978291 4.63553877,40.2541857 4.93608817,40.2541857 L5.07757831,40.2541857 C5.37812771,40.2541857 5.62177114,40.4978291 5.62177114,40.7983785 C5.62177114,41.0989279 5.37812771,41.3425714 5.07757831,41.3425714 L5.07757831,41.3425714 Z" id="Path"></path>
                    <path d="M7.34142048,45.82019 L7.19993035,45.82019 C6.89938095,45.82019 6.65573752,45.5765466 6.65573752,45.2759972 C6.65573752,44.9754478 6.89938095,44.7318043 7.19993035,44.7318043 L7.34142048,44.7318043 C7.64196988,44.7318043 7.88561331,44.9754478 7.88561331,45.2759972 C7.88561331,45.5765466 7.64196988,45.82019 7.34142048,45.82019 Z" id="Path"></path>
                    <path d="M5.07757831,50.2967202 L4.93608817,50.2967202 C4.63553877,50.2967202 4.39189534,50.0530768 4.39189534,49.7525274 C4.39189534,49.451978 4.63553877,49.2083345 4.93608817,49.2083345 L5.07757831,49.2083345 C5.37812771,49.2083345 5.62177114,49.451978 5.62177114,49.7525274 C5.62177114,50.0530768 5.37812771,50.2967202 5.07757831,50.2967202 L5.07757831,50.2967202 Z" id="Path"></path>
                    <path d="M2.96719851,45.82019 L2.82570838,45.82019 C2.52515898,45.82019 2.28151555,45.5765466 2.28151555,45.2759972 C2.28151555,44.9754478 2.52515898,44.7318043 2.82570838,44.7318043 L2.96719851,44.7318043 C3.26774791,44.7318043 3.51139134,44.9754478 3.51139134,45.2759972 C3.51139134,45.5765466 3.26774791,45.82019 2.96719851,45.82019 L2.96719851,45.82019 Z" id="Path"></path>
                </g>
            </g>
        </g>
    </g>
</svg>