<?xml version="1.0" encoding="UTF-8"?>
<svg width="54px" height="57px" viewBox="0 0 54 57" version="1.1" xmlns="http://www.w3.org/2000/svg" xmlns:xlink="http://www.w3.org/1999/xlink">
    <title>noun_price_3606198</title>
    <defs>
        <filter color-interpolation-filters="auto" id="filter-1">
            <feColorMatrix in="SourceGraphic" type="matrix" values="0 0 0 0 1.000000 0 0 0 0 1.000000 0 0 0 0 1.000000 0 0 0 1.000000 0"></feColorMatrix>
        </filter>
    </defs>
    <g id="Symbols" stroke="none" stroke-width="1" fill="none" fill-rule="evenodd">
        <g id="schema_techno" transform="translate(-707.000000, -203.000000)">
            <g id="noun_price_3606198" transform="translate(684.000000, 182.000000)" filter="url(#filter-1)">
                <g transform="translate(23.333333, 21.111111)" id="Group" fill="#000000" fill-rule="nonzero">
                    <path d="M25.0574538,33.6831154 C23.8608873,33.6831154 22.5345867,33.1039448 21.5314632,32.1425216 C21.004418,31.6328514 20.0603699,30.585711 19.6781173,29.2906855 C19.2842813,27.9667016 19.5727082,26.7353849 20.5132813,25.727628 C20.6530511,25.5708284 20.8667618,25.5019953 21.0717703,25.5477466 C21.2767789,25.593498 21.440947,25.7466617 21.50079,25.9480084 C21.5606329,26.1493552 21.5067694,26.3673208 21.3600287,26.5176167 C19.6074585,28.3964461 21.6669891,30.6598448 22.3399854,31.3085159 C23.1878911,32.1274631 24.3091654,32.5907996 25.2485801,32.5178241 C25.8973206,32.4723737 26.4919416,32.1398106 26.8702578,31.610843 C27.543254,30.7270286 27.3741362,29.757497 26.2910872,28.2655536 C26.1752531,28.1138109 26.0686857,27.9632265 25.9563266,27.8126422 C24.9717366,26.4921332 23.9535546,25.1264489 24.2848402,23.1375771 C24.4017122,22.3915894 24.8206878,21.7266751 25.4431814,21.2992896 C26.2424369,20.7398108 27.3671862,20.526676 28.4548685,20.7282274 C29.997779,21.015496 31.511731,22.33253 32.2206358,24.002858 C32.7369596,25.1930837 32.7465782,26.5422 32.2472776,27.7396667 C32.1193308,28.0333047 31.7775688,28.1676239 31.4839308,28.039677 C31.1902928,27.9117302 31.0559736,27.5699682 31.1839204,27.2763302 C31.7167574,26.0438552 31.3402965,24.8901473 31.1538035,24.451136 C30.5989581,23.1433688 29.4023916,22.0788532 28.2417338,21.8622434 C27.4691202,21.7186091 26.6524896,21.8622434 26.1115443,22.2433377 C25.743554,22.4926645 25.4965966,22.8845203 25.4304397,23.32407 C25.180238,24.8299136 25.971385,25.8874791 26.8887912,27.1153208 C27.0038531,27.2697663 27.1196873,27.4242118 27.2362936,27.5786573 C27.7922974,28.3443208 29.2714991,30.3760512 27.8027224,32.3081644 C27.2238175,33.0997682 26.3263184,33.5970141 25.3481974,33.6680569 C25.2427884,33.6796403 25.1501211,33.6831154 25.0574538,33.6831154 Z" id="Path"></path>
                    <path d="M30.7808177,23.222137 C30.5468373,23.2225576 30.3355866,23.0821507 30.2453781,22.8662586 C30.1551697,22.6503665 30.2037254,22.401402 30.3684482,22.2352293 L32.4279788,20.1502152 C32.6558911,19.9477993 33.0016907,19.9566856 33.2189058,20.1705401 C33.4361209,20.3843946 33.4503973,20.7300136 33.2515594,20.961054 L31.1920288,23.0460681 C31.0840682,23.1574579 30.9359357,23.2208836 30.7808177,23.222137 L30.7808177,23.222137 Z" id="Path"></path>
                    <path d="M19.6931757,34.4209809 C19.5406838,34.4214037 19.3943299,34.3609442 19.286598,34.2530192 C19.0605002,34.0268532 19.0605002,33.660238 19.286598,33.434072 L21.4248958,31.2737657 C21.6528081,31.0713499 21.9986076,31.0802361 22.2158227,31.2940906 C22.4330378,31.5079451 22.4473143,31.8535641 22.2484764,32.0846045 L20.1101786,34.2437525 C20.0010121,34.3570049 19.8504761,34.4209809 19.6931757,34.4209809 L19.6931757,34.4209809 Z" id="Path"></path>
                    <path d="M23.4045009,42.3185499 C23.2507904,42.3188235 23.1032751,42.2579839 22.9944481,42.1494312 L11.6913547,30.8463378 C11.5407955,30.7009228 11.4804135,30.4855852 11.5334166,30.2830901 C11.5864196,30.080595 11.7445592,29.9224554 11.9470543,29.8694524 C12.1495494,29.8164493 12.364887,29.8768313 12.510302,30.0273905 L23.8133954,41.3304839 C23.9784978,41.4961025 24.0277995,41.744762 23.938377,41.9608452 C23.8489546,42.1769283 23.6383556,42.3180323 23.4045009,42.3185499 L23.4045009,42.3185499 Z" id="Path"></path>
                    <path d="M21.1920692,44.5356207 C21.0386077,44.5363527 20.8912808,44.4754186 20.7831748,44.3664962 L9.48008138,33.0634028 C9.26059182,32.8361485 9.26373083,32.4749164 9.4871365,32.2515107 C9.71054218,32.028105 10.0717743,32.024966 10.2990286,32.2444556 L21.5974886,43.5417573 C21.7663136,43.7063608 21.8184981,43.9568796 21.7294389,44.175202 C21.6403797,44.3935243 21.4278572,44.5360624 21.1920692,44.5356207 L21.1920692,44.5356207 Z" id="Path"></path>
                    <path d="M36.234288,56.8140307 C35.7109533,56.8140307 35.1929534,56.7088787 34.7110693,56.5047536 L23.7716951,51.8933973 C23.4767776,51.7692889 23.3383096,51.4296013 23.462418,51.1346839 C23.5865264,50.8397664 23.926214,50.7012983 24.2211315,50.8254067 L35.1605057,55.4379214 C35.8554436,55.7298403 36.6386159,55.7298403 37.3335538,55.4379214 C38.0350407,55.1535405 38.5949724,54.6023577 38.8903644,53.905436 L51.8487274,23.1642189 C52.4765483,21.6769088 52.2402467,20.3911501 50.7946369,17.433905 L46.6408253,9.669544 C46.5320131,9.48655359 46.5323681,9.25861712 46.6417498,9.07596653 C46.7511315,8.89331594 46.9519037,8.78540086 47.1645879,8.79494103 C47.3772721,8.80448119 47.5675762,8.92993841 47.6601656,9.12164861 L51.8197688,16.8964347 L51.8301939,16.9149682 C53.2526369,19.8247213 53.7773655,21.5691831 52.9155596,23.6148137 L39.9571966,54.350239 C39.3176961,55.8396876 37.8552063,56.8075519 36.234288,56.8140307 L36.234288,56.8140307 Z" id="Path"></path>
                    <path d="M20.9117507,53.2788664 C19.834154,53.2860869 18.7984414,52.8618744 18.0355895,52.1007404 L1.16203324,35.2271842 C-0.410994104,33.6576319 -0.382035574,31.0768477 1.21879196,29.4771785 L25.380631,5.31418109 C26.9061664,3.7874874 28.2486838,3.20020841 32.1685104,3.74810379 L41.4526151,4.93540352 C41.6657499,4.957412 44.4955774,5.28985593 46.4415907,7.23586914 C48.2740864,9.06720657 48.5798885,12.0314017 48.5926303,12.1565025 L49.5378367,21.1336468 C49.5378367,21.1405969 49.5378367,21.1475469 49.5378367,21.1556553 C49.7695049,24.4604027 49.589962,26.3160653 47.9868178,27.9203679 L23.8249788,52.0822069 C23.0573036,52.8504071 22.0151514,53.2810244 20.9291258,53.2788664 L20.9117507,53.2788664 Z M29.705877,4.70721031 C27.7505971,4.70721031 27.0416923,5.2863809 26.1984199,6.13312832 L2.03773919,30.2949674 C0.88866472,31.4463585 0.863181213,33.2904377 1.98213881,34.408237 L18.8545367,51.2817932 C19.9746526,52.4019091 21.8754905,52.3938007 23.0060315,51.2632597 L47.1678706,27.1014207 C48.3412702,25.928021 48.6146387,24.6133038 48.3841288,21.2448476 L47.4400808,12.2723367 C47.4400808,12.2422198 47.1574455,9.58961845 45.6226434,8.05481637 C43.940732,6.37290495 41.3541561,6.08563633 41.3275143,6.08563633 L41.3124558,6.08563633 L32.014451,4.89601992 C31.2501537,4.78032863 30.4788157,4.71724378 29.705877,4.70721031 Z" id="Shape"></path>
                    <path d="M37.3208121,20.2289962 C35.2761185,20.2293085 33.5159377,18.7852181 33.1167413,16.7798717 C32.7175449,14.7745253 33.7905167,12.7664503 35.6794608,11.9837227 C37.5684048,11.2009952 39.7472138,11.8616196 40.8833964,13.5615788 C42.0195789,15.261538 41.7966863,17.5273607 40.3510326,18.9733405 L40.3510326,18.9733405 C39.549162,19.779744 38.4580344,20.2318779 37.3208121,20.2289962 L37.3208121,20.2289962 Z M37.3208121,12.8155983 C35.9048399,12.8148773 34.6650339,13.765582 34.2983723,15.1332578 C33.9317108,16.5009336 34.52968,17.9443293 35.7561214,18.6520152 C36.9825628,19.3597011 38.5314647,19.1551012 39.5320854,18.1532349 L39.5320854,18.1532349 C40.4255385,17.2586696 40.6925044,15.9141586 40.2086042,14.7461063 C39.7247041,13.578054 38.5851321,12.8162428 37.3208121,12.8155983 L37.3208121,12.8155983 Z" id="Shape"></path>
                    <path d="M40.997387,16.0774875 C39.7556453,16.0774875 38.7085048,15.6929182 37.955583,14.9388381 C37.3758778,14.3467521 37.0015201,13.5842318 36.8875925,12.7634733 C36.8417103,12.4503827 37.0556073,12.1584232 37.3679644,12.1077878 C37.6803215,12.0571524 37.9754982,12.2665873 38.0308752,12.5781387 C38.1082686,13.1581309 38.3688013,13.6982695 38.7745303,14.1198909 C39.6004275,14.9457882 40.997387,15.1392311 42.7059403,14.6654696 C44.531486,14.1581161 46.4531741,12.9615497 48.1177104,11.2970134 C51.4155078,8.00037433 52.7082165,3.72146195 50.9405879,1.95383328 C49.1729592,0.186204612 44.8952052,1.47891339 41.5974078,4.77671078 C41.2997141,5.07440447 41.0124455,5.38483991 40.7448686,5.70338374 C40.610786,5.86105506 40.4027718,5.93521711 40.1991831,5.89793375 C39.9955944,5.8606504 39.8273611,5.71758587 39.7578551,5.52263119 C39.6883491,5.32767651 39.7281299,5.11044994 39.8622127,4.95277864 C40.1506396,4.61338467 40.4587584,4.2797824 40.7784605,3.96123857 C42.5819978,2.15770133 44.6843871,0.855725824 46.6987424,0.296247026 C48.8277735,-0.294506985 50.6255191,0.00434504407 51.7595351,1.13836108 C52.8935511,2.27237711 53.1924032,4.06664762 52.6016491,6.1945204 C52.0421703,8.21003409 50.7401948,10.3124234 48.9343409,12.1159606 C47.128487,13.9194978 45.0284144,15.2214734 43.0140591,15.7809522 C42.3582036,15.9699199 41.6798781,16.0696622 40.997387,16.0774875 Z" id="Path"></path>
                    <path d="M44.2731759,51.3628772 C44.2009641,51.3628969 44.1294117,51.3491368 44.0623578,51.3223351 C43.7645633,51.2055819 43.6177982,50.8695262 43.7345473,50.57173 L43.7762476,50.4640043 C43.8512384,50.2706 44.023936,50.1320689 44.2290031,50.1008221 C44.4340701,50.0695753 44.6401895,50.1503847 44.7693791,50.3126773 C44.8985687,50.4749699 44.9310992,50.6939611 44.8546632,50.8867988 L44.8129629,50.9945246 C44.7261008,51.2167864 44.5118082,51.3630205 44.2731759,51.3628772 L44.2731759,51.3628772 Z M45.1604653,49.0971618 C44.9690356,49.0972768 44.7899147,49.0027943 44.6819171,48.8447378 C44.5739196,48.6866813 44.5509978,48.4854704 44.6206783,48.307173 L44.6623786,48.1994472 C44.7788102,47.9013311 45.1148675,47.7540468 45.4129837,47.8704784 C45.7110998,47.98691 45.8583842,48.3229673 45.7419526,48.6210834 L45.6990939,48.7288092 C45.6123859,48.9506773 45.3986745,49.0968283 45.1604653,49.0971618 L45.1604653,49.0971618 Z M46.0465963,46.8326047 C45.9744295,46.8321587 45.902963,46.8184151 45.8357782,46.7920627 C45.6925619,46.7362208 45.5774195,46.6257357 45.5157152,46.4849458 C45.454011,46.3441559 45.4508071,46.1846113 45.5068093,46.0414576 L45.5496679,45.9337319 C45.6718257,45.6447739 46.0018432,45.505609 46.2940236,45.6198449 C46.586204,45.7340808 46.7343128,46.0601824 46.6280836,46.3553681 L46.5863833,46.4642521 C46.4995212,46.686514 46.2852286,46.8327481 46.0465963,46.8326047 L46.0465963,46.8326047 Z M46.9327273,44.5668902 C46.8605046,44.5670236 46.7889307,44.5532594 46.7219092,44.5263473 C46.424289,44.4100521 46.2770827,44.0746915 46.3929403,43.7769006 L46.4357989,43.6680165 C46.5107897,43.4746122 46.6834874,43.336081 46.8885545,43.3048343 C47.0936215,43.2735875 47.2997409,43.3543969 47.4289305,43.5166895 C47.5581201,43.6789821 47.5906506,43.8979733 47.5142146,44.090811 L47.4725143,44.1985368 C47.3856522,44.4207986 47.1713596,44.5670327 46.9327273,44.5668902 L46.9327273,44.5668902 Z M47.8188583,42.301174 C47.7467713,42.3010186 47.6753214,42.2876708 47.6080402,42.2617903 C47.3102457,42.145037 47.1634806,41.8089814 47.2802297,41.5111852 L47.32193,41.4034594 C47.39327,41.2052225 47.5666319,41.0613615 47.7746244,41.0277996 C47.982617,40.9942378 48.1924291,41.0762696 48.3225003,41.2420067 C48.4525714,41.4077438 48.4823827,41.631041 48.4003456,41.8250956 L48.3586453,41.9328214 C48.2717832,42.1550833 48.0574906,42.3013173 47.8188583,42.301174 L47.8188583,42.301174 Z M48.7026727,40.0366169 C48.6304608,40.0366367 48.5589085,40.0228766 48.4918546,39.9960749 C48.19406,39.8793217 48.0472949,39.543266 48.164044,39.2454698 L48.2057443,39.1377441 C48.3224958,38.8396279 48.6588124,38.6926028 48.9569286,38.8093543 C49.2550447,38.9261058 49.4020698,39.2624225 49.2853183,39.5605386 L49.2424597,39.6682643 C49.1555976,39.8905262 48.9413049,40.0367602 48.7026727,40.0366169 L48.7026727,40.0366169 Z M49.589962,37.7709014 C49.517488,37.7708615 49.4456375,37.7575123 49.3779856,37.7315178 C49.080191,37.6147646 48.933426,37.278709 49.050175,36.9809128 L49.0930337,36.8720287 C49.1680245,36.6786244 49.3407221,36.5400932 49.5457892,36.5088464 C49.7508562,36.4775997 49.9569756,36.5584091 50.0861652,36.7207017 C50.2153548,36.8829943 50.2478853,37.1019855 50.1714493,37.2948232 L50.1285907,37.4025489 C50.0421929,37.6236327 49.8296412,37.7696186 49.5922787,37.7709014 L49.589962,37.7709014 Z M50.4784097,35.5005528 C50.28698,35.5006678 50.1078592,35.4061854 49.9998616,35.2481288 C49.891864,35.0900723 49.8689423,34.8888614 49.9386227,34.710564 L49.9814814,34.6028383 C50.1036391,34.3138803 50.4336567,34.1747154 50.725837,34.2889513 C51.0180174,34.4031873 51.1661262,34.7292888 51.059897,35.0244745 L51.0181967,35.1322002 C50.9313346,35.3544621 50.717042,35.5006961 50.4784097,35.5005528 L50.4784097,35.5005528 Z M51.3668574,33.2406291 C51.2946456,33.2406489 51.2230932,33.2268888 51.1560393,33.2000871 C50.8588749,33.0833312 50.7122471,32.7481077 50.8282288,32.4506403 L50.8699291,32.3417563 C50.9449198,32.1483519 51.1176175,32.0098208 51.3226846,31.978574 C51.5277516,31.9473272 51.733871,32.0281367 51.8630606,32.1904293 C51.9922502,32.3527219 52.0247807,32.5717131 51.9483447,32.7645508 L51.9066444,32.8722765 C51.8197823,33.0945384 51.6054897,33.2407724 51.3668574,33.2406291 Z M52.2529884,30.9749198 C52.1809014,30.9747583 52.1094515,30.9614106 52.0421703,30.93553 C51.7443758,30.8187768 51.5976107,30.4827212 51.7143598,30.1849249 L51.7560601,30.0771992 C51.8724917,29.7790831 52.208549,29.6317987 52.5066652,29.7482303 C52.8047813,29.8646619 52.9520657,30.2007193 52.8356341,30.4988354 L52.7927754,30.6065611 C52.7056072,30.8296136 52.4901493,30.9760145 52.2506718,30.9749198 L52.2529884,30.9749198 Z" id="Shape"></path>
                    <path d="M41.2580138,40.4003364 C41.1738975,40.4004378 41.0908101,40.381842 41.0147621,40.3458939 L39.1926914,39.5014632 C38.9022521,39.367119 38.775712,39.022764 38.9100562,38.7323247 C39.0444004,38.4418853 39.3887554,38.3153452 39.6791947,38.4496894 L41.5012654,39.2952785 C41.7483449,39.4092857 41.8827385,39.6799237 41.8242397,39.9456752 C41.765741,40.2114266 41.5301275,40.4006165 41.2580138,40.4003364 L41.2580138,40.4003364 Z" id="Path"></path>
                    <path d="M39.9710967,43.2510137 C39.8911423,43.2505659 39.8121885,43.2331961 39.7394285,43.2000466 L34.5709101,40.8949477 C34.2785516,40.7644419 34.147344,40.4216426 34.2778498,40.1292841 C34.4083555,39.8369256 34.7511548,39.7057181 35.0435133,39.8362238 L40.2120317,42.1424811 C40.46153,42.2532187 40.5998381,42.5231349 40.5439976,42.7903315 C40.4881572,43.0575282 40.2533283,43.2494638 39.9803635,43.2510137 L39.9710967,43.2510137 Z" id="Path"></path>
                    <path d="M38.685338,46.1016923 C38.6052668,46.1011653 38.5262497,46.0833864 38.4536698,46.049566 L32.5403379,43.3853812 C32.3445907,43.3049696 32.2082835,43.1241984 32.1848141,42.9138838 C32.1613447,42.7035693 32.2544499,42.4971975 32.4276561,42.3756137 C32.6008623,42.2540298 32.8265918,42.2365924 33.0164162,42.3301324 L38.929748,44.9943172 C39.1789493,45.1063992 39.3159137,45.3774063 39.2583554,45.6445218 C39.200797,45.9116373 38.9643758,46.1021869 38.6911297,46.1016923 L38.685338,46.1016923 Z" id="Path"></path>
                    <path d="M37.3984209,48.95237 C37.3165551,48.95237 37.2356226,48.9349826 37.160961,48.901402 L29.9375453,45.6429882 C29.6500233,45.5093878 29.5233593,45.1694405 29.6533582,44.8802723 C29.7833571,44.5911041 30.1216958,44.460204 30.4124652,44.5865811 L37.6428309,47.8449948 C37.8920322,47.9570769 38.0289967,48.228084 37.9714383,48.4951995 C37.9138799,48.762315 37.6774587,48.9528645 37.4042126,48.95237 L37.3984209,48.95237 Z" id="Path"></path>
                    <path d="M32.83919,50.327321 C32.7573241,50.327321 32.6763917,50.3099336 32.60173,50.276353 L29.9618704,49.0844199 C29.7694866,49.0016216 29.6367941,48.8214068 29.6148477,48.613115 C29.5929013,48.4048232 29.6851207,48.2009109 29.8560236,48.0798353 C30.0269265,47.9587596 30.2498825,47.939387 30.439107,48.0291711 L33.0778083,49.2199458 C33.3270095,49.3320279 33.463974,49.603035 33.4064156,49.8701505 C33.3488573,50.137266 33.112436,50.3278155 32.83919,50.327321 L32.83919,50.327321 Z" id="Path"></path>
                </g>
            </g>
        </g>
    </g>
</svg>