<?xml version="1.0" encoding="UTF-8"?>
<svg width="54px" height="54px" viewBox="0 0 54 54" version="1.1" xmlns="http://www.w3.org/2000/svg" xmlns:xlink="http://www.w3.org/1999/xlink">
    <title>noun_risk_3606161</title>
    <defs>
        <filter color-interpolation-filters="auto" id="filter-1">
            <feColorMatrix in="SourceGraphic" type="matrix" values="0 0 0 0 1.000000 0 0 0 0 1.000000 0 0 0 0 1.000000 0 0 0 1.000000 0"></feColorMatrix>
        </filter>
    </defs>
    <g id="Symbols" stroke="none" stroke-width="1" fill="none" fill-rule="evenodd">
        <g id="schema_techno" transform="translate(-708.000000, -423.000000)">
            <g id="noun_risk_3606161" transform="translate(685.000000, 400.000000)" filter="url(#filter-1)">
                <g transform="translate(23.333333, 23.333333)" id="Group" fill="#000000" fill-rule="nonzero">
                    <path d="M46.3673469,15.0204082 L46.2585034,15.0204082 C45.9579403,15.0204082 45.7142857,14.7767536 45.7142857,14.4761905 C45.7142857,14.1756273 45.9579403,13.9319728 46.2585034,13.9319728 L46.3673469,13.9319728 C46.6679101,13.9319728 46.9115646,14.1756273 46.9115646,14.4761905 C46.9115646,14.7767536 46.6679101,15.0204082 46.3673469,15.0204082 L46.3673469,15.0204082 Z" id="Path"></path>
                    <path d="M7.29251701,15.0204082 L7.18367347,15.0204082 C6.88311034,15.0204082 6.63945578,14.7767536 6.63945578,14.4761905 C6.63945578,14.1756273 6.88311034,13.9319728 7.18367347,13.9319728 L7.29251701,13.9319728 C7.59308014,13.9319728 7.83673469,14.1756273 7.83673469,14.4761905 C7.83673469,14.7767536 7.59308014,15.0204082 7.29251701,15.0204082 Z" id="Path"></path>
                    <path d="M52.7891156,39.5102041 L38.8386395,39.5102041 C38.5380763,39.5102041 38.2944218,39.2665495 38.2944218,38.9659864 C38.2944218,38.6654233 38.5380763,38.4217687 38.8386395,38.4217687 L52.244898,38.4217687 L52.244898,1.08843537 L1.08843537,1.08843537 L1.08843537,38.4217687 L14.6198639,38.4217687 C14.9204271,38.4217687 15.1640816,38.6654233 15.1640816,38.9659864 C15.1640816,39.2665495 14.9204271,39.5102041 14.6198639,39.5102041 L0.544217687,39.5102041 C0.243654558,39.5102041 0,39.2665495 0,38.9659864 L0,0.544217687 C0,0.243654558 0.243654558,0 0.544217687,0 L52.7891156,0 C53.0896788,0 53.3333333,0.243654558 53.3333333,0.544217687 L53.3333333,38.9659864 C53.3333333,39.2665495 53.0896788,39.5102041 52.7891156,39.5102041 Z" id="Path"></path>
                    <path d="M52.7891156,28.952381 L32.6770068,28.952381 C32.3764437,28.952381 32.1327891,28.7087264 32.1327891,28.4081633 C32.1327891,28.1076001 32.3764437,27.8639456 32.6770068,27.8639456 L52.7891156,27.8639456 C53.0896788,27.8639456 53.3333333,28.1076001 53.3333333,28.4081633 C53.3333333,28.7087264 53.0896788,28.952381 52.7891156,28.952381 Z" id="Path"></path>
                    <path d="M20.7216327,28.952381 L0.544217687,28.952381 C0.243654558,28.952381 0,28.7087264 0,28.4081633 C0,28.1076001 0.243654558,27.8639456 0.544217687,27.8639456 L20.7216327,27.8639456 C21.0221958,27.8639456 21.2658503,28.1076001 21.2658503,28.4081633 C21.2658503,28.7087264 21.0221958,28.952381 20.7216327,28.952381 Z" id="Path"></path>
                    <path d="M52.7891156,32.5442177 L34.7613605,32.5442177 C34.4607974,32.5442177 34.2171429,32.3005631 34.2171429,32 C34.2171429,31.6994369 34.4607974,31.4557823 34.7613605,31.4557823 L52.7891156,31.4557823 C53.0896788,31.4557823 53.3333333,31.6994369 53.3333333,32 C53.3333333,32.3005631 53.0896788,32.5442177 52.7891156,32.5442177 Z" id="Path"></path>
                    <path d="M18.5991837,32.5442177 L0.544217687,32.5442177 C0.243654558,32.5442177 0,32.3005631 0,32 C0,31.6994369 0.243654558,31.4557823 0.544217687,31.4557823 L18.5991837,31.4557823 C18.8997468,31.4557823 19.1434014,31.6994369 19.1434014,32 C19.1434014,32.3005631 18.8997468,32.5442177 18.5991837,32.5442177 Z" id="Path"></path>
                    <path d="M52.7891156,36.0272109 L36.8097959,36.0272109 C36.5092328,36.0272109 36.2655782,35.7835563 36.2655782,35.4829932 C36.2655782,35.1824301 36.5092328,34.9387755 36.8097959,34.9387755 L52.7891156,34.9387755 C53.0896788,34.9387755 53.3333333,35.1824301 53.3333333,35.4829932 C53.3333333,35.7835563 53.0896788,36.0272109 52.7891156,36.0272109 Z" id="Path"></path>
                    <path d="M16.5028571,36.0272109 L0.544217687,36.0272109 C0.243654558,36.0272109 0,35.7835563 0,35.4829932 C0,35.1824301 0.243654558,34.9387755 0.544217687,34.9387755 L16.5028571,34.9387755 C16.8034203,34.9387755 17.0470748,35.1824301 17.0470748,35.4829932 C17.0470748,35.7835563 16.8034203,36.0272109 16.5028571,36.0272109 Z" id="Path"></path>
                    <path d="M26.8462585,18.8146939 C24.9469388,18.8146939 23.697415,17.8612245 23.654966,16.3722449 C23.6470435,16.0720562 23.8837672,15.8221812 24.1839456,15.8138776 L24.1991837,15.8138776 C24.4938951,15.813762 24.7351495,16.0482612 24.7434014,16.3428571 C24.7553741,16.7662585 24.9872109,17.7458503 26.8995918,17.7273469 C27.52,17.7197279 28.1273469,17.4780952 28.4473469,17.1102041 C28.6590329,16.8705849 28.751401,16.5482961 28.6987755,16.2329252 C28.647619,15.8432653 28.4386395,15.4557823 27.2609524,15.2620408 L26.9344218,15.2119728 C25.9896599,15.0672109 24.9186395,14.905034 24.1915646,13.8721088 C23.9026601,13.4698059 23.7916874,12.9664935 23.8846259,12.48 C24.0275079,11.8224575 24.4231143,11.2474209 24.9861224,10.8789116 C25.7980952,10.3346939 27.0421769,10.247619 28.0816327,10.6753741 C28.8344592,10.9795748 29.4312608,11.5767694 29.734966,12.3297959 C29.8440704,12.6099207 29.7054309,12.9254534 29.4253061,13.0345578 C29.1451813,13.1436622 28.8296486,13.0050228 28.7205442,12.724898 C28.5231886,12.2502288 28.1436317,11.8745929 27.6669388,11.6821769 C26.9616327,11.3915646 26.1104762,11.4318367 25.5989116,11.7801361 C25.2800481,11.9871294 25.0513857,12.3071791 24.9589116,12.6759184 C24.9184211,12.875176 24.9638709,13.0822693 25.0840816,13.2462585 C25.5444898,13.8993197 26.2312925,14.0027211 27.1020408,14.1355102 C27.2108844,14.1529252 27.3251701,14.1692517 27.4361905,14.1877551 C27.9651701,14.2748299 29.5760544,14.5393197 29.7763265,16.0936054 C29.8692704,16.7173144 29.6829532,17.3503153 29.2669388,17.8242177 C28.7455782,18.425034 27.8421769,18.8038095 26.9115646,18.8157823 L26.8462585,18.8146939 Z" id="Path"></path>
                    <path d="M26.8440816,11.4960544 L26.8440816,11.4960544 C26.5435185,11.4960544 26.2998639,11.2523999 26.2998639,10.9518367 L26.2998639,9.21034014 C26.2998639,8.90977701 26.5435185,8.66612245 26.8440816,8.66612245 L26.8440816,8.66612245 C27.1446448,8.66612245 27.3882993,8.90977701 27.3882993,9.21034014 L27.3882993,10.9518367 C27.3882993,11.2523999 27.1446448,11.4960544 26.8440816,11.4960544 Z" id="Path"></path>
                    <path d="M26.8310204,20.5311565 L26.8310204,20.5311565 C26.5304573,20.5311565 26.2868027,20.2875019 26.2868027,19.9869388 L26.2868027,18.2454422 C26.2868027,17.944879 26.5304573,17.7012245 26.8310204,17.7012245 L26.8310204,17.7012245 C27.1315835,17.7012245 27.3752381,17.944879 27.3752381,18.2454422 L27.3752381,19.9869388 C27.3752381,20.2875019 27.1315835,20.5311565 26.8310204,20.5311565 Z" id="Path"></path>
                    <path d="M44.0816327,25.5651701 L44.0816327,25.5651701 L30.7156463,25.5444898 C30.4150831,25.5444898 30.1714286,25.3008352 30.1714286,25.0002721 C30.1714286,24.699709 30.4150831,24.4560544 30.7156463,24.4560544 L30.7156463,24.4560544 L43.5591837,24.4756463 C43.8245696,21.6892031 46.0345677,19.4856042 48.8217687,19.2282993 L48.8359184,9.92544218 C46.0514371,9.65590287 43.8500353,7.4481083 43.5885714,4.66285714 L9.9047619,4.61278912 C9.63523188,7.39667195 7.42791817,9.59759296 4.64326531,9.85904762 L4.62911565,19.1629932 C7.41319429,19.4321091 9.6143342,21.6396423 9.87537415,24.4244898 L22.7352381,24.4440816 C23.0358012,24.4440816 23.2794558,24.6877362 23.2794558,24.9882993 C23.2794558,25.2888624 23.0358012,25.532517 22.7352381,25.532517 L22.7352381,25.532517 L9.3507483,25.5129252 C9.05018517,25.5129252 8.80653061,25.2692706 8.80653061,24.9687075 C8.8071391,22.3544452 6.69153291,20.2329962 4.07727891,20.2263946 C3.77671578,20.2263946 3.53306122,19.98274 3.53306122,19.6821769 L3.54829932,9.34204082 C3.54829932,9.04147769 3.79195388,8.79782313 4.09251701,8.79782313 C4.09539511,8.79835529 4.09834639,8.79835529 4.10122449,8.79782313 C6.7147058,8.79662601 8.83389377,6.67987277 8.83809524,4.06639456 C8.83809524,3.76583143 9.0817498,3.52217687 9.38231293,3.52217687 L9.38231293,3.52217687 L44.1088435,3.57442177 C44.4094067,3.57442177 44.6530612,3.81807633 44.6530612,4.11863946 C44.651851,6.73290278 46.7669708,8.85483927 49.3812245,8.86204082 C49.6817876,8.86204082 49.9254422,9.10569537 49.9254422,9.4062585 L49.9091156,19.7463946 C49.9091156,20.0469577 49.6654611,20.2906122 49.364898,20.2906122 L49.3572789,20.2906122 C46.7456024,20.2930115 44.6288505,22.4092765 44.6258503,25.0209524 C44.6258503,25.3215155 44.3821958,25.5651701 44.0816327,25.5651701 L44.0816327,25.5651701 Z" id="Path"></path>
                    <path d="M24.3863946,22.9115646 C24.3336905,22.9113732 24.2812822,22.9036769 24.2307483,22.8887075 C22.455173,22.3516403 20.8955067,21.2656278 19.7757823,19.7866667 C17.493824,16.7572521 17.435223,12.5992283 19.6309021,9.50670837 C21.8265811,6.4141884 25.7714287,5.09859998 29.3838211,6.25415504 C32.9962135,7.4097101 35.4451273,10.7705756 35.4383297,14.5632844 C35.4315037,18.3559931 32.9705335,21.7080404 29.3540136,22.8506122 C29.1685271,22.9089413 28.9660124,22.8638838 28.8227547,22.7324123 C28.679497,22.6009409 28.6172606,22.4030292 28.6594894,22.2132286 C28.7017181,22.0234281 28.8419965,21.870574 29.027483,21.8122449 C32.6182441,20.6856866 34.8485905,17.1062091 34.2775335,13.386452 C33.7064764,9.66669495 30.505104,6.92109492 26.7417687,6.92353741 L26.7297959,6.92353741 C22.9421612,6.91482779 19.7232405,9.68978005 19.1738136,13.4373636 C18.6243866,17.1849472 20.9113028,20.7671009 24.5420408,21.8459864 C24.8007219,21.9234198 24.9635076,22.1788182 24.9244804,22.4460049 C24.8854531,22.7131916 24.6564164,22.9113575 24.3863946,22.9115646 L24.3863946,22.9115646 Z" id="Path"></path>
                    <path d="M48.8141497,26.8234014 L48.8141497,26.8234014 C47.3413903,26.8234014 46.147483,25.629494 46.147483,24.1567347 C46.147483,22.6839754 47.3413903,21.490068 48.8141497,21.490068 L48.8141497,21.490068 C50.2869089,21.490068 51.4808162,22.6839754 51.4808162,24.1567347 C51.4808162,25.629494 50.2869089,26.8234014 48.8141497,26.8234014 L48.8141497,26.8234014 Z M48.8141497,22.5785034 C47.9425166,22.5785034 47.2359184,23.2851016 47.2359184,24.1567347 C47.2359184,25.0283678 47.9425166,25.7349664 48.8141497,25.7349664 L48.8141497,25.7349664 C49.6838417,25.7355755 50.3903624,25.0329474 50.3945612,24.1632653 C50.3954247,23.7446041 50.2297941,23.3427774 49.9341639,23.0463305 C49.6385337,22.7498836 49.2371654,22.5831452 48.8185034,22.5828571 L48.8141497,22.5785034 Z" id="Shape"></path>
                    <path d="M48.8435374,7.33714286 L48.8435374,7.33714286 C47.7640816,7.33713557 46.7911041,6.68635808 46.3789354,5.68868987 C45.9667666,4.69102167 46.1967165,3.54327628 46.9614103,2.78139155 C47.7261041,2.01950683 48.874688,1.79378246 49.8708325,2.20962007 C50.8669771,2.62545769 51.5141694,3.60082354 51.510227,4.68027211 C51.5131482,5.38827518 51.2322259,6.06792559 50.73026,6.56723235 C50.2282941,7.06653911 49.5471611,7.34384754 48.8391837,7.33714286 L48.8435374,7.33714286 Z M48.8435374,3.0922449 C47.9719043,3.0922449 47.2653061,3.79884312 47.2653061,4.67047619 C47.2653061,5.54210927 47.9719043,6.24870748 48.8435374,6.24870748 L48.8435374,6.24870748 C49.7151705,6.24870748 50.4217687,5.54210927 50.4217687,4.67047619 C50.4217687,3.79884312 49.7151705,3.0922449 48.8435374,3.0922449 Z" id="Shape"></path>
                    <path d="M4.61714286,26.7570068 L4.61714286,26.7570068 C3.14438352,26.7570068 1.95047619,25.5630995 1.95047619,24.0903401 C1.95047619,22.6175808 3.14438352,21.4236735 4.61714286,21.4236735 L4.61714286,21.4236735 C5.32438712,21.4248272 6.00220607,21.7068859 6.5014868,22.2077996 C7.00076753,22.7087133 7.28061141,23.3874496 7.27945935,24.0946939 L7.27945935,24.0946939 C7.27705405,25.5657527 6.08384988,26.7570068 4.61278912,26.7570068 L4.61714286,26.7570068 Z M4.61714286,22.5121088 C3.74550978,22.5121088 3.03891156,23.2187071 3.03891156,24.0903401 C3.03891156,24.9619732 3.74550978,25.6685714 4.61714286,25.6685714 L4.61714286,25.6685714 C5.48877593,25.6685714 6.19537415,24.9619732 6.19537415,24.0903401 C6.19537415,23.2187071 5.48877593,22.5121088 4.61714286,22.5121088 Z" id="Shape"></path>
                    <path d="M4.64653061,7.27183673 L4.64653061,7.27183673 C3.20343321,7.23060117 2.05497376,6.04885649 2.05497376,4.60517007 C2.05497376,3.16148365 3.20343321,1.97973896 4.64653061,1.9385034 L4.64653061,1.9385034 C5.3543407,1.9385034 6.03311312,2.21990263 6.5333041,2.72070609 C7.03349507,3.22150955 7.31406399,3.90062582 7.31319928,4.60843537 L7.31319928,4.60843537 C7.31139546,6.07991936 6.11801571,7.27183673 4.64653061,7.27183673 L4.64653061,7.27183673 Z M4.64653061,3.02693878 C3.79769418,3.0584692 3.12583503,3.75574823 3.12583503,4.60517007 C3.12583503,5.45459191 3.79769418,6.15187093 4.64653061,6.18340136 L4.64653061,6.18340136 C5.49536705,6.15187093 6.1672262,5.45459191 6.1672262,4.60517007 C6.1672262,3.75574823 5.49536705,3.0584692 4.64653061,3.02693878 L4.64653061,3.02693878 Z" id="Shape"></path>
                    <path d="M18.5654422,15.0759184 L18.5654422,15.0759184 L9.42258503,15.0617687 C9.1220219,15.0617687 8.87836735,14.8181141 8.87836735,14.517551 C8.87836735,14.2169879 9.1220219,13.9733333 9.42258503,13.9733333 L9.42258503,13.9733333 L18.5654422,13.987483 C18.8660053,13.987483 19.1096599,14.2311376 19.1096599,14.5317007 C19.1096599,14.8322638 18.8660053,15.0759184 18.5654422,15.0759184 L18.5654422,15.0759184 Z" id="Path"></path>
                    <path d="M19.2239456,11.4840816 L19.2239456,11.4840816 L11.2783673,11.4721088 C10.9778042,11.4721088 10.7341497,11.2284543 10.7341497,10.9278912 C10.7341497,10.627328 10.9778042,10.3836735 11.2783673,10.3836735 L11.2783673,10.3836735 L19.2239456,10.3956463 C19.5245087,10.3956463 19.7681633,10.6393008 19.7681633,10.9398639 C19.7681633,11.2404271 19.5245087,11.4840816 19.2239456,11.4840816 L19.2239456,11.4840816 Z" id="Path"></path>
                    <path d="M19.2130612,18.56 L19.2130612,18.56 L11.267483,18.5480272 C10.9669199,18.5480272 10.7232653,18.3043727 10.7232653,18.0038095 C10.7232653,17.7032464 10.9669199,17.4595918 11.267483,17.4595918 L11.267483,17.4595918 L19.2130612,17.4715646 C19.5136244,17.4715646 19.7572789,17.7152192 19.7572789,18.0157823 C19.7572789,18.3163454 19.5136244,18.56 19.2130612,18.56 L19.2130612,18.56 Z" id="Path"></path>
                    <path d="M44.1480272,15.0051701 L44.1480272,15.0051701 L35.0051701,14.9921088 C34.7046069,14.9921088 34.4609524,14.7484543 34.4609524,14.4478912 C34.4609524,14.147328 34.7046069,13.9036735 35.0051701,13.9036735 L35.0051701,13.9036735 L44.1480272,13.9167347 C44.4485903,13.9167347 44.6922449,14.1603893 44.6922449,14.4609524 C44.6922449,14.7615155 44.4485903,15.0051701 44.1480272,15.0051701 Z" id="Path"></path>
                    <path d="M42.2922449,18.5948299 L42.2922449,18.5948299 L34.3466667,18.5828571 C34.0461035,18.5828571 33.802449,18.3392026 33.802449,18.0386395 C33.802449,17.7380763 34.0461035,17.4944218 34.3466667,17.4944218 L34.3466667,17.4944218 L42.2922449,17.5063946 C42.592808,17.5063946 42.8364626,17.7500491 42.8364626,18.0506122 C42.8364626,18.3511754 42.592808,18.5948299 42.2922449,18.5948299 L42.2922449,18.5948299 Z" id="Path"></path>
                    <path d="M42.3020408,11.5189116 L42.3020408,11.5189116 L34.3564626,11.5069388 C34.0558995,11.5069388 33.8122449,11.2632842 33.8122449,10.9627211 C33.8122449,10.662158 34.0558995,10.4185034 34.3564626,10.4185034 L34.3564626,10.4185034 L42.3020408,10.4304762 C42.6026039,10.4304762 42.8462585,10.6741307 42.8462585,10.9746939 C42.8462585,11.275257 42.6026039,11.5189116 42.3020408,11.5189116 L42.3020408,11.5189116 Z" id="Path"></path>
                    <path d="M26.7755102,42.9931973 C25.5732577,42.9931973 24.5986395,42.018579 24.5986395,40.8163265 L24.5986395,31.8911565 C24.5986395,30.6889039 25.5732577,29.7142857 26.7755102,29.7142857 C27.9777627,29.7142857 28.952381,30.6889039 28.952381,31.8911565 L28.952381,40.8163265 C28.952381,42.018579 27.9777627,42.9931973 26.7755102,42.9931973 Z M26.7755102,30.8027211 C26.1743839,30.8027211 25.6870748,31.2900302 25.6870748,31.8911565 L25.6870748,40.8163265 C25.6870748,41.4174528 26.1743839,41.9047619 26.7755102,41.9047619 C27.3766365,41.9047619 27.8639456,41.4174528 27.8639456,40.8163265 L27.8639456,31.8911565 C27.8639456,31.2900302 27.3766365,30.8027211 26.7755102,30.8027211 Z" id="Shape"></path>
                    <path d="M26.7635374,49.0307786 C25.4305781,49.0145646 24.3615672,47.9237279 24.3723237,46.5907138 C24.3830802,45.2576996 25.4695555,44.1842563 26.8026024,44.1895657 C28.1356493,44.1949147 29.2135072,45.2770105 29.2136054,46.610068 C29.2040187,47.9544676 28.1079548,49.0373846 26.7635374,49.0307786 L26.7635374,49.0307786 Z M26.7635374,45.2789116 C26.0316606,45.29506 25.4499223,45.8987062 25.4608283,46.6306799 C25.4717344,47.3626535 26.0711986,47.9487005 26.8032316,47.9430373 C27.5352646,47.9373742 28.12559,47.3421228 28.1251703,46.610068 C28.1156086,45.8669652 27.5066663,45.2716523 26.7635374,45.2789116 L26.7635374,45.2789116 Z" id="Shape"></path>
                    <path d="M41.1570068,53.3333333 C41.0938776,53.3333333 41.0481633,53.3333333 41.0209524,53.3333333 L11.4155102,53.3333333 C11.1738776,53.3453061 9.32680272,53.3779592 8.46911565,51.7170068 C7.63755102,50.1061224 8.66938776,48.5246259 8.85442177,48.2634014 L15.2446259,36.7129252 L17.6217687,32.6857143 L23.6451701,22.6394558 L23.6560544,22.6242177 C23.705034,22.5534694 24.8881633,20.9001361 26.8005442,20.9001361 C28.9327891,20.9001361 29.9145578,22.5567347 29.995102,22.7004082 L44.362449,47.5918367 C44.5082993,47.8171429 45.7697959,49.877551 44.5268027,51.6712925 C43.4655782,53.2092517 41.6968707,53.3333333 41.1570068,53.3333333 Z M11.3828571,52.244898 L41.0731973,52.244898 C41.1395918,52.244898 42.7515646,52.3308844 43.6353741,51.047619 C44.5191837,49.7643537 43.4612245,48.1904762 43.4503401,48.1741497 L43.4318367,48.1436735 L29.044898,23.2293878 C28.5612671,22.4556637 27.7129846,21.9858584 26.8005442,21.9863941 C25.5346939,21.9863941 24.6552381,23.1020408 24.555102,23.2359184 L18.5578231,33.2386395 L16.1872109,37.2560544 L9.77306122,48.8489796 L9.75020408,48.8794558 C9.74258503,48.8892517 8.86312925,50.1006803 9.43782313,51.2141497 C10.012517,52.327619 11.3502041,52.244898 11.3643537,52.2438095 L11.3828571,52.244898 Z" id="Shape"></path>
                </g>
            </g>
        </g>
    </g>
</svg>