<?xml version="1.0" encoding="UTF-8"?>
<svg width="54px" height="52px" viewBox="0 0 54 52" version="1.1" xmlns="http://www.w3.org/2000/svg" xmlns:xlink="http://www.w3.org/1999/xlink">
    <title>noun_Bank_3606137 Copy</title>
    <defs>
        <filter color-interpolation-filters="auto" id="filter-1">
            <feColorMatrix in="SourceGraphic" type="matrix" values="0 0 0 0 1.000000 0 0 0 0 1.000000 0 0 0 0 1.000000 0 0 0 1.000000 0"></feColorMatrix>
        </filter>
    </defs>
    <g id="Symbols" stroke="none" stroke-width="1" fill="none" fill-rule="evenodd">
        <g id="schema_techno" transform="translate(-458.000000, -24.000000)">
            <g id="noun_Bank_3606137-Copy" transform="translate(435.000000, 0.000000)" filter="url(#filter-1)">
                <g transform="translate(23.333333, 24.444444)">
                    <g id="Group" transform="translate(0.000000, -0.000000)" fill="#000000" fill-rule="nonzero">
                        <path d="M50.9485095,51.1111111 C50.6491682,51.1111111 50.4065041,50.8681894 50.4065041,50.5685303 L50.4065041,47.638594 L2.81842818,47.638594 L2.81842818,50.5685303 C2.81842818,50.8681894 2.57576409,51.1111111 2.27642276,51.1111111 C1.97708144,51.1111111 1.73441734,50.8681894 1.73441734,50.5685303 L1.73441734,47.0960132 C1.73441734,46.7963541 1.97708144,46.5534324 2.27642276,46.5534324 L50.9485095,46.5534324 C51.2478508,46.5534324 51.4905149,46.7963541 51.4905149,47.0960132 L51.4905149,50.5685303 C51.4905149,50.8681894 51.2478508,51.1111111 50.9485095,51.1111111 L50.9485095,51.1111111 Z" id="Path"></path>
                        <path d="M49.2140921,47.5300778 C48.9147508,47.5300778 48.6720867,47.2871562 48.6720867,46.9874971 L48.6720867,44.0575607 L4.44444444,44.0575607 L4.44444444,46.9874971 C4.44444444,47.2871562 4.20178035,47.5300778 3.90243902,47.5300778 C3.6030977,47.5300778 3.3604336,47.2871562 3.3604336,46.9874971 L3.3604336,43.5149799 C3.3604336,43.2153208 3.6030977,42.9723992 3.90243902,42.9723992 L49.2140921,42.9723992 C49.5134335,42.9723992 49.7560976,43.2153208 49.7560976,43.5149799 L49.7560976,46.9874971 C49.7560976,47.2871562 49.5134335,47.5300778 49.2140921,47.5300778 Z" id="Path"></path>
                        <path d="M38.2655827,51.1111111 C37.9662413,51.1111111 37.7235772,50.8681894 37.7235772,50.5685303 L37.7235772,47.638594 L15.8265583,47.638594 L15.8265583,50.5685303 C15.8265583,50.8681894 15.5838942,51.1111111 15.2845528,51.1111111 C14.9852115,51.1111111 14.7425474,50.8681894 14.7425474,50.5685303 L14.7425474,47.0960132 C14.7425474,46.7963541 14.9852115,46.5534324 15.2845528,46.5534324 L38.2655827,46.5534324 C38.564924,46.5534324 38.8075881,46.7963541 38.8075881,47.0960132 L38.8075881,50.5685303 C38.8075881,50.8681894 38.564924,51.1111111 38.2655827,51.1111111 L38.2655827,51.1111111 Z" id="Path"></path>
                        <path d="M36.4227642,47.5300778 C36.1234229,47.5300778 35.8807588,47.2871562 35.8807588,46.9874971 L35.8807588,44.0575607 L17.6693767,44.0575607 L17.6693767,46.9874971 C17.6693767,47.2871562 17.4267126,47.5300778 17.1273713,47.5300778 C16.8280299,47.5300778 16.5853659,47.2871562 16.5853659,46.9874971 L16.5853659,43.5149799 C16.5853659,43.2153208 16.8280299,42.9723992 17.1273713,42.9723992 L36.4227642,42.9723992 C36.7221056,42.9723992 36.9647696,43.2153208 36.9647696,43.5149799 L36.9647696,46.9874971 C36.9647696,47.2871562 36.7221056,47.5300778 36.4227642,47.5300778 Z" id="Path"></path>
                        <path d="M52.6829268,51.1111111 L0.54200542,51.1111111 C0.242664092,51.1111111 0,50.8681894 0,50.5685303 C0,50.2688712 0.242664092,50.0259495 0.54200542,50.0259495 L52.6829268,50.0259495 C52.9822682,50.0259495 53.2249322,50.2688712 53.2249322,50.5685303 C53.2249322,50.8681894 52.9822682,51.1111111 52.6829268,51.1111111 L52.6829268,51.1111111 Z" id="Path"></path>
                        <path d="M14.0921409,44.0575607 C13.7927996,44.0575607 13.5501355,43.814639 13.5501355,43.5149799 L13.5501355,40.9105921 L6.72086721,40.9105921 L6.72086721,43.5149799 C6.72086721,43.814639 6.47820312,44.0575607 6.17886179,44.0575607 C5.87952046,44.0575607 5.63685637,43.814639 5.63685637,43.5149799 L5.63685637,40.3680113 C5.63685637,40.0683522 5.87952046,39.8254305 6.17886179,39.8254305 L14.0921409,39.8254305 C14.3914822,39.8254305 14.6341463,40.0683522 14.6341463,40.3680113 L14.6341463,43.5149799 C14.6341463,43.814639 14.3914822,44.0575607 14.0921409,44.0575607 L14.0921409,44.0575607 Z" id="Path"></path>
                        <path d="M25.2574526,44.0575607 C24.9581112,44.0575607 24.7154472,43.814639 24.7154472,43.5149799 L24.7154472,40.9105921 L17.8861789,40.9105921 L17.8861789,43.5149799 C17.8861789,43.814639 17.6435148,44.0575607 17.3441734,44.0575607 C17.0448321,44.0575607 16.802168,43.814639 16.802168,43.5149799 L16.802168,40.3680113 C16.802168,40.0683522 17.0448321,39.8254305 17.3441734,39.8254305 L25.2574526,39.8254305 C25.5567939,39.8254305 25.799458,40.0683522 25.799458,40.3680113 L25.799458,43.5149799 C25.799458,43.6588813 25.742354,43.7968889 25.6407083,43.8986425 C25.5390625,44.0003961 25.4012013,44.0575607 25.2574526,44.0575607 L25.2574526,44.0575607 Z" id="Path"></path>
                        <path d="M18.2113821,40.9105921 C17.9120408,40.9105921 17.6693767,40.6676704 17.6693767,40.3680113 L17.6693767,26.5864591 C17.6693767,26.2868 17.9120408,26.0438783 18.2113821,26.0438783 C18.5107234,26.0438783 18.7533875,26.2868 18.7533875,26.5864591 L18.7533875,40.3680113 C18.7533875,40.6676704 18.5107234,40.9105921 18.2113821,40.9105921 L18.2113821,40.9105921 Z" id="Path"></path>
                        <path d="M24.498645,40.9105921 C24.1993037,40.9105921 23.9566396,40.6676704 23.9566396,40.3680113 L23.9566396,31.0356216 C23.9566396,30.7359625 24.1993037,30.4930408 24.498645,30.4930408 C24.7979863,30.4930408 25.0406504,30.7359625 25.0406504,31.0356216 L25.0406504,40.3680113 C25.0406504,40.6676704 24.7979863,40.9105921 24.498645,40.9105921 L24.498645,40.9105921 Z" id="Path"></path>
                        <path d="M36.2059621,44.0575607 C35.9066207,44.0575607 35.6639566,43.814639 35.6639566,43.5149799 L35.6639566,40.9105921 L28.8346883,40.9105921 L28.8346883,43.5149799 C28.8346883,43.814639 28.5920243,44.0575607 28.2926829,44.0575607 C27.9933416,44.0575607 27.7506775,43.814639 27.7506775,43.5149799 L27.7506775,40.3680113 C27.7506775,40.0683522 27.9933416,39.8254305 28.2926829,39.8254305 L36.2059621,39.8254305 C36.5053034,39.8254305 36.7479675,40.0683522 36.7479675,40.3680113 L36.7479675,43.5149799 C36.7479675,43.814639 36.5053034,44.0575607 36.2059621,44.0575607 L36.2059621,44.0575607 Z" id="Path"></path>
                        <path d="M29.1598916,40.9105921 C28.8605503,40.9105921 28.6178862,40.6676704 28.6178862,40.3680113 L28.6178862,31.0356216 C28.6178862,30.7359625 28.8605503,30.4930408 29.1598916,30.4930408 C29.4592329,30.4930408 29.701897,30.7359625 29.701897,31.0356216 L29.701897,40.3680113 C29.701897,40.6676704 29.4592329,40.9105921 29.1598916,40.9105921 L29.1598916,40.9105921 Z" id="Path"></path>
                        <path d="M35.4471545,40.9105921 C35.1478131,40.9105921 34.9051491,40.6676704 34.9051491,40.3680113 L34.9051491,26.8034914 C34.9051491,26.5038323 35.1478131,26.2609106 35.4471545,26.2609106 C35.7464958,26.2609106 35.9891599,26.5038323 35.9891599,26.8034914 L35.9891599,40.3680113 C35.9891599,40.6676704 35.7464958,40.9105921 35.4471545,40.9105921 L35.4471545,40.9105921 Z" id="Path"></path>
                        <path d="M47.1544715,44.0575607 C46.8551302,44.0575607 46.6124661,43.814639 46.6124661,43.5149799 L46.6124661,40.9105921 L39.7831978,40.9105921 L39.7831978,43.5149799 C39.7831978,43.814639 39.5405337,44.0575607 39.2411924,44.0575607 C38.9418511,44.0575607 38.699187,43.814639 38.699187,43.5149799 L38.699187,40.3680113 C38.699187,40.0683522 38.9418511,39.8254305 39.2411924,39.8254305 L47.1544715,39.8254305 C47.4538129,39.8254305 47.696477,40.0683522 47.696477,40.3680113 L47.696477,43.5149799 C47.696477,43.6588813 47.639373,43.7968889 47.5377273,43.8986425 C47.4360815,44.0003961 47.2982203,44.0575607 47.1544715,44.0575607 L47.1544715,44.0575607 Z" id="Path"></path>
                        <path d="M2.49322493,21.6088228 C2.1938836,21.6088228 1.95121951,21.3659011 1.95121951,21.066242 L1.95121951,17.2833687 C1.95193958,17.093402 2.05185333,16.917647 2.21463415,16.8200047 L26.4151762,2.32875678 C26.586147,2.22674106 26.7992188,2.22674106 26.9701897,2.32875678 L51.4417344,16.8200047 C51.6063412,16.9177042 51.7073171,17.0950567 51.7073171,17.2866242 L51.7073171,21.0521349 C51.7073171,21.351794 51.464653,21.5947157 51.1653117,21.5947157 L37.1208672,21.5947157 L37.1208672,21.5947157 C36.8215259,21.5947157 36.5788618,21.351794 36.5788618,21.0521349 C36.5788618,20.7524758 36.8215259,20.5095541 37.1208672,20.5095541 L50.6233062,20.5095541 L50.6233062,17.5926398 L26.6948509,3.42585515 L3.03523035,17.5904695 L3.03523035,20.5204058 L16.6460705,20.5204058 C16.9454118,20.5204058 17.1880759,20.7633275 17.1880759,21.0629866 C17.1880759,21.3626457 16.9454118,21.6055674 16.6460705,21.6055674 L2.49322493,21.6088228 Z" id="Path"></path>
                        <path d="M14.0921409,24.7416844 L6.17886179,24.7416844 C5.87952046,24.7416844 5.63685637,24.4987627 5.63685637,24.1991036 L5.63685637,21.0521349 C5.63685637,20.7524758 5.87952046,20.5095541 6.17886179,20.5095541 C6.47820312,20.5095541 6.72086721,20.7524758 6.72086721,21.0521349 L6.72086721,23.6565228 L13.5501355,23.6565228 L13.5501355,21.0521349 C13.5501355,20.7524758 13.7927996,20.5095541 14.0921409,20.5095541 C14.3914822,20.5095541 14.6341463,20.7524758 14.6341463,21.0521349 L14.6341463,24.1991036 C14.6341463,24.4987627 14.3914822,24.7416844 14.0921409,24.7416844 Z" id="Path"></path>
                        <path d="M47.1544715,24.7416844 L39.2411924,24.7416844 C38.9418511,24.7416844 38.699187,24.4987627 38.699187,24.1991036 L38.699187,21.0521349 C38.699187,20.7524758 38.9418511,20.5095541 39.2411924,20.5095541 C39.5405337,20.5095541 39.7831978,20.7524758 39.7831978,21.0521349 L39.7831978,23.6565228 L46.6124661,23.6565228 L46.6124661,21.0521349 C46.6124661,20.7524758 46.8551302,20.5095541 47.1544715,20.5095541 C47.4538129,20.5095541 47.696477,20.7524758 47.696477,21.0521349 L47.696477,24.1991036 C47.696477,24.3430049 47.639373,24.4810125 47.5377273,24.5827661 C47.4360815,24.6845198 47.2982203,24.7416844 47.1544715,24.7416844 Z" id="Path"></path>
                        <path d="M6.93766938,40.9105921 C6.63832805,40.9105921 6.39566396,40.6676704 6.39566396,40.3680113 L6.39566396,24.1991036 C6.39566396,23.8994445 6.63832805,23.6565228 6.93766938,23.6565228 C7.2370107,23.6565228 7.4796748,23.8994445 7.4796748,24.1991036 L7.4796748,40.3680113 C7.4796748,40.6676704 7.2370107,40.9105921 6.93766938,40.9105921 L6.93766938,40.9105921 Z" id="Path"></path>
                        <path d="M13.2249322,40.9105921 C12.9255909,40.9105921 12.6829268,40.6676704 12.6829268,40.3680113 L12.6829268,24.1991036 C12.6829268,23.8994445 12.9255909,23.6565228 13.2249322,23.6565228 C13.5242736,23.6565228 13.7669377,23.8994445 13.7669377,24.1991036 L13.7669377,40.3680113 C13.7669377,40.6676704 13.5242736,40.9105921 13.2249322,40.9105921 L13.2249322,40.9105921 Z" id="Path"></path>
                        <path d="M46.395664,40.9105921 C46.0963226,40.9105921 45.8536585,40.6676704 45.8536585,40.3680113 L45.8536585,24.1991036 C45.8536585,23.8994445 46.0963226,23.6565228 46.395664,23.6565228 C46.6950053,23.6565228 46.9376694,23.8994445 46.9376694,24.1991036 L46.9376694,40.3680113 C46.9376694,40.6676704 46.6950053,40.9105921 46.395664,40.9105921 L46.395664,40.9105921 Z" id="Path"></path>
                        <path d="M40.1084011,40.9105921 C39.8090598,40.9105921 39.5663957,40.6676704 39.5663957,40.3680113 L39.5663957,24.1991036 C39.5663957,23.8994445 39.8090598,23.6565228 40.1084011,23.6565228 C40.4077424,23.6565228 40.6504065,23.8994445 40.6504065,24.1991036 L40.6504065,40.3680113 C40.6504065,40.6676704 40.4077424,40.9105921 40.1084011,40.9105921 L40.1084011,40.9105921 Z" id="Path"></path>
                        <path d="M26.8563686,24.9706535 C25.0818428,24.9706535 23.9132791,24.0764803 23.8720867,22.677707 C23.8662775,22.4838616 23.9642152,22.3016385 24.1290077,22.1996795 C24.2938002,22.0977205 24.5004115,22.0915156 24.6710131,22.1834021 C24.8416148,22.2752886 24.9502884,22.4513067 24.9560976,22.6451522 C24.9897019,23.7867422 26.3338753,23.893088 26.9073171,23.8854919 C27.4807588,23.8778957 28.0195122,23.6576079 28.3078591,23.3255485 C28.4937258,23.1109485 28.5733349,22.8240514 28.5246612,22.5442321 C28.4726287,22.1448927 28.2319783,21.8453881 27.2238482,21.6815287 L26.9268293,21.6348667 C26.0455285,21.502477 25.0460705,21.3516395 24.3631436,20.3836754 C24.0893308,20.0032742 23.9838808,19.526872 24.0715447,19.0662892 C24.2050609,18.4476622 24.5755725,17.9061099 25.103523,17.5579146 C25.8623306,17.0413777 27.0287263,16.9621609 28.001084,17.3615004 C28.7076124,17.6456164 29.2680917,18.2055152 29.5533875,18.9121963 C29.6528001,19.1887332 29.5141953,19.4942329 29.2407641,19.6012519 C28.9673328,19.7082708 28.6584924,19.5778978 28.5441734,19.3071951 C28.3650745,18.8779798 28.0214226,18.5386542 27.5902439,18.3652748 C26.9495935,18.1026657 26.1810298,18.1395612 25.7127371,18.4553432 C25.4267755,18.6412485 25.2215588,18.9284692 25.1382114,19.259448 C25.1022782,19.4333533 25.1416706,19.6143562 25.2466125,19.7575372 C25.6422764,20.3185657 26.203794,20.4292522 27.0894309,20.5616419 C27.1924119,20.5779193 27.296477,20.5931116 27.399458,20.6104742 C27.895935,20.6907761 29.4059621,20.9360226 29.597832,22.4042463 C29.6849295,22.9907719 29.5101242,23.5859789 29.1197832,24.0319887 C28.6243902,24.6060392 27.799458,24.9554612 26.9149051,24.967398 L26.8563686,24.9706535 Z" id="Path"></path>
                        <path d="M26.8552846,18.1384761 C26.5559432,18.1384761 26.3132791,17.8955544 26.3132791,17.5958953 L26.3132791,16.0603916 C26.3132791,15.7607325 26.5559432,15.5178108 26.8552846,15.5178108 C27.1546259,15.5178108 27.39729,15.7607325 27.39729,16.0603916 L27.39729,17.5958953 C27.39729,17.8955544 27.1546259,18.1384761 26.8552846,18.1384761 L26.8552846,18.1384761 Z" id="Path"></path>
                        <path d="M26.8552846,26.5864591 C26.5559432,26.5864591 26.3132791,26.3435374 26.3132791,26.0438783 L26.3132791,24.4226469 C26.3132791,24.1229878 26.5559432,23.8800661 26.8552846,23.8800661 C27.1546259,23.8800661 27.39729,24.1229878 27.39729,24.4226469 L27.39729,26.0438783 C27.39729,26.3435374 27.1546259,26.5864591 26.8552846,26.5864591 Z" id="Path"></path>
                        <path d="M26.8834688,31.8364709 C20.9301685,31.8364709 16.104065,27.0052441 16.104065,21.045624 C16.104065,15.0860038 20.9301685,10.2547771 26.8834688,10.2547771 C32.8367692,10.2547771 37.6628726,15.0860038 37.6628726,21.045624 C37.656301,27.0025171 32.834045,31.8298923 26.8834688,31.8364709 Z M26.8834688,11.3399387 C21.5288512,11.3399387 17.1880759,15.685322 17.1880759,21.045624 C17.1880759,26.4059259 21.5288512,30.7513093 26.8834688,30.7513093 C32.2380865,30.7513093 36.5788618,26.4059259 36.5788618,21.045624 C36.5728877,15.6878011 32.23561,11.3459191 26.8834688,11.3399387 Z" id="Shape"></path>
                        <path d="M26.8834688,28.8522765 C23.729321,28.8522765 20.8857508,26.9502467 19.6787107,24.0331005 C18.4716706,21.1159544 19.1388664,17.758174 21.3691857,15.525487 C23.599505,13.2928001 26.9537247,12.624896 29.8677774,13.8332175 C32.78183,15.041539 34.6818428,17.8881278 34.6818428,21.045624 C34.6782564,25.3556311 31.1889055,28.8486863 26.8834688,28.8522765 Z M26.8834688,14.3241331 C23.1752285,14.3241331 20.1691057,17.333447 20.1691057,21.045624 C20.1691057,24.7578009 23.1752285,27.7671149 26.8834688,27.7671149 C30.5917092,27.7671149 33.597832,24.7578009 33.597832,21.045624 C33.5942465,17.3349348 30.590223,14.3277223 26.8834688,14.3241331 Z" id="Shape"></path>
                        <path d="M46.504065,6.31564048 L40.4336043,6.31564048 C40.134263,6.31564048 39.8915989,6.07271878 39.8915989,5.77305968 L39.8915989,0.542580797 C39.8915989,0.242921697 40.134263,0 40.4336043,0 L46.504065,0 C46.8034064,0 47.0460705,0.242921697 47.0460705,0.542580797 L47.0460705,5.77305968 C47.0460705,6.07271878 46.8034064,6.31564048 46.504065,6.31564048 L46.504065,6.31564048 Z M40.9756098,5.23047889 L45.9620596,5.23047889 L45.9620596,1.08516159 L40.9756098,1.08516159 L40.9756098,5.23047889 Z" id="Shape"></path>
                        <path d="M52.5745257,8.11266808 L46.504065,8.11266808 C46.2047237,8.11266808 45.9620596,7.86974638 45.9620596,7.57008728 L45.9620596,2.3396084 C45.9620596,2.0399493 46.2047237,1.7970276 46.504065,1.7970276 L52.5745257,1.7970276 C52.758801,1.7970276 52.9304265,1.89085239 53.0301523,2.04597541 C53.1298781,2.20109843 53.1440406,2.39631727 53.0677507,2.56423685 L51.9783198,4.95159236 L53.0677507,7.33894787 C53.1445337,7.50697161 53.1306232,7.70256186 53.0308353,7.8580011 C52.9310474,8.01344034 52.7591003,8.10735969 52.5745257,8.10724227 L52.5745257,8.11266808 Z M47.0460705,7.02750649 L51.7311653,7.02750649 L50.8888889,5.18273178 C50.8237192,5.03970589 50.8237192,4.8754156 50.8888889,4.73238971 L51.7311653,2.887615 L47.0460705,2.887615 L47.0460705,7.02750649 Z" id="Shape"></path>
                        <path d="M40.4336043,11.3941967 C40.134263,11.3941967 39.8915989,11.151275 39.8915989,10.8516159 L39.8915989,3.03845247 C39.8915989,2.73879337 40.134263,2.49587167 40.4336043,2.49587167 C40.7329457,2.49587167 40.9756098,2.73879337 40.9756098,3.03845247 L40.9756098,10.8516159 C40.9756098,11.151275 40.7329457,11.3941967 40.4336043,11.3941967 L40.4336043,11.3941967 Z" id="Path"></path>
                        <path d="M0.54200542,51.1111111 C0.242664092,51.1111111 0,50.8681894 0,50.5685303 L0,36.9432413 C0,36.6435822 0.242664092,36.4006605 0.54200542,36.4006605 L6.93766938,36.4006605 C7.2370107,36.4006605 7.4796748,36.6435822 7.4796748,36.9432413 C7.4796748,37.2429004 7.2370107,37.4858221 6.93766938,37.4858221 L1.08401084,37.4858221 L1.08401084,50.5685303 C1.08401084,50.8681894 0.841346748,51.1111111 0.54200542,51.1111111 L0.54200542,51.1111111 Z" id="Path"></path>
                        <path d="M52.7913279,51.1111111 C52.4919866,51.1111111 52.2493225,50.8681894 52.2493225,50.5685303 L52.2493225,37.4858221 L46.395664,37.4858221 C46.0963226,37.4858221 45.8536585,37.2429004 45.8536585,36.9432413 C45.8536585,36.6435822 46.0963226,36.4006605 46.395664,36.4006605 L52.7913279,36.4006605 C53.0906692,36.4006605 53.3333333,36.6435822 53.3333333,36.9432413 L53.3333333,50.5685303 C53.3333333,50.7124317 53.2762294,50.8504392 53.1745836,50.9521929 C53.0729379,51.0539465 52.9350767,51.1111111 52.7913279,51.1111111 L52.7913279,51.1111111 Z" id="Path"></path>
                        <path d="M51.7615176,37.4858221 C51.7210635,37.4857263 51.6807323,37.4813615 51.6411924,37.4728002 C51.5005901,37.4409888 51.378438,37.3544197 51.301747,37.2322355 C51.225056,37.1100513 51.2001443,36.9623181 51.2325203,36.8217032 C51.2325203,36.8032555 51.4785908,35.6594952 50.9073171,34.8684124 C50.5821138,34.4169851 50.0292683,34.1478651 49.2672087,34.0686483 C48.9757976,34.0388953 48.7607272,33.7827475 48.7815718,33.4902571 C48.7815718,33.4815758 48.8422764,32.3974994 48.1929539,31.7539986 C47.804878,31.3676811 47.2119241,31.1983958 46.4325203,31.2526539 C46.2388804,31.2658354 46.052925,31.1746003 45.9447017,31.013316 C45.8364783,30.8520316 45.8224288,30.645201 45.9078453,30.4707352 C45.9932619,30.2962693 46.1651677,30.1806738 46.3588076,30.1674923 C47.4677507,30.0904459 48.3447154,30.3682472 48.9604336,30.9900448 C49.6108401,31.6411418 49.79729,32.5179523 49.8460705,33.0627035 C50.699187,33.2374145 51.3506775,33.6334985 51.7864499,34.2433593 C52.6428184,35.437037 52.299187,36.9974994 52.2840108,37.0647794 C52.2279284,37.3091092 52.0119346,37.4831642 51.7615176,37.4858221 Z" id="Path"></path>
                        <path d="M1.57073171,37.4858221 C1.31868994,37.4851687 1.10035914,37.3106784 1.04390244,37.0647794 C1.02872629,36.9985846 0.685094851,35.437037 1.54146341,34.2433593 C1.97506775,33.6334985 2.62547425,33.2374145 3.48184282,33.0627035 C3.53062331,32.5201227 3.71598916,31.6454824 4.36747967,30.9900448 C4.98644986,30.3693324 5.86558266,30.091531 6.97452575,30.1674923 C7.16816564,30.1806738 7.34007149,30.2962693 7.42548804,30.4707352 C7.51090459,30.645201 7.49685502,30.8520316 7.38863167,31.013316 C7.28040832,31.1746003 7.0944529,31.2658354 6.90081301,31.2526539 C6.11815718,31.1983958 5.52411924,31.3687662 5.13495935,31.7594244 C4.49322493,32.4040104 4.55067751,33.482661 4.55176152,33.4956829 C4.57260616,33.7881733 4.35753573,34.0443212 4.06612466,34.0740741 C3.30731707,34.1532909 2.75230352,34.4224109 2.42601626,34.8738382 C1.85365854,35.6681765 2.10081301,36.8162774 2.10081301,36.827129 C2.13312982,36.9680494 2.10792442,37.1160535 2.03079069,37.2382945 C1.95365696,37.3605356 1.83097538,37.4469019 1.6899729,37.478226 C1.65066724,37.4854815 1.61063904,37.4880315 1.57073171,37.4858221 L1.57073171,37.4858221 Z" id="Path"></path>
                        <path d="M42.2222222,40.9105921 C41.9228809,40.9105921 41.6802168,40.6676704 41.6802168,40.3680113 L41.6802168,24.1991036 C41.6802168,23.8994445 41.9228809,23.6565228 42.2222222,23.6565228 C42.5215636,23.6565228 42.7642276,23.8994445 42.7642276,24.1991036 L42.7642276,40.3680113 C42.7642276,40.5119127 42.7071237,40.6499202 42.6054779,40.7516739 C42.5038322,40.8534275 42.365971,40.9105921 42.2222222,40.9105921 L42.2222222,40.9105921 Z" id="Path"></path>
                        <path d="M44.3360434,40.9105921 C44.036702,40.9105921 43.7940379,40.6676704 43.7940379,40.3680113 L43.7940379,24.1991036 C43.7940379,23.8994445 44.036702,23.6565228 44.3360434,23.6565228 C44.6353847,23.6565228 44.8780488,23.8994445 44.8780488,24.1991036 L44.8780488,40.3680113 C44.8780488,40.6676704 44.6353847,40.9105921 44.3360434,40.9105921 L44.3360434,40.9105921 Z" id="Path"></path>
                        <path d="M9.05149051,40.9105921 C8.75214919,40.9105921 8.50948509,40.6676704 8.50948509,40.3680113 L8.50948509,24.1991036 C8.50948509,23.8994445 8.75214919,23.6565228 9.05149051,23.6565228 C9.35083184,23.6565228 9.59349593,23.8994445 9.59349593,24.1991036 L9.59349593,40.3680113 C9.59349593,40.5119127 9.53639196,40.6499202 9.43474622,40.7516739 C9.33310049,40.8534275 9.19523929,40.9105921 9.05149051,40.9105921 L9.05149051,40.9105921 Z" id="Path"></path>
                        <path d="M11.1653117,40.9105921 C10.8659703,40.9105921 10.6233062,40.6676704 10.6233062,40.3680113 L10.6233062,24.1991036 C10.6233062,23.8994445 10.8659703,23.6565228 11.1653117,23.6565228 C11.464653,23.6565228 11.7073171,23.8994445 11.7073171,24.1991036 L11.7073171,40.3680113 C11.7073171,40.6676704 11.464653,40.9105921 11.1653117,40.9105921 L11.1653117,40.9105921 Z" id="Path"></path>
                        <path d="M20.2168022,40.9105921 C19.9174608,40.9105921 19.6747967,40.6676704 19.6747967,40.3680113 L19.6747967,28.9738146 C19.6747967,28.6741555 19.9174608,28.4312338 20.2168022,28.4312338 C20.5161435,28.4312338 20.7588076,28.6741555 20.7588076,28.9738146 L20.7588076,40.3680113 C20.7588076,40.6676704 20.5161435,40.9105921 20.2168022,40.9105921 L20.2168022,40.9105921 Z" id="Path"></path>
                        <path d="M22.3306233,40.9105921 C22.031282,40.9105921 21.7886179,40.6676704 21.7886179,40.3680113 L21.7886179,30.2760085 C21.7886179,29.9763494 22.031282,29.7334277 22.3306233,29.7334277 C22.6299646,29.7334277 22.8726287,29.9763494 22.8726287,30.2760085 L22.8726287,40.3680113 C22.8726287,40.6676704 22.6299646,40.9105921 22.3306233,40.9105921 L22.3306233,40.9105921 Z" id="Path"></path>
                        <path d="M33.3875339,40.9105921 C33.0881925,40.9105921 32.8455285,40.6676704 32.8455285,40.3680113 L32.8455285,28.9738146 C32.8455285,28.6741555 33.0881926,28.4312338 33.3875339,28.4312338 C33.6868752,28.4312338 33.9295393,28.6741555 33.9295393,28.9738146 L33.9295393,40.3680113 C33.9295393,40.6676704 33.6868752,40.9105921 33.3875339,40.9105921 L33.3875339,40.9105921 Z" id="Path"></path>
                        <path d="M31.2737127,40.9105921 C30.9743714,40.9105921 30.7317073,40.6676704 30.7317073,40.3680113 L30.7317073,30.2760085 C30.7317073,29.9763494 30.9743714,29.7334277 31.2737127,29.7334277 C31.5730541,29.7334277 31.8157182,29.9763494 31.8157182,30.2760085 L31.8157182,40.3680113 C31.8157182,40.6676704 31.5730541,40.9105921 31.2737127,40.9105921 L31.2737127,40.9105921 Z" id="Path"></path>
                        <path d="M10.0813008,16.9285209 C9.83806871,16.9282835 9.62478132,16.7658679 9.55962962,16.531275 C9.49447791,16.2966821 9.59341912,16.0473694 9.80162602,15.9214909 L26.4140921,5.91087521 C26.5847927,5.80929013 26.7973211,5.80929013 26.9680217,5.91087521 L43.6346883,15.7044586 C43.8080198,15.7993575 43.9160415,15.9811508 43.9166167,16.1789211 C43.9171873,16.3766914 43.8102206,16.5591087 43.6374419,16.6550124 C43.4646631,16.7509161 43.2534433,16.7451134 43.0861789,16.6398679 L26.697019,7.00688842 L10.3609756,16.8503892 C10.276584,16.9014112 10.1798891,16.9285209 10.0813008,16.9285209 Z" id="Path"></path>
                    </g>
                </g>
            </g>
        </g>
    </g>
</svg>